%TF.GenerationSoftware,KiCad,Pcbnew,10.0.6*%
%TF.CreationDate,2026-09-05T09:10:42-04:00*%
%TF.ProjectId,mmWave Presence Lighting Node,6d6d5761-7665-4205-9072-6573656e6365,rev?*%
%TF.SameCoordinates,Original*%
%TF.FileFunction,Legend,Bot*%
%TF.FilePolarity,Positive*%
%FSLAX46Y46*%
G04 Gerber Fmt 4.6, Leading zero omitted, Abs format (unit mm)*
G04 Created by KiCad (PCBNEW 10.0.6) date 2026-09-05 09:10:42*
%MOMM*%
%LPD*%
G01*
G04 APERTURE LIST*
%ADD10C,0.150000*%
%ADD11C,0.250000*%
%ADD12C,0.120000*%
G04 APERTURE END LIST*
D10*
X60287030Y-56594295D02*
X59753696Y-57394295D01*
X59753696Y-56594295D02*
X60287030Y-57394295D01*
X59448934Y-57394295D02*
X59448934Y-56860961D01*
X59448934Y-56594295D02*
X59487030Y-56632390D01*
X59487030Y-56632390D02*
X59448934Y-56670485D01*
X59448934Y-56670485D02*
X59410839Y-56632390D01*
X59410839Y-56632390D02*
X59448934Y-56594295D01*
X59448934Y-56594295D02*
X59448934Y-56670485D01*
X58725125Y-57394295D02*
X58725125Y-56975247D01*
X58725125Y-56975247D02*
X58763220Y-56899057D01*
X58763220Y-56899057D02*
X58839411Y-56860961D01*
X58839411Y-56860961D02*
X58991792Y-56860961D01*
X58991792Y-56860961D02*
X59067982Y-56899057D01*
X58725125Y-57356200D02*
X58801316Y-57394295D01*
X58801316Y-57394295D02*
X58991792Y-57394295D01*
X58991792Y-57394295D02*
X59067982Y-57356200D01*
X59067982Y-57356200D02*
X59106078Y-57280009D01*
X59106078Y-57280009D02*
X59106078Y-57203819D01*
X59106078Y-57203819D02*
X59067982Y-57127628D01*
X59067982Y-57127628D02*
X58991792Y-57089533D01*
X58991792Y-57089533D02*
X58801316Y-57089533D01*
X58801316Y-57089533D02*
X58725125Y-57051438D01*
X58229887Y-57394295D02*
X58306077Y-57356200D01*
X58306077Y-57356200D02*
X58344172Y-57318104D01*
X58344172Y-57318104D02*
X58382268Y-57241914D01*
X58382268Y-57241914D02*
X58382268Y-57013342D01*
X58382268Y-57013342D02*
X58344172Y-56937152D01*
X58344172Y-56937152D02*
X58306077Y-56899057D01*
X58306077Y-56899057D02*
X58229887Y-56860961D01*
X58229887Y-56860961D02*
X58115601Y-56860961D01*
X58115601Y-56860961D02*
X58039410Y-56899057D01*
X58039410Y-56899057D02*
X58001315Y-56937152D01*
X58001315Y-56937152D02*
X57963220Y-57013342D01*
X57963220Y-57013342D02*
X57963220Y-57241914D01*
X57963220Y-57241914D02*
X58001315Y-57318104D01*
X58001315Y-57318104D02*
X58039410Y-57356200D01*
X58039410Y-57356200D02*
X58115601Y-57394295D01*
X58115601Y-57394295D02*
X58229887Y-57394295D01*
X57010838Y-56975247D02*
X56744172Y-56975247D01*
X56629886Y-57394295D02*
X57010838Y-57394295D01*
X57010838Y-57394295D02*
X57010838Y-56594295D01*
X57010838Y-56594295D02*
X56629886Y-56594295D01*
X56325124Y-57356200D02*
X56210838Y-57394295D01*
X56210838Y-57394295D02*
X56020362Y-57394295D01*
X56020362Y-57394295D02*
X55944171Y-57356200D01*
X55944171Y-57356200D02*
X55906076Y-57318104D01*
X55906076Y-57318104D02*
X55867981Y-57241914D01*
X55867981Y-57241914D02*
X55867981Y-57165723D01*
X55867981Y-57165723D02*
X55906076Y-57089533D01*
X55906076Y-57089533D02*
X55944171Y-57051438D01*
X55944171Y-57051438D02*
X56020362Y-57013342D01*
X56020362Y-57013342D02*
X56172743Y-56975247D01*
X56172743Y-56975247D02*
X56248933Y-56937152D01*
X56248933Y-56937152D02*
X56287028Y-56899057D01*
X56287028Y-56899057D02*
X56325124Y-56822866D01*
X56325124Y-56822866D02*
X56325124Y-56746676D01*
X56325124Y-56746676D02*
X56287028Y-56670485D01*
X56287028Y-56670485D02*
X56248933Y-56632390D01*
X56248933Y-56632390D02*
X56172743Y-56594295D01*
X56172743Y-56594295D02*
X55982266Y-56594295D01*
X55982266Y-56594295D02*
X55867981Y-56632390D01*
X55525123Y-57394295D02*
X55525123Y-56594295D01*
X55525123Y-56594295D02*
X55220361Y-56594295D01*
X55220361Y-56594295D02*
X55144171Y-56632390D01*
X55144171Y-56632390D02*
X55106076Y-56670485D01*
X55106076Y-56670485D02*
X55067980Y-56746676D01*
X55067980Y-56746676D02*
X55067980Y-56860961D01*
X55067980Y-56860961D02*
X55106076Y-56937152D01*
X55106076Y-56937152D02*
X55144171Y-56975247D01*
X55144171Y-56975247D02*
X55220361Y-57013342D01*
X55220361Y-57013342D02*
X55525123Y-57013342D01*
X54801314Y-56594295D02*
X54306076Y-56594295D01*
X54306076Y-56594295D02*
X54572742Y-56899057D01*
X54572742Y-56899057D02*
X54458457Y-56899057D01*
X54458457Y-56899057D02*
X54382266Y-56937152D01*
X54382266Y-56937152D02*
X54344171Y-56975247D01*
X54344171Y-56975247D02*
X54306076Y-57051438D01*
X54306076Y-57051438D02*
X54306076Y-57241914D01*
X54306076Y-57241914D02*
X54344171Y-57318104D01*
X54344171Y-57318104D02*
X54382266Y-57356200D01*
X54382266Y-57356200D02*
X54458457Y-57394295D01*
X54458457Y-57394295D02*
X54687028Y-57394295D01*
X54687028Y-57394295D02*
X54763219Y-57356200D01*
X54763219Y-57356200D02*
X54801314Y-57318104D01*
X54001314Y-56670485D02*
X53963218Y-56632390D01*
X53963218Y-56632390D02*
X53887028Y-56594295D01*
X53887028Y-56594295D02*
X53696552Y-56594295D01*
X53696552Y-56594295D02*
X53620361Y-56632390D01*
X53620361Y-56632390D02*
X53582266Y-56670485D01*
X53582266Y-56670485D02*
X53544171Y-56746676D01*
X53544171Y-56746676D02*
X53544171Y-56822866D01*
X53544171Y-56822866D02*
X53582266Y-56937152D01*
X53582266Y-56937152D02*
X54039409Y-57394295D01*
X54039409Y-57394295D02*
X53544171Y-57394295D01*
X52744170Y-57318104D02*
X52782266Y-57356200D01*
X52782266Y-57356200D02*
X52896551Y-57394295D01*
X52896551Y-57394295D02*
X52972742Y-57394295D01*
X52972742Y-57394295D02*
X53087028Y-57356200D01*
X53087028Y-57356200D02*
X53163218Y-57280009D01*
X53163218Y-57280009D02*
X53201313Y-57203819D01*
X53201313Y-57203819D02*
X53239409Y-57051438D01*
X53239409Y-57051438D02*
X53239409Y-56937152D01*
X53239409Y-56937152D02*
X53201313Y-56784771D01*
X53201313Y-56784771D02*
X53163218Y-56708580D01*
X53163218Y-56708580D02*
X53087028Y-56632390D01*
X53087028Y-56632390D02*
X52972742Y-56594295D01*
X52972742Y-56594295D02*
X52896551Y-56594295D01*
X52896551Y-56594295D02*
X52782266Y-56632390D01*
X52782266Y-56632390D02*
X52744170Y-56670485D01*
X52477504Y-56594295D02*
X51982266Y-56594295D01*
X51982266Y-56594295D02*
X52248932Y-56899057D01*
X52248932Y-56899057D02*
X52134647Y-56899057D01*
X52134647Y-56899057D02*
X52058456Y-56937152D01*
X52058456Y-56937152D02*
X52020361Y-56975247D01*
X52020361Y-56975247D02*
X51982266Y-57051438D01*
X51982266Y-57051438D02*
X51982266Y-57241914D01*
X51982266Y-57241914D02*
X52020361Y-57318104D01*
X52020361Y-57318104D02*
X52058456Y-57356200D01*
X52058456Y-57356200D02*
X52134647Y-57394295D01*
X52134647Y-57394295D02*
X52363218Y-57394295D01*
X52363218Y-57394295D02*
X52439409Y-57356200D01*
X52439409Y-57356200D02*
X52477504Y-57318104D01*
X76787030Y-76594295D02*
X76291792Y-76594295D01*
X76291792Y-76594295D02*
X76558458Y-76899057D01*
X76558458Y-76899057D02*
X76444173Y-76899057D01*
X76444173Y-76899057D02*
X76367982Y-76937152D01*
X76367982Y-76937152D02*
X76329887Y-76975247D01*
X76329887Y-76975247D02*
X76291792Y-77051438D01*
X76291792Y-77051438D02*
X76291792Y-77241914D01*
X76291792Y-77241914D02*
X76329887Y-77318104D01*
X76329887Y-77318104D02*
X76367982Y-77356200D01*
X76367982Y-77356200D02*
X76444173Y-77394295D01*
X76444173Y-77394295D02*
X76672744Y-77394295D01*
X76672744Y-77394295D02*
X76748935Y-77356200D01*
X76748935Y-77356200D02*
X76787030Y-77318104D01*
X76063220Y-76594295D02*
X75796553Y-77394295D01*
X75796553Y-77394295D02*
X75529887Y-76594295D01*
X75339411Y-76594295D02*
X74844173Y-76594295D01*
X74844173Y-76594295D02*
X75110839Y-76899057D01*
X75110839Y-76899057D02*
X74996554Y-76899057D01*
X74996554Y-76899057D02*
X74920363Y-76937152D01*
X74920363Y-76937152D02*
X74882268Y-76975247D01*
X74882268Y-76975247D02*
X74844173Y-77051438D01*
X74844173Y-77051438D02*
X74844173Y-77241914D01*
X74844173Y-77241914D02*
X74882268Y-77318104D01*
X74882268Y-77318104D02*
X74920363Y-77356200D01*
X74920363Y-77356200D02*
X74996554Y-77394295D01*
X74996554Y-77394295D02*
X75225125Y-77394295D01*
X75225125Y-77394295D02*
X75301316Y-77356200D01*
X75301316Y-77356200D02*
X75339411Y-77318104D01*
X73663220Y-77699057D02*
X73701315Y-77660961D01*
X73701315Y-77660961D02*
X73777506Y-77546676D01*
X73777506Y-77546676D02*
X73815601Y-77470485D01*
X73815601Y-77470485D02*
X73853696Y-77356200D01*
X73853696Y-77356200D02*
X73891791Y-77165723D01*
X73891791Y-77165723D02*
X73891791Y-77013342D01*
X73891791Y-77013342D02*
X73853696Y-76822866D01*
X73853696Y-76822866D02*
X73815601Y-76708580D01*
X73815601Y-76708580D02*
X73777506Y-76632390D01*
X73777506Y-76632390D02*
X73701315Y-76518104D01*
X73701315Y-76518104D02*
X73663220Y-76480009D01*
X72901315Y-77394295D02*
X73167982Y-77013342D01*
X73358458Y-77394295D02*
X73358458Y-76594295D01*
X73358458Y-76594295D02*
X73053696Y-76594295D01*
X73053696Y-76594295D02*
X72977506Y-76632390D01*
X72977506Y-76632390D02*
X72939411Y-76670485D01*
X72939411Y-76670485D02*
X72901315Y-76746676D01*
X72901315Y-76746676D02*
X72901315Y-76860961D01*
X72901315Y-76860961D02*
X72939411Y-76937152D01*
X72939411Y-76937152D02*
X72977506Y-76975247D01*
X72977506Y-76975247D02*
X73053696Y-77013342D01*
X73053696Y-77013342D02*
X73358458Y-77013342D01*
X72558458Y-76975247D02*
X72291792Y-76975247D01*
X72177506Y-77394295D02*
X72558458Y-77394295D01*
X72558458Y-77394295D02*
X72558458Y-76594295D01*
X72558458Y-76594295D02*
X72177506Y-76594295D01*
X71834648Y-77394295D02*
X71834648Y-76594295D01*
X71834648Y-76594295D02*
X71644172Y-76594295D01*
X71644172Y-76594295D02*
X71529886Y-76632390D01*
X71529886Y-76632390D02*
X71453696Y-76708580D01*
X71453696Y-76708580D02*
X71415601Y-76784771D01*
X71415601Y-76784771D02*
X71377505Y-76937152D01*
X71377505Y-76937152D02*
X71377505Y-77051438D01*
X71377505Y-77051438D02*
X71415601Y-77203819D01*
X71415601Y-77203819D02*
X71453696Y-77280009D01*
X71453696Y-77280009D02*
X71529886Y-77356200D01*
X71529886Y-77356200D02*
X71644172Y-77394295D01*
X71644172Y-77394295D02*
X71834648Y-77394295D01*
X71110839Y-77699057D02*
X71072744Y-77660961D01*
X71072744Y-77660961D02*
X70996553Y-77546676D01*
X70996553Y-77546676D02*
X70958458Y-77470485D01*
X70958458Y-77470485D02*
X70920363Y-77356200D01*
X70920363Y-77356200D02*
X70882267Y-77165723D01*
X70882267Y-77165723D02*
X70882267Y-77013342D01*
X70882267Y-77013342D02*
X70920363Y-76822866D01*
X70920363Y-76822866D02*
X70958458Y-76708580D01*
X70958458Y-76708580D02*
X70996553Y-76632390D01*
X70996553Y-76632390D02*
X71072744Y-76518104D01*
X71072744Y-76518104D02*
X71110839Y-76480009D01*
X77248935Y-69856200D02*
X77134649Y-69894295D01*
X77134649Y-69894295D02*
X76944173Y-69894295D01*
X76944173Y-69894295D02*
X76867982Y-69856200D01*
X76867982Y-69856200D02*
X76829887Y-69818104D01*
X76829887Y-69818104D02*
X76791792Y-69741914D01*
X76791792Y-69741914D02*
X76791792Y-69665723D01*
X76791792Y-69665723D02*
X76829887Y-69589533D01*
X76829887Y-69589533D02*
X76867982Y-69551438D01*
X76867982Y-69551438D02*
X76944173Y-69513342D01*
X76944173Y-69513342D02*
X77096554Y-69475247D01*
X77096554Y-69475247D02*
X77172744Y-69437152D01*
X77172744Y-69437152D02*
X77210839Y-69399057D01*
X77210839Y-69399057D02*
X77248935Y-69322866D01*
X77248935Y-69322866D02*
X77248935Y-69246676D01*
X77248935Y-69246676D02*
X77210839Y-69170485D01*
X77210839Y-69170485D02*
X77172744Y-69132390D01*
X77172744Y-69132390D02*
X77096554Y-69094295D01*
X77096554Y-69094295D02*
X76906077Y-69094295D01*
X76906077Y-69094295D02*
X76791792Y-69132390D01*
X76448934Y-69894295D02*
X76448934Y-69094295D01*
X76448934Y-69094295D02*
X76258458Y-69094295D01*
X76258458Y-69094295D02*
X76144172Y-69132390D01*
X76144172Y-69132390D02*
X76067982Y-69208580D01*
X76067982Y-69208580D02*
X76029887Y-69284771D01*
X76029887Y-69284771D02*
X75991791Y-69437152D01*
X75991791Y-69437152D02*
X75991791Y-69551438D01*
X75991791Y-69551438D02*
X76029887Y-69703819D01*
X76029887Y-69703819D02*
X76067982Y-69780009D01*
X76067982Y-69780009D02*
X76144172Y-69856200D01*
X76144172Y-69856200D02*
X76258458Y-69894295D01*
X76258458Y-69894295D02*
X76448934Y-69894295D01*
X75687030Y-69665723D02*
X75306077Y-69665723D01*
X75763220Y-69894295D02*
X75496553Y-69094295D01*
X75496553Y-69094295D02*
X75229887Y-69894295D01*
X74125125Y-70199057D02*
X74163220Y-70160961D01*
X74163220Y-70160961D02*
X74239411Y-70046676D01*
X74239411Y-70046676D02*
X74277506Y-69970485D01*
X74277506Y-69970485D02*
X74315601Y-69856200D01*
X74315601Y-69856200D02*
X74353696Y-69665723D01*
X74353696Y-69665723D02*
X74353696Y-69513342D01*
X74353696Y-69513342D02*
X74315601Y-69322866D01*
X74315601Y-69322866D02*
X74277506Y-69208580D01*
X74277506Y-69208580D02*
X74239411Y-69132390D01*
X74239411Y-69132390D02*
X74163220Y-69018104D01*
X74163220Y-69018104D02*
X74125125Y-68980009D01*
X73553697Y-69475247D02*
X73439411Y-69513342D01*
X73439411Y-69513342D02*
X73401316Y-69551438D01*
X73401316Y-69551438D02*
X73363220Y-69627628D01*
X73363220Y-69627628D02*
X73363220Y-69741914D01*
X73363220Y-69741914D02*
X73401316Y-69818104D01*
X73401316Y-69818104D02*
X73439411Y-69856200D01*
X73439411Y-69856200D02*
X73515601Y-69894295D01*
X73515601Y-69894295D02*
X73820363Y-69894295D01*
X73820363Y-69894295D02*
X73820363Y-69094295D01*
X73820363Y-69094295D02*
X73553697Y-69094295D01*
X73553697Y-69094295D02*
X73477506Y-69132390D01*
X73477506Y-69132390D02*
X73439411Y-69170485D01*
X73439411Y-69170485D02*
X73401316Y-69246676D01*
X73401316Y-69246676D02*
X73401316Y-69322866D01*
X73401316Y-69322866D02*
X73439411Y-69399057D01*
X73439411Y-69399057D02*
X73477506Y-69437152D01*
X73477506Y-69437152D02*
X73553697Y-69475247D01*
X73553697Y-69475247D02*
X73820363Y-69475247D01*
X72639411Y-69894295D02*
X73020363Y-69894295D01*
X73020363Y-69894295D02*
X73020363Y-69094295D01*
X72372744Y-69094295D02*
X72372744Y-69741914D01*
X72372744Y-69741914D02*
X72334649Y-69818104D01*
X72334649Y-69818104D02*
X72296554Y-69856200D01*
X72296554Y-69856200D02*
X72220363Y-69894295D01*
X72220363Y-69894295D02*
X72067982Y-69894295D01*
X72067982Y-69894295D02*
X71991792Y-69856200D01*
X71991792Y-69856200D02*
X71953697Y-69818104D01*
X71953697Y-69818104D02*
X71915601Y-69741914D01*
X71915601Y-69741914D02*
X71915601Y-69094295D01*
X71534649Y-69475247D02*
X71267983Y-69475247D01*
X71153697Y-69894295D02*
X71534649Y-69894295D01*
X71534649Y-69894295D02*
X71534649Y-69094295D01*
X71534649Y-69094295D02*
X71153697Y-69094295D01*
X70887030Y-70199057D02*
X70848935Y-70160961D01*
X70848935Y-70160961D02*
X70772744Y-70046676D01*
X70772744Y-70046676D02*
X70734649Y-69970485D01*
X70734649Y-69970485D02*
X70696554Y-69856200D01*
X70696554Y-69856200D02*
X70658458Y-69665723D01*
X70658458Y-69665723D02*
X70658458Y-69513342D01*
X70658458Y-69513342D02*
X70696554Y-69322866D01*
X70696554Y-69322866D02*
X70734649Y-69208580D01*
X70734649Y-69208580D02*
X70772744Y-69132390D01*
X70772744Y-69132390D02*
X70848935Y-69018104D01*
X70848935Y-69018104D02*
X70887030Y-68980009D01*
X77291792Y-74132390D02*
X77367982Y-74094295D01*
X77367982Y-74094295D02*
X77482268Y-74094295D01*
X77482268Y-74094295D02*
X77596554Y-74132390D01*
X77596554Y-74132390D02*
X77672744Y-74208580D01*
X77672744Y-74208580D02*
X77710839Y-74284771D01*
X77710839Y-74284771D02*
X77748935Y-74437152D01*
X77748935Y-74437152D02*
X77748935Y-74551438D01*
X77748935Y-74551438D02*
X77710839Y-74703819D01*
X77710839Y-74703819D02*
X77672744Y-74780009D01*
X77672744Y-74780009D02*
X77596554Y-74856200D01*
X77596554Y-74856200D02*
X77482268Y-74894295D01*
X77482268Y-74894295D02*
X77406077Y-74894295D01*
X77406077Y-74894295D02*
X77291792Y-74856200D01*
X77291792Y-74856200D02*
X77253696Y-74818104D01*
X77253696Y-74818104D02*
X77253696Y-74551438D01*
X77253696Y-74551438D02*
X77406077Y-74551438D01*
X76910839Y-74894295D02*
X76910839Y-74094295D01*
X76910839Y-74094295D02*
X76453696Y-74894295D01*
X76453696Y-74894295D02*
X76453696Y-74094295D01*
X76072744Y-74894295D02*
X76072744Y-74094295D01*
X76072744Y-74094295D02*
X75882268Y-74094295D01*
X75882268Y-74094295D02*
X75767982Y-74132390D01*
X75767982Y-74132390D02*
X75691792Y-74208580D01*
X75691792Y-74208580D02*
X75653697Y-74284771D01*
X75653697Y-74284771D02*
X75615601Y-74437152D01*
X75615601Y-74437152D02*
X75615601Y-74551438D01*
X75615601Y-74551438D02*
X75653697Y-74703819D01*
X75653697Y-74703819D02*
X75691792Y-74780009D01*
X75691792Y-74780009D02*
X75767982Y-74856200D01*
X75767982Y-74856200D02*
X75882268Y-74894295D01*
X75882268Y-74894295D02*
X76072744Y-74894295D01*
X74434649Y-75199057D02*
X74472744Y-75160961D01*
X74472744Y-75160961D02*
X74548935Y-75046676D01*
X74548935Y-75046676D02*
X74587030Y-74970485D01*
X74587030Y-74970485D02*
X74625125Y-74856200D01*
X74625125Y-74856200D02*
X74663220Y-74665723D01*
X74663220Y-74665723D02*
X74663220Y-74513342D01*
X74663220Y-74513342D02*
X74625125Y-74322866D01*
X74625125Y-74322866D02*
X74587030Y-74208580D01*
X74587030Y-74208580D02*
X74548935Y-74132390D01*
X74548935Y-74132390D02*
X74472744Y-74018104D01*
X74472744Y-74018104D02*
X74434649Y-73980009D01*
X73863221Y-74475247D02*
X73748935Y-74513342D01*
X73748935Y-74513342D02*
X73710840Y-74551438D01*
X73710840Y-74551438D02*
X73672744Y-74627628D01*
X73672744Y-74627628D02*
X73672744Y-74741914D01*
X73672744Y-74741914D02*
X73710840Y-74818104D01*
X73710840Y-74818104D02*
X73748935Y-74856200D01*
X73748935Y-74856200D02*
X73825125Y-74894295D01*
X73825125Y-74894295D02*
X74129887Y-74894295D01*
X74129887Y-74894295D02*
X74129887Y-74094295D01*
X74129887Y-74094295D02*
X73863221Y-74094295D01*
X73863221Y-74094295D02*
X73787030Y-74132390D01*
X73787030Y-74132390D02*
X73748935Y-74170485D01*
X73748935Y-74170485D02*
X73710840Y-74246676D01*
X73710840Y-74246676D02*
X73710840Y-74322866D01*
X73710840Y-74322866D02*
X73748935Y-74399057D01*
X73748935Y-74399057D02*
X73787030Y-74437152D01*
X73787030Y-74437152D02*
X73863221Y-74475247D01*
X73863221Y-74475247D02*
X74129887Y-74475247D01*
X72948935Y-74894295D02*
X73329887Y-74894295D01*
X73329887Y-74894295D02*
X73329887Y-74094295D01*
X72720364Y-74665723D02*
X72339411Y-74665723D01*
X72796554Y-74894295D02*
X72529887Y-74094295D01*
X72529887Y-74094295D02*
X72263221Y-74894295D01*
X71539411Y-74818104D02*
X71577507Y-74856200D01*
X71577507Y-74856200D02*
X71691792Y-74894295D01*
X71691792Y-74894295D02*
X71767983Y-74894295D01*
X71767983Y-74894295D02*
X71882269Y-74856200D01*
X71882269Y-74856200D02*
X71958459Y-74780009D01*
X71958459Y-74780009D02*
X71996554Y-74703819D01*
X71996554Y-74703819D02*
X72034650Y-74551438D01*
X72034650Y-74551438D02*
X72034650Y-74437152D01*
X72034650Y-74437152D02*
X71996554Y-74284771D01*
X71996554Y-74284771D02*
X71958459Y-74208580D01*
X71958459Y-74208580D02*
X71882269Y-74132390D01*
X71882269Y-74132390D02*
X71767983Y-74094295D01*
X71767983Y-74094295D02*
X71691792Y-74094295D01*
X71691792Y-74094295D02*
X71577507Y-74132390D01*
X71577507Y-74132390D02*
X71539411Y-74170485D01*
X71196554Y-74894295D02*
X71196554Y-74094295D01*
X70739411Y-74894295D02*
X71082269Y-74437152D01*
X70739411Y-74094295D02*
X71196554Y-74551438D01*
X70472745Y-75199057D02*
X70434650Y-75160961D01*
X70434650Y-75160961D02*
X70358459Y-75046676D01*
X70358459Y-75046676D02*
X70320364Y-74970485D01*
X70320364Y-74970485D02*
X70282269Y-74856200D01*
X70282269Y-74856200D02*
X70244173Y-74665723D01*
X70244173Y-74665723D02*
X70244173Y-74513342D01*
X70244173Y-74513342D02*
X70282269Y-74322866D01*
X70282269Y-74322866D02*
X70320364Y-74208580D01*
X70320364Y-74208580D02*
X70358459Y-74132390D01*
X70358459Y-74132390D02*
X70434650Y-74018104D01*
X70434650Y-74018104D02*
X70472745Y-73980009D01*
X78248935Y-72356200D02*
X78134649Y-72394295D01*
X78134649Y-72394295D02*
X77944173Y-72394295D01*
X77944173Y-72394295D02*
X77867982Y-72356200D01*
X77867982Y-72356200D02*
X77829887Y-72318104D01*
X77829887Y-72318104D02*
X77791792Y-72241914D01*
X77791792Y-72241914D02*
X77791792Y-72165723D01*
X77791792Y-72165723D02*
X77829887Y-72089533D01*
X77829887Y-72089533D02*
X77867982Y-72051438D01*
X77867982Y-72051438D02*
X77944173Y-72013342D01*
X77944173Y-72013342D02*
X78096554Y-71975247D01*
X78096554Y-71975247D02*
X78172744Y-71937152D01*
X78172744Y-71937152D02*
X78210839Y-71899057D01*
X78210839Y-71899057D02*
X78248935Y-71822866D01*
X78248935Y-71822866D02*
X78248935Y-71746676D01*
X78248935Y-71746676D02*
X78210839Y-71670485D01*
X78210839Y-71670485D02*
X78172744Y-71632390D01*
X78172744Y-71632390D02*
X78096554Y-71594295D01*
X78096554Y-71594295D02*
X77906077Y-71594295D01*
X77906077Y-71594295D02*
X77791792Y-71632390D01*
X76991791Y-72318104D02*
X77029887Y-72356200D01*
X77029887Y-72356200D02*
X77144172Y-72394295D01*
X77144172Y-72394295D02*
X77220363Y-72394295D01*
X77220363Y-72394295D02*
X77334649Y-72356200D01*
X77334649Y-72356200D02*
X77410839Y-72280009D01*
X77410839Y-72280009D02*
X77448934Y-72203819D01*
X77448934Y-72203819D02*
X77487030Y-72051438D01*
X77487030Y-72051438D02*
X77487030Y-71937152D01*
X77487030Y-71937152D02*
X77448934Y-71784771D01*
X77448934Y-71784771D02*
X77410839Y-71708580D01*
X77410839Y-71708580D02*
X77334649Y-71632390D01*
X77334649Y-71632390D02*
X77220363Y-71594295D01*
X77220363Y-71594295D02*
X77144172Y-71594295D01*
X77144172Y-71594295D02*
X77029887Y-71632390D01*
X77029887Y-71632390D02*
X76991791Y-71670485D01*
X76267982Y-72394295D02*
X76648934Y-72394295D01*
X76648934Y-72394295D02*
X76648934Y-71594295D01*
X75163220Y-72699057D02*
X75201315Y-72660961D01*
X75201315Y-72660961D02*
X75277506Y-72546676D01*
X75277506Y-72546676D02*
X75315601Y-72470485D01*
X75315601Y-72470485D02*
X75353696Y-72356200D01*
X75353696Y-72356200D02*
X75391791Y-72165723D01*
X75391791Y-72165723D02*
X75391791Y-72013342D01*
X75391791Y-72013342D02*
X75353696Y-71822866D01*
X75353696Y-71822866D02*
X75315601Y-71708580D01*
X75315601Y-71708580D02*
X75277506Y-71632390D01*
X75277506Y-71632390D02*
X75201315Y-71518104D01*
X75201315Y-71518104D02*
X75163220Y-71480009D01*
X74706077Y-72013342D02*
X74706077Y-72394295D01*
X74972744Y-71594295D02*
X74706077Y-72013342D01*
X74706077Y-72013342D02*
X74439411Y-71594295D01*
X74172744Y-71975247D02*
X73906078Y-71975247D01*
X73791792Y-72394295D02*
X74172744Y-72394295D01*
X74172744Y-72394295D02*
X74172744Y-71594295D01*
X74172744Y-71594295D02*
X73791792Y-71594295D01*
X73067982Y-72394295D02*
X73448934Y-72394295D01*
X73448934Y-72394295D02*
X73448934Y-71594295D01*
X72420363Y-72394295D02*
X72801315Y-72394295D01*
X72801315Y-72394295D02*
X72801315Y-71594295D01*
X72001315Y-71594295D02*
X71848934Y-71594295D01*
X71848934Y-71594295D02*
X71772744Y-71632390D01*
X71772744Y-71632390D02*
X71696553Y-71708580D01*
X71696553Y-71708580D02*
X71658458Y-71860961D01*
X71658458Y-71860961D02*
X71658458Y-72127628D01*
X71658458Y-72127628D02*
X71696553Y-72280009D01*
X71696553Y-72280009D02*
X71772744Y-72356200D01*
X71772744Y-72356200D02*
X71848934Y-72394295D01*
X71848934Y-72394295D02*
X72001315Y-72394295D01*
X72001315Y-72394295D02*
X72077506Y-72356200D01*
X72077506Y-72356200D02*
X72153696Y-72280009D01*
X72153696Y-72280009D02*
X72191792Y-72127628D01*
X72191792Y-72127628D02*
X72191792Y-71860961D01*
X72191792Y-71860961D02*
X72153696Y-71708580D01*
X72153696Y-71708580D02*
X72077506Y-71632390D01*
X72077506Y-71632390D02*
X72001315Y-71594295D01*
X71391792Y-71594295D02*
X71201316Y-72394295D01*
X71201316Y-72394295D02*
X71048935Y-71822866D01*
X71048935Y-71822866D02*
X70896554Y-72394295D01*
X70896554Y-72394295D02*
X70706078Y-71594295D01*
X70477506Y-72699057D02*
X70439411Y-72660961D01*
X70439411Y-72660961D02*
X70363220Y-72546676D01*
X70363220Y-72546676D02*
X70325125Y-72470485D01*
X70325125Y-72470485D02*
X70287030Y-72356200D01*
X70287030Y-72356200D02*
X70248934Y-72165723D01*
X70248934Y-72165723D02*
X70248934Y-72013342D01*
X70248934Y-72013342D02*
X70287030Y-71822866D01*
X70287030Y-71822866D02*
X70325125Y-71708580D01*
X70325125Y-71708580D02*
X70363220Y-71632390D01*
X70363220Y-71632390D02*
X70439411Y-71518104D01*
X70439411Y-71518104D02*
X70477506Y-71480009D01*
X43405704Y-63325125D02*
X42605704Y-63058458D01*
X42605704Y-63058458D02*
X43405704Y-62791792D01*
X43024752Y-62258459D02*
X42986657Y-62144173D01*
X42986657Y-62144173D02*
X42948561Y-62106078D01*
X42948561Y-62106078D02*
X42872371Y-62067982D01*
X42872371Y-62067982D02*
X42758085Y-62067982D01*
X42758085Y-62067982D02*
X42681895Y-62106078D01*
X42681895Y-62106078D02*
X42643800Y-62144173D01*
X42643800Y-62144173D02*
X42605704Y-62220363D01*
X42605704Y-62220363D02*
X42605704Y-62525125D01*
X42605704Y-62525125D02*
X43405704Y-62525125D01*
X43405704Y-62525125D02*
X43405704Y-62258459D01*
X43405704Y-62258459D02*
X43367609Y-62182268D01*
X43367609Y-62182268D02*
X43329514Y-62144173D01*
X43329514Y-62144173D02*
X43253323Y-62106078D01*
X43253323Y-62106078D02*
X43177133Y-62106078D01*
X43177133Y-62106078D02*
X43100942Y-62144173D01*
X43100942Y-62144173D02*
X43062847Y-62182268D01*
X43062847Y-62182268D02*
X43024752Y-62258459D01*
X43024752Y-62258459D02*
X43024752Y-62525125D01*
X43405704Y-61725125D02*
X42758085Y-61725125D01*
X42758085Y-61725125D02*
X42681895Y-61687030D01*
X42681895Y-61687030D02*
X42643800Y-61648935D01*
X42643800Y-61648935D02*
X42605704Y-61572744D01*
X42605704Y-61572744D02*
X42605704Y-61420363D01*
X42605704Y-61420363D02*
X42643800Y-61344173D01*
X42643800Y-61344173D02*
X42681895Y-61306078D01*
X42681895Y-61306078D02*
X42758085Y-61267982D01*
X42758085Y-61267982D02*
X43405704Y-61267982D01*
X42643800Y-60925126D02*
X42605704Y-60810840D01*
X42605704Y-60810840D02*
X42605704Y-60620364D01*
X42605704Y-60620364D02*
X42643800Y-60544173D01*
X42643800Y-60544173D02*
X42681895Y-60506078D01*
X42681895Y-60506078D02*
X42758085Y-60467983D01*
X42758085Y-60467983D02*
X42834276Y-60467983D01*
X42834276Y-60467983D02*
X42910466Y-60506078D01*
X42910466Y-60506078D02*
X42948561Y-60544173D01*
X42948561Y-60544173D02*
X42986657Y-60620364D01*
X42986657Y-60620364D02*
X43024752Y-60772745D01*
X43024752Y-60772745D02*
X43062847Y-60848935D01*
X43062847Y-60848935D02*
X43100942Y-60887030D01*
X43100942Y-60887030D02*
X43177133Y-60925126D01*
X43177133Y-60925126D02*
X43253323Y-60925126D01*
X43253323Y-60925126D02*
X43329514Y-60887030D01*
X43329514Y-60887030D02*
X43367609Y-60848935D01*
X43367609Y-60848935D02*
X43405704Y-60772745D01*
X43405704Y-60772745D02*
X43405704Y-60582268D01*
X43405704Y-60582268D02*
X43367609Y-60467983D01*
X45867609Y-54791792D02*
X45905704Y-54867982D01*
X45905704Y-54867982D02*
X45905704Y-54982268D01*
X45905704Y-54982268D02*
X45867609Y-55096554D01*
X45867609Y-55096554D02*
X45791419Y-55172744D01*
X45791419Y-55172744D02*
X45715228Y-55210839D01*
X45715228Y-55210839D02*
X45562847Y-55248935D01*
X45562847Y-55248935D02*
X45448561Y-55248935D01*
X45448561Y-55248935D02*
X45296180Y-55210839D01*
X45296180Y-55210839D02*
X45219990Y-55172744D01*
X45219990Y-55172744D02*
X45143800Y-55096554D01*
X45143800Y-55096554D02*
X45105704Y-54982268D01*
X45105704Y-54982268D02*
X45105704Y-54906077D01*
X45105704Y-54906077D02*
X45143800Y-54791792D01*
X45143800Y-54791792D02*
X45181895Y-54753696D01*
X45181895Y-54753696D02*
X45448561Y-54753696D01*
X45448561Y-54753696D02*
X45448561Y-54906077D01*
X45105704Y-54410839D02*
X45905704Y-54410839D01*
X45905704Y-54410839D02*
X45905704Y-54106077D01*
X45905704Y-54106077D02*
X45867609Y-54029887D01*
X45867609Y-54029887D02*
X45829514Y-53991792D01*
X45829514Y-53991792D02*
X45753323Y-53953696D01*
X45753323Y-53953696D02*
X45639038Y-53953696D01*
X45639038Y-53953696D02*
X45562847Y-53991792D01*
X45562847Y-53991792D02*
X45524752Y-54029887D01*
X45524752Y-54029887D02*
X45486657Y-54106077D01*
X45486657Y-54106077D02*
X45486657Y-54410839D01*
X45105704Y-53610839D02*
X45905704Y-53610839D01*
X45905704Y-53077506D02*
X45905704Y-52925125D01*
X45905704Y-52925125D02*
X45867609Y-52848935D01*
X45867609Y-52848935D02*
X45791419Y-52772744D01*
X45791419Y-52772744D02*
X45639038Y-52734649D01*
X45639038Y-52734649D02*
X45372371Y-52734649D01*
X45372371Y-52734649D02*
X45219990Y-52772744D01*
X45219990Y-52772744D02*
X45143800Y-52848935D01*
X45143800Y-52848935D02*
X45105704Y-52925125D01*
X45105704Y-52925125D02*
X45105704Y-53077506D01*
X45105704Y-53077506D02*
X45143800Y-53153697D01*
X45143800Y-53153697D02*
X45219990Y-53229887D01*
X45219990Y-53229887D02*
X45372371Y-53267983D01*
X45372371Y-53267983D02*
X45639038Y-53267983D01*
X45639038Y-53267983D02*
X45791419Y-53229887D01*
X45791419Y-53229887D02*
X45867609Y-53153697D01*
X45867609Y-53153697D02*
X45905704Y-53077506D01*
X45905704Y-52467983D02*
X45905704Y-51972745D01*
X45905704Y-51972745D02*
X45600942Y-52239411D01*
X45600942Y-52239411D02*
X45600942Y-52125126D01*
X45600942Y-52125126D02*
X45562847Y-52048935D01*
X45562847Y-52048935D02*
X45524752Y-52010840D01*
X45524752Y-52010840D02*
X45448561Y-51972745D01*
X45448561Y-51972745D02*
X45258085Y-51972745D01*
X45258085Y-51972745D02*
X45181895Y-52010840D01*
X45181895Y-52010840D02*
X45143800Y-52048935D01*
X45143800Y-52048935D02*
X45105704Y-52125126D01*
X45105704Y-52125126D02*
X45105704Y-52353697D01*
X45105704Y-52353697D02*
X45143800Y-52429888D01*
X45143800Y-52429888D02*
X45181895Y-52467983D01*
X48367609Y-54791792D02*
X48405704Y-54867982D01*
X48405704Y-54867982D02*
X48405704Y-54982268D01*
X48405704Y-54982268D02*
X48367609Y-55096554D01*
X48367609Y-55096554D02*
X48291419Y-55172744D01*
X48291419Y-55172744D02*
X48215228Y-55210839D01*
X48215228Y-55210839D02*
X48062847Y-55248935D01*
X48062847Y-55248935D02*
X47948561Y-55248935D01*
X47948561Y-55248935D02*
X47796180Y-55210839D01*
X47796180Y-55210839D02*
X47719990Y-55172744D01*
X47719990Y-55172744D02*
X47643800Y-55096554D01*
X47643800Y-55096554D02*
X47605704Y-54982268D01*
X47605704Y-54982268D02*
X47605704Y-54906077D01*
X47605704Y-54906077D02*
X47643800Y-54791792D01*
X47643800Y-54791792D02*
X47681895Y-54753696D01*
X47681895Y-54753696D02*
X47948561Y-54753696D01*
X47948561Y-54753696D02*
X47948561Y-54906077D01*
X47605704Y-54410839D02*
X48405704Y-54410839D01*
X48405704Y-54410839D02*
X48405704Y-54106077D01*
X48405704Y-54106077D02*
X48367609Y-54029887D01*
X48367609Y-54029887D02*
X48329514Y-53991792D01*
X48329514Y-53991792D02*
X48253323Y-53953696D01*
X48253323Y-53953696D02*
X48139038Y-53953696D01*
X48139038Y-53953696D02*
X48062847Y-53991792D01*
X48062847Y-53991792D02*
X48024752Y-54029887D01*
X48024752Y-54029887D02*
X47986657Y-54106077D01*
X47986657Y-54106077D02*
X47986657Y-54410839D01*
X47605704Y-53610839D02*
X48405704Y-53610839D01*
X48405704Y-53077506D02*
X48405704Y-52925125D01*
X48405704Y-52925125D02*
X48367609Y-52848935D01*
X48367609Y-52848935D02*
X48291419Y-52772744D01*
X48291419Y-52772744D02*
X48139038Y-52734649D01*
X48139038Y-52734649D02*
X47872371Y-52734649D01*
X47872371Y-52734649D02*
X47719990Y-52772744D01*
X47719990Y-52772744D02*
X47643800Y-52848935D01*
X47643800Y-52848935D02*
X47605704Y-52925125D01*
X47605704Y-52925125D02*
X47605704Y-53077506D01*
X47605704Y-53077506D02*
X47643800Y-53153697D01*
X47643800Y-53153697D02*
X47719990Y-53229887D01*
X47719990Y-53229887D02*
X47872371Y-53267983D01*
X47872371Y-53267983D02*
X48139038Y-53267983D01*
X48139038Y-53267983D02*
X48291419Y-53229887D01*
X48291419Y-53229887D02*
X48367609Y-53153697D01*
X48367609Y-53153697D02*
X48405704Y-53077506D01*
X48139038Y-52048935D02*
X47605704Y-52048935D01*
X48443800Y-52239411D02*
X47872371Y-52429888D01*
X47872371Y-52429888D02*
X47872371Y-51934649D01*
X48405704Y-63287030D02*
X48405704Y-62791792D01*
X48405704Y-62791792D02*
X48100942Y-63058458D01*
X48100942Y-63058458D02*
X48100942Y-62944173D01*
X48100942Y-62944173D02*
X48062847Y-62867982D01*
X48062847Y-62867982D02*
X48024752Y-62829887D01*
X48024752Y-62829887D02*
X47948561Y-62791792D01*
X47948561Y-62791792D02*
X47758085Y-62791792D01*
X47758085Y-62791792D02*
X47681895Y-62829887D01*
X47681895Y-62829887D02*
X47643800Y-62867982D01*
X47643800Y-62867982D02*
X47605704Y-62944173D01*
X47605704Y-62944173D02*
X47605704Y-63172744D01*
X47605704Y-63172744D02*
X47643800Y-63248935D01*
X47643800Y-63248935D02*
X47681895Y-63287030D01*
X48405704Y-62563220D02*
X47605704Y-62296553D01*
X47605704Y-62296553D02*
X48405704Y-62029887D01*
X48405704Y-61839411D02*
X48405704Y-61344173D01*
X48405704Y-61344173D02*
X48100942Y-61610839D01*
X48100942Y-61610839D02*
X48100942Y-61496554D01*
X48100942Y-61496554D02*
X48062847Y-61420363D01*
X48062847Y-61420363D02*
X48024752Y-61382268D01*
X48024752Y-61382268D02*
X47948561Y-61344173D01*
X47948561Y-61344173D02*
X47758085Y-61344173D01*
X47758085Y-61344173D02*
X47681895Y-61382268D01*
X47681895Y-61382268D02*
X47643800Y-61420363D01*
X47643800Y-61420363D02*
X47605704Y-61496554D01*
X47605704Y-61496554D02*
X47605704Y-61725125D01*
X47605704Y-61725125D02*
X47643800Y-61801316D01*
X47643800Y-61801316D02*
X47681895Y-61839411D01*
X50867609Y-54791792D02*
X50905704Y-54867982D01*
X50905704Y-54867982D02*
X50905704Y-54982268D01*
X50905704Y-54982268D02*
X50867609Y-55096554D01*
X50867609Y-55096554D02*
X50791419Y-55172744D01*
X50791419Y-55172744D02*
X50715228Y-55210839D01*
X50715228Y-55210839D02*
X50562847Y-55248935D01*
X50562847Y-55248935D02*
X50448561Y-55248935D01*
X50448561Y-55248935D02*
X50296180Y-55210839D01*
X50296180Y-55210839D02*
X50219990Y-55172744D01*
X50219990Y-55172744D02*
X50143800Y-55096554D01*
X50143800Y-55096554D02*
X50105704Y-54982268D01*
X50105704Y-54982268D02*
X50105704Y-54906077D01*
X50105704Y-54906077D02*
X50143800Y-54791792D01*
X50143800Y-54791792D02*
X50181895Y-54753696D01*
X50181895Y-54753696D02*
X50448561Y-54753696D01*
X50448561Y-54753696D02*
X50448561Y-54906077D01*
X50105704Y-54410839D02*
X50905704Y-54410839D01*
X50905704Y-54410839D02*
X50905704Y-54106077D01*
X50905704Y-54106077D02*
X50867609Y-54029887D01*
X50867609Y-54029887D02*
X50829514Y-53991792D01*
X50829514Y-53991792D02*
X50753323Y-53953696D01*
X50753323Y-53953696D02*
X50639038Y-53953696D01*
X50639038Y-53953696D02*
X50562847Y-53991792D01*
X50562847Y-53991792D02*
X50524752Y-54029887D01*
X50524752Y-54029887D02*
X50486657Y-54106077D01*
X50486657Y-54106077D02*
X50486657Y-54410839D01*
X50105704Y-53610839D02*
X50905704Y-53610839D01*
X50905704Y-53077506D02*
X50905704Y-52925125D01*
X50905704Y-52925125D02*
X50867609Y-52848935D01*
X50867609Y-52848935D02*
X50791419Y-52772744D01*
X50791419Y-52772744D02*
X50639038Y-52734649D01*
X50639038Y-52734649D02*
X50372371Y-52734649D01*
X50372371Y-52734649D02*
X50219990Y-52772744D01*
X50219990Y-52772744D02*
X50143800Y-52848935D01*
X50143800Y-52848935D02*
X50105704Y-52925125D01*
X50105704Y-52925125D02*
X50105704Y-53077506D01*
X50105704Y-53077506D02*
X50143800Y-53153697D01*
X50143800Y-53153697D02*
X50219990Y-53229887D01*
X50219990Y-53229887D02*
X50372371Y-53267983D01*
X50372371Y-53267983D02*
X50639038Y-53267983D01*
X50639038Y-53267983D02*
X50791419Y-53229887D01*
X50791419Y-53229887D02*
X50867609Y-53153697D01*
X50867609Y-53153697D02*
X50905704Y-53077506D01*
X50905704Y-52010840D02*
X50905704Y-52391792D01*
X50905704Y-52391792D02*
X50524752Y-52429888D01*
X50524752Y-52429888D02*
X50562847Y-52391792D01*
X50562847Y-52391792D02*
X50600942Y-52315602D01*
X50600942Y-52315602D02*
X50600942Y-52125126D01*
X50600942Y-52125126D02*
X50562847Y-52048935D01*
X50562847Y-52048935D02*
X50524752Y-52010840D01*
X50524752Y-52010840D02*
X50448561Y-51972745D01*
X50448561Y-51972745D02*
X50258085Y-51972745D01*
X50258085Y-51972745D02*
X50181895Y-52010840D01*
X50181895Y-52010840D02*
X50143800Y-52048935D01*
X50143800Y-52048935D02*
X50105704Y-52125126D01*
X50105704Y-52125126D02*
X50105704Y-52315602D01*
X50105704Y-52315602D02*
X50143800Y-52391792D01*
X50143800Y-52391792D02*
X50181895Y-52429888D01*
X50867609Y-62791792D02*
X50905704Y-62867982D01*
X50905704Y-62867982D02*
X50905704Y-62982268D01*
X50905704Y-62982268D02*
X50867609Y-63096554D01*
X50867609Y-63096554D02*
X50791419Y-63172744D01*
X50791419Y-63172744D02*
X50715228Y-63210839D01*
X50715228Y-63210839D02*
X50562847Y-63248935D01*
X50562847Y-63248935D02*
X50448561Y-63248935D01*
X50448561Y-63248935D02*
X50296180Y-63210839D01*
X50296180Y-63210839D02*
X50219990Y-63172744D01*
X50219990Y-63172744D02*
X50143800Y-63096554D01*
X50143800Y-63096554D02*
X50105704Y-62982268D01*
X50105704Y-62982268D02*
X50105704Y-62906077D01*
X50105704Y-62906077D02*
X50143800Y-62791792D01*
X50143800Y-62791792D02*
X50181895Y-62753696D01*
X50181895Y-62753696D02*
X50448561Y-62753696D01*
X50448561Y-62753696D02*
X50448561Y-62906077D01*
X50105704Y-62410839D02*
X50905704Y-62410839D01*
X50905704Y-62410839D02*
X50905704Y-62106077D01*
X50905704Y-62106077D02*
X50867609Y-62029887D01*
X50867609Y-62029887D02*
X50829514Y-61991792D01*
X50829514Y-61991792D02*
X50753323Y-61953696D01*
X50753323Y-61953696D02*
X50639038Y-61953696D01*
X50639038Y-61953696D02*
X50562847Y-61991792D01*
X50562847Y-61991792D02*
X50524752Y-62029887D01*
X50524752Y-62029887D02*
X50486657Y-62106077D01*
X50486657Y-62106077D02*
X50486657Y-62410839D01*
X50105704Y-61610839D02*
X50905704Y-61610839D01*
X50905704Y-61077506D02*
X50905704Y-60925125D01*
X50905704Y-60925125D02*
X50867609Y-60848935D01*
X50867609Y-60848935D02*
X50791419Y-60772744D01*
X50791419Y-60772744D02*
X50639038Y-60734649D01*
X50639038Y-60734649D02*
X50372371Y-60734649D01*
X50372371Y-60734649D02*
X50219990Y-60772744D01*
X50219990Y-60772744D02*
X50143800Y-60848935D01*
X50143800Y-60848935D02*
X50105704Y-60925125D01*
X50105704Y-60925125D02*
X50105704Y-61077506D01*
X50105704Y-61077506D02*
X50143800Y-61153697D01*
X50143800Y-61153697D02*
X50219990Y-61229887D01*
X50219990Y-61229887D02*
X50372371Y-61267983D01*
X50372371Y-61267983D02*
X50639038Y-61267983D01*
X50639038Y-61267983D02*
X50791419Y-61229887D01*
X50791419Y-61229887D02*
X50867609Y-61153697D01*
X50867609Y-61153697D02*
X50905704Y-61077506D01*
X50105704Y-59972745D02*
X50105704Y-60429888D01*
X50105704Y-60201316D02*
X50905704Y-60201316D01*
X50905704Y-60201316D02*
X50791419Y-60277507D01*
X50791419Y-60277507D02*
X50715228Y-60353697D01*
X50715228Y-60353697D02*
X50677133Y-60429888D01*
X50905704Y-59477506D02*
X50905704Y-59401316D01*
X50905704Y-59401316D02*
X50867609Y-59325125D01*
X50867609Y-59325125D02*
X50829514Y-59287030D01*
X50829514Y-59287030D02*
X50753323Y-59248935D01*
X50753323Y-59248935D02*
X50600942Y-59210840D01*
X50600942Y-59210840D02*
X50410466Y-59210840D01*
X50410466Y-59210840D02*
X50258085Y-59248935D01*
X50258085Y-59248935D02*
X50181895Y-59287030D01*
X50181895Y-59287030D02*
X50143800Y-59325125D01*
X50143800Y-59325125D02*
X50105704Y-59401316D01*
X50105704Y-59401316D02*
X50105704Y-59477506D01*
X50105704Y-59477506D02*
X50143800Y-59553697D01*
X50143800Y-59553697D02*
X50181895Y-59591792D01*
X50181895Y-59591792D02*
X50258085Y-59629887D01*
X50258085Y-59629887D02*
X50410466Y-59667983D01*
X50410466Y-59667983D02*
X50600942Y-59667983D01*
X50600942Y-59667983D02*
X50753323Y-59629887D01*
X50753323Y-59629887D02*
X50829514Y-59591792D01*
X50829514Y-59591792D02*
X50867609Y-59553697D01*
X50867609Y-59553697D02*
X50905704Y-59477506D01*
X53367609Y-54791792D02*
X53405704Y-54867982D01*
X53405704Y-54867982D02*
X53405704Y-54982268D01*
X53405704Y-54982268D02*
X53367609Y-55096554D01*
X53367609Y-55096554D02*
X53291419Y-55172744D01*
X53291419Y-55172744D02*
X53215228Y-55210839D01*
X53215228Y-55210839D02*
X53062847Y-55248935D01*
X53062847Y-55248935D02*
X52948561Y-55248935D01*
X52948561Y-55248935D02*
X52796180Y-55210839D01*
X52796180Y-55210839D02*
X52719990Y-55172744D01*
X52719990Y-55172744D02*
X52643800Y-55096554D01*
X52643800Y-55096554D02*
X52605704Y-54982268D01*
X52605704Y-54982268D02*
X52605704Y-54906077D01*
X52605704Y-54906077D02*
X52643800Y-54791792D01*
X52643800Y-54791792D02*
X52681895Y-54753696D01*
X52681895Y-54753696D02*
X52948561Y-54753696D01*
X52948561Y-54753696D02*
X52948561Y-54906077D01*
X52605704Y-54410839D02*
X53405704Y-54410839D01*
X53405704Y-54410839D02*
X53405704Y-54106077D01*
X53405704Y-54106077D02*
X53367609Y-54029887D01*
X53367609Y-54029887D02*
X53329514Y-53991792D01*
X53329514Y-53991792D02*
X53253323Y-53953696D01*
X53253323Y-53953696D02*
X53139038Y-53953696D01*
X53139038Y-53953696D02*
X53062847Y-53991792D01*
X53062847Y-53991792D02*
X53024752Y-54029887D01*
X53024752Y-54029887D02*
X52986657Y-54106077D01*
X52986657Y-54106077D02*
X52986657Y-54410839D01*
X52605704Y-53610839D02*
X53405704Y-53610839D01*
X53405704Y-53077506D02*
X53405704Y-52925125D01*
X53405704Y-52925125D02*
X53367609Y-52848935D01*
X53367609Y-52848935D02*
X53291419Y-52772744D01*
X53291419Y-52772744D02*
X53139038Y-52734649D01*
X53139038Y-52734649D02*
X52872371Y-52734649D01*
X52872371Y-52734649D02*
X52719990Y-52772744D01*
X52719990Y-52772744D02*
X52643800Y-52848935D01*
X52643800Y-52848935D02*
X52605704Y-52925125D01*
X52605704Y-52925125D02*
X52605704Y-53077506D01*
X52605704Y-53077506D02*
X52643800Y-53153697D01*
X52643800Y-53153697D02*
X52719990Y-53229887D01*
X52719990Y-53229887D02*
X52872371Y-53267983D01*
X52872371Y-53267983D02*
X53139038Y-53267983D01*
X53139038Y-53267983D02*
X53291419Y-53229887D01*
X53291419Y-53229887D02*
X53367609Y-53153697D01*
X53367609Y-53153697D02*
X53405704Y-53077506D01*
X53405704Y-52048935D02*
X53405704Y-52201316D01*
X53405704Y-52201316D02*
X53367609Y-52277507D01*
X53367609Y-52277507D02*
X53329514Y-52315602D01*
X53329514Y-52315602D02*
X53215228Y-52391792D01*
X53215228Y-52391792D02*
X53062847Y-52429888D01*
X53062847Y-52429888D02*
X52758085Y-52429888D01*
X52758085Y-52429888D02*
X52681895Y-52391792D01*
X52681895Y-52391792D02*
X52643800Y-52353697D01*
X52643800Y-52353697D02*
X52605704Y-52277507D01*
X52605704Y-52277507D02*
X52605704Y-52125126D01*
X52605704Y-52125126D02*
X52643800Y-52048935D01*
X52643800Y-52048935D02*
X52681895Y-52010840D01*
X52681895Y-52010840D02*
X52758085Y-51972745D01*
X52758085Y-51972745D02*
X52948561Y-51972745D01*
X52948561Y-51972745D02*
X53024752Y-52010840D01*
X53024752Y-52010840D02*
X53062847Y-52048935D01*
X53062847Y-52048935D02*
X53100942Y-52125126D01*
X53100942Y-52125126D02*
X53100942Y-52277507D01*
X53100942Y-52277507D02*
X53062847Y-52353697D01*
X53062847Y-52353697D02*
X53024752Y-52391792D01*
X53024752Y-52391792D02*
X52948561Y-52429888D01*
X55867609Y-54791792D02*
X55905704Y-54867982D01*
X55905704Y-54867982D02*
X55905704Y-54982268D01*
X55905704Y-54982268D02*
X55867609Y-55096554D01*
X55867609Y-55096554D02*
X55791419Y-55172744D01*
X55791419Y-55172744D02*
X55715228Y-55210839D01*
X55715228Y-55210839D02*
X55562847Y-55248935D01*
X55562847Y-55248935D02*
X55448561Y-55248935D01*
X55448561Y-55248935D02*
X55296180Y-55210839D01*
X55296180Y-55210839D02*
X55219990Y-55172744D01*
X55219990Y-55172744D02*
X55143800Y-55096554D01*
X55143800Y-55096554D02*
X55105704Y-54982268D01*
X55105704Y-54982268D02*
X55105704Y-54906077D01*
X55105704Y-54906077D02*
X55143800Y-54791792D01*
X55143800Y-54791792D02*
X55181895Y-54753696D01*
X55181895Y-54753696D02*
X55448561Y-54753696D01*
X55448561Y-54753696D02*
X55448561Y-54906077D01*
X55105704Y-54410839D02*
X55905704Y-54410839D01*
X55905704Y-54410839D02*
X55905704Y-54106077D01*
X55905704Y-54106077D02*
X55867609Y-54029887D01*
X55867609Y-54029887D02*
X55829514Y-53991792D01*
X55829514Y-53991792D02*
X55753323Y-53953696D01*
X55753323Y-53953696D02*
X55639038Y-53953696D01*
X55639038Y-53953696D02*
X55562847Y-53991792D01*
X55562847Y-53991792D02*
X55524752Y-54029887D01*
X55524752Y-54029887D02*
X55486657Y-54106077D01*
X55486657Y-54106077D02*
X55486657Y-54410839D01*
X55105704Y-53610839D02*
X55905704Y-53610839D01*
X55905704Y-53077506D02*
X55905704Y-52925125D01*
X55905704Y-52925125D02*
X55867609Y-52848935D01*
X55867609Y-52848935D02*
X55791419Y-52772744D01*
X55791419Y-52772744D02*
X55639038Y-52734649D01*
X55639038Y-52734649D02*
X55372371Y-52734649D01*
X55372371Y-52734649D02*
X55219990Y-52772744D01*
X55219990Y-52772744D02*
X55143800Y-52848935D01*
X55143800Y-52848935D02*
X55105704Y-52925125D01*
X55105704Y-52925125D02*
X55105704Y-53077506D01*
X55105704Y-53077506D02*
X55143800Y-53153697D01*
X55143800Y-53153697D02*
X55219990Y-53229887D01*
X55219990Y-53229887D02*
X55372371Y-53267983D01*
X55372371Y-53267983D02*
X55639038Y-53267983D01*
X55639038Y-53267983D02*
X55791419Y-53229887D01*
X55791419Y-53229887D02*
X55867609Y-53153697D01*
X55867609Y-53153697D02*
X55905704Y-53077506D01*
X55905704Y-52467983D02*
X55905704Y-51934649D01*
X55905704Y-51934649D02*
X55105704Y-52277507D01*
D11*
X77097431Y-48364619D02*
X77097431Y-47697952D01*
X77097431Y-47793190D02*
X77049812Y-47745571D01*
X77049812Y-47745571D02*
X76954574Y-47697952D01*
X76954574Y-47697952D02*
X76811717Y-47697952D01*
X76811717Y-47697952D02*
X76716479Y-47745571D01*
X76716479Y-47745571D02*
X76668860Y-47840809D01*
X76668860Y-47840809D02*
X76668860Y-48364619D01*
X76668860Y-47840809D02*
X76621241Y-47745571D01*
X76621241Y-47745571D02*
X76526003Y-47697952D01*
X76526003Y-47697952D02*
X76383146Y-47697952D01*
X76383146Y-47697952D02*
X76287907Y-47745571D01*
X76287907Y-47745571D02*
X76240288Y-47840809D01*
X76240288Y-47840809D02*
X76240288Y-48364619D01*
X75764098Y-48364619D02*
X75764098Y-47697952D01*
X75764098Y-47793190D02*
X75716479Y-47745571D01*
X75716479Y-47745571D02*
X75621241Y-47697952D01*
X75621241Y-47697952D02*
X75478384Y-47697952D01*
X75478384Y-47697952D02*
X75383146Y-47745571D01*
X75383146Y-47745571D02*
X75335527Y-47840809D01*
X75335527Y-47840809D02*
X75335527Y-48364619D01*
X75335527Y-47840809D02*
X75287908Y-47745571D01*
X75287908Y-47745571D02*
X75192670Y-47697952D01*
X75192670Y-47697952D02*
X75049813Y-47697952D01*
X75049813Y-47697952D02*
X74954574Y-47745571D01*
X74954574Y-47745571D02*
X74906955Y-47840809D01*
X74906955Y-47840809D02*
X74906955Y-48364619D01*
X74526003Y-47364619D02*
X74287908Y-48364619D01*
X74287908Y-48364619D02*
X74097432Y-47650333D01*
X74097432Y-47650333D02*
X73906956Y-48364619D01*
X73906956Y-48364619D02*
X73668861Y-47364619D01*
X72859337Y-48364619D02*
X72859337Y-47840809D01*
X72859337Y-47840809D02*
X72906956Y-47745571D01*
X72906956Y-47745571D02*
X73002194Y-47697952D01*
X73002194Y-47697952D02*
X73192670Y-47697952D01*
X73192670Y-47697952D02*
X73287908Y-47745571D01*
X72859337Y-48317000D02*
X72954575Y-48364619D01*
X72954575Y-48364619D02*
X73192670Y-48364619D01*
X73192670Y-48364619D02*
X73287908Y-48317000D01*
X73287908Y-48317000D02*
X73335527Y-48221761D01*
X73335527Y-48221761D02*
X73335527Y-48126523D01*
X73335527Y-48126523D02*
X73287908Y-48031285D01*
X73287908Y-48031285D02*
X73192670Y-47983666D01*
X73192670Y-47983666D02*
X72954575Y-47983666D01*
X72954575Y-47983666D02*
X72859337Y-47936047D01*
X72478384Y-47697952D02*
X72240289Y-48364619D01*
X72240289Y-48364619D02*
X72002194Y-47697952D01*
X71240289Y-48317000D02*
X71335527Y-48364619D01*
X71335527Y-48364619D02*
X71526003Y-48364619D01*
X71526003Y-48364619D02*
X71621241Y-48317000D01*
X71621241Y-48317000D02*
X71668860Y-48221761D01*
X71668860Y-48221761D02*
X71668860Y-47840809D01*
X71668860Y-47840809D02*
X71621241Y-47745571D01*
X71621241Y-47745571D02*
X71526003Y-47697952D01*
X71526003Y-47697952D02*
X71335527Y-47697952D01*
X71335527Y-47697952D02*
X71240289Y-47745571D01*
X71240289Y-47745571D02*
X71192670Y-47840809D01*
X71192670Y-47840809D02*
X71192670Y-47936047D01*
X71192670Y-47936047D02*
X71668860Y-48031285D01*
X70002193Y-48364619D02*
X70002193Y-47364619D01*
X70002193Y-47364619D02*
X69621241Y-47364619D01*
X69621241Y-47364619D02*
X69526003Y-47412238D01*
X69526003Y-47412238D02*
X69478384Y-47459857D01*
X69478384Y-47459857D02*
X69430765Y-47555095D01*
X69430765Y-47555095D02*
X69430765Y-47697952D01*
X69430765Y-47697952D02*
X69478384Y-47793190D01*
X69478384Y-47793190D02*
X69526003Y-47840809D01*
X69526003Y-47840809D02*
X69621241Y-47888428D01*
X69621241Y-47888428D02*
X70002193Y-47888428D01*
X69002193Y-48364619D02*
X69002193Y-47697952D01*
X69002193Y-47888428D02*
X68954574Y-47793190D01*
X68954574Y-47793190D02*
X68906955Y-47745571D01*
X68906955Y-47745571D02*
X68811717Y-47697952D01*
X68811717Y-47697952D02*
X68716479Y-47697952D01*
X68002193Y-48317000D02*
X68097431Y-48364619D01*
X68097431Y-48364619D02*
X68287907Y-48364619D01*
X68287907Y-48364619D02*
X68383145Y-48317000D01*
X68383145Y-48317000D02*
X68430764Y-48221761D01*
X68430764Y-48221761D02*
X68430764Y-47840809D01*
X68430764Y-47840809D02*
X68383145Y-47745571D01*
X68383145Y-47745571D02*
X68287907Y-47697952D01*
X68287907Y-47697952D02*
X68097431Y-47697952D01*
X68097431Y-47697952D02*
X68002193Y-47745571D01*
X68002193Y-47745571D02*
X67954574Y-47840809D01*
X67954574Y-47840809D02*
X67954574Y-47936047D01*
X67954574Y-47936047D02*
X68430764Y-48031285D01*
X67573621Y-48317000D02*
X67478383Y-48364619D01*
X67478383Y-48364619D02*
X67287907Y-48364619D01*
X67287907Y-48364619D02*
X67192669Y-48317000D01*
X67192669Y-48317000D02*
X67145050Y-48221761D01*
X67145050Y-48221761D02*
X67145050Y-48174142D01*
X67145050Y-48174142D02*
X67192669Y-48078904D01*
X67192669Y-48078904D02*
X67287907Y-48031285D01*
X67287907Y-48031285D02*
X67430764Y-48031285D01*
X67430764Y-48031285D02*
X67526002Y-47983666D01*
X67526002Y-47983666D02*
X67573621Y-47888428D01*
X67573621Y-47888428D02*
X67573621Y-47840809D01*
X67573621Y-47840809D02*
X67526002Y-47745571D01*
X67526002Y-47745571D02*
X67430764Y-47697952D01*
X67430764Y-47697952D02*
X67287907Y-47697952D01*
X67287907Y-47697952D02*
X67192669Y-47745571D01*
X66335526Y-48317000D02*
X66430764Y-48364619D01*
X66430764Y-48364619D02*
X66621240Y-48364619D01*
X66621240Y-48364619D02*
X66716478Y-48317000D01*
X66716478Y-48317000D02*
X66764097Y-48221761D01*
X66764097Y-48221761D02*
X66764097Y-47840809D01*
X66764097Y-47840809D02*
X66716478Y-47745571D01*
X66716478Y-47745571D02*
X66621240Y-47697952D01*
X66621240Y-47697952D02*
X66430764Y-47697952D01*
X66430764Y-47697952D02*
X66335526Y-47745571D01*
X66335526Y-47745571D02*
X66287907Y-47840809D01*
X66287907Y-47840809D02*
X66287907Y-47936047D01*
X66287907Y-47936047D02*
X66764097Y-48031285D01*
X65859335Y-47697952D02*
X65859335Y-48364619D01*
X65859335Y-47793190D02*
X65811716Y-47745571D01*
X65811716Y-47745571D02*
X65716478Y-47697952D01*
X65716478Y-47697952D02*
X65573621Y-47697952D01*
X65573621Y-47697952D02*
X65478383Y-47745571D01*
X65478383Y-47745571D02*
X65430764Y-47840809D01*
X65430764Y-47840809D02*
X65430764Y-48364619D01*
X64526002Y-48317000D02*
X64621240Y-48364619D01*
X64621240Y-48364619D02*
X64811716Y-48364619D01*
X64811716Y-48364619D02*
X64906954Y-48317000D01*
X64906954Y-48317000D02*
X64954573Y-48269380D01*
X64954573Y-48269380D02*
X65002192Y-48174142D01*
X65002192Y-48174142D02*
X65002192Y-47888428D01*
X65002192Y-47888428D02*
X64954573Y-47793190D01*
X64954573Y-47793190D02*
X64906954Y-47745571D01*
X64906954Y-47745571D02*
X64811716Y-47697952D01*
X64811716Y-47697952D02*
X64621240Y-47697952D01*
X64621240Y-47697952D02*
X64526002Y-47745571D01*
X63716478Y-48317000D02*
X63811716Y-48364619D01*
X63811716Y-48364619D02*
X64002192Y-48364619D01*
X64002192Y-48364619D02*
X64097430Y-48317000D01*
X64097430Y-48317000D02*
X64145049Y-48221761D01*
X64145049Y-48221761D02*
X64145049Y-47840809D01*
X64145049Y-47840809D02*
X64097430Y-47745571D01*
X64097430Y-47745571D02*
X64002192Y-47697952D01*
X64002192Y-47697952D02*
X63811716Y-47697952D01*
X63811716Y-47697952D02*
X63716478Y-47745571D01*
X63716478Y-47745571D02*
X63668859Y-47840809D01*
X63668859Y-47840809D02*
X63668859Y-47936047D01*
X63668859Y-47936047D02*
X64145049Y-48031285D01*
X62526001Y-48317000D02*
X62383144Y-48364619D01*
X62383144Y-48364619D02*
X62145049Y-48364619D01*
X62145049Y-48364619D02*
X62049811Y-48317000D01*
X62049811Y-48317000D02*
X62002192Y-48269380D01*
X62002192Y-48269380D02*
X61954573Y-48174142D01*
X61954573Y-48174142D02*
X61954573Y-48078904D01*
X61954573Y-48078904D02*
X62002192Y-47983666D01*
X62002192Y-47983666D02*
X62049811Y-47936047D01*
X62049811Y-47936047D02*
X62145049Y-47888428D01*
X62145049Y-47888428D02*
X62335525Y-47840809D01*
X62335525Y-47840809D02*
X62430763Y-47793190D01*
X62430763Y-47793190D02*
X62478382Y-47745571D01*
X62478382Y-47745571D02*
X62526001Y-47650333D01*
X62526001Y-47650333D02*
X62526001Y-47555095D01*
X62526001Y-47555095D02*
X62478382Y-47459857D01*
X62478382Y-47459857D02*
X62430763Y-47412238D01*
X62430763Y-47412238D02*
X62335525Y-47364619D01*
X62335525Y-47364619D02*
X62097430Y-47364619D01*
X62097430Y-47364619D02*
X61954573Y-47412238D01*
X61145049Y-48317000D02*
X61240287Y-48364619D01*
X61240287Y-48364619D02*
X61430763Y-48364619D01*
X61430763Y-48364619D02*
X61526001Y-48317000D01*
X61526001Y-48317000D02*
X61573620Y-48221761D01*
X61573620Y-48221761D02*
X61573620Y-47840809D01*
X61573620Y-47840809D02*
X61526001Y-47745571D01*
X61526001Y-47745571D02*
X61430763Y-47697952D01*
X61430763Y-47697952D02*
X61240287Y-47697952D01*
X61240287Y-47697952D02*
X61145049Y-47745571D01*
X61145049Y-47745571D02*
X61097430Y-47840809D01*
X61097430Y-47840809D02*
X61097430Y-47936047D01*
X61097430Y-47936047D02*
X61573620Y-48031285D01*
X60668858Y-47697952D02*
X60668858Y-48364619D01*
X60668858Y-47793190D02*
X60621239Y-47745571D01*
X60621239Y-47745571D02*
X60526001Y-47697952D01*
X60526001Y-47697952D02*
X60383144Y-47697952D01*
X60383144Y-47697952D02*
X60287906Y-47745571D01*
X60287906Y-47745571D02*
X60240287Y-47840809D01*
X60240287Y-47840809D02*
X60240287Y-48364619D01*
X59811715Y-48317000D02*
X59716477Y-48364619D01*
X59716477Y-48364619D02*
X59526001Y-48364619D01*
X59526001Y-48364619D02*
X59430763Y-48317000D01*
X59430763Y-48317000D02*
X59383144Y-48221761D01*
X59383144Y-48221761D02*
X59383144Y-48174142D01*
X59383144Y-48174142D02*
X59430763Y-48078904D01*
X59430763Y-48078904D02*
X59526001Y-48031285D01*
X59526001Y-48031285D02*
X59668858Y-48031285D01*
X59668858Y-48031285D02*
X59764096Y-47983666D01*
X59764096Y-47983666D02*
X59811715Y-47888428D01*
X59811715Y-47888428D02*
X59811715Y-47840809D01*
X59811715Y-47840809D02*
X59764096Y-47745571D01*
X59764096Y-47745571D02*
X59668858Y-47697952D01*
X59668858Y-47697952D02*
X59526001Y-47697952D01*
X59526001Y-47697952D02*
X59430763Y-47745571D01*
X58811715Y-48364619D02*
X58906953Y-48317000D01*
X58906953Y-48317000D02*
X58954572Y-48269380D01*
X58954572Y-48269380D02*
X59002191Y-48174142D01*
X59002191Y-48174142D02*
X59002191Y-47888428D01*
X59002191Y-47888428D02*
X58954572Y-47793190D01*
X58954572Y-47793190D02*
X58906953Y-47745571D01*
X58906953Y-47745571D02*
X58811715Y-47697952D01*
X58811715Y-47697952D02*
X58668858Y-47697952D01*
X58668858Y-47697952D02*
X58573620Y-47745571D01*
X58573620Y-47745571D02*
X58526001Y-47793190D01*
X58526001Y-47793190D02*
X58478382Y-47888428D01*
X58478382Y-47888428D02*
X58478382Y-48174142D01*
X58478382Y-48174142D02*
X58526001Y-48269380D01*
X58526001Y-48269380D02*
X58573620Y-48317000D01*
X58573620Y-48317000D02*
X58668858Y-48364619D01*
X58668858Y-48364619D02*
X58811715Y-48364619D01*
X58049810Y-48364619D02*
X58049810Y-47697952D01*
X58049810Y-47888428D02*
X58002191Y-47793190D01*
X58002191Y-47793190D02*
X57954572Y-47745571D01*
X57954572Y-47745571D02*
X57859334Y-47697952D01*
X57859334Y-47697952D02*
X57764096Y-47697952D01*
X82192669Y-53144731D02*
X81954574Y-54144731D01*
X81954574Y-54144731D02*
X81764098Y-53430445D01*
X81764098Y-53430445D02*
X81573622Y-54144731D01*
X81573622Y-54144731D02*
X81335527Y-53144731D01*
X80954574Y-54049492D02*
X80906955Y-54097112D01*
X80906955Y-54097112D02*
X80954574Y-54144731D01*
X80954574Y-54144731D02*
X81002193Y-54097112D01*
X81002193Y-54097112D02*
X80954574Y-54049492D01*
X80954574Y-54049492D02*
X80954574Y-54144731D01*
X79145051Y-54049492D02*
X79192670Y-54097112D01*
X79192670Y-54097112D02*
X79335527Y-54144731D01*
X79335527Y-54144731D02*
X79430765Y-54144731D01*
X79430765Y-54144731D02*
X79573622Y-54097112D01*
X79573622Y-54097112D02*
X79668860Y-54001873D01*
X79668860Y-54001873D02*
X79716479Y-53906635D01*
X79716479Y-53906635D02*
X79764098Y-53716159D01*
X79764098Y-53716159D02*
X79764098Y-53573302D01*
X79764098Y-53573302D02*
X79716479Y-53382826D01*
X79716479Y-53382826D02*
X79668860Y-53287588D01*
X79668860Y-53287588D02*
X79573622Y-53192350D01*
X79573622Y-53192350D02*
X79430765Y-53144731D01*
X79430765Y-53144731D02*
X79335527Y-53144731D01*
X79335527Y-53144731D02*
X79192670Y-53192350D01*
X79192670Y-53192350D02*
X79145051Y-53239969D01*
X78573622Y-54144731D02*
X78668860Y-54097112D01*
X78668860Y-54097112D02*
X78716479Y-54049492D01*
X78716479Y-54049492D02*
X78764098Y-53954254D01*
X78764098Y-53954254D02*
X78764098Y-53668540D01*
X78764098Y-53668540D02*
X78716479Y-53573302D01*
X78716479Y-53573302D02*
X78668860Y-53525683D01*
X78668860Y-53525683D02*
X78573622Y-53478064D01*
X78573622Y-53478064D02*
X78430765Y-53478064D01*
X78430765Y-53478064D02*
X78335527Y-53525683D01*
X78335527Y-53525683D02*
X78287908Y-53573302D01*
X78287908Y-53573302D02*
X78240289Y-53668540D01*
X78240289Y-53668540D02*
X78240289Y-53954254D01*
X78240289Y-53954254D02*
X78287908Y-54049492D01*
X78287908Y-54049492D02*
X78335527Y-54097112D01*
X78335527Y-54097112D02*
X78430765Y-54144731D01*
X78430765Y-54144731D02*
X78573622Y-54144731D01*
X77668860Y-54144731D02*
X77764098Y-54097112D01*
X77764098Y-54097112D02*
X77811717Y-54001873D01*
X77811717Y-54001873D02*
X77811717Y-53144731D01*
X77145050Y-54144731D02*
X77240288Y-54097112D01*
X77240288Y-54097112D02*
X77287907Y-54001873D01*
X77287907Y-54001873D02*
X77287907Y-53144731D01*
X76764097Y-54144731D02*
X76764097Y-53478064D01*
X76764097Y-53144731D02*
X76811716Y-53192350D01*
X76811716Y-53192350D02*
X76764097Y-53239969D01*
X76764097Y-53239969D02*
X76716478Y-53192350D01*
X76716478Y-53192350D02*
X76764097Y-53144731D01*
X76764097Y-53144731D02*
X76764097Y-53239969D01*
X76335526Y-54097112D02*
X76240288Y-54144731D01*
X76240288Y-54144731D02*
X76049812Y-54144731D01*
X76049812Y-54144731D02*
X75954574Y-54097112D01*
X75954574Y-54097112D02*
X75906955Y-54001873D01*
X75906955Y-54001873D02*
X75906955Y-53954254D01*
X75906955Y-53954254D02*
X75954574Y-53859016D01*
X75954574Y-53859016D02*
X76049812Y-53811397D01*
X76049812Y-53811397D02*
X76192669Y-53811397D01*
X76192669Y-53811397D02*
X76287907Y-53763778D01*
X76287907Y-53763778D02*
X76335526Y-53668540D01*
X76335526Y-53668540D02*
X76335526Y-53620921D01*
X76335526Y-53620921D02*
X76287907Y-53525683D01*
X76287907Y-53525683D02*
X76192669Y-53478064D01*
X76192669Y-53478064D02*
X76049812Y-53478064D01*
X76049812Y-53478064D02*
X75954574Y-53525683D01*
X82145050Y-55707056D02*
X82002193Y-55754675D01*
X82002193Y-55754675D02*
X81764098Y-55754675D01*
X81764098Y-55754675D02*
X81668860Y-55707056D01*
X81668860Y-55707056D02*
X81621241Y-55659436D01*
X81621241Y-55659436D02*
X81573622Y-55564198D01*
X81573622Y-55564198D02*
X81573622Y-55468960D01*
X81573622Y-55468960D02*
X81621241Y-55373722D01*
X81621241Y-55373722D02*
X81668860Y-55326103D01*
X81668860Y-55326103D02*
X81764098Y-55278484D01*
X81764098Y-55278484D02*
X81954574Y-55230865D01*
X81954574Y-55230865D02*
X82049812Y-55183246D01*
X82049812Y-55183246D02*
X82097431Y-55135627D01*
X82097431Y-55135627D02*
X82145050Y-55040389D01*
X82145050Y-55040389D02*
X82145050Y-54945151D01*
X82145050Y-54945151D02*
X82097431Y-54849913D01*
X82097431Y-54849913D02*
X82049812Y-54802294D01*
X82049812Y-54802294D02*
X81954574Y-54754675D01*
X81954574Y-54754675D02*
X81716479Y-54754675D01*
X81716479Y-54754675D02*
X81573622Y-54802294D01*
X80764098Y-55707056D02*
X80859336Y-55754675D01*
X80859336Y-55754675D02*
X81049812Y-55754675D01*
X81049812Y-55754675D02*
X81145050Y-55707056D01*
X81145050Y-55707056D02*
X81192669Y-55611817D01*
X81192669Y-55611817D02*
X81192669Y-55230865D01*
X81192669Y-55230865D02*
X81145050Y-55135627D01*
X81145050Y-55135627D02*
X81049812Y-55088008D01*
X81049812Y-55088008D02*
X80859336Y-55088008D01*
X80859336Y-55088008D02*
X80764098Y-55135627D01*
X80764098Y-55135627D02*
X80716479Y-55230865D01*
X80716479Y-55230865D02*
X80716479Y-55326103D01*
X80716479Y-55326103D02*
X81192669Y-55421341D01*
X80287907Y-55088008D02*
X80287907Y-56088008D01*
X80287907Y-55135627D02*
X80192669Y-55088008D01*
X80192669Y-55088008D02*
X80002193Y-55088008D01*
X80002193Y-55088008D02*
X79906955Y-55135627D01*
X79906955Y-55135627D02*
X79859336Y-55183246D01*
X79859336Y-55183246D02*
X79811717Y-55278484D01*
X79811717Y-55278484D02*
X79811717Y-55564198D01*
X79811717Y-55564198D02*
X79859336Y-55659436D01*
X79859336Y-55659436D02*
X79906955Y-55707056D01*
X79906955Y-55707056D02*
X80002193Y-55754675D01*
X80002193Y-55754675D02*
X80192669Y-55754675D01*
X80192669Y-55754675D02*
X80287907Y-55707056D01*
X79526002Y-55088008D02*
X79145050Y-55088008D01*
X79383145Y-54754675D02*
X79383145Y-55611817D01*
X79383145Y-55611817D02*
X79335526Y-55707056D01*
X79335526Y-55707056D02*
X79240288Y-55754675D01*
X79240288Y-55754675D02*
X79145050Y-55754675D01*
X78097430Y-54849913D02*
X78049811Y-54802294D01*
X78049811Y-54802294D02*
X77954573Y-54754675D01*
X77954573Y-54754675D02*
X77716478Y-54754675D01*
X77716478Y-54754675D02*
X77621240Y-54802294D01*
X77621240Y-54802294D02*
X77573621Y-54849913D01*
X77573621Y-54849913D02*
X77526002Y-54945151D01*
X77526002Y-54945151D02*
X77526002Y-55040389D01*
X77526002Y-55040389D02*
X77573621Y-55183246D01*
X77573621Y-55183246D02*
X78145049Y-55754675D01*
X78145049Y-55754675D02*
X77526002Y-55754675D01*
X76906954Y-54754675D02*
X76811716Y-54754675D01*
X76811716Y-54754675D02*
X76716478Y-54802294D01*
X76716478Y-54802294D02*
X76668859Y-54849913D01*
X76668859Y-54849913D02*
X76621240Y-54945151D01*
X76621240Y-54945151D02*
X76573621Y-55135627D01*
X76573621Y-55135627D02*
X76573621Y-55373722D01*
X76573621Y-55373722D02*
X76621240Y-55564198D01*
X76621240Y-55564198D02*
X76668859Y-55659436D01*
X76668859Y-55659436D02*
X76716478Y-55707056D01*
X76716478Y-55707056D02*
X76811716Y-55754675D01*
X76811716Y-55754675D02*
X76906954Y-55754675D01*
X76906954Y-55754675D02*
X77002192Y-55707056D01*
X77002192Y-55707056D02*
X77049811Y-55659436D01*
X77049811Y-55659436D02*
X77097430Y-55564198D01*
X77097430Y-55564198D02*
X77145049Y-55373722D01*
X77145049Y-55373722D02*
X77145049Y-55135627D01*
X77145049Y-55135627D02*
X77097430Y-54945151D01*
X77097430Y-54945151D02*
X77049811Y-54849913D01*
X77049811Y-54849913D02*
X77002192Y-54802294D01*
X77002192Y-54802294D02*
X76906954Y-54754675D01*
X76192668Y-54849913D02*
X76145049Y-54802294D01*
X76145049Y-54802294D02*
X76049811Y-54754675D01*
X76049811Y-54754675D02*
X75811716Y-54754675D01*
X75811716Y-54754675D02*
X75716478Y-54802294D01*
X75716478Y-54802294D02*
X75668859Y-54849913D01*
X75668859Y-54849913D02*
X75621240Y-54945151D01*
X75621240Y-54945151D02*
X75621240Y-55040389D01*
X75621240Y-55040389D02*
X75668859Y-55183246D01*
X75668859Y-55183246D02*
X76240287Y-55754675D01*
X76240287Y-55754675D02*
X75621240Y-55754675D01*
X74764097Y-54754675D02*
X74954573Y-54754675D01*
X74954573Y-54754675D02*
X75049811Y-54802294D01*
X75049811Y-54802294D02*
X75097430Y-54849913D01*
X75097430Y-54849913D02*
X75192668Y-54992770D01*
X75192668Y-54992770D02*
X75240287Y-55183246D01*
X75240287Y-55183246D02*
X75240287Y-55564198D01*
X75240287Y-55564198D02*
X75192668Y-55659436D01*
X75192668Y-55659436D02*
X75145049Y-55707056D01*
X75145049Y-55707056D02*
X75049811Y-55754675D01*
X75049811Y-55754675D02*
X74859335Y-55754675D01*
X74859335Y-55754675D02*
X74764097Y-55707056D01*
X74764097Y-55707056D02*
X74716478Y-55659436D01*
X74716478Y-55659436D02*
X74668859Y-55564198D01*
X74668859Y-55564198D02*
X74668859Y-55326103D01*
X74668859Y-55326103D02*
X74716478Y-55230865D01*
X74716478Y-55230865D02*
X74764097Y-55183246D01*
X74764097Y-55183246D02*
X74859335Y-55135627D01*
X74859335Y-55135627D02*
X75049811Y-55135627D01*
X75049811Y-55135627D02*
X75145049Y-55183246D01*
X75145049Y-55183246D02*
X75192668Y-55230865D01*
X75192668Y-55230865D02*
X75240287Y-55326103D01*
X81764098Y-56840809D02*
X82097431Y-56840809D01*
X82097431Y-57364619D02*
X82097431Y-56364619D01*
X82097431Y-56364619D02*
X81621241Y-56364619D01*
X80811717Y-57364619D02*
X80811717Y-56840809D01*
X80811717Y-56840809D02*
X80859336Y-56745571D01*
X80859336Y-56745571D02*
X80954574Y-56697952D01*
X80954574Y-56697952D02*
X81145050Y-56697952D01*
X81145050Y-56697952D02*
X81240288Y-56745571D01*
X80811717Y-57317000D02*
X80906955Y-57364619D01*
X80906955Y-57364619D02*
X81145050Y-57364619D01*
X81145050Y-57364619D02*
X81240288Y-57317000D01*
X81240288Y-57317000D02*
X81287907Y-57221761D01*
X81287907Y-57221761D02*
X81287907Y-57126523D01*
X81287907Y-57126523D02*
X81240288Y-57031285D01*
X81240288Y-57031285D02*
X81145050Y-56983666D01*
X81145050Y-56983666D02*
X80906955Y-56983666D01*
X80906955Y-56983666D02*
X80811717Y-56936047D01*
X80335526Y-57364619D02*
X80335526Y-56364619D01*
X80335526Y-56745571D02*
X80240288Y-56697952D01*
X80240288Y-56697952D02*
X80049812Y-56697952D01*
X80049812Y-56697952D02*
X79954574Y-56745571D01*
X79954574Y-56745571D02*
X79906955Y-56793190D01*
X79906955Y-56793190D02*
X79859336Y-56888428D01*
X79859336Y-56888428D02*
X79859336Y-57174142D01*
X79859336Y-57174142D02*
X79906955Y-57269380D01*
X79906955Y-57269380D02*
X79954574Y-57317000D01*
X79954574Y-57317000D02*
X80049812Y-57364619D01*
X80049812Y-57364619D02*
X80240288Y-57364619D01*
X80240288Y-57364619D02*
X80335526Y-57317000D01*
X78668859Y-56983666D02*
X77906955Y-56983666D01*
X76478383Y-56364619D02*
X76287907Y-56364619D01*
X76287907Y-56364619D02*
X76192669Y-56412238D01*
X76192669Y-56412238D02*
X76097431Y-56507476D01*
X76097431Y-56507476D02*
X76049812Y-56697952D01*
X76049812Y-56697952D02*
X76049812Y-57031285D01*
X76049812Y-57031285D02*
X76097431Y-57221761D01*
X76097431Y-57221761D02*
X76192669Y-57317000D01*
X76192669Y-57317000D02*
X76287907Y-57364619D01*
X76287907Y-57364619D02*
X76478383Y-57364619D01*
X76478383Y-57364619D02*
X76573621Y-57317000D01*
X76573621Y-57317000D02*
X76668859Y-57221761D01*
X76668859Y-57221761D02*
X76716478Y-57031285D01*
X76716478Y-57031285D02*
X76716478Y-56697952D01*
X76716478Y-56697952D02*
X76668859Y-56507476D01*
X76668859Y-56507476D02*
X76573621Y-56412238D01*
X76573621Y-56412238D02*
X76478383Y-56364619D01*
X75668859Y-57317000D02*
X75526002Y-57364619D01*
X75526002Y-57364619D02*
X75287907Y-57364619D01*
X75287907Y-57364619D02*
X75192669Y-57317000D01*
X75192669Y-57317000D02*
X75145050Y-57269380D01*
X75145050Y-57269380D02*
X75097431Y-57174142D01*
X75097431Y-57174142D02*
X75097431Y-57078904D01*
X75097431Y-57078904D02*
X75145050Y-56983666D01*
X75145050Y-56983666D02*
X75192669Y-56936047D01*
X75192669Y-56936047D02*
X75287907Y-56888428D01*
X75287907Y-56888428D02*
X75478383Y-56840809D01*
X75478383Y-56840809D02*
X75573621Y-56793190D01*
X75573621Y-56793190D02*
X75621240Y-56745571D01*
X75621240Y-56745571D02*
X75668859Y-56650333D01*
X75668859Y-56650333D02*
X75668859Y-56555095D01*
X75668859Y-56555095D02*
X75621240Y-56459857D01*
X75621240Y-56459857D02*
X75573621Y-56412238D01*
X75573621Y-56412238D02*
X75478383Y-56364619D01*
X75478383Y-56364619D02*
X75240288Y-56364619D01*
X75240288Y-56364619D02*
X75097431Y-56412238D01*
X74668859Y-57364619D02*
X74668859Y-56364619D01*
X74668859Y-56840809D02*
X74097431Y-56840809D01*
X74097431Y-57364619D02*
X74097431Y-56364619D01*
X72859335Y-57364619D02*
X72859335Y-56364619D01*
X72859335Y-56364619D02*
X72478383Y-56364619D01*
X72478383Y-56364619D02*
X72383145Y-56412238D01*
X72383145Y-56412238D02*
X72335526Y-56459857D01*
X72335526Y-56459857D02*
X72287907Y-56555095D01*
X72287907Y-56555095D02*
X72287907Y-56697952D01*
X72287907Y-56697952D02*
X72335526Y-56793190D01*
X72335526Y-56793190D02*
X72383145Y-56840809D01*
X72383145Y-56840809D02*
X72478383Y-56888428D01*
X72478383Y-56888428D02*
X72859335Y-56888428D01*
X71430764Y-57364619D02*
X71430764Y-56840809D01*
X71430764Y-56840809D02*
X71478383Y-56745571D01*
X71478383Y-56745571D02*
X71573621Y-56697952D01*
X71573621Y-56697952D02*
X71764097Y-56697952D01*
X71764097Y-56697952D02*
X71859335Y-56745571D01*
X71430764Y-57317000D02*
X71526002Y-57364619D01*
X71526002Y-57364619D02*
X71764097Y-57364619D01*
X71764097Y-57364619D02*
X71859335Y-57317000D01*
X71859335Y-57317000D02*
X71906954Y-57221761D01*
X71906954Y-57221761D02*
X71906954Y-57126523D01*
X71906954Y-57126523D02*
X71859335Y-57031285D01*
X71859335Y-57031285D02*
X71764097Y-56983666D01*
X71764097Y-56983666D02*
X71526002Y-56983666D01*
X71526002Y-56983666D02*
X71430764Y-56936047D01*
X70954573Y-57364619D02*
X70954573Y-56697952D01*
X70954573Y-56888428D02*
X70906954Y-56793190D01*
X70906954Y-56793190D02*
X70859335Y-56745571D01*
X70859335Y-56745571D02*
X70764097Y-56697952D01*
X70764097Y-56697952D02*
X70668859Y-56697952D01*
X70335525Y-57364619D02*
X70335525Y-56364619D01*
X70240287Y-56983666D02*
X69954573Y-57364619D01*
X69954573Y-56697952D02*
X70335525Y-57078904D01*
X81526003Y-60939548D02*
X81573622Y-60987168D01*
X81573622Y-60987168D02*
X81716479Y-61034787D01*
X81716479Y-61034787D02*
X81811717Y-61034787D01*
X81811717Y-61034787D02*
X81954574Y-60987168D01*
X81954574Y-60987168D02*
X82049812Y-60891929D01*
X82049812Y-60891929D02*
X82097431Y-60796691D01*
X82097431Y-60796691D02*
X82145050Y-60606215D01*
X82145050Y-60606215D02*
X82145050Y-60463358D01*
X82145050Y-60463358D02*
X82097431Y-60272882D01*
X82097431Y-60272882D02*
X82049812Y-60177644D01*
X82049812Y-60177644D02*
X81954574Y-60082406D01*
X81954574Y-60082406D02*
X81811717Y-60034787D01*
X81811717Y-60034787D02*
X81716479Y-60034787D01*
X81716479Y-60034787D02*
X81573622Y-60082406D01*
X81573622Y-60082406D02*
X81526003Y-60130025D01*
X80573622Y-61034787D02*
X81145050Y-61034787D01*
X80859336Y-61034787D02*
X80859336Y-60034787D01*
X80859336Y-60034787D02*
X80954574Y-60177644D01*
X80954574Y-60177644D02*
X81049812Y-60272882D01*
X81049812Y-60272882D02*
X81145050Y-60320501D01*
X79383145Y-60653834D02*
X78621241Y-60653834D01*
X76859336Y-61034787D02*
X77430764Y-61034787D01*
X77145050Y-61034787D02*
X77145050Y-60034787D01*
X77145050Y-60034787D02*
X77240288Y-60177644D01*
X77240288Y-60177644D02*
X77335526Y-60272882D01*
X77335526Y-60272882D02*
X77430764Y-60320501D01*
X76240288Y-60034787D02*
X76145050Y-60034787D01*
X76145050Y-60034787D02*
X76049812Y-60082406D01*
X76049812Y-60082406D02*
X76002193Y-60130025D01*
X76002193Y-60130025D02*
X75954574Y-60225263D01*
X75954574Y-60225263D02*
X75906955Y-60415739D01*
X75906955Y-60415739D02*
X75906955Y-60653834D01*
X75906955Y-60653834D02*
X75954574Y-60844310D01*
X75954574Y-60844310D02*
X76002193Y-60939548D01*
X76002193Y-60939548D02*
X76049812Y-60987168D01*
X76049812Y-60987168D02*
X76145050Y-61034787D01*
X76145050Y-61034787D02*
X76240288Y-61034787D01*
X76240288Y-61034787D02*
X76335526Y-60987168D01*
X76335526Y-60987168D02*
X76383145Y-60939548D01*
X76383145Y-60939548D02*
X76430764Y-60844310D01*
X76430764Y-60844310D02*
X76478383Y-60653834D01*
X76478383Y-60653834D02*
X76478383Y-60415739D01*
X76478383Y-60415739D02*
X76430764Y-60225263D01*
X76430764Y-60225263D02*
X76383145Y-60130025D01*
X76383145Y-60130025D02*
X76335526Y-60082406D01*
X76335526Y-60082406D02*
X76240288Y-60034787D01*
X75049812Y-60368120D02*
X75049812Y-61034787D01*
X75478383Y-60368120D02*
X75478383Y-60891929D01*
X75478383Y-60891929D02*
X75430764Y-60987168D01*
X75430764Y-60987168D02*
X75335526Y-61034787D01*
X75335526Y-61034787D02*
X75192669Y-61034787D01*
X75192669Y-61034787D02*
X75097431Y-60987168D01*
X75097431Y-60987168D02*
X75049812Y-60939548D01*
X74240288Y-60510977D02*
X74573621Y-60510977D01*
X74573621Y-61034787D02*
X74573621Y-60034787D01*
X74573621Y-60034787D02*
X74097431Y-60034787D01*
X81526003Y-62549492D02*
X81573622Y-62597112D01*
X81573622Y-62597112D02*
X81716479Y-62644731D01*
X81716479Y-62644731D02*
X81811717Y-62644731D01*
X81811717Y-62644731D02*
X81954574Y-62597112D01*
X81954574Y-62597112D02*
X82049812Y-62501873D01*
X82049812Y-62501873D02*
X82097431Y-62406635D01*
X82097431Y-62406635D02*
X82145050Y-62216159D01*
X82145050Y-62216159D02*
X82145050Y-62073302D01*
X82145050Y-62073302D02*
X82097431Y-61882826D01*
X82097431Y-61882826D02*
X82049812Y-61787588D01*
X82049812Y-61787588D02*
X81954574Y-61692350D01*
X81954574Y-61692350D02*
X81811717Y-61644731D01*
X81811717Y-61644731D02*
X81716479Y-61644731D01*
X81716479Y-61644731D02*
X81573622Y-61692350D01*
X81573622Y-61692350D02*
X81526003Y-61739969D01*
X81145050Y-61739969D02*
X81097431Y-61692350D01*
X81097431Y-61692350D02*
X81002193Y-61644731D01*
X81002193Y-61644731D02*
X80764098Y-61644731D01*
X80764098Y-61644731D02*
X80668860Y-61692350D01*
X80668860Y-61692350D02*
X80621241Y-61739969D01*
X80621241Y-61739969D02*
X80573622Y-61835207D01*
X80573622Y-61835207D02*
X80573622Y-61930445D01*
X80573622Y-61930445D02*
X80621241Y-62073302D01*
X80621241Y-62073302D02*
X81192669Y-62644731D01*
X81192669Y-62644731D02*
X80573622Y-62644731D01*
X79383145Y-62263778D02*
X78621241Y-62263778D01*
X77383145Y-62549492D02*
X77335526Y-62597112D01*
X77335526Y-62597112D02*
X77383145Y-62644731D01*
X77383145Y-62644731D02*
X77430764Y-62597112D01*
X77430764Y-62597112D02*
X77383145Y-62549492D01*
X77383145Y-62549492D02*
X77383145Y-62644731D01*
X76383146Y-62644731D02*
X76954574Y-62644731D01*
X76668860Y-62644731D02*
X76668860Y-61644731D01*
X76668860Y-61644731D02*
X76764098Y-61787588D01*
X76764098Y-61787588D02*
X76859336Y-61882826D01*
X76859336Y-61882826D02*
X76954574Y-61930445D01*
X75526003Y-61978064D02*
X75526003Y-62644731D01*
X75954574Y-61978064D02*
X75954574Y-62501873D01*
X75954574Y-62501873D02*
X75906955Y-62597112D01*
X75906955Y-62597112D02*
X75811717Y-62644731D01*
X75811717Y-62644731D02*
X75668860Y-62644731D01*
X75668860Y-62644731D02*
X75573622Y-62597112D01*
X75573622Y-62597112D02*
X75526003Y-62549492D01*
X74716479Y-62120921D02*
X75049812Y-62120921D01*
X75049812Y-62644731D02*
X75049812Y-61644731D01*
X75049812Y-61644731D02*
X74573622Y-61644731D01*
X81526003Y-64159436D02*
X81573622Y-64207056D01*
X81573622Y-64207056D02*
X81716479Y-64254675D01*
X81716479Y-64254675D02*
X81811717Y-64254675D01*
X81811717Y-64254675D02*
X81954574Y-64207056D01*
X81954574Y-64207056D02*
X82049812Y-64111817D01*
X82049812Y-64111817D02*
X82097431Y-64016579D01*
X82097431Y-64016579D02*
X82145050Y-63826103D01*
X82145050Y-63826103D02*
X82145050Y-63683246D01*
X82145050Y-63683246D02*
X82097431Y-63492770D01*
X82097431Y-63492770D02*
X82049812Y-63397532D01*
X82049812Y-63397532D02*
X81954574Y-63302294D01*
X81954574Y-63302294D02*
X81811717Y-63254675D01*
X81811717Y-63254675D02*
X81716479Y-63254675D01*
X81716479Y-63254675D02*
X81573622Y-63302294D01*
X81573622Y-63302294D02*
X81526003Y-63349913D01*
X81192669Y-63254675D02*
X80573622Y-63254675D01*
X80573622Y-63254675D02*
X80906955Y-63635627D01*
X80906955Y-63635627D02*
X80764098Y-63635627D01*
X80764098Y-63635627D02*
X80668860Y-63683246D01*
X80668860Y-63683246D02*
X80621241Y-63730865D01*
X80621241Y-63730865D02*
X80573622Y-63826103D01*
X80573622Y-63826103D02*
X80573622Y-64064198D01*
X80573622Y-64064198D02*
X80621241Y-64159436D01*
X80621241Y-64159436D02*
X80668860Y-64207056D01*
X80668860Y-64207056D02*
X80764098Y-64254675D01*
X80764098Y-64254675D02*
X81049812Y-64254675D01*
X81049812Y-64254675D02*
X81145050Y-64207056D01*
X81145050Y-64207056D02*
X81192669Y-64159436D01*
X79383145Y-63873722D02*
X78621241Y-63873722D01*
X77383145Y-64159436D02*
X77335526Y-64207056D01*
X77335526Y-64207056D02*
X77383145Y-64254675D01*
X77383145Y-64254675D02*
X77430764Y-64207056D01*
X77430764Y-64207056D02*
X77383145Y-64159436D01*
X77383145Y-64159436D02*
X77383145Y-64254675D01*
X76383146Y-64254675D02*
X76954574Y-64254675D01*
X76668860Y-64254675D02*
X76668860Y-63254675D01*
X76668860Y-63254675D02*
X76764098Y-63397532D01*
X76764098Y-63397532D02*
X76859336Y-63492770D01*
X76859336Y-63492770D02*
X76954574Y-63540389D01*
X75526003Y-63588008D02*
X75526003Y-64254675D01*
X75954574Y-63588008D02*
X75954574Y-64111817D01*
X75954574Y-64111817D02*
X75906955Y-64207056D01*
X75906955Y-64207056D02*
X75811717Y-64254675D01*
X75811717Y-64254675D02*
X75668860Y-64254675D01*
X75668860Y-64254675D02*
X75573622Y-64207056D01*
X75573622Y-64207056D02*
X75526003Y-64159436D01*
X74716479Y-63730865D02*
X75049812Y-63730865D01*
X75049812Y-64254675D02*
X75049812Y-63254675D01*
X75049812Y-63254675D02*
X74573622Y-63254675D01*
X81526003Y-65864619D02*
X81859336Y-65388428D01*
X82097431Y-65864619D02*
X82097431Y-64864619D01*
X82097431Y-64864619D02*
X81716479Y-64864619D01*
X81716479Y-64864619D02*
X81621241Y-64912238D01*
X81621241Y-64912238D02*
X81573622Y-64959857D01*
X81573622Y-64959857D02*
X81526003Y-65055095D01*
X81526003Y-65055095D02*
X81526003Y-65197952D01*
X81526003Y-65197952D02*
X81573622Y-65293190D01*
X81573622Y-65293190D02*
X81621241Y-65340809D01*
X81621241Y-65340809D02*
X81716479Y-65388428D01*
X81716479Y-65388428D02*
X82097431Y-65388428D01*
X80573622Y-65864619D02*
X81145050Y-65864619D01*
X80859336Y-65864619D02*
X80859336Y-64864619D01*
X80859336Y-64864619D02*
X80954574Y-65007476D01*
X80954574Y-65007476D02*
X81049812Y-65102714D01*
X81049812Y-65102714D02*
X81145050Y-65150333D01*
X79383145Y-65483666D02*
X78621241Y-65483666D01*
X76859336Y-65864619D02*
X77430764Y-65864619D01*
X77145050Y-65864619D02*
X77145050Y-64864619D01*
X77145050Y-64864619D02*
X77240288Y-65007476D01*
X77240288Y-65007476D02*
X77335526Y-65102714D01*
X77335526Y-65102714D02*
X77430764Y-65150333D01*
X76430764Y-65864619D02*
X76430764Y-64864619D01*
X75859336Y-65864619D02*
X76287907Y-65293190D01*
X75859336Y-64864619D02*
X76430764Y-65436047D01*
X74478383Y-64864619D02*
X74287907Y-64864619D01*
X74287907Y-64864619D02*
X74192669Y-64912238D01*
X74192669Y-64912238D02*
X74097431Y-65007476D01*
X74097431Y-65007476D02*
X74049812Y-65197952D01*
X74049812Y-65197952D02*
X74049812Y-65531285D01*
X74049812Y-65531285D02*
X74097431Y-65721761D01*
X74097431Y-65721761D02*
X74192669Y-65817000D01*
X74192669Y-65817000D02*
X74287907Y-65864619D01*
X74287907Y-65864619D02*
X74478383Y-65864619D01*
X74478383Y-65864619D02*
X74573621Y-65817000D01*
X74573621Y-65817000D02*
X74668859Y-65721761D01*
X74668859Y-65721761D02*
X74716478Y-65531285D01*
X74716478Y-65531285D02*
X74716478Y-65197952D01*
X74716478Y-65197952D02*
X74668859Y-65007476D01*
X74668859Y-65007476D02*
X74573621Y-64912238D01*
X74573621Y-64912238D02*
X74478383Y-64864619D01*
X73621240Y-65864619D02*
X73621240Y-64864619D01*
X73192669Y-65864619D02*
X73192669Y-65340809D01*
X73192669Y-65340809D02*
X73240288Y-65245571D01*
X73240288Y-65245571D02*
X73335526Y-65197952D01*
X73335526Y-65197952D02*
X73478383Y-65197952D01*
X73478383Y-65197952D02*
X73573621Y-65245571D01*
X73573621Y-65245571D02*
X73621240Y-65293190D01*
X72716478Y-65864619D02*
X72716478Y-65197952D01*
X72716478Y-65293190D02*
X72668859Y-65245571D01*
X72668859Y-65245571D02*
X72573621Y-65197952D01*
X72573621Y-65197952D02*
X72430764Y-65197952D01*
X72430764Y-65197952D02*
X72335526Y-65245571D01*
X72335526Y-65245571D02*
X72287907Y-65340809D01*
X72287907Y-65340809D02*
X72287907Y-65864619D01*
X72287907Y-65340809D02*
X72240288Y-65245571D01*
X72240288Y-65245571D02*
X72145050Y-65197952D01*
X72145050Y-65197952D02*
X72002193Y-65197952D01*
X72002193Y-65197952D02*
X71906954Y-65245571D01*
X71906954Y-65245571D02*
X71859335Y-65340809D01*
X71859335Y-65340809D02*
X71859335Y-65864619D01*
D10*
X51976666Y-69954819D02*
X52309999Y-69478628D01*
X52548094Y-69954819D02*
X52548094Y-68954819D01*
X52548094Y-68954819D02*
X52167142Y-68954819D01*
X52167142Y-68954819D02*
X52071904Y-69002438D01*
X52071904Y-69002438D02*
X52024285Y-69050057D01*
X52024285Y-69050057D02*
X51976666Y-69145295D01*
X51976666Y-69145295D02*
X51976666Y-69288152D01*
X51976666Y-69288152D02*
X52024285Y-69383390D01*
X52024285Y-69383390D02*
X52071904Y-69431009D01*
X52071904Y-69431009D02*
X52167142Y-69478628D01*
X52167142Y-69478628D02*
X52548094Y-69478628D01*
X51024285Y-69954819D02*
X51595713Y-69954819D01*
X51309999Y-69954819D02*
X51309999Y-68954819D01*
X51309999Y-68954819D02*
X51405237Y-69097676D01*
X51405237Y-69097676D02*
X51500475Y-69192914D01*
X51500475Y-69192914D02*
X51595713Y-69240533D01*
X67261904Y-74454819D02*
X67261904Y-73454819D01*
X67261904Y-73454819D02*
X66880952Y-73454819D01*
X66880952Y-73454819D02*
X66785714Y-73502438D01*
X66785714Y-73502438D02*
X66738095Y-73550057D01*
X66738095Y-73550057D02*
X66690476Y-73645295D01*
X66690476Y-73645295D02*
X66690476Y-73788152D01*
X66690476Y-73788152D02*
X66738095Y-73883390D01*
X66738095Y-73883390D02*
X66785714Y-73931009D01*
X66785714Y-73931009D02*
X66880952Y-73978628D01*
X66880952Y-73978628D02*
X67261904Y-73978628D01*
X66261904Y-74454819D02*
X66261904Y-73454819D01*
X66261904Y-73931009D02*
X65690476Y-73931009D01*
X65690476Y-74454819D02*
X65690476Y-73454819D01*
X64690476Y-74454819D02*
X65261904Y-74454819D01*
X64976190Y-74454819D02*
X64976190Y-73454819D01*
X64976190Y-73454819D02*
X65071428Y-73597676D01*
X65071428Y-73597676D02*
X65166666Y-73692914D01*
X65166666Y-73692914D02*
X65261904Y-73740533D01*
X56261904Y-58454819D02*
X56261904Y-59264342D01*
X56261904Y-59264342D02*
X56214285Y-59359580D01*
X56214285Y-59359580D02*
X56166666Y-59407200D01*
X56166666Y-59407200D02*
X56071428Y-59454819D01*
X56071428Y-59454819D02*
X55880952Y-59454819D01*
X55880952Y-59454819D02*
X55785714Y-59407200D01*
X55785714Y-59407200D02*
X55738095Y-59359580D01*
X55738095Y-59359580D02*
X55690476Y-59264342D01*
X55690476Y-59264342D02*
X55690476Y-58454819D01*
X54690476Y-59454819D02*
X55261904Y-59454819D01*
X54976190Y-59454819D02*
X54976190Y-58454819D01*
X54976190Y-58454819D02*
X55071428Y-58597676D01*
X55071428Y-58597676D02*
X55166666Y-58692914D01*
X55166666Y-58692914D02*
X55261904Y-58740533D01*
X62714580Y-59833333D02*
X62762200Y-59785714D01*
X62762200Y-59785714D02*
X62809819Y-59642857D01*
X62809819Y-59642857D02*
X62809819Y-59547619D01*
X62809819Y-59547619D02*
X62762200Y-59404762D01*
X62762200Y-59404762D02*
X62666961Y-59309524D01*
X62666961Y-59309524D02*
X62571723Y-59261905D01*
X62571723Y-59261905D02*
X62381247Y-59214286D01*
X62381247Y-59214286D02*
X62238390Y-59214286D01*
X62238390Y-59214286D02*
X62047914Y-59261905D01*
X62047914Y-59261905D02*
X61952676Y-59309524D01*
X61952676Y-59309524D02*
X61857438Y-59404762D01*
X61857438Y-59404762D02*
X61809819Y-59547619D01*
X61809819Y-59547619D02*
X61809819Y-59642857D01*
X61809819Y-59642857D02*
X61857438Y-59785714D01*
X61857438Y-59785714D02*
X61905057Y-59833333D01*
X62809819Y-60785714D02*
X62809819Y-60214286D01*
X62809819Y-60500000D02*
X61809819Y-60500000D01*
X61809819Y-60500000D02*
X61952676Y-60404762D01*
X61952676Y-60404762D02*
X62047914Y-60309524D01*
X62047914Y-60309524D02*
X62095533Y-60214286D01*
X62659580Y-50833333D02*
X62707200Y-50785714D01*
X62707200Y-50785714D02*
X62754819Y-50642857D01*
X62754819Y-50642857D02*
X62754819Y-50547619D01*
X62754819Y-50547619D02*
X62707200Y-50404762D01*
X62707200Y-50404762D02*
X62611961Y-50309524D01*
X62611961Y-50309524D02*
X62516723Y-50261905D01*
X62516723Y-50261905D02*
X62326247Y-50214286D01*
X62326247Y-50214286D02*
X62183390Y-50214286D01*
X62183390Y-50214286D02*
X61992914Y-50261905D01*
X61992914Y-50261905D02*
X61897676Y-50309524D01*
X61897676Y-50309524D02*
X61802438Y-50404762D01*
X61802438Y-50404762D02*
X61754819Y-50547619D01*
X61754819Y-50547619D02*
X61754819Y-50642857D01*
X61754819Y-50642857D02*
X61802438Y-50785714D01*
X61802438Y-50785714D02*
X61850057Y-50833333D01*
X61850057Y-51214286D02*
X61802438Y-51261905D01*
X61802438Y-51261905D02*
X61754819Y-51357143D01*
X61754819Y-51357143D02*
X61754819Y-51595238D01*
X61754819Y-51595238D02*
X61802438Y-51690476D01*
X61802438Y-51690476D02*
X61850057Y-51738095D01*
X61850057Y-51738095D02*
X61945295Y-51785714D01*
X61945295Y-51785714D02*
X62040533Y-51785714D01*
X62040533Y-51785714D02*
X62183390Y-51738095D01*
X62183390Y-51738095D02*
X62754819Y-51166667D01*
X62754819Y-51166667D02*
X62754819Y-51785714D01*
X53359580Y-76583333D02*
X53407200Y-76535714D01*
X53407200Y-76535714D02*
X53454819Y-76392857D01*
X53454819Y-76392857D02*
X53454819Y-76297619D01*
X53454819Y-76297619D02*
X53407200Y-76154762D01*
X53407200Y-76154762D02*
X53311961Y-76059524D01*
X53311961Y-76059524D02*
X53216723Y-76011905D01*
X53216723Y-76011905D02*
X53026247Y-75964286D01*
X53026247Y-75964286D02*
X52883390Y-75964286D01*
X52883390Y-75964286D02*
X52692914Y-76011905D01*
X52692914Y-76011905D02*
X52597676Y-76059524D01*
X52597676Y-76059524D02*
X52502438Y-76154762D01*
X52502438Y-76154762D02*
X52454819Y-76297619D01*
X52454819Y-76297619D02*
X52454819Y-76392857D01*
X52454819Y-76392857D02*
X52502438Y-76535714D01*
X52502438Y-76535714D02*
X52550057Y-76583333D01*
X52454819Y-76916667D02*
X52454819Y-77535714D01*
X52454819Y-77535714D02*
X52835771Y-77202381D01*
X52835771Y-77202381D02*
X52835771Y-77345238D01*
X52835771Y-77345238D02*
X52883390Y-77440476D01*
X52883390Y-77440476D02*
X52931009Y-77488095D01*
X52931009Y-77488095D02*
X53026247Y-77535714D01*
X53026247Y-77535714D02*
X53264342Y-77535714D01*
X53264342Y-77535714D02*
X53359580Y-77488095D01*
X53359580Y-77488095D02*
X53407200Y-77440476D01*
X53407200Y-77440476D02*
X53454819Y-77345238D01*
X53454819Y-77345238D02*
X53454819Y-77059524D01*
X53454819Y-77059524D02*
X53407200Y-76964286D01*
X53407200Y-76964286D02*
X53359580Y-76916667D01*
%TO.C,R1*%
D12*
X48540000Y-68130000D02*
X55080000Y-68130000D01*
X48540000Y-68460000D02*
X48540000Y-68130000D01*
X48540000Y-70540000D02*
X48540000Y-70870000D01*
X48540000Y-70870000D02*
X55080000Y-70870000D01*
X55080000Y-68130000D02*
X55080000Y-68460000D01*
X55080000Y-70870000D02*
X55080000Y-70540000D01*
%TO.C,PH1*%
X57845000Y-77810000D02*
X57845000Y-79080000D01*
X57845000Y-79080000D02*
X59115000Y-79080000D01*
X60192358Y-69760000D02*
X60505000Y-69760000D01*
X60192358Y-70620000D02*
X60505000Y-70620000D01*
X60192358Y-72300000D02*
X60505000Y-72300000D01*
X60192358Y-73160000D02*
X60505000Y-73160000D01*
X60192358Y-74840000D02*
X60505000Y-74840000D01*
X60192358Y-75700000D02*
X60505000Y-75700000D01*
X60275000Y-77380000D02*
X60505000Y-77380000D01*
X60275000Y-78240000D02*
X60505000Y-78240000D01*
X60505000Y-71460000D02*
X63265000Y-71460000D01*
X60505000Y-74000000D02*
X63265000Y-74000000D01*
X60505000Y-76540000D02*
X63265000Y-76540000D01*
X63265000Y-70620000D02*
X69265000Y-70620000D01*
X63265000Y-73160000D02*
X69265000Y-73160000D01*
X63265000Y-75700000D02*
X69265000Y-75700000D01*
X69265000Y-69760000D02*
X63265000Y-69760000D01*
X69265000Y-70620000D02*
X69265000Y-69760000D01*
X69265000Y-72300000D02*
X63265000Y-72300000D01*
X69265000Y-73160000D02*
X69265000Y-72300000D01*
X69265000Y-74840000D02*
X63265000Y-74840000D01*
X69265000Y-75700000D02*
X69265000Y-74840000D01*
X60505000Y-68810000D02*
X63265000Y-68810000D01*
X63265000Y-79190000D01*
X60505000Y-79190000D01*
X60505000Y-68810000D01*
X63265000Y-77380000D02*
X69265000Y-77380000D01*
X69265000Y-78240000D01*
X63265000Y-78240000D01*
X63265000Y-77380000D01*
G36*
X63265000Y-77380000D02*
G01*
X69265000Y-77380000D01*
X69265000Y-78240000D01*
X63265000Y-78240000D01*
X63265000Y-77380000D01*
G37*
%TO.C,U1*%
X39469000Y-49997500D02*
X39469000Y-65237500D01*
X40739000Y-66507500D02*
X59281000Y-66507500D01*
X41050000Y-50000000D02*
X41050000Y-51330000D01*
X41050000Y-51330000D02*
X42380000Y-51330000D01*
X41050000Y-65235000D02*
X41050000Y-66565000D01*
X41050000Y-66565000D02*
X42380000Y-66565000D01*
X43650000Y-48670000D02*
X43650000Y-51330000D01*
X43650000Y-48670000D02*
X58950000Y-48670000D01*
X43650000Y-51330000D02*
X58950000Y-51330000D01*
X43650000Y-63905000D02*
X43650000Y-66565000D01*
X43650000Y-63905000D02*
X58950000Y-63905000D01*
X43650000Y-66565000D02*
X58950000Y-66565000D01*
X58950000Y-48670000D02*
X58950000Y-51330000D01*
X58950000Y-63905000D02*
X58950000Y-66565000D01*
X59281000Y-48727500D02*
X40739000Y-48727500D01*
X60551000Y-65237500D02*
X60551000Y-49997500D01*
X37945000Y-53117500D02*
X39469000Y-53117500D01*
X39469000Y-62117500D01*
X37945000Y-62117500D01*
X37945000Y-53117500D01*
X39469000Y-49997500D02*
G75*
G02*
X40739000Y-48727500I1269999J1D01*
G01*
X40739000Y-66507500D02*
G75*
G02*
X39469000Y-65237500I0J1270000D01*
G01*
X59281000Y-48727500D02*
G75*
G02*
X60551000Y-49997500I1J-1269999D01*
G01*
X60551000Y-65237500D02*
G75*
G02*
X59281000Y-66507500I-1270000J0D01*
G01*
%TO.C,C1*%
X60985000Y-62530000D02*
X60985000Y-67470000D01*
X60985000Y-67470000D02*
X61315000Y-67470000D01*
X61315000Y-62530000D02*
X60985000Y-62530000D01*
X63395000Y-67470000D02*
X63725000Y-67470000D01*
X63725000Y-62530000D02*
X63395000Y-62530000D01*
X63725000Y-67470000D02*
X63725000Y-62530000D01*
%TO.C,C2*%
X60880000Y-52730000D02*
X60880000Y-56770000D01*
X60880000Y-56770000D02*
X61601000Y-56770000D01*
X61601000Y-52730000D02*
X60880000Y-52730000D01*
X62999000Y-56770000D02*
X63720000Y-56770000D01*
X63720000Y-52730000D02*
X62999000Y-52730000D01*
X63720000Y-56770000D02*
X63720000Y-52730000D01*
%TO.C,C3*%
X54080000Y-74480000D02*
X54080000Y-78520000D01*
X54080000Y-78520000D02*
X54801000Y-78520000D01*
X54801000Y-74480000D02*
X54080000Y-74480000D01*
X56199000Y-78520000D02*
X56920000Y-78520000D01*
X56920000Y-74480000D02*
X56199000Y-74480000D01*
X56920000Y-78520000D02*
X56920000Y-74480000D01*
%TD*%
M02*
