M48
; DRILL file KiCad 10.0.6 date 2026-09-05T09:10:38
; FORMAT={-:-/ absolute / metric / decimal}
; #@! TF.CreationDate,2026-09-05T09:10:38-04:00
; #@! TF.GenerationSoftware,Kicad,Pcbnew,10.0.6
; #@! TF.FileFunction,MixedPlating,1,2
FMAT,2
METRIC
; #@! TA.AperFunction,Plated,PTH,ViaDrill
T1C0.300
; #@! TA.AperFunction,Plated,PTH,ComponentDrill
T2C0.800
; #@! TA.AperFunction,Plated,PTH,ComponentDrill
T3C1.000
; #@! TA.AperFunction,NonPlated,NPTH,ComponentDrill
T4C3.000
%
G90
G05
T1
X41.0Y-53.0
X41.0Y-58.0
X41.0Y-67.5
X41.0Y-73.0
X41.5Y-48.0
X41.5Y-78.0
X44.0Y-66.5
X44.5Y-61.0
X46.0Y-64.0
X46.5Y-72.5
X48.0Y-47.5
X48.0Y-52.0
X48.0Y-56.5
X50.0Y-78.5
X50.5Y-71.5
X51.5Y-64.0
X54.0Y-47.5
X54.0Y-53.5
X54.0Y-61.0
X54.5Y-67.5
X54.5Y-74.0
X56.5Y-64.0
X57.0Y-56.5
X57.3Y-76.1
X57.5Y-69.5
X58.0Y-74.0
X60.0Y-59.5
X60.9Y-76.1
X61.0Y-54.5
X61.0Y-64.0
X61.0Y-72.0
X61.5Y-49.5
X61.5Y-66.5
X63.0Y-47.5
X63.5Y-54.5
X63.5Y-66.0
X64.0Y-58.5
X64.0Y-60.5
X64.5Y-75.0
X66.0Y-70.5
X66.5Y-78.5
X67.0Y-52.5
X69.0Y-57.5
X69.0Y-62.0
X69.0Y-66.5
X70.0Y-74.0
X70.5Y-69.5
X71.0Y-47.5
X72.0Y-64.0
X73.0Y-58.5
X73.5Y-54.0
X74.0Y-72.0
X74.5Y-66.5
X75.0Y-50.0
X75.0Y-61.5
X75.0Y-78.5
X78.0Y-53.0
X78.0Y-57.5
X78.5Y-67.5
X78.5Y-74.0
X79.0Y-62.0
X82.5Y-48.0
X82.5Y-78.0
X83.0Y-56.5
X83.0Y-61.5
X83.0Y-67.0
X83.0Y-73.5
T2
X48.0Y-69.5
X55.5Y-75.25
X55.5Y-77.75
X55.62Y-69.5
X62.3Y-53.5
X62.3Y-56.0
X62.355Y-62.5
X62.355Y-67.5
T3
X42.38Y-50.0
X42.38Y-65.235
X44.92Y-50.0
X44.92Y-65.235
X47.46Y-50.0
X47.46Y-65.235
X50.0Y-50.0
X50.0Y-65.235
X52.54Y-50.0
X52.54Y-65.235
X55.08Y-50.0
X55.08Y-65.235
X57.62Y-50.0
X57.62Y-65.235
X59.115Y-70.19
X59.115Y-72.73
X59.115Y-75.27
X59.115Y-77.81
X65.385Y-56.89
X65.385Y-59.43
X65.385Y-61.97
X65.385Y-64.51
X65.385Y-67.05
T4
X43.1Y-76.4
X80.9Y-49.6
X80.9Y-76.4
M30
