%TF.GenerationSoftware,KiCad,Pcbnew,10.0.6*%
%TF.CreationDate,2026-09-05T09:10:42-04:00*%
%TF.ProjectId,mmWave Presence Lighting Node,6d6d5761-7665-4205-9072-6573656e6365,rev?*%
%TF.SameCoordinates,Original*%
%TF.FileFunction,Copper,L2,Bot*%
%TF.FilePolarity,Positive*%
%FSLAX46Y46*%
G04 Gerber Fmt 4.6, Leading zero omitted, Abs format (unit mm)*
G04 Created by KiCad (PCBNEW 10.0.6) date 2026-09-05 09:10:42*
%MOMM*%
%LPD*%
G01*
G04 APERTURE LIST*
%TA.AperFunction,ComponentPad*%
%ADD10C,1.800000*%
%TD*%
%TA.AperFunction,ComponentPad*%
%ADD11R,1.800000X1.700000*%
%TD*%
%TA.AperFunction,ViaPad*%
%ADD12C,0.600000*%
%TD*%
%TA.AperFunction,Conductor*%
%ADD13C,1.000000*%
%TD*%
%TA.AperFunction,Conductor*%
%ADD14C,0.250000*%
%TD*%
G04 APERTURE END LIST*
D10*
%TO.P,U2,1*%
%TO.N,VBUS*%
X65385000Y-56890000D03*
%TO.P,U2,2*%
%TO.N,GND*%
X65385000Y-59430000D03*
%TO.P,U2,3*%
%TO.N,Radar_Out*%
X65385000Y-61970000D03*
%TO.P,U2,4*%
%TO.N,Radar_RX*%
X65385000Y-64510000D03*
%TO.P,U2,5*%
%TO.N,Radar_TX*%
X65385000Y-67050000D03*
%TD*%
%TO.P,R1,1*%
%TO.N,Radar_MCU*%
X48000000Y-69500000D03*
%TO.P,R1,2*%
%TO.N,Radar_Out*%
X55620000Y-69500000D03*
%TD*%
D11*
%TO.P,PH1,1*%
%TO.N,3.3V*%
X59115000Y-77810000D03*
D10*
%TO.P,PH1,2*%
%TO.N,GND*%
X59115000Y-75270000D03*
%TO.P,PH1,3*%
%TO.N,SCL*%
X59115000Y-72730000D03*
%TO.P,PH1,4*%
%TO.N,SDA*%
X59115000Y-70190000D03*
%TD*%
%TO.P,U1,0*%
%TO.N,N/C*%
X42380000Y-50000000D03*
%TO.P,U1,1*%
X44920000Y-50000000D03*
%TO.P,U1,2*%
%TO.N,Radar_RX*%
X47460000Y-50000000D03*
%TO.P,U1,3*%
%TO.N,Radar_TX*%
X50000000Y-50000000D03*
%TO.P,U1,3V3*%
%TO.N,3.3V*%
X47460000Y-65235000D03*
%TO.P,U1,4*%
%TO.N,SDA*%
X52540000Y-50000000D03*
%TO.P,U1,5*%
%TO.N,SCL*%
X55080000Y-50000000D03*
%TO.P,U1,6*%
%TO.N,N/C*%
X57620000Y-50000000D03*
%TO.P,U1,7*%
X57620000Y-65235000D03*
%TO.P,U1,8*%
X55080000Y-65235000D03*
%TO.P,U1,9*%
X52540000Y-65235000D03*
%TO.P,U1,10*%
%TO.N,Radar_MCU*%
X50000000Y-65235000D03*
%TO.P,U1,GND*%
%TO.N,GND*%
X44920000Y-65235000D03*
%TO.P,U1,VBUS*%
%TO.N,VBUS*%
X42380000Y-65235000D03*
%TD*%
%TO.P,C1,1*%
%TO.N,VBUS*%
X62355000Y-62500000D03*
%TO.P,C1,2*%
%TO.N,GND*%
X62355000Y-67500000D03*
%TD*%
%TO.P,C2,1*%
%TO.N,GND*%
X62300000Y-53500000D03*
%TO.P,C2,2*%
%TO.N,VBUS*%
X62300000Y-56000000D03*
%TD*%
%TO.P,C3,1*%
%TO.N,GND*%
X55500000Y-75250000D03*
%TO.P,C3,2*%
%TO.N,3.3V*%
X55500000Y-77750000D03*
%TD*%
D12*
%TO.N,GND*%
X61500000Y-66500000D03*
X44000000Y-66500000D03*
X66000000Y-70500000D03*
X54000000Y-53500000D03*
X46500000Y-72500000D03*
X70000000Y-74000000D03*
X78000000Y-57500000D03*
X41500000Y-78000000D03*
X44500000Y-61000000D03*
X41000000Y-53000000D03*
X58000000Y-74000000D03*
X64000000Y-58500000D03*
X57500000Y-69500000D03*
X48000000Y-47500000D03*
X54500000Y-67500000D03*
X82500000Y-48000000D03*
X83000000Y-73500000D03*
X64000000Y-60500000D03*
X79000000Y-62000000D03*
X83000000Y-61500000D03*
X69000000Y-57500000D03*
X48000000Y-52000000D03*
X83000000Y-67000000D03*
X63500000Y-54500000D03*
X78500000Y-74000000D03*
X73500000Y-54000000D03*
X78000000Y-53000000D03*
X70500000Y-69500000D03*
X60900000Y-76100000D03*
X51500000Y-64000000D03*
X54500000Y-74000000D03*
X74500000Y-66500000D03*
X75000000Y-61500000D03*
X82500000Y-78000000D03*
X48000000Y-56500000D03*
X54000000Y-47500000D03*
X63500000Y-66000000D03*
X83000000Y-56500000D03*
X61000000Y-64000000D03*
X72000000Y-64000000D03*
X75000000Y-50000000D03*
X41000000Y-67500000D03*
X69000000Y-66500000D03*
X50500000Y-71500000D03*
X50000000Y-78500000D03*
X69000000Y-62000000D03*
X66500000Y-78500000D03*
X61000000Y-72000000D03*
X61500000Y-49500000D03*
X78500000Y-67500000D03*
X57000000Y-56500000D03*
X60000000Y-59500000D03*
X41000000Y-73000000D03*
X67000000Y-52500000D03*
X41000000Y-58000000D03*
X57300000Y-76100000D03*
X61000000Y-54500000D03*
X73000000Y-58500000D03*
X46000000Y-64000000D03*
X56500000Y-64000000D03*
X74000000Y-72000000D03*
X54000000Y-61000000D03*
X41500000Y-48000000D03*
X75000000Y-78500000D03*
X64500000Y-75000000D03*
X71000000Y-47500000D03*
X63000000Y-47500000D03*
%TD*%
%TO.N,3.3V*%
D13*
X46400000Y-70162742D02*
X46400000Y-66295000D01*
X53987258Y-77750000D02*
X46400000Y-70162742D01*
X55500000Y-77750000D02*
X53987258Y-77750000D01*
X46400000Y-66295000D02*
X47460000Y-65235000D01*
%TO.N,Radar_MCU*%
D14*
X50000000Y-65235000D02*
X48000000Y-67235000D01*
X48000000Y-67235000D02*
X48000000Y-69500000D01*
%TO.N,Radar_Out*%
X60120000Y-65000000D02*
X55620000Y-69500000D01*
X62355000Y-65000000D02*
X60120000Y-65000000D01*
X65385000Y-61970000D02*
X62355000Y-65000000D01*
%TO.N,VBUS*%
D13*
X62500000Y-62500000D02*
X61500000Y-62500000D01*
X64495000Y-56000000D02*
X65385000Y-56890000D01*
X61500000Y-62500000D02*
X45115000Y-62500000D01*
X62300000Y-56000000D02*
X64495000Y-56000000D01*
X62355000Y-62500000D02*
X62355000Y-56055000D01*
X45115000Y-62500000D02*
X42380000Y-65235000D01*
X61500000Y-62500000D02*
X62355000Y-62500000D01*
%TO.N,Radar_RX*%
D14*
X50588604Y-51225000D02*
X51638604Y-52275000D01*
X48685000Y-51225000D02*
X50588604Y-51225000D01*
X63007412Y-52275000D02*
X66610000Y-55877588D01*
X47460000Y-50000000D02*
X48685000Y-51225000D01*
X66610000Y-55877588D02*
X66610000Y-63285000D01*
X51638604Y-52275000D02*
X63007412Y-52275000D01*
X66610000Y-63285000D02*
X65385000Y-64510000D01*
%TO.N,Radar_TX*%
X63193808Y-51825000D02*
X67060000Y-55691192D01*
X51825000Y-51825000D02*
X63193808Y-51825000D01*
X67060000Y-55691192D02*
X67060000Y-65375000D01*
X50000000Y-50000000D02*
X51825000Y-51825000D01*
X67060000Y-65375000D02*
X65385000Y-67050000D01*
%TO.N,3.3V*%
D13*
X55500000Y-77750000D02*
X59055000Y-77750000D01*
%TO.N,SCL*%
D14*
X60777412Y-50925000D02*
X63566600Y-50925000D01*
X67960000Y-66843808D02*
X64163808Y-70640000D01*
X67960000Y-55318400D02*
X67960000Y-66843808D01*
X55080000Y-50000000D02*
X56305000Y-48775000D01*
X63566600Y-50925000D02*
X67960000Y-55318400D01*
X59115000Y-71922412D02*
X59115000Y-72730000D01*
X60397412Y-70640000D02*
X59115000Y-71922412D01*
X64163808Y-70640000D02*
X60397412Y-70640000D01*
X56305000Y-48775000D02*
X58627412Y-48775000D01*
X58627412Y-48775000D02*
X60777412Y-50925000D01*
%TO.N,SDA*%
X67510000Y-55504796D02*
X67510000Y-66657412D01*
X53915000Y-51375000D02*
X63380204Y-51375000D01*
X52540000Y-50000000D02*
X53915000Y-51375000D01*
X63977412Y-70190000D02*
X59115000Y-70190000D01*
X67510000Y-66657412D02*
X63977412Y-70190000D01*
X63380204Y-51375000D02*
X67510000Y-55504796D01*
%TD*%
%TA.AperFunction,Conductor*%
%TO.N,GND*%
G36*
X82004418Y-47000816D02*
G01*
X82204561Y-47015130D01*
X82222063Y-47017647D01*
X82413795Y-47059355D01*
X82430760Y-47064336D01*
X82614611Y-47132909D01*
X82630694Y-47140253D01*
X82747495Y-47204032D01*
X82802908Y-47234290D01*
X82817791Y-47243855D01*
X82974864Y-47361438D01*
X82988235Y-47373024D01*
X83126975Y-47511764D01*
X83138561Y-47525135D01*
X83256144Y-47682208D01*
X83265709Y-47697091D01*
X83359743Y-47869300D01*
X83367093Y-47885394D01*
X83435661Y-48069234D01*
X83440645Y-48086209D01*
X83482351Y-48277931D01*
X83484869Y-48295442D01*
X83499184Y-48495580D01*
X83499500Y-48504427D01*
X83499500Y-77495572D01*
X83499184Y-77504419D01*
X83484869Y-77704557D01*
X83482351Y-77722068D01*
X83440645Y-77913790D01*
X83435661Y-77930765D01*
X83367093Y-78114605D01*
X83359743Y-78130699D01*
X83265709Y-78302908D01*
X83256144Y-78317791D01*
X83138561Y-78474864D01*
X83126975Y-78488235D01*
X82988235Y-78626975D01*
X82974864Y-78638561D01*
X82817791Y-78756144D01*
X82802908Y-78765709D01*
X82630699Y-78859743D01*
X82614605Y-78867093D01*
X82430765Y-78935661D01*
X82413790Y-78940645D01*
X82222068Y-78982351D01*
X82204557Y-78984869D01*
X82023779Y-78997799D01*
X82004417Y-78999184D01*
X81995572Y-78999500D01*
X60601148Y-78999500D01*
X60534109Y-78979815D01*
X60488354Y-78927011D01*
X60478410Y-78857853D01*
X60484966Y-78832167D01*
X60509091Y-78767482D01*
X60509282Y-78765709D01*
X60515500Y-78707873D01*
X60515499Y-76912128D01*
X60509091Y-76852517D01*
X60467960Y-76742240D01*
X60458797Y-76717671D01*
X60458793Y-76717664D01*
X60372547Y-76602455D01*
X60372544Y-76602452D01*
X60257335Y-76516206D01*
X60257328Y-76516202D01*
X60122482Y-76465908D01*
X60122483Y-76465908D01*
X60062883Y-76459501D01*
X60062881Y-76459500D01*
X60062873Y-76459500D01*
X60062865Y-76459500D01*
X60002310Y-76459500D01*
X59935271Y-76439815D01*
X59914629Y-76423181D01*
X59860336Y-76368888D01*
X59776706Y-76285258D01*
X79149500Y-76285258D01*
X79149500Y-76514741D01*
X79173866Y-76699811D01*
X79179452Y-76742238D01*
X79181398Y-76749500D01*
X79238842Y-76963887D01*
X79326650Y-77175876D01*
X79326657Y-77175890D01*
X79441392Y-77374617D01*
X79581081Y-77556661D01*
X79581089Y-77556670D01*
X79743330Y-77718911D01*
X79743338Y-77718918D01*
X79925382Y-77858607D01*
X79925385Y-77858608D01*
X79925388Y-77858611D01*
X80124112Y-77973344D01*
X80124117Y-77973346D01*
X80124123Y-77973349D01*
X80215480Y-78011190D01*
X80336113Y-78061158D01*
X80557762Y-78120548D01*
X80785266Y-78150500D01*
X80785273Y-78150500D01*
X81014727Y-78150500D01*
X81014734Y-78150500D01*
X81242238Y-78120548D01*
X81463887Y-78061158D01*
X81675888Y-77973344D01*
X81874612Y-77858611D01*
X82056661Y-77718919D01*
X82056665Y-77718914D01*
X82056670Y-77718911D01*
X82218911Y-77556670D01*
X82218914Y-77556665D01*
X82218919Y-77556661D01*
X82358611Y-77374612D01*
X82473344Y-77175888D01*
X82561158Y-76963887D01*
X82620548Y-76742238D01*
X82650500Y-76514734D01*
X82650500Y-76285266D01*
X82620548Y-76057762D01*
X82561158Y-75836113D01*
X82492393Y-75670099D01*
X82473349Y-75624123D01*
X82473346Y-75624117D01*
X82473344Y-75624112D01*
X82358611Y-75425388D01*
X82358608Y-75425385D01*
X82358607Y-75425382D01*
X82257764Y-75293962D01*
X82218919Y-75243339D01*
X82218918Y-75243338D01*
X82218911Y-75243330D01*
X82056670Y-75081089D01*
X82056661Y-75081081D01*
X81874617Y-74941392D01*
X81675890Y-74826657D01*
X81675876Y-74826650D01*
X81463887Y-74738842D01*
X81365908Y-74712589D01*
X81242238Y-74679452D01*
X81204215Y-74674446D01*
X81014741Y-74649500D01*
X81014734Y-74649500D01*
X80785266Y-74649500D01*
X80785258Y-74649500D01*
X80568715Y-74678009D01*
X80557762Y-74679452D01*
X80464076Y-74704554D01*
X80336112Y-74738842D01*
X80124123Y-74826650D01*
X80124109Y-74826657D01*
X79925382Y-74941392D01*
X79743338Y-75081081D01*
X79581081Y-75243338D01*
X79441392Y-75425382D01*
X79326657Y-75624109D01*
X79326650Y-75624123D01*
X79238842Y-75836112D01*
X79179453Y-76057759D01*
X79179451Y-76057770D01*
X79149500Y-76285258D01*
X59776706Y-76285258D01*
X59244409Y-75752962D01*
X59307993Y-75735925D01*
X59422007Y-75670099D01*
X59515099Y-75577007D01*
X59580925Y-75462993D01*
X59597962Y-75399410D01*
X60266066Y-76067514D01*
X60266066Y-76067513D01*
X60312386Y-76003760D01*
X60412432Y-75807410D01*
X60480526Y-75597835D01*
X60515000Y-75380181D01*
X60515000Y-75159818D01*
X60480526Y-74942164D01*
X60412432Y-74732589D01*
X60312388Y-74536243D01*
X60266066Y-74472485D01*
X60266065Y-74472485D01*
X59597962Y-75140589D01*
X59580925Y-75077007D01*
X59515099Y-74962993D01*
X59422007Y-74869901D01*
X59307993Y-74804075D01*
X59244407Y-74787037D01*
X59912513Y-74118932D01*
X59887319Y-74100628D01*
X59844653Y-74045298D01*
X59838674Y-73975685D01*
X59871279Y-73913889D01*
X59887313Y-73899994D01*
X60027365Y-73798242D01*
X60183242Y-73642365D01*
X60312815Y-73464022D01*
X60412895Y-73267606D01*
X60481015Y-73057951D01*
X60515500Y-72840222D01*
X60515500Y-72619778D01*
X60481015Y-72402049D01*
X60412895Y-72192394D01*
X60412895Y-72192393D01*
X60378237Y-72124375D01*
X60312815Y-71995978D01*
X60302620Y-71981946D01*
X60212300Y-71857629D01*
X60188820Y-71791823D01*
X60204646Y-71723769D01*
X60224929Y-71697071D01*
X60620185Y-71301816D01*
X60681507Y-71268334D01*
X60707865Y-71265500D01*
X64225415Y-71265500D01*
X64285837Y-71253481D01*
X64346260Y-71241463D01*
X64346263Y-71241461D01*
X64346266Y-71241461D01*
X64379595Y-71227654D01*
X64379594Y-71227654D01*
X64379600Y-71227652D01*
X64460094Y-71194312D01*
X64523340Y-71152051D01*
X64562541Y-71125858D01*
X64649666Y-71038733D01*
X64649667Y-71038731D01*
X64656733Y-71031665D01*
X64656736Y-71031661D01*
X68358729Y-67329668D01*
X68358733Y-67329666D01*
X68445858Y-67242541D01*
X68514311Y-67140094D01*
X68561463Y-67026260D01*
X68578665Y-66939778D01*
X68585500Y-66905415D01*
X68585500Y-66782201D01*
X68585500Y-55256794D01*
X68561463Y-55135948D01*
X68527726Y-55054500D01*
X68514312Y-55022115D01*
X68499200Y-54999500D01*
X68497257Y-54996591D01*
X68497256Y-54996590D01*
X68445858Y-54919667D01*
X68445856Y-54919664D01*
X68355637Y-54829445D01*
X68355606Y-54829416D01*
X64056798Y-50530608D01*
X64056778Y-50530586D01*
X63965333Y-50439141D01*
X63904857Y-50398733D01*
X63862886Y-50370688D01*
X63862887Y-50370688D01*
X63862885Y-50370687D01*
X63862881Y-50370685D01*
X63759709Y-50327951D01*
X63759707Y-50327950D01*
X63749059Y-50323539D01*
X63749055Y-50323538D01*
X63749053Y-50323537D01*
X63749052Y-50323537D01*
X63688629Y-50311518D01*
X63628210Y-50299500D01*
X63628207Y-50299500D01*
X63628206Y-50299500D01*
X61087864Y-50299500D01*
X61020825Y-50279815D01*
X61000183Y-50263181D01*
X60222260Y-49485258D01*
X79149500Y-49485258D01*
X79149500Y-49714741D01*
X79172545Y-49889778D01*
X79179452Y-49942238D01*
X79224463Y-50110222D01*
X79238842Y-50163887D01*
X79326650Y-50375876D01*
X79326657Y-50375890D01*
X79441392Y-50574617D01*
X79581081Y-50756661D01*
X79581089Y-50756670D01*
X79743330Y-50918911D01*
X79743338Y-50918918D01*
X79925382Y-51058607D01*
X79925385Y-51058608D01*
X79925388Y-51058611D01*
X80124112Y-51173344D01*
X80124117Y-51173346D01*
X80124123Y-51173349D01*
X80183190Y-51197815D01*
X80336113Y-51261158D01*
X80557762Y-51320548D01*
X80785266Y-51350500D01*
X80785273Y-51350500D01*
X81014727Y-51350500D01*
X81014734Y-51350500D01*
X81242238Y-51320548D01*
X81463887Y-51261158D01*
X81675888Y-51173344D01*
X81874612Y-51058611D01*
X82056661Y-50918919D01*
X82056665Y-50918914D01*
X82056670Y-50918911D01*
X82218911Y-50756670D01*
X82218914Y-50756665D01*
X82218919Y-50756661D01*
X82358611Y-50574612D01*
X82473344Y-50375888D01*
X82561158Y-50163887D01*
X82620548Y-49942238D01*
X82650500Y-49714734D01*
X82650500Y-49485266D01*
X82620548Y-49257762D01*
X82561158Y-49036113D01*
X82473344Y-48824112D01*
X82358611Y-48625388D01*
X82358608Y-48625385D01*
X82358607Y-48625382D01*
X82218918Y-48443338D01*
X82218911Y-48443330D01*
X82056670Y-48281089D01*
X82056661Y-48281081D01*
X81874617Y-48141392D01*
X81675890Y-48026657D01*
X81675876Y-48026650D01*
X81463887Y-47938842D01*
X81242238Y-47879452D01*
X81204215Y-47874446D01*
X81014741Y-47849500D01*
X81014734Y-47849500D01*
X80785266Y-47849500D01*
X80785258Y-47849500D01*
X80575741Y-47877085D01*
X80557762Y-47879452D01*
X80535586Y-47885394D01*
X80336112Y-47938842D01*
X80124123Y-48026650D01*
X80124109Y-48026657D01*
X79925382Y-48141392D01*
X79743338Y-48281081D01*
X79581081Y-48443338D01*
X79441392Y-48625382D01*
X79326657Y-48824109D01*
X79326650Y-48824123D01*
X79238842Y-49036112D01*
X79179453Y-49257759D01*
X79179451Y-49257770D01*
X79149500Y-49485258D01*
X60222260Y-49485258D01*
X59117610Y-48380608D01*
X59117590Y-48380586D01*
X59026145Y-48289141D01*
X58974921Y-48254915D01*
X58923699Y-48220689D01*
X58923698Y-48220688D01*
X58923695Y-48220686D01*
X58923692Y-48220685D01*
X58843204Y-48187347D01*
X58809865Y-48173537D01*
X58799839Y-48171543D01*
X58749441Y-48161518D01*
X58689022Y-48149500D01*
X58689019Y-48149500D01*
X58689018Y-48149500D01*
X56372741Y-48149500D01*
X56372721Y-48149499D01*
X56366607Y-48149499D01*
X56243394Y-48149499D01*
X56142597Y-48169548D01*
X56142592Y-48169548D01*
X56122548Y-48173536D01*
X56122544Y-48173537D01*
X56076321Y-48192685D01*
X56076318Y-48192686D01*
X56008714Y-48220688D01*
X56008712Y-48220689D01*
X55906267Y-48289141D01*
X55906263Y-48289144D01*
X55577517Y-48617890D01*
X55516194Y-48651375D01*
X55451519Y-48648140D01*
X55407953Y-48633985D01*
X55407954Y-48633985D01*
X55244654Y-48608121D01*
X55190222Y-48599500D01*
X54969778Y-48599500D01*
X54897201Y-48610995D01*
X54752047Y-48633985D01*
X54542396Y-48702103D01*
X54542393Y-48702104D01*
X54345974Y-48802187D01*
X54167641Y-48931752D01*
X54167636Y-48931756D01*
X54011756Y-49087636D01*
X54011752Y-49087641D01*
X53910318Y-49227254D01*
X53854988Y-49269920D01*
X53785375Y-49275899D01*
X53723580Y-49243293D01*
X53709682Y-49227254D01*
X53608247Y-49087641D01*
X53608243Y-49087636D01*
X53452363Y-48931756D01*
X53452358Y-48931752D01*
X53274025Y-48802187D01*
X53274024Y-48802186D01*
X53274022Y-48802185D01*
X53211096Y-48770122D01*
X53077606Y-48702104D01*
X53077603Y-48702103D01*
X52867952Y-48633985D01*
X52759086Y-48616742D01*
X52650222Y-48599500D01*
X52429778Y-48599500D01*
X52357201Y-48610995D01*
X52212047Y-48633985D01*
X52002396Y-48702103D01*
X52002393Y-48702104D01*
X51805974Y-48802187D01*
X51627641Y-48931752D01*
X51627636Y-48931756D01*
X51471756Y-49087636D01*
X51471752Y-49087641D01*
X51370318Y-49227254D01*
X51314988Y-49269920D01*
X51245375Y-49275899D01*
X51183580Y-49243293D01*
X51169682Y-49227254D01*
X51068247Y-49087641D01*
X51068243Y-49087636D01*
X50912363Y-48931756D01*
X50912358Y-48931752D01*
X50734025Y-48802187D01*
X50734024Y-48802186D01*
X50734022Y-48802185D01*
X50671096Y-48770122D01*
X50537606Y-48702104D01*
X50537603Y-48702103D01*
X50327952Y-48633985D01*
X50219086Y-48616742D01*
X50110222Y-48599500D01*
X49889778Y-48599500D01*
X49817201Y-48610995D01*
X49672047Y-48633985D01*
X49462396Y-48702103D01*
X49462393Y-48702104D01*
X49265974Y-48802187D01*
X49087641Y-48931752D01*
X49087636Y-48931756D01*
X48931756Y-49087636D01*
X48931752Y-49087641D01*
X48830318Y-49227254D01*
X48774988Y-49269920D01*
X48705375Y-49275899D01*
X48643580Y-49243293D01*
X48629682Y-49227254D01*
X48528247Y-49087641D01*
X48528243Y-49087636D01*
X48372363Y-48931756D01*
X48372358Y-48931752D01*
X48194025Y-48802187D01*
X48194024Y-48802186D01*
X48194022Y-48802185D01*
X48131096Y-48770122D01*
X47997606Y-48702104D01*
X47997603Y-48702103D01*
X47787952Y-48633985D01*
X47679086Y-48616742D01*
X47570222Y-48599500D01*
X47349778Y-48599500D01*
X47277201Y-48610995D01*
X47132047Y-48633985D01*
X46922396Y-48702103D01*
X46922393Y-48702104D01*
X46725974Y-48802187D01*
X46547641Y-48931752D01*
X46547636Y-48931756D01*
X46391756Y-49087636D01*
X46391752Y-49087641D01*
X46290318Y-49227254D01*
X46234988Y-49269920D01*
X46165375Y-49275899D01*
X46103580Y-49243293D01*
X46089682Y-49227254D01*
X45988247Y-49087641D01*
X45988243Y-49087636D01*
X45832363Y-48931756D01*
X45832358Y-48931752D01*
X45654025Y-48802187D01*
X45654024Y-48802186D01*
X45654022Y-48802185D01*
X45591096Y-48770122D01*
X45457606Y-48702104D01*
X45457603Y-48702103D01*
X45247952Y-48633985D01*
X45139086Y-48616742D01*
X45030222Y-48599500D01*
X44809778Y-48599500D01*
X44737201Y-48610995D01*
X44592047Y-48633985D01*
X44382396Y-48702103D01*
X44382393Y-48702104D01*
X44185974Y-48802187D01*
X44007641Y-48931752D01*
X44007636Y-48931756D01*
X43851756Y-49087636D01*
X43851752Y-49087641D01*
X43750318Y-49227254D01*
X43694988Y-49269920D01*
X43625375Y-49275899D01*
X43563580Y-49243293D01*
X43549682Y-49227254D01*
X43448247Y-49087641D01*
X43448243Y-49087636D01*
X43292363Y-48931756D01*
X43292358Y-48931752D01*
X43114025Y-48802187D01*
X43114024Y-48802186D01*
X43114022Y-48802185D01*
X43051096Y-48770122D01*
X42917606Y-48702104D01*
X42917603Y-48702103D01*
X42707952Y-48633985D01*
X42599086Y-48616742D01*
X42490222Y-48599500D01*
X42269778Y-48599500D01*
X42197201Y-48610995D01*
X42052047Y-48633985D01*
X41842396Y-48702103D01*
X41842393Y-48702104D01*
X41645974Y-48802187D01*
X41467641Y-48931752D01*
X41467636Y-48931756D01*
X41311756Y-49087636D01*
X41311752Y-49087641D01*
X41182187Y-49265974D01*
X41082104Y-49462393D01*
X41082103Y-49462396D01*
X41013985Y-49672047D01*
X40979500Y-49889778D01*
X40979500Y-50110221D01*
X41013985Y-50327951D01*
X41082103Y-50537603D01*
X41082104Y-50537606D01*
X41113459Y-50599142D01*
X41180041Y-50729815D01*
X41182187Y-50734025D01*
X41311752Y-50912358D01*
X41311756Y-50912363D01*
X41467636Y-51068243D01*
X41467641Y-51068247D01*
X41612294Y-51173342D01*
X41645978Y-51197815D01*
X41770292Y-51261157D01*
X41842393Y-51297895D01*
X41842396Y-51297896D01*
X41936212Y-51328378D01*
X42052049Y-51366015D01*
X42269778Y-51400500D01*
X42269779Y-51400500D01*
X42490221Y-51400500D01*
X42490222Y-51400500D01*
X42707951Y-51366015D01*
X42917606Y-51297895D01*
X43114022Y-51197815D01*
X43292365Y-51068242D01*
X43448242Y-50912365D01*
X43458804Y-50897826D01*
X43549682Y-50772745D01*
X43605011Y-50730079D01*
X43674625Y-50724100D01*
X43736420Y-50756705D01*
X43750318Y-50772745D01*
X43851752Y-50912358D01*
X43851756Y-50912363D01*
X44007636Y-51068243D01*
X44007641Y-51068247D01*
X44152294Y-51173342D01*
X44185978Y-51197815D01*
X44310292Y-51261157D01*
X44382393Y-51297895D01*
X44382396Y-51297896D01*
X44476212Y-51328378D01*
X44592049Y-51366015D01*
X44809778Y-51400500D01*
X44809779Y-51400500D01*
X45030221Y-51400500D01*
X45030222Y-51400500D01*
X45247951Y-51366015D01*
X45457606Y-51297895D01*
X45654022Y-51197815D01*
X45832365Y-51068242D01*
X45988242Y-50912365D01*
X45998804Y-50897826D01*
X46089682Y-50772745D01*
X46145011Y-50730079D01*
X46214625Y-50724100D01*
X46276420Y-50756705D01*
X46290318Y-50772745D01*
X46391752Y-50912358D01*
X46391756Y-50912363D01*
X46547636Y-51068243D01*
X46547641Y-51068247D01*
X46692294Y-51173342D01*
X46725978Y-51197815D01*
X46850292Y-51261157D01*
X46922393Y-51297895D01*
X46922396Y-51297896D01*
X47016212Y-51328378D01*
X47132049Y-51366015D01*
X47349778Y-51400500D01*
X47349779Y-51400500D01*
X47570221Y-51400500D01*
X47570222Y-51400500D01*
X47787951Y-51366015D01*
X47831519Y-51351858D01*
X47901360Y-51349864D01*
X47957518Y-51382109D01*
X48286263Y-51710855D01*
X48286267Y-51710858D01*
X48388710Y-51779309D01*
X48388711Y-51779309D01*
X48388715Y-51779312D01*
X48455396Y-51806931D01*
X48455398Y-51806933D01*
X48502543Y-51826461D01*
X48502548Y-51826463D01*
X48522597Y-51830451D01*
X48556196Y-51837134D01*
X48623392Y-51850501D01*
X48623394Y-51850501D01*
X48752721Y-51850501D01*
X48752741Y-51850500D01*
X50278152Y-51850500D01*
X50345191Y-51870185D01*
X50365833Y-51886819D01*
X51149620Y-52670606D01*
X51149649Y-52670637D01*
X51239867Y-52760855D01*
X51239871Y-52760858D01*
X51342311Y-52829307D01*
X51342317Y-52829310D01*
X51342318Y-52829311D01*
X51456152Y-52876463D01*
X51516575Y-52888481D01*
X51576997Y-52900500D01*
X51576998Y-52900500D01*
X60852071Y-52900500D01*
X60919110Y-52920185D01*
X60964865Y-52972989D01*
X60974809Y-53042147D01*
X60970002Y-53062818D01*
X60934473Y-53172164D01*
X60900000Y-53389818D01*
X60900000Y-53610181D01*
X60934473Y-53827835D01*
X61002567Y-54037410D01*
X61102611Y-54233756D01*
X61148932Y-54297513D01*
X61900000Y-53546445D01*
X61900000Y-53552661D01*
X61927259Y-53654394D01*
X61979920Y-53745606D01*
X62054394Y-53820080D01*
X62145606Y-53872741D01*
X62247339Y-53900000D01*
X62253553Y-53900000D01*
X61502485Y-54651065D01*
X61502602Y-54652548D01*
X61542818Y-54704701D01*
X61548797Y-54774315D01*
X61516192Y-54836110D01*
X61500153Y-54850008D01*
X61387636Y-54931756D01*
X61231756Y-55087636D01*
X61231752Y-55087641D01*
X61102187Y-55265974D01*
X61002104Y-55462393D01*
X61002103Y-55462396D01*
X60933985Y-55672047D01*
X60899500Y-55889778D01*
X60899500Y-56110221D01*
X60933985Y-56327952D01*
X61002103Y-56537603D01*
X61002104Y-56537606D01*
X61102187Y-56734025D01*
X61231752Y-56912358D01*
X61231756Y-56912363D01*
X61318181Y-56998788D01*
X61351666Y-57060111D01*
X61354500Y-57086469D01*
X61354500Y-61375500D01*
X61334815Y-61442539D01*
X61282011Y-61488294D01*
X61230500Y-61499500D01*
X45016455Y-61499500D01*
X44919812Y-61518724D01*
X44823167Y-61537947D01*
X44823161Y-61537949D01*
X44769834Y-61560037D01*
X44769834Y-61560038D01*
X44724315Y-61578892D01*
X44641089Y-61613366D01*
X44641079Y-61613371D01*
X44477219Y-61722859D01*
X44434105Y-61765974D01*
X44337861Y-61862218D01*
X44337858Y-61862221D01*
X42401899Y-63798181D01*
X42340576Y-63831666D01*
X42314218Y-63834500D01*
X42269778Y-63834500D01*
X42197201Y-63845995D01*
X42052047Y-63868985D01*
X41842396Y-63937103D01*
X41842393Y-63937104D01*
X41645974Y-64037187D01*
X41467641Y-64166752D01*
X41467636Y-64166756D01*
X41311756Y-64322636D01*
X41311752Y-64322641D01*
X41182187Y-64500974D01*
X41082104Y-64697393D01*
X41082103Y-64697396D01*
X41013985Y-64907047D01*
X40979500Y-65124778D01*
X40979500Y-65345221D01*
X41013985Y-65562952D01*
X41082103Y-65772603D01*
X41082104Y-65772606D01*
X41150122Y-65906096D01*
X41177129Y-65959100D01*
X41182187Y-65969025D01*
X41311752Y-66147358D01*
X41311756Y-66147363D01*
X41467636Y-66303243D01*
X41467641Y-66303247D01*
X41530522Y-66348932D01*
X41645978Y-66432815D01*
X41774375Y-66498237D01*
X41842393Y-66532895D01*
X41842396Y-66532896D01*
X41936209Y-66563377D01*
X42052049Y-66601015D01*
X42269778Y-66635500D01*
X42269779Y-66635500D01*
X42490221Y-66635500D01*
X42490222Y-66635500D01*
X42707951Y-66601015D01*
X42917606Y-66532895D01*
X43114022Y-66432815D01*
X43292365Y-66303242D01*
X43448242Y-66147365D01*
X43549991Y-66007317D01*
X43605320Y-65964653D01*
X43674933Y-65958674D01*
X43736729Y-65991279D01*
X43750628Y-66007319D01*
X43768932Y-66032513D01*
X44437037Y-65364407D01*
X44454075Y-65427993D01*
X44519901Y-65542007D01*
X44612993Y-65635099D01*
X44727007Y-65700925D01*
X44790590Y-65717962D01*
X44122485Y-66386065D01*
X44122485Y-66386066D01*
X44186243Y-66432388D01*
X44382589Y-66532432D01*
X44592164Y-66600526D01*
X44809819Y-66635000D01*
X45030181Y-66635000D01*
X45252646Y-66599765D01*
X45252865Y-66601151D01*
X45316326Y-66604322D01*
X45373147Y-66644981D01*
X45398965Y-66709905D01*
X45399500Y-66721408D01*
X45399500Y-70261286D01*
X45437947Y-70454570D01*
X45437949Y-70454578D01*
X45451083Y-70486286D01*
X45451083Y-70486287D01*
X45513364Y-70636649D01*
X45513371Y-70636662D01*
X45622860Y-70800523D01*
X45622863Y-70800527D01*
X45766537Y-70944201D01*
X45766559Y-70944221D01*
X53206993Y-78384655D01*
X53207022Y-78384686D01*
X53349472Y-78527136D01*
X53349476Y-78527139D01*
X53513337Y-78636628D01*
X53513350Y-78636635D01*
X53642091Y-78689961D01*
X53685002Y-78707735D01*
X53695422Y-78712051D01*
X53792070Y-78731275D01*
X53840393Y-78740887D01*
X53888716Y-78750500D01*
X53888717Y-78750500D01*
X53888718Y-78750500D01*
X54085798Y-78750500D01*
X54468531Y-78750500D01*
X54535570Y-78770185D01*
X54556212Y-78786819D01*
X54557212Y-78787819D01*
X54590697Y-78849142D01*
X54585713Y-78918834D01*
X54543841Y-78974767D01*
X54478377Y-78999184D01*
X54469531Y-78999500D01*
X42004428Y-78999500D01*
X41995582Y-78999184D01*
X41973622Y-78997613D01*
X41795442Y-78984869D01*
X41777931Y-78982351D01*
X41586209Y-78940645D01*
X41569234Y-78935661D01*
X41385394Y-78867093D01*
X41369300Y-78859743D01*
X41197091Y-78765709D01*
X41182208Y-78756144D01*
X41025135Y-78638561D01*
X41011764Y-78626975D01*
X40873024Y-78488235D01*
X40861438Y-78474864D01*
X40743855Y-78317791D01*
X40734290Y-78302908D01*
X40702815Y-78245266D01*
X40640253Y-78130694D01*
X40632909Y-78114611D01*
X40564336Y-77930760D01*
X40559354Y-77913790D01*
X40517648Y-77722068D01*
X40515130Y-77704556D01*
X40504552Y-77556661D01*
X40500816Y-77504418D01*
X40500500Y-77495572D01*
X40500500Y-76285258D01*
X41349500Y-76285258D01*
X41349500Y-76514741D01*
X41373866Y-76699811D01*
X41379452Y-76742238D01*
X41381398Y-76749500D01*
X41438842Y-76963887D01*
X41526650Y-77175876D01*
X41526657Y-77175890D01*
X41641392Y-77374617D01*
X41781081Y-77556661D01*
X41781089Y-77556670D01*
X41943330Y-77718911D01*
X41943338Y-77718918D01*
X42125382Y-77858607D01*
X42125385Y-77858608D01*
X42125388Y-77858611D01*
X42324112Y-77973344D01*
X42324117Y-77973346D01*
X42324123Y-77973349D01*
X42415480Y-78011190D01*
X42536113Y-78061158D01*
X42757762Y-78120548D01*
X42985266Y-78150500D01*
X42985273Y-78150500D01*
X43214727Y-78150500D01*
X43214734Y-78150500D01*
X43442238Y-78120548D01*
X43663887Y-78061158D01*
X43875888Y-77973344D01*
X44074612Y-77858611D01*
X44256661Y-77718919D01*
X44256665Y-77718914D01*
X44256670Y-77718911D01*
X44418911Y-77556670D01*
X44418914Y-77556665D01*
X44418919Y-77556661D01*
X44558611Y-77374612D01*
X44673344Y-77175888D01*
X44761158Y-76963887D01*
X44820548Y-76742238D01*
X44850500Y-76514734D01*
X44850500Y-76285266D01*
X44820548Y-76057762D01*
X44761158Y-75836113D01*
X44692393Y-75670099D01*
X44673349Y-75624123D01*
X44673346Y-75624117D01*
X44673344Y-75624112D01*
X44558611Y-75425388D01*
X44558608Y-75425385D01*
X44558607Y-75425382D01*
X44457764Y-75293962D01*
X44418919Y-75243339D01*
X44418918Y-75243338D01*
X44418911Y-75243330D01*
X44256670Y-75081089D01*
X44256661Y-75081081D01*
X44074617Y-74941392D01*
X43875890Y-74826657D01*
X43875876Y-74826650D01*
X43663887Y-74738842D01*
X43565908Y-74712589D01*
X43442238Y-74679452D01*
X43404215Y-74674446D01*
X43214741Y-74649500D01*
X43214734Y-74649500D01*
X42985266Y-74649500D01*
X42985258Y-74649500D01*
X42768715Y-74678009D01*
X42757762Y-74679452D01*
X42664076Y-74704554D01*
X42536112Y-74738842D01*
X42324123Y-74826650D01*
X42324109Y-74826657D01*
X42125382Y-74941392D01*
X41943338Y-75081081D01*
X41781081Y-75243338D01*
X41641392Y-75425382D01*
X41526657Y-75624109D01*
X41526650Y-75624123D01*
X41438842Y-75836112D01*
X41379453Y-76057759D01*
X41379451Y-76057770D01*
X41349500Y-76285258D01*
X40500500Y-76285258D01*
X40500500Y-48504427D01*
X40500816Y-48495581D01*
X40500816Y-48495580D01*
X40515130Y-48295436D01*
X40517646Y-48277938D01*
X40559356Y-48086200D01*
X40564335Y-48069242D01*
X40632911Y-47885382D01*
X40640251Y-47869310D01*
X40734294Y-47697083D01*
X40743850Y-47682214D01*
X40861443Y-47525128D01*
X40873017Y-47511771D01*
X41011771Y-47373017D01*
X41025128Y-47361443D01*
X41182214Y-47243850D01*
X41197083Y-47234294D01*
X41369310Y-47140251D01*
X41385382Y-47132911D01*
X41569242Y-47064335D01*
X41586200Y-47059356D01*
X41777938Y-47017646D01*
X41795436Y-47015130D01*
X41995582Y-47000816D01*
X42004428Y-47000500D01*
X42065892Y-47000500D01*
X81934108Y-47000500D01*
X81995572Y-47000500D01*
X82004418Y-47000816D01*
G37*
%TD.AperFunction*%
%TA.AperFunction,Conductor*%
G36*
X63903834Y-64438269D02*
G01*
X63959767Y-64480141D01*
X63984184Y-64545605D01*
X63984500Y-64554451D01*
X63984500Y-64620221D01*
X64018985Y-64837952D01*
X64087103Y-65047603D01*
X64087104Y-65047606D01*
X64187187Y-65244025D01*
X64316752Y-65422358D01*
X64316756Y-65422363D01*
X64472636Y-65578243D01*
X64472641Y-65578247D01*
X64612254Y-65679682D01*
X64654920Y-65735012D01*
X64660899Y-65804625D01*
X64628293Y-65866420D01*
X64612254Y-65880318D01*
X64472641Y-65981752D01*
X64472636Y-65981756D01*
X64316756Y-66137636D01*
X64316752Y-66137641D01*
X64187187Y-66315974D01*
X64087104Y-66512393D01*
X64087103Y-66512396D01*
X64018985Y-66722047D01*
X63984500Y-66939777D01*
X63984500Y-66939778D01*
X63984500Y-67160222D01*
X63987620Y-67179920D01*
X64018985Y-67377952D01*
X64087103Y-67587603D01*
X64087104Y-67587606D01*
X64187187Y-67784025D01*
X64316752Y-67962358D01*
X64316756Y-67962363D01*
X64472636Y-68118243D01*
X64472641Y-68118247D01*
X64650976Y-68247814D01*
X64753312Y-68299958D01*
X64804107Y-68347932D01*
X64820902Y-68415753D01*
X64798364Y-68481888D01*
X64784697Y-68498123D01*
X63754641Y-69528181D01*
X63693318Y-69561666D01*
X63666960Y-69564500D01*
X60444097Y-69564500D01*
X60377058Y-69544815D01*
X60333612Y-69496795D01*
X60312812Y-69455973D01*
X60183247Y-69277641D01*
X60183243Y-69277636D01*
X60027363Y-69121756D01*
X60027358Y-69121752D01*
X59849025Y-68992187D01*
X59849024Y-68992186D01*
X59849022Y-68992185D01*
X59786096Y-68960122D01*
X59652606Y-68892104D01*
X59652603Y-68892103D01*
X59442952Y-68823985D01*
X59334086Y-68806742D01*
X59225222Y-68789500D01*
X59004778Y-68789500D01*
X58932201Y-68800995D01*
X58787047Y-68823985D01*
X58577396Y-68892103D01*
X58577393Y-68892104D01*
X58380974Y-68992187D01*
X58202641Y-69121752D01*
X58202636Y-69121756D01*
X58046756Y-69277636D01*
X58046752Y-69277641D01*
X57917187Y-69455974D01*
X57817104Y-69652393D01*
X57817103Y-69652396D01*
X57748985Y-69862047D01*
X57714500Y-70079778D01*
X57714500Y-70300221D01*
X57748985Y-70517952D01*
X57817103Y-70727603D01*
X57817104Y-70727606D01*
X57917187Y-70924025D01*
X58046752Y-71102358D01*
X58046756Y-71102363D01*
X58202636Y-71258243D01*
X58202641Y-71258247D01*
X58342254Y-71359682D01*
X58384920Y-71415012D01*
X58390899Y-71484625D01*
X58358293Y-71546420D01*
X58342254Y-71560318D01*
X58202641Y-71661752D01*
X58202636Y-71661756D01*
X58046756Y-71817636D01*
X58046752Y-71817641D01*
X57917187Y-71995974D01*
X57817104Y-72192393D01*
X57817103Y-72192396D01*
X57748985Y-72402047D01*
X57714500Y-72619778D01*
X57714500Y-72840221D01*
X57748985Y-73057952D01*
X57817103Y-73267603D01*
X57817104Y-73267606D01*
X57917187Y-73464025D01*
X58046752Y-73642358D01*
X58046756Y-73642363D01*
X58202640Y-73798247D01*
X58342679Y-73899990D01*
X58385345Y-73955319D01*
X58391324Y-74024933D01*
X58358719Y-74086728D01*
X58342679Y-74100626D01*
X58317485Y-74118930D01*
X58317485Y-74118932D01*
X58985590Y-74787037D01*
X58922007Y-74804075D01*
X58807993Y-74869901D01*
X58714901Y-74962993D01*
X58649075Y-75077007D01*
X58632037Y-75140590D01*
X57963932Y-74472485D01*
X57963931Y-74472485D01*
X57917616Y-74536233D01*
X57817567Y-74732589D01*
X57749473Y-74942164D01*
X57715000Y-75159818D01*
X57715000Y-75380181D01*
X57749473Y-75597835D01*
X57817567Y-75807410D01*
X57917611Y-76003756D01*
X57963932Y-76067513D01*
X58632037Y-75399408D01*
X58649075Y-75462993D01*
X58714901Y-75577007D01*
X58807993Y-75670099D01*
X58922007Y-75735925D01*
X58985590Y-75752962D01*
X58315370Y-76423181D01*
X58254047Y-76456666D01*
X58227691Y-76459500D01*
X58167130Y-76459500D01*
X58167123Y-76459501D01*
X58107516Y-76465908D01*
X57972671Y-76516202D01*
X57972664Y-76516206D01*
X57857456Y-76602452D01*
X57857455Y-76602453D01*
X57857454Y-76602454D01*
X57798087Y-76681758D01*
X57784573Y-76699811D01*
X57728639Y-76741682D01*
X57685306Y-76749500D01*
X56531469Y-76749500D01*
X56464430Y-76729815D01*
X56443788Y-76713181D01*
X56412359Y-76681752D01*
X56299846Y-76600008D01*
X56257180Y-76544679D01*
X56251201Y-76475065D01*
X56283806Y-76413270D01*
X56297486Y-76401416D01*
X56297514Y-76401066D01*
X55546447Y-75650000D01*
X55552661Y-75650000D01*
X55654394Y-75622741D01*
X55745606Y-75570080D01*
X55820080Y-75495606D01*
X55872741Y-75404394D01*
X55900000Y-75302661D01*
X55900000Y-75296448D01*
X56651066Y-76047514D01*
X56651066Y-76047513D01*
X56697386Y-75983760D01*
X56797432Y-75787410D01*
X56865526Y-75577835D01*
X56900000Y-75360181D01*
X56900000Y-75139818D01*
X56865526Y-74922164D01*
X56797432Y-74712589D01*
X56697388Y-74516243D01*
X56651066Y-74452485D01*
X56651065Y-74452485D01*
X55900000Y-75203551D01*
X55900000Y-75197339D01*
X55872741Y-75095606D01*
X55820080Y-75004394D01*
X55745606Y-74929920D01*
X55654394Y-74877259D01*
X55552661Y-74850000D01*
X55546445Y-74850000D01*
X56297513Y-74098932D01*
X56233756Y-74052611D01*
X56037410Y-73952567D01*
X55827835Y-73884473D01*
X55610181Y-73850000D01*
X55389819Y-73850000D01*
X55172164Y-73884473D01*
X54962589Y-73952567D01*
X54766233Y-74052616D01*
X54702485Y-74098931D01*
X54702485Y-74098932D01*
X55453553Y-74850000D01*
X55447339Y-74850000D01*
X55345606Y-74877259D01*
X55254394Y-74929920D01*
X55179920Y-75004394D01*
X55127259Y-75095606D01*
X55100000Y-75197339D01*
X55100000Y-75203553D01*
X54348932Y-74452485D01*
X54348931Y-74452485D01*
X54302616Y-74516233D01*
X54202567Y-74712589D01*
X54134473Y-74922164D01*
X54100000Y-75139818D01*
X54100000Y-75360181D01*
X54134473Y-75577835D01*
X54202567Y-75787410D01*
X54302611Y-75983756D01*
X54348932Y-76047513D01*
X55100000Y-75296445D01*
X55100000Y-75302661D01*
X55127259Y-75404394D01*
X55179920Y-75495606D01*
X55254394Y-75570080D01*
X55345606Y-75622741D01*
X55447339Y-75650000D01*
X55453553Y-75650000D01*
X54702485Y-76401065D01*
X54702602Y-76402548D01*
X54742818Y-76454701D01*
X54748797Y-76524315D01*
X54716192Y-76586110D01*
X54700153Y-76600008D01*
X54587636Y-76681756D01*
X54556212Y-76713181D01*
X54494889Y-76746666D01*
X54468531Y-76749500D01*
X54453040Y-76749500D01*
X54386001Y-76729815D01*
X54365359Y-76713181D01*
X48600301Y-70948123D01*
X48566816Y-70886800D01*
X48571800Y-70817108D01*
X48613672Y-70761175D01*
X48631679Y-70749961D01*
X48734022Y-70697815D01*
X48912365Y-70568242D01*
X49068242Y-70412365D01*
X49197815Y-70234022D01*
X49297895Y-70037606D01*
X49366015Y-69827951D01*
X49400500Y-69610222D01*
X49400500Y-69389778D01*
X49366015Y-69172049D01*
X49297895Y-68962394D01*
X49297895Y-68962393D01*
X49227371Y-68823985D01*
X49197815Y-68765978D01*
X49114327Y-68651066D01*
X49068247Y-68587641D01*
X49068243Y-68587636D01*
X48912363Y-68431756D01*
X48912358Y-68431752D01*
X48734023Y-68302185D01*
X48693204Y-68281386D01*
X48642408Y-68233411D01*
X48625500Y-68170902D01*
X48625500Y-67545451D01*
X48645185Y-67478412D01*
X48661815Y-67457774D01*
X49502482Y-66617106D01*
X49563803Y-66583623D01*
X49628478Y-66586857D01*
X49672049Y-66601015D01*
X49889778Y-66635500D01*
X49889779Y-66635500D01*
X50110221Y-66635500D01*
X50110222Y-66635500D01*
X50327951Y-66601015D01*
X50537606Y-66532895D01*
X50734022Y-66432815D01*
X50912365Y-66303242D01*
X51068242Y-66147365D01*
X51078804Y-66132826D01*
X51169682Y-66007745D01*
X51225011Y-65965079D01*
X51294625Y-65959100D01*
X51356420Y-65991705D01*
X51370318Y-66007745D01*
X51471752Y-66147358D01*
X51471756Y-66147363D01*
X51627636Y-66303243D01*
X51627641Y-66303247D01*
X51690522Y-66348932D01*
X51805978Y-66432815D01*
X51934375Y-66498237D01*
X52002393Y-66532895D01*
X52002396Y-66532896D01*
X52096209Y-66563377D01*
X52212049Y-66601015D01*
X52429778Y-66635500D01*
X52429779Y-66635500D01*
X52650221Y-66635500D01*
X52650222Y-66635500D01*
X52867951Y-66601015D01*
X53077606Y-66532895D01*
X53274022Y-66432815D01*
X53452365Y-66303242D01*
X53608242Y-66147365D01*
X53618804Y-66132826D01*
X53709682Y-66007745D01*
X53765011Y-65965079D01*
X53834625Y-65959100D01*
X53896420Y-65991705D01*
X53910318Y-66007745D01*
X54011752Y-66147358D01*
X54011756Y-66147363D01*
X54167636Y-66303243D01*
X54167641Y-66303247D01*
X54230522Y-66348932D01*
X54345978Y-66432815D01*
X54474375Y-66498237D01*
X54542393Y-66532895D01*
X54542396Y-66532896D01*
X54636209Y-66563377D01*
X54752049Y-66601015D01*
X54969778Y-66635500D01*
X54969779Y-66635500D01*
X55190221Y-66635500D01*
X55190222Y-66635500D01*
X55407951Y-66601015D01*
X55617606Y-66532895D01*
X55814022Y-66432815D01*
X55992365Y-66303242D01*
X56148242Y-66147365D01*
X56158804Y-66132826D01*
X56249682Y-66007745D01*
X56305011Y-65965079D01*
X56374625Y-65959100D01*
X56436420Y-65991705D01*
X56450318Y-66007745D01*
X56551752Y-66147358D01*
X56551756Y-66147363D01*
X56707636Y-66303243D01*
X56707641Y-66303247D01*
X56770522Y-66348932D01*
X56885978Y-66432815D01*
X57014375Y-66498237D01*
X57082393Y-66532895D01*
X57082396Y-66532896D01*
X57292048Y-66601015D01*
X57347218Y-66609753D01*
X57410353Y-66639682D01*
X57447285Y-66698993D01*
X57446287Y-66768856D01*
X57415502Y-66819907D01*
X56117518Y-68117890D01*
X56056195Y-68151375D01*
X55991521Y-68148141D01*
X55947950Y-68133984D01*
X55764706Y-68104961D01*
X55730222Y-68099500D01*
X55509778Y-68099500D01*
X55437201Y-68110995D01*
X55292047Y-68133985D01*
X55082396Y-68202103D01*
X55082393Y-68202104D01*
X54885974Y-68302187D01*
X54707641Y-68431752D01*
X54707636Y-68431756D01*
X54551756Y-68587636D01*
X54551752Y-68587641D01*
X54422187Y-68765974D01*
X54322104Y-68962393D01*
X54322103Y-68962396D01*
X54253985Y-69172047D01*
X54237261Y-69277641D01*
X54219500Y-69389778D01*
X54219500Y-69610222D01*
X54226180Y-69652396D01*
X54253985Y-69827952D01*
X54322103Y-70037603D01*
X54322104Y-70037606D01*
X54422187Y-70234025D01*
X54551752Y-70412358D01*
X54551756Y-70412363D01*
X54707636Y-70568243D01*
X54707641Y-70568247D01*
X54863192Y-70681260D01*
X54885978Y-70697815D01*
X55010328Y-70761175D01*
X55082393Y-70797895D01*
X55082396Y-70797896D01*
X55187221Y-70831955D01*
X55292049Y-70866015D01*
X55509778Y-70900500D01*
X55509779Y-70900500D01*
X55730221Y-70900500D01*
X55730222Y-70900500D01*
X55947951Y-70866015D01*
X56157606Y-70797895D01*
X56354022Y-70697815D01*
X56532365Y-70568242D01*
X56688242Y-70412365D01*
X56817815Y-70234022D01*
X56917895Y-70037606D01*
X56986015Y-69827951D01*
X57020500Y-69610222D01*
X57020500Y-69389778D01*
X56986015Y-69172049D01*
X56971857Y-69128478D01*
X56969863Y-69058638D01*
X57002106Y-69002482D01*
X58614771Y-67389818D01*
X60955000Y-67389818D01*
X60955000Y-67610181D01*
X60989473Y-67827835D01*
X61057567Y-68037410D01*
X61157611Y-68233756D01*
X61203932Y-68297513D01*
X61955000Y-67546445D01*
X61955000Y-67552661D01*
X61982259Y-67654394D01*
X62034920Y-67745606D01*
X62109394Y-67820080D01*
X62200606Y-67872741D01*
X62302339Y-67900000D01*
X62308553Y-67900000D01*
X61557485Y-68651065D01*
X61557485Y-68651066D01*
X61621243Y-68697388D01*
X61817589Y-68797432D01*
X62027164Y-68865526D01*
X62244819Y-68900000D01*
X62465181Y-68900000D01*
X62682835Y-68865526D01*
X62892410Y-68797432D01*
X63088760Y-68697386D01*
X63152513Y-68651066D01*
X63152514Y-68651066D01*
X62401447Y-67900000D01*
X62407661Y-67900000D01*
X62509394Y-67872741D01*
X62600606Y-67820080D01*
X62675080Y-67745606D01*
X62727741Y-67654394D01*
X62755000Y-67552661D01*
X62755000Y-67546448D01*
X63506066Y-68297514D01*
X63506066Y-68297513D01*
X63552386Y-68233760D01*
X63652432Y-68037410D01*
X63720526Y-67827835D01*
X63755000Y-67610181D01*
X63755000Y-67389818D01*
X63720526Y-67172164D01*
X63652432Y-66962589D01*
X63552388Y-66766243D01*
X63506066Y-66702485D01*
X63506065Y-66702485D01*
X62755000Y-67453551D01*
X62755000Y-67447339D01*
X62727741Y-67345606D01*
X62675080Y-67254394D01*
X62600606Y-67179920D01*
X62509394Y-67127259D01*
X62407661Y-67100000D01*
X62401445Y-67100000D01*
X63152513Y-66348932D01*
X63088756Y-66302611D01*
X62892410Y-66202567D01*
X62682835Y-66134473D01*
X62465181Y-66100000D01*
X62244819Y-66100000D01*
X62027164Y-66134473D01*
X61817589Y-66202567D01*
X61621233Y-66302616D01*
X61557485Y-66348931D01*
X61557485Y-66348932D01*
X62308553Y-67100000D01*
X62302339Y-67100000D01*
X62200606Y-67127259D01*
X62109394Y-67179920D01*
X62034920Y-67254394D01*
X61982259Y-67345606D01*
X61955000Y-67447339D01*
X61955000Y-67453553D01*
X61203932Y-66702485D01*
X61203931Y-66702485D01*
X61157616Y-66766233D01*
X61057567Y-66962589D01*
X60989473Y-67172164D01*
X60955000Y-67389818D01*
X58614771Y-67389818D01*
X60342771Y-65661819D01*
X60404094Y-65628334D01*
X60430452Y-65625500D01*
X62416607Y-65625500D01*
X62477029Y-65613481D01*
X62537452Y-65601463D01*
X62537455Y-65601461D01*
X62537458Y-65601461D01*
X62570787Y-65587654D01*
X62570786Y-65587654D01*
X62570792Y-65587652D01*
X62651286Y-65554312D01*
X62705837Y-65517861D01*
X62753733Y-65485858D01*
X62840858Y-65398733D01*
X62840859Y-65398731D01*
X62847925Y-65391665D01*
X62847928Y-65391661D01*
X63772819Y-64466770D01*
X63834142Y-64433285D01*
X63903834Y-64438269D01*
G37*
%TD.AperFunction*%
%TA.AperFunction,Conductor*%
G36*
X61390570Y-63520185D02*
G01*
X61411212Y-63536819D01*
X61442636Y-63568243D01*
X61442641Y-63568247D01*
X61598192Y-63681260D01*
X61620978Y-63697815D01*
X61749375Y-63763237D01*
X61817393Y-63797895D01*
X61817396Y-63797896D01*
X61921332Y-63831666D01*
X62027049Y-63866015D01*
X62244778Y-63900500D01*
X62244779Y-63900500D01*
X62270547Y-63900500D01*
X62337586Y-63920185D01*
X62383341Y-63972989D01*
X62393285Y-64042147D01*
X62364260Y-64105703D01*
X62358228Y-64112181D01*
X62132229Y-64338181D01*
X62070906Y-64371666D01*
X62044548Y-64374500D01*
X60058389Y-64374500D01*
X59997971Y-64386518D01*
X59954743Y-64395116D01*
X59937546Y-64398537D01*
X59906352Y-64411459D01*
X59906351Y-64411459D01*
X59823713Y-64445688D01*
X59823708Y-64445690D01*
X59721272Y-64514138D01*
X59721264Y-64514144D01*
X59204907Y-65030502D01*
X59143584Y-65063987D01*
X59073892Y-65059003D01*
X59017959Y-65017131D01*
X58994753Y-64962218D01*
X58986015Y-64907048D01*
X58917896Y-64697396D01*
X58917895Y-64697393D01*
X58845061Y-64554451D01*
X58817815Y-64500978D01*
X58771685Y-64437485D01*
X58688247Y-64322641D01*
X58688243Y-64322636D01*
X58532363Y-64166756D01*
X58532358Y-64166752D01*
X58354025Y-64037187D01*
X58354024Y-64037186D01*
X58354022Y-64037185D01*
X58291096Y-64005122D01*
X58157606Y-63937104D01*
X58157603Y-63937103D01*
X57947952Y-63868985D01*
X57839086Y-63851742D01*
X57730222Y-63834500D01*
X57509778Y-63834500D01*
X57437201Y-63845995D01*
X57292047Y-63868985D01*
X57082396Y-63937103D01*
X57082393Y-63937104D01*
X56885974Y-64037187D01*
X56707641Y-64166752D01*
X56707636Y-64166756D01*
X56551756Y-64322636D01*
X56551752Y-64322641D01*
X56450318Y-64462254D01*
X56394988Y-64504920D01*
X56325375Y-64510899D01*
X56263580Y-64478293D01*
X56249682Y-64462254D01*
X56148247Y-64322641D01*
X56148243Y-64322636D01*
X55992363Y-64166756D01*
X55992358Y-64166752D01*
X55814025Y-64037187D01*
X55814024Y-64037186D01*
X55814022Y-64037185D01*
X55751096Y-64005122D01*
X55617606Y-63937104D01*
X55617603Y-63937103D01*
X55407952Y-63868985D01*
X55299086Y-63851742D01*
X55190222Y-63834500D01*
X54969778Y-63834500D01*
X54897201Y-63845995D01*
X54752047Y-63868985D01*
X54542396Y-63937103D01*
X54542393Y-63937104D01*
X54345974Y-64037187D01*
X54167641Y-64166752D01*
X54167636Y-64166756D01*
X54011756Y-64322636D01*
X54011752Y-64322641D01*
X53910318Y-64462254D01*
X53854988Y-64504920D01*
X53785375Y-64510899D01*
X53723580Y-64478293D01*
X53709682Y-64462254D01*
X53608247Y-64322641D01*
X53608243Y-64322636D01*
X53452363Y-64166756D01*
X53452358Y-64166752D01*
X53274025Y-64037187D01*
X53274024Y-64037186D01*
X53274022Y-64037185D01*
X53211096Y-64005122D01*
X53077606Y-63937104D01*
X53077603Y-63937103D01*
X52867952Y-63868985D01*
X52759086Y-63851742D01*
X52650222Y-63834500D01*
X52429778Y-63834500D01*
X52357201Y-63845995D01*
X52212047Y-63868985D01*
X52002396Y-63937103D01*
X52002393Y-63937104D01*
X51805974Y-64037187D01*
X51627641Y-64166752D01*
X51627636Y-64166756D01*
X51471756Y-64322636D01*
X51471752Y-64322641D01*
X51370318Y-64462254D01*
X51314988Y-64504920D01*
X51245375Y-64510899D01*
X51183580Y-64478293D01*
X51169682Y-64462254D01*
X51068247Y-64322641D01*
X51068243Y-64322636D01*
X50912363Y-64166756D01*
X50912358Y-64166752D01*
X50734025Y-64037187D01*
X50734024Y-64037186D01*
X50734022Y-64037185D01*
X50671096Y-64005122D01*
X50537606Y-63937104D01*
X50537603Y-63937103D01*
X50327952Y-63868985D01*
X50219086Y-63851742D01*
X50110222Y-63834500D01*
X49889778Y-63834500D01*
X49817201Y-63845995D01*
X49672047Y-63868985D01*
X49462396Y-63937103D01*
X49462393Y-63937104D01*
X49265974Y-64037187D01*
X49087641Y-64166752D01*
X49087636Y-64166756D01*
X48931756Y-64322636D01*
X48931752Y-64322641D01*
X48830318Y-64462254D01*
X48774988Y-64504920D01*
X48705375Y-64510899D01*
X48643580Y-64478293D01*
X48629682Y-64462254D01*
X48528247Y-64322641D01*
X48528243Y-64322636D01*
X48372363Y-64166756D01*
X48372358Y-64166752D01*
X48194025Y-64037187D01*
X48194024Y-64037186D01*
X48194022Y-64037185D01*
X48131096Y-64005122D01*
X47997606Y-63937104D01*
X47997603Y-63937103D01*
X47787952Y-63868985D01*
X47679086Y-63851742D01*
X47570222Y-63834500D01*
X47349778Y-63834500D01*
X47277201Y-63845995D01*
X47132047Y-63868985D01*
X46922396Y-63937103D01*
X46922393Y-63937104D01*
X46725974Y-64037187D01*
X46547641Y-64166752D01*
X46547636Y-64166756D01*
X46391756Y-64322636D01*
X46290008Y-64462681D01*
X46234678Y-64505346D01*
X46165065Y-64511325D01*
X46103270Y-64478719D01*
X46089371Y-64462680D01*
X46071066Y-64437485D01*
X46071065Y-64437485D01*
X45402962Y-65105590D01*
X45385925Y-65042007D01*
X45320099Y-64927993D01*
X45227007Y-64834901D01*
X45112993Y-64769075D01*
X45049407Y-64752037D01*
X45717513Y-64083932D01*
X45653756Y-64037611D01*
X45457410Y-63937567D01*
X45374323Y-63910571D01*
X45316648Y-63871134D01*
X45289449Y-63806775D01*
X45301363Y-63737929D01*
X45324954Y-63704965D01*
X45493103Y-63536816D01*
X45554424Y-63503334D01*
X45580782Y-63500500D01*
X61323531Y-63500500D01*
X61390570Y-63520185D01*
G37*
%TD.AperFunction*%
%TA.AperFunction,Conductor*%
G36*
X63945677Y-57020185D02*
G01*
X63991432Y-57072989D01*
X64001111Y-57105102D01*
X64018985Y-57217952D01*
X64087103Y-57427603D01*
X64087104Y-57427606D01*
X64187187Y-57624025D01*
X64316752Y-57802358D01*
X64316756Y-57802363D01*
X64472640Y-57958247D01*
X64612679Y-58059990D01*
X64655345Y-58115319D01*
X64661324Y-58184933D01*
X64628719Y-58246728D01*
X64612679Y-58260626D01*
X64587485Y-58278930D01*
X64587485Y-58278932D01*
X65255590Y-58947037D01*
X65192007Y-58964075D01*
X65077993Y-59029901D01*
X64984901Y-59122993D01*
X64919075Y-59237007D01*
X64902037Y-59300590D01*
X64233932Y-58632485D01*
X64233931Y-58632485D01*
X64187616Y-58696233D01*
X64087567Y-58892589D01*
X64019473Y-59102164D01*
X63985000Y-59319818D01*
X63985000Y-59540181D01*
X64019473Y-59757835D01*
X64087567Y-59967410D01*
X64187611Y-60163756D01*
X64233932Y-60227513D01*
X64902037Y-59559408D01*
X64919075Y-59622993D01*
X64984901Y-59737007D01*
X65077993Y-59830099D01*
X65192007Y-59895925D01*
X65255589Y-59912962D01*
X64587485Y-60581065D01*
X64587485Y-60581066D01*
X64612680Y-60599371D01*
X64655346Y-60654701D01*
X64661325Y-60724314D01*
X64628720Y-60786110D01*
X64612681Y-60800008D01*
X64472636Y-60901756D01*
X64316756Y-61057636D01*
X64316752Y-61057641D01*
X64187187Y-61235974D01*
X64087104Y-61432393D01*
X64087103Y-61432396D01*
X64018985Y-61642047D01*
X63984500Y-61859778D01*
X63984500Y-62080221D01*
X64018984Y-62297950D01*
X64033141Y-62341521D01*
X64035135Y-62411362D01*
X64002891Y-62467517D01*
X63967182Y-62503227D01*
X63905860Y-62536713D01*
X63836168Y-62531729D01*
X63780234Y-62489859D01*
X63755816Y-62424395D01*
X63755500Y-62415547D01*
X63755500Y-62389778D01*
X63740956Y-62297950D01*
X63721015Y-62172049D01*
X63652895Y-61962394D01*
X63652895Y-61962393D01*
X63600609Y-61859778D01*
X63552815Y-61765978D01*
X63462776Y-61642049D01*
X63423247Y-61587641D01*
X63423243Y-61587636D01*
X63391819Y-61556212D01*
X63358334Y-61494889D01*
X63355500Y-61468531D01*
X63355500Y-57124500D01*
X63375185Y-57057461D01*
X63427989Y-57011706D01*
X63479500Y-57000500D01*
X63878638Y-57000500D01*
X63945677Y-57020185D01*
G37*
%TD.AperFunction*%
%TA.AperFunction,Conductor*%
G36*
X63451066Y-54297514D02*
G01*
X63451066Y-54297513D01*
X63497386Y-54233760D01*
X63597431Y-54037412D01*
X63605481Y-54012637D01*
X63644918Y-53954961D01*
X63709276Y-53927761D01*
X63778123Y-53939675D01*
X63811094Y-53963272D01*
X64635641Y-54787819D01*
X64669126Y-54849142D01*
X64664142Y-54918834D01*
X64622270Y-54974767D01*
X64556806Y-54999184D01*
X64547960Y-54999500D01*
X63331469Y-54999500D01*
X63264430Y-54979815D01*
X63243788Y-54963181D01*
X63212359Y-54931752D01*
X63099846Y-54850008D01*
X63057180Y-54794679D01*
X63051201Y-54725065D01*
X63083806Y-54663270D01*
X63097486Y-54651416D01*
X63097514Y-54651066D01*
X62346447Y-53900000D01*
X62352661Y-53900000D01*
X62454394Y-53872741D01*
X62545606Y-53820080D01*
X62620080Y-53745606D01*
X62672741Y-53654394D01*
X62700000Y-53552661D01*
X62700000Y-53546447D01*
X63451066Y-54297514D01*
G37*
%TD.AperFunction*%
%TD*%
M02*
