%TF.GenerationSoftware,KiCad,Pcbnew,10.0.6*%
%TF.CreationDate,2026-09-07T21:02:56-04:00*%
%TF.ProjectId,mmWave Presence Lighting Node,6d6d5761-7665-4205-9072-6573656e6365,rev?*%
%TF.SameCoordinates,Original*%
%TF.FileFunction,Legend,Bot*%
%TF.FilePolarity,Positive*%
%FSLAX46Y46*%
G04 Gerber Fmt 4.6, Leading zero omitted, Abs format (unit mm)*
G04 Created by KiCad (PCBNEW 10.0.6) date 2026-09-07 21:02:56*
%MOMM*%
%LPD*%
G01*
G04 APERTURE LIST*
%ADD10C,0.150000*%
%ADD11C,0.250000*%
%ADD12C,0.120000*%
G04 APERTURE END LIST*
D10*
X54287030Y-56594295D02*
X53753696Y-57394295D01*
X53753696Y-56594295D02*
X54287030Y-57394295D01*
X53448934Y-57394295D02*
X53448934Y-56860961D01*
X53448934Y-56594295D02*
X53487030Y-56632390D01*
X53487030Y-56632390D02*
X53448934Y-56670485D01*
X53448934Y-56670485D02*
X53410839Y-56632390D01*
X53410839Y-56632390D02*
X53448934Y-56594295D01*
X53448934Y-56594295D02*
X53448934Y-56670485D01*
X52725125Y-57394295D02*
X52725125Y-56975247D01*
X52725125Y-56975247D02*
X52763220Y-56899057D01*
X52763220Y-56899057D02*
X52839411Y-56860961D01*
X52839411Y-56860961D02*
X52991792Y-56860961D01*
X52991792Y-56860961D02*
X53067982Y-56899057D01*
X52725125Y-57356200D02*
X52801316Y-57394295D01*
X52801316Y-57394295D02*
X52991792Y-57394295D01*
X52991792Y-57394295D02*
X53067982Y-57356200D01*
X53067982Y-57356200D02*
X53106078Y-57280009D01*
X53106078Y-57280009D02*
X53106078Y-57203819D01*
X53106078Y-57203819D02*
X53067982Y-57127628D01*
X53067982Y-57127628D02*
X52991792Y-57089533D01*
X52991792Y-57089533D02*
X52801316Y-57089533D01*
X52801316Y-57089533D02*
X52725125Y-57051438D01*
X52229887Y-57394295D02*
X52306077Y-57356200D01*
X52306077Y-57356200D02*
X52344172Y-57318104D01*
X52344172Y-57318104D02*
X52382268Y-57241914D01*
X52382268Y-57241914D02*
X52382268Y-57013342D01*
X52382268Y-57013342D02*
X52344172Y-56937152D01*
X52344172Y-56937152D02*
X52306077Y-56899057D01*
X52306077Y-56899057D02*
X52229887Y-56860961D01*
X52229887Y-56860961D02*
X52115601Y-56860961D01*
X52115601Y-56860961D02*
X52039410Y-56899057D01*
X52039410Y-56899057D02*
X52001315Y-56937152D01*
X52001315Y-56937152D02*
X51963220Y-57013342D01*
X51963220Y-57013342D02*
X51963220Y-57241914D01*
X51963220Y-57241914D02*
X52001315Y-57318104D01*
X52001315Y-57318104D02*
X52039410Y-57356200D01*
X52039410Y-57356200D02*
X52115601Y-57394295D01*
X52115601Y-57394295D02*
X52229887Y-57394295D01*
X51010838Y-56975247D02*
X50744172Y-56975247D01*
X50629886Y-57394295D02*
X51010838Y-57394295D01*
X51010838Y-57394295D02*
X51010838Y-56594295D01*
X51010838Y-56594295D02*
X50629886Y-56594295D01*
X50325124Y-57356200D02*
X50210838Y-57394295D01*
X50210838Y-57394295D02*
X50020362Y-57394295D01*
X50020362Y-57394295D02*
X49944171Y-57356200D01*
X49944171Y-57356200D02*
X49906076Y-57318104D01*
X49906076Y-57318104D02*
X49867981Y-57241914D01*
X49867981Y-57241914D02*
X49867981Y-57165723D01*
X49867981Y-57165723D02*
X49906076Y-57089533D01*
X49906076Y-57089533D02*
X49944171Y-57051438D01*
X49944171Y-57051438D02*
X50020362Y-57013342D01*
X50020362Y-57013342D02*
X50172743Y-56975247D01*
X50172743Y-56975247D02*
X50248933Y-56937152D01*
X50248933Y-56937152D02*
X50287028Y-56899057D01*
X50287028Y-56899057D02*
X50325124Y-56822866D01*
X50325124Y-56822866D02*
X50325124Y-56746676D01*
X50325124Y-56746676D02*
X50287028Y-56670485D01*
X50287028Y-56670485D02*
X50248933Y-56632390D01*
X50248933Y-56632390D02*
X50172743Y-56594295D01*
X50172743Y-56594295D02*
X49982266Y-56594295D01*
X49982266Y-56594295D02*
X49867981Y-56632390D01*
X49525123Y-57394295D02*
X49525123Y-56594295D01*
X49525123Y-56594295D02*
X49220361Y-56594295D01*
X49220361Y-56594295D02*
X49144171Y-56632390D01*
X49144171Y-56632390D02*
X49106076Y-56670485D01*
X49106076Y-56670485D02*
X49067980Y-56746676D01*
X49067980Y-56746676D02*
X49067980Y-56860961D01*
X49067980Y-56860961D02*
X49106076Y-56937152D01*
X49106076Y-56937152D02*
X49144171Y-56975247D01*
X49144171Y-56975247D02*
X49220361Y-57013342D01*
X49220361Y-57013342D02*
X49525123Y-57013342D01*
X48801314Y-56594295D02*
X48306076Y-56594295D01*
X48306076Y-56594295D02*
X48572742Y-56899057D01*
X48572742Y-56899057D02*
X48458457Y-56899057D01*
X48458457Y-56899057D02*
X48382266Y-56937152D01*
X48382266Y-56937152D02*
X48344171Y-56975247D01*
X48344171Y-56975247D02*
X48306076Y-57051438D01*
X48306076Y-57051438D02*
X48306076Y-57241914D01*
X48306076Y-57241914D02*
X48344171Y-57318104D01*
X48344171Y-57318104D02*
X48382266Y-57356200D01*
X48382266Y-57356200D02*
X48458457Y-57394295D01*
X48458457Y-57394295D02*
X48687028Y-57394295D01*
X48687028Y-57394295D02*
X48763219Y-57356200D01*
X48763219Y-57356200D02*
X48801314Y-57318104D01*
X48001314Y-56670485D02*
X47963218Y-56632390D01*
X47963218Y-56632390D02*
X47887028Y-56594295D01*
X47887028Y-56594295D02*
X47696552Y-56594295D01*
X47696552Y-56594295D02*
X47620361Y-56632390D01*
X47620361Y-56632390D02*
X47582266Y-56670485D01*
X47582266Y-56670485D02*
X47544171Y-56746676D01*
X47544171Y-56746676D02*
X47544171Y-56822866D01*
X47544171Y-56822866D02*
X47582266Y-56937152D01*
X47582266Y-56937152D02*
X48039409Y-57394295D01*
X48039409Y-57394295D02*
X47544171Y-57394295D01*
X46744170Y-57318104D02*
X46782266Y-57356200D01*
X46782266Y-57356200D02*
X46896551Y-57394295D01*
X46896551Y-57394295D02*
X46972742Y-57394295D01*
X46972742Y-57394295D02*
X47087028Y-57356200D01*
X47087028Y-57356200D02*
X47163218Y-57280009D01*
X47163218Y-57280009D02*
X47201313Y-57203819D01*
X47201313Y-57203819D02*
X47239409Y-57051438D01*
X47239409Y-57051438D02*
X47239409Y-56937152D01*
X47239409Y-56937152D02*
X47201313Y-56784771D01*
X47201313Y-56784771D02*
X47163218Y-56708580D01*
X47163218Y-56708580D02*
X47087028Y-56632390D01*
X47087028Y-56632390D02*
X46972742Y-56594295D01*
X46972742Y-56594295D02*
X46896551Y-56594295D01*
X46896551Y-56594295D02*
X46782266Y-56632390D01*
X46782266Y-56632390D02*
X46744170Y-56670485D01*
X46477504Y-56594295D02*
X45982266Y-56594295D01*
X45982266Y-56594295D02*
X46248932Y-56899057D01*
X46248932Y-56899057D02*
X46134647Y-56899057D01*
X46134647Y-56899057D02*
X46058456Y-56937152D01*
X46058456Y-56937152D02*
X46020361Y-56975247D01*
X46020361Y-56975247D02*
X45982266Y-57051438D01*
X45982266Y-57051438D02*
X45982266Y-57241914D01*
X45982266Y-57241914D02*
X46020361Y-57318104D01*
X46020361Y-57318104D02*
X46058456Y-57356200D01*
X46058456Y-57356200D02*
X46134647Y-57394295D01*
X46134647Y-57394295D02*
X46363218Y-57394295D01*
X46363218Y-57394295D02*
X46439409Y-57356200D01*
X46439409Y-57356200D02*
X46477504Y-57318104D01*
X73787030Y-77094295D02*
X73291792Y-77094295D01*
X73291792Y-77094295D02*
X73558458Y-77399057D01*
X73558458Y-77399057D02*
X73444173Y-77399057D01*
X73444173Y-77399057D02*
X73367982Y-77437152D01*
X73367982Y-77437152D02*
X73329887Y-77475247D01*
X73329887Y-77475247D02*
X73291792Y-77551438D01*
X73291792Y-77551438D02*
X73291792Y-77741914D01*
X73291792Y-77741914D02*
X73329887Y-77818104D01*
X73329887Y-77818104D02*
X73367982Y-77856200D01*
X73367982Y-77856200D02*
X73444173Y-77894295D01*
X73444173Y-77894295D02*
X73672744Y-77894295D01*
X73672744Y-77894295D02*
X73748935Y-77856200D01*
X73748935Y-77856200D02*
X73787030Y-77818104D01*
X73063220Y-77094295D02*
X72796553Y-77894295D01*
X72796553Y-77894295D02*
X72529887Y-77094295D01*
X72339411Y-77094295D02*
X71844173Y-77094295D01*
X71844173Y-77094295D02*
X72110839Y-77399057D01*
X72110839Y-77399057D02*
X71996554Y-77399057D01*
X71996554Y-77399057D02*
X71920363Y-77437152D01*
X71920363Y-77437152D02*
X71882268Y-77475247D01*
X71882268Y-77475247D02*
X71844173Y-77551438D01*
X71844173Y-77551438D02*
X71844173Y-77741914D01*
X71844173Y-77741914D02*
X71882268Y-77818104D01*
X71882268Y-77818104D02*
X71920363Y-77856200D01*
X71920363Y-77856200D02*
X71996554Y-77894295D01*
X71996554Y-77894295D02*
X72225125Y-77894295D01*
X72225125Y-77894295D02*
X72301316Y-77856200D01*
X72301316Y-77856200D02*
X72339411Y-77818104D01*
X70663220Y-78199057D02*
X70701315Y-78160961D01*
X70701315Y-78160961D02*
X70777506Y-78046676D01*
X70777506Y-78046676D02*
X70815601Y-77970485D01*
X70815601Y-77970485D02*
X70853696Y-77856200D01*
X70853696Y-77856200D02*
X70891791Y-77665723D01*
X70891791Y-77665723D02*
X70891791Y-77513342D01*
X70891791Y-77513342D02*
X70853696Y-77322866D01*
X70853696Y-77322866D02*
X70815601Y-77208580D01*
X70815601Y-77208580D02*
X70777506Y-77132390D01*
X70777506Y-77132390D02*
X70701315Y-77018104D01*
X70701315Y-77018104D02*
X70663220Y-76980009D01*
X69901315Y-77894295D02*
X70167982Y-77513342D01*
X70358458Y-77894295D02*
X70358458Y-77094295D01*
X70358458Y-77094295D02*
X70053696Y-77094295D01*
X70053696Y-77094295D02*
X69977506Y-77132390D01*
X69977506Y-77132390D02*
X69939411Y-77170485D01*
X69939411Y-77170485D02*
X69901315Y-77246676D01*
X69901315Y-77246676D02*
X69901315Y-77360961D01*
X69901315Y-77360961D02*
X69939411Y-77437152D01*
X69939411Y-77437152D02*
X69977506Y-77475247D01*
X69977506Y-77475247D02*
X70053696Y-77513342D01*
X70053696Y-77513342D02*
X70358458Y-77513342D01*
X69558458Y-77475247D02*
X69291792Y-77475247D01*
X69177506Y-77894295D02*
X69558458Y-77894295D01*
X69558458Y-77894295D02*
X69558458Y-77094295D01*
X69558458Y-77094295D02*
X69177506Y-77094295D01*
X68834648Y-77894295D02*
X68834648Y-77094295D01*
X68834648Y-77094295D02*
X68644172Y-77094295D01*
X68644172Y-77094295D02*
X68529886Y-77132390D01*
X68529886Y-77132390D02*
X68453696Y-77208580D01*
X68453696Y-77208580D02*
X68415601Y-77284771D01*
X68415601Y-77284771D02*
X68377505Y-77437152D01*
X68377505Y-77437152D02*
X68377505Y-77551438D01*
X68377505Y-77551438D02*
X68415601Y-77703819D01*
X68415601Y-77703819D02*
X68453696Y-77780009D01*
X68453696Y-77780009D02*
X68529886Y-77856200D01*
X68529886Y-77856200D02*
X68644172Y-77894295D01*
X68644172Y-77894295D02*
X68834648Y-77894295D01*
X68110839Y-78199057D02*
X68072744Y-78160961D01*
X68072744Y-78160961D02*
X67996553Y-78046676D01*
X67996553Y-78046676D02*
X67958458Y-77970485D01*
X67958458Y-77970485D02*
X67920363Y-77856200D01*
X67920363Y-77856200D02*
X67882267Y-77665723D01*
X67882267Y-77665723D02*
X67882267Y-77513342D01*
X67882267Y-77513342D02*
X67920363Y-77322866D01*
X67920363Y-77322866D02*
X67958458Y-77208580D01*
X67958458Y-77208580D02*
X67996553Y-77132390D01*
X67996553Y-77132390D02*
X68072744Y-77018104D01*
X68072744Y-77018104D02*
X68110839Y-76980009D01*
X74248935Y-70356200D02*
X74134649Y-70394295D01*
X74134649Y-70394295D02*
X73944173Y-70394295D01*
X73944173Y-70394295D02*
X73867982Y-70356200D01*
X73867982Y-70356200D02*
X73829887Y-70318104D01*
X73829887Y-70318104D02*
X73791792Y-70241914D01*
X73791792Y-70241914D02*
X73791792Y-70165723D01*
X73791792Y-70165723D02*
X73829887Y-70089533D01*
X73829887Y-70089533D02*
X73867982Y-70051438D01*
X73867982Y-70051438D02*
X73944173Y-70013342D01*
X73944173Y-70013342D02*
X74096554Y-69975247D01*
X74096554Y-69975247D02*
X74172744Y-69937152D01*
X74172744Y-69937152D02*
X74210839Y-69899057D01*
X74210839Y-69899057D02*
X74248935Y-69822866D01*
X74248935Y-69822866D02*
X74248935Y-69746676D01*
X74248935Y-69746676D02*
X74210839Y-69670485D01*
X74210839Y-69670485D02*
X74172744Y-69632390D01*
X74172744Y-69632390D02*
X74096554Y-69594295D01*
X74096554Y-69594295D02*
X73906077Y-69594295D01*
X73906077Y-69594295D02*
X73791792Y-69632390D01*
X73448934Y-70394295D02*
X73448934Y-69594295D01*
X73448934Y-69594295D02*
X73258458Y-69594295D01*
X73258458Y-69594295D02*
X73144172Y-69632390D01*
X73144172Y-69632390D02*
X73067982Y-69708580D01*
X73067982Y-69708580D02*
X73029887Y-69784771D01*
X73029887Y-69784771D02*
X72991791Y-69937152D01*
X72991791Y-69937152D02*
X72991791Y-70051438D01*
X72991791Y-70051438D02*
X73029887Y-70203819D01*
X73029887Y-70203819D02*
X73067982Y-70280009D01*
X73067982Y-70280009D02*
X73144172Y-70356200D01*
X73144172Y-70356200D02*
X73258458Y-70394295D01*
X73258458Y-70394295D02*
X73448934Y-70394295D01*
X72687030Y-70165723D02*
X72306077Y-70165723D01*
X72763220Y-70394295D02*
X72496553Y-69594295D01*
X72496553Y-69594295D02*
X72229887Y-70394295D01*
X71125125Y-70699057D02*
X71163220Y-70660961D01*
X71163220Y-70660961D02*
X71239411Y-70546676D01*
X71239411Y-70546676D02*
X71277506Y-70470485D01*
X71277506Y-70470485D02*
X71315601Y-70356200D01*
X71315601Y-70356200D02*
X71353696Y-70165723D01*
X71353696Y-70165723D02*
X71353696Y-70013342D01*
X71353696Y-70013342D02*
X71315601Y-69822866D01*
X71315601Y-69822866D02*
X71277506Y-69708580D01*
X71277506Y-69708580D02*
X71239411Y-69632390D01*
X71239411Y-69632390D02*
X71163220Y-69518104D01*
X71163220Y-69518104D02*
X71125125Y-69480009D01*
X70553697Y-69975247D02*
X70439411Y-70013342D01*
X70439411Y-70013342D02*
X70401316Y-70051438D01*
X70401316Y-70051438D02*
X70363220Y-70127628D01*
X70363220Y-70127628D02*
X70363220Y-70241914D01*
X70363220Y-70241914D02*
X70401316Y-70318104D01*
X70401316Y-70318104D02*
X70439411Y-70356200D01*
X70439411Y-70356200D02*
X70515601Y-70394295D01*
X70515601Y-70394295D02*
X70820363Y-70394295D01*
X70820363Y-70394295D02*
X70820363Y-69594295D01*
X70820363Y-69594295D02*
X70553697Y-69594295D01*
X70553697Y-69594295D02*
X70477506Y-69632390D01*
X70477506Y-69632390D02*
X70439411Y-69670485D01*
X70439411Y-69670485D02*
X70401316Y-69746676D01*
X70401316Y-69746676D02*
X70401316Y-69822866D01*
X70401316Y-69822866D02*
X70439411Y-69899057D01*
X70439411Y-69899057D02*
X70477506Y-69937152D01*
X70477506Y-69937152D02*
X70553697Y-69975247D01*
X70553697Y-69975247D02*
X70820363Y-69975247D01*
X69639411Y-70394295D02*
X70020363Y-70394295D01*
X70020363Y-70394295D02*
X70020363Y-69594295D01*
X69372744Y-69594295D02*
X69372744Y-70241914D01*
X69372744Y-70241914D02*
X69334649Y-70318104D01*
X69334649Y-70318104D02*
X69296554Y-70356200D01*
X69296554Y-70356200D02*
X69220363Y-70394295D01*
X69220363Y-70394295D02*
X69067982Y-70394295D01*
X69067982Y-70394295D02*
X68991792Y-70356200D01*
X68991792Y-70356200D02*
X68953697Y-70318104D01*
X68953697Y-70318104D02*
X68915601Y-70241914D01*
X68915601Y-70241914D02*
X68915601Y-69594295D01*
X68534649Y-69975247D02*
X68267983Y-69975247D01*
X68153697Y-70394295D02*
X68534649Y-70394295D01*
X68534649Y-70394295D02*
X68534649Y-69594295D01*
X68534649Y-69594295D02*
X68153697Y-69594295D01*
X67887030Y-70699057D02*
X67848935Y-70660961D01*
X67848935Y-70660961D02*
X67772744Y-70546676D01*
X67772744Y-70546676D02*
X67734649Y-70470485D01*
X67734649Y-70470485D02*
X67696554Y-70356200D01*
X67696554Y-70356200D02*
X67658458Y-70165723D01*
X67658458Y-70165723D02*
X67658458Y-70013342D01*
X67658458Y-70013342D02*
X67696554Y-69822866D01*
X67696554Y-69822866D02*
X67734649Y-69708580D01*
X67734649Y-69708580D02*
X67772744Y-69632390D01*
X67772744Y-69632390D02*
X67848935Y-69518104D01*
X67848935Y-69518104D02*
X67887030Y-69480009D01*
X74291792Y-74632390D02*
X74367982Y-74594295D01*
X74367982Y-74594295D02*
X74482268Y-74594295D01*
X74482268Y-74594295D02*
X74596554Y-74632390D01*
X74596554Y-74632390D02*
X74672744Y-74708580D01*
X74672744Y-74708580D02*
X74710839Y-74784771D01*
X74710839Y-74784771D02*
X74748935Y-74937152D01*
X74748935Y-74937152D02*
X74748935Y-75051438D01*
X74748935Y-75051438D02*
X74710839Y-75203819D01*
X74710839Y-75203819D02*
X74672744Y-75280009D01*
X74672744Y-75280009D02*
X74596554Y-75356200D01*
X74596554Y-75356200D02*
X74482268Y-75394295D01*
X74482268Y-75394295D02*
X74406077Y-75394295D01*
X74406077Y-75394295D02*
X74291792Y-75356200D01*
X74291792Y-75356200D02*
X74253696Y-75318104D01*
X74253696Y-75318104D02*
X74253696Y-75051438D01*
X74253696Y-75051438D02*
X74406077Y-75051438D01*
X73910839Y-75394295D02*
X73910839Y-74594295D01*
X73910839Y-74594295D02*
X73453696Y-75394295D01*
X73453696Y-75394295D02*
X73453696Y-74594295D01*
X73072744Y-75394295D02*
X73072744Y-74594295D01*
X73072744Y-74594295D02*
X72882268Y-74594295D01*
X72882268Y-74594295D02*
X72767982Y-74632390D01*
X72767982Y-74632390D02*
X72691792Y-74708580D01*
X72691792Y-74708580D02*
X72653697Y-74784771D01*
X72653697Y-74784771D02*
X72615601Y-74937152D01*
X72615601Y-74937152D02*
X72615601Y-75051438D01*
X72615601Y-75051438D02*
X72653697Y-75203819D01*
X72653697Y-75203819D02*
X72691792Y-75280009D01*
X72691792Y-75280009D02*
X72767982Y-75356200D01*
X72767982Y-75356200D02*
X72882268Y-75394295D01*
X72882268Y-75394295D02*
X73072744Y-75394295D01*
X71434649Y-75699057D02*
X71472744Y-75660961D01*
X71472744Y-75660961D02*
X71548935Y-75546676D01*
X71548935Y-75546676D02*
X71587030Y-75470485D01*
X71587030Y-75470485D02*
X71625125Y-75356200D01*
X71625125Y-75356200D02*
X71663220Y-75165723D01*
X71663220Y-75165723D02*
X71663220Y-75013342D01*
X71663220Y-75013342D02*
X71625125Y-74822866D01*
X71625125Y-74822866D02*
X71587030Y-74708580D01*
X71587030Y-74708580D02*
X71548935Y-74632390D01*
X71548935Y-74632390D02*
X71472744Y-74518104D01*
X71472744Y-74518104D02*
X71434649Y-74480009D01*
X70863221Y-74975247D02*
X70748935Y-75013342D01*
X70748935Y-75013342D02*
X70710840Y-75051438D01*
X70710840Y-75051438D02*
X70672744Y-75127628D01*
X70672744Y-75127628D02*
X70672744Y-75241914D01*
X70672744Y-75241914D02*
X70710840Y-75318104D01*
X70710840Y-75318104D02*
X70748935Y-75356200D01*
X70748935Y-75356200D02*
X70825125Y-75394295D01*
X70825125Y-75394295D02*
X71129887Y-75394295D01*
X71129887Y-75394295D02*
X71129887Y-74594295D01*
X71129887Y-74594295D02*
X70863221Y-74594295D01*
X70863221Y-74594295D02*
X70787030Y-74632390D01*
X70787030Y-74632390D02*
X70748935Y-74670485D01*
X70748935Y-74670485D02*
X70710840Y-74746676D01*
X70710840Y-74746676D02*
X70710840Y-74822866D01*
X70710840Y-74822866D02*
X70748935Y-74899057D01*
X70748935Y-74899057D02*
X70787030Y-74937152D01*
X70787030Y-74937152D02*
X70863221Y-74975247D01*
X70863221Y-74975247D02*
X71129887Y-74975247D01*
X69948935Y-75394295D02*
X70329887Y-75394295D01*
X70329887Y-75394295D02*
X70329887Y-74594295D01*
X69720364Y-75165723D02*
X69339411Y-75165723D01*
X69796554Y-75394295D02*
X69529887Y-74594295D01*
X69529887Y-74594295D02*
X69263221Y-75394295D01*
X68539411Y-75318104D02*
X68577507Y-75356200D01*
X68577507Y-75356200D02*
X68691792Y-75394295D01*
X68691792Y-75394295D02*
X68767983Y-75394295D01*
X68767983Y-75394295D02*
X68882269Y-75356200D01*
X68882269Y-75356200D02*
X68958459Y-75280009D01*
X68958459Y-75280009D02*
X68996554Y-75203819D01*
X68996554Y-75203819D02*
X69034650Y-75051438D01*
X69034650Y-75051438D02*
X69034650Y-74937152D01*
X69034650Y-74937152D02*
X68996554Y-74784771D01*
X68996554Y-74784771D02*
X68958459Y-74708580D01*
X68958459Y-74708580D02*
X68882269Y-74632390D01*
X68882269Y-74632390D02*
X68767983Y-74594295D01*
X68767983Y-74594295D02*
X68691792Y-74594295D01*
X68691792Y-74594295D02*
X68577507Y-74632390D01*
X68577507Y-74632390D02*
X68539411Y-74670485D01*
X68196554Y-75394295D02*
X68196554Y-74594295D01*
X67739411Y-75394295D02*
X68082269Y-74937152D01*
X67739411Y-74594295D02*
X68196554Y-75051438D01*
X67472745Y-75699057D02*
X67434650Y-75660961D01*
X67434650Y-75660961D02*
X67358459Y-75546676D01*
X67358459Y-75546676D02*
X67320364Y-75470485D01*
X67320364Y-75470485D02*
X67282269Y-75356200D01*
X67282269Y-75356200D02*
X67244173Y-75165723D01*
X67244173Y-75165723D02*
X67244173Y-75013342D01*
X67244173Y-75013342D02*
X67282269Y-74822866D01*
X67282269Y-74822866D02*
X67320364Y-74708580D01*
X67320364Y-74708580D02*
X67358459Y-74632390D01*
X67358459Y-74632390D02*
X67434650Y-74518104D01*
X67434650Y-74518104D02*
X67472745Y-74480009D01*
X75248935Y-72856200D02*
X75134649Y-72894295D01*
X75134649Y-72894295D02*
X74944173Y-72894295D01*
X74944173Y-72894295D02*
X74867982Y-72856200D01*
X74867982Y-72856200D02*
X74829887Y-72818104D01*
X74829887Y-72818104D02*
X74791792Y-72741914D01*
X74791792Y-72741914D02*
X74791792Y-72665723D01*
X74791792Y-72665723D02*
X74829887Y-72589533D01*
X74829887Y-72589533D02*
X74867982Y-72551438D01*
X74867982Y-72551438D02*
X74944173Y-72513342D01*
X74944173Y-72513342D02*
X75096554Y-72475247D01*
X75096554Y-72475247D02*
X75172744Y-72437152D01*
X75172744Y-72437152D02*
X75210839Y-72399057D01*
X75210839Y-72399057D02*
X75248935Y-72322866D01*
X75248935Y-72322866D02*
X75248935Y-72246676D01*
X75248935Y-72246676D02*
X75210839Y-72170485D01*
X75210839Y-72170485D02*
X75172744Y-72132390D01*
X75172744Y-72132390D02*
X75096554Y-72094295D01*
X75096554Y-72094295D02*
X74906077Y-72094295D01*
X74906077Y-72094295D02*
X74791792Y-72132390D01*
X73991791Y-72818104D02*
X74029887Y-72856200D01*
X74029887Y-72856200D02*
X74144172Y-72894295D01*
X74144172Y-72894295D02*
X74220363Y-72894295D01*
X74220363Y-72894295D02*
X74334649Y-72856200D01*
X74334649Y-72856200D02*
X74410839Y-72780009D01*
X74410839Y-72780009D02*
X74448934Y-72703819D01*
X74448934Y-72703819D02*
X74487030Y-72551438D01*
X74487030Y-72551438D02*
X74487030Y-72437152D01*
X74487030Y-72437152D02*
X74448934Y-72284771D01*
X74448934Y-72284771D02*
X74410839Y-72208580D01*
X74410839Y-72208580D02*
X74334649Y-72132390D01*
X74334649Y-72132390D02*
X74220363Y-72094295D01*
X74220363Y-72094295D02*
X74144172Y-72094295D01*
X74144172Y-72094295D02*
X74029887Y-72132390D01*
X74029887Y-72132390D02*
X73991791Y-72170485D01*
X73267982Y-72894295D02*
X73648934Y-72894295D01*
X73648934Y-72894295D02*
X73648934Y-72094295D01*
X72163220Y-73199057D02*
X72201315Y-73160961D01*
X72201315Y-73160961D02*
X72277506Y-73046676D01*
X72277506Y-73046676D02*
X72315601Y-72970485D01*
X72315601Y-72970485D02*
X72353696Y-72856200D01*
X72353696Y-72856200D02*
X72391791Y-72665723D01*
X72391791Y-72665723D02*
X72391791Y-72513342D01*
X72391791Y-72513342D02*
X72353696Y-72322866D01*
X72353696Y-72322866D02*
X72315601Y-72208580D01*
X72315601Y-72208580D02*
X72277506Y-72132390D01*
X72277506Y-72132390D02*
X72201315Y-72018104D01*
X72201315Y-72018104D02*
X72163220Y-71980009D01*
X71706077Y-72513342D02*
X71706077Y-72894295D01*
X71972744Y-72094295D02*
X71706077Y-72513342D01*
X71706077Y-72513342D02*
X71439411Y-72094295D01*
X71172744Y-72475247D02*
X70906078Y-72475247D01*
X70791792Y-72894295D02*
X71172744Y-72894295D01*
X71172744Y-72894295D02*
X71172744Y-72094295D01*
X71172744Y-72094295D02*
X70791792Y-72094295D01*
X70067982Y-72894295D02*
X70448934Y-72894295D01*
X70448934Y-72894295D02*
X70448934Y-72094295D01*
X69420363Y-72894295D02*
X69801315Y-72894295D01*
X69801315Y-72894295D02*
X69801315Y-72094295D01*
X69001315Y-72094295D02*
X68848934Y-72094295D01*
X68848934Y-72094295D02*
X68772744Y-72132390D01*
X68772744Y-72132390D02*
X68696553Y-72208580D01*
X68696553Y-72208580D02*
X68658458Y-72360961D01*
X68658458Y-72360961D02*
X68658458Y-72627628D01*
X68658458Y-72627628D02*
X68696553Y-72780009D01*
X68696553Y-72780009D02*
X68772744Y-72856200D01*
X68772744Y-72856200D02*
X68848934Y-72894295D01*
X68848934Y-72894295D02*
X69001315Y-72894295D01*
X69001315Y-72894295D02*
X69077506Y-72856200D01*
X69077506Y-72856200D02*
X69153696Y-72780009D01*
X69153696Y-72780009D02*
X69191792Y-72627628D01*
X69191792Y-72627628D02*
X69191792Y-72360961D01*
X69191792Y-72360961D02*
X69153696Y-72208580D01*
X69153696Y-72208580D02*
X69077506Y-72132390D01*
X69077506Y-72132390D02*
X69001315Y-72094295D01*
X68391792Y-72094295D02*
X68201316Y-72894295D01*
X68201316Y-72894295D02*
X68048935Y-72322866D01*
X68048935Y-72322866D02*
X67896554Y-72894295D01*
X67896554Y-72894295D02*
X67706078Y-72094295D01*
X67477506Y-73199057D02*
X67439411Y-73160961D01*
X67439411Y-73160961D02*
X67363220Y-73046676D01*
X67363220Y-73046676D02*
X67325125Y-72970485D01*
X67325125Y-72970485D02*
X67287030Y-72856200D01*
X67287030Y-72856200D02*
X67248934Y-72665723D01*
X67248934Y-72665723D02*
X67248934Y-72513342D01*
X67248934Y-72513342D02*
X67287030Y-72322866D01*
X67287030Y-72322866D02*
X67325125Y-72208580D01*
X67325125Y-72208580D02*
X67363220Y-72132390D01*
X67363220Y-72132390D02*
X67439411Y-72018104D01*
X67439411Y-72018104D02*
X67477506Y-71980009D01*
X42905704Y-63325125D02*
X42105704Y-63058458D01*
X42105704Y-63058458D02*
X42905704Y-62791792D01*
X42524752Y-62258459D02*
X42486657Y-62144173D01*
X42486657Y-62144173D02*
X42448561Y-62106078D01*
X42448561Y-62106078D02*
X42372371Y-62067982D01*
X42372371Y-62067982D02*
X42258085Y-62067982D01*
X42258085Y-62067982D02*
X42181895Y-62106078D01*
X42181895Y-62106078D02*
X42143800Y-62144173D01*
X42143800Y-62144173D02*
X42105704Y-62220363D01*
X42105704Y-62220363D02*
X42105704Y-62525125D01*
X42105704Y-62525125D02*
X42905704Y-62525125D01*
X42905704Y-62525125D02*
X42905704Y-62258459D01*
X42905704Y-62258459D02*
X42867609Y-62182268D01*
X42867609Y-62182268D02*
X42829514Y-62144173D01*
X42829514Y-62144173D02*
X42753323Y-62106078D01*
X42753323Y-62106078D02*
X42677133Y-62106078D01*
X42677133Y-62106078D02*
X42600942Y-62144173D01*
X42600942Y-62144173D02*
X42562847Y-62182268D01*
X42562847Y-62182268D02*
X42524752Y-62258459D01*
X42524752Y-62258459D02*
X42524752Y-62525125D01*
X42905704Y-61725125D02*
X42258085Y-61725125D01*
X42258085Y-61725125D02*
X42181895Y-61687030D01*
X42181895Y-61687030D02*
X42143800Y-61648935D01*
X42143800Y-61648935D02*
X42105704Y-61572744D01*
X42105704Y-61572744D02*
X42105704Y-61420363D01*
X42105704Y-61420363D02*
X42143800Y-61344173D01*
X42143800Y-61344173D02*
X42181895Y-61306078D01*
X42181895Y-61306078D02*
X42258085Y-61267982D01*
X42258085Y-61267982D02*
X42905704Y-61267982D01*
X42143800Y-60925126D02*
X42105704Y-60810840D01*
X42105704Y-60810840D02*
X42105704Y-60620364D01*
X42105704Y-60620364D02*
X42143800Y-60544173D01*
X42143800Y-60544173D02*
X42181895Y-60506078D01*
X42181895Y-60506078D02*
X42258085Y-60467983D01*
X42258085Y-60467983D02*
X42334276Y-60467983D01*
X42334276Y-60467983D02*
X42410466Y-60506078D01*
X42410466Y-60506078D02*
X42448561Y-60544173D01*
X42448561Y-60544173D02*
X42486657Y-60620364D01*
X42486657Y-60620364D02*
X42524752Y-60772745D01*
X42524752Y-60772745D02*
X42562847Y-60848935D01*
X42562847Y-60848935D02*
X42600942Y-60887030D01*
X42600942Y-60887030D02*
X42677133Y-60925126D01*
X42677133Y-60925126D02*
X42753323Y-60925126D01*
X42753323Y-60925126D02*
X42829514Y-60887030D01*
X42829514Y-60887030D02*
X42867609Y-60848935D01*
X42867609Y-60848935D02*
X42905704Y-60772745D01*
X42905704Y-60772745D02*
X42905704Y-60582268D01*
X42905704Y-60582268D02*
X42867609Y-60467983D01*
X45367609Y-54791792D02*
X45405704Y-54867982D01*
X45405704Y-54867982D02*
X45405704Y-54982268D01*
X45405704Y-54982268D02*
X45367609Y-55096554D01*
X45367609Y-55096554D02*
X45291419Y-55172744D01*
X45291419Y-55172744D02*
X45215228Y-55210839D01*
X45215228Y-55210839D02*
X45062847Y-55248935D01*
X45062847Y-55248935D02*
X44948561Y-55248935D01*
X44948561Y-55248935D02*
X44796180Y-55210839D01*
X44796180Y-55210839D02*
X44719990Y-55172744D01*
X44719990Y-55172744D02*
X44643800Y-55096554D01*
X44643800Y-55096554D02*
X44605704Y-54982268D01*
X44605704Y-54982268D02*
X44605704Y-54906077D01*
X44605704Y-54906077D02*
X44643800Y-54791792D01*
X44643800Y-54791792D02*
X44681895Y-54753696D01*
X44681895Y-54753696D02*
X44948561Y-54753696D01*
X44948561Y-54753696D02*
X44948561Y-54906077D01*
X44605704Y-54410839D02*
X45405704Y-54410839D01*
X45405704Y-54410839D02*
X45405704Y-54106077D01*
X45405704Y-54106077D02*
X45367609Y-54029887D01*
X45367609Y-54029887D02*
X45329514Y-53991792D01*
X45329514Y-53991792D02*
X45253323Y-53953696D01*
X45253323Y-53953696D02*
X45139038Y-53953696D01*
X45139038Y-53953696D02*
X45062847Y-53991792D01*
X45062847Y-53991792D02*
X45024752Y-54029887D01*
X45024752Y-54029887D02*
X44986657Y-54106077D01*
X44986657Y-54106077D02*
X44986657Y-54410839D01*
X44605704Y-53610839D02*
X45405704Y-53610839D01*
X45405704Y-53077506D02*
X45405704Y-52925125D01*
X45405704Y-52925125D02*
X45367609Y-52848935D01*
X45367609Y-52848935D02*
X45291419Y-52772744D01*
X45291419Y-52772744D02*
X45139038Y-52734649D01*
X45139038Y-52734649D02*
X44872371Y-52734649D01*
X44872371Y-52734649D02*
X44719990Y-52772744D01*
X44719990Y-52772744D02*
X44643800Y-52848935D01*
X44643800Y-52848935D02*
X44605704Y-52925125D01*
X44605704Y-52925125D02*
X44605704Y-53077506D01*
X44605704Y-53077506D02*
X44643800Y-53153697D01*
X44643800Y-53153697D02*
X44719990Y-53229887D01*
X44719990Y-53229887D02*
X44872371Y-53267983D01*
X44872371Y-53267983D02*
X45139038Y-53267983D01*
X45139038Y-53267983D02*
X45291419Y-53229887D01*
X45291419Y-53229887D02*
X45367609Y-53153697D01*
X45367609Y-53153697D02*
X45405704Y-53077506D01*
X45405704Y-52467983D02*
X45405704Y-51972745D01*
X45405704Y-51972745D02*
X45100942Y-52239411D01*
X45100942Y-52239411D02*
X45100942Y-52125126D01*
X45100942Y-52125126D02*
X45062847Y-52048935D01*
X45062847Y-52048935D02*
X45024752Y-52010840D01*
X45024752Y-52010840D02*
X44948561Y-51972745D01*
X44948561Y-51972745D02*
X44758085Y-51972745D01*
X44758085Y-51972745D02*
X44681895Y-52010840D01*
X44681895Y-52010840D02*
X44643800Y-52048935D01*
X44643800Y-52048935D02*
X44605704Y-52125126D01*
X44605704Y-52125126D02*
X44605704Y-52353697D01*
X44605704Y-52353697D02*
X44643800Y-52429888D01*
X44643800Y-52429888D02*
X44681895Y-52467983D01*
X47867609Y-54791792D02*
X47905704Y-54867982D01*
X47905704Y-54867982D02*
X47905704Y-54982268D01*
X47905704Y-54982268D02*
X47867609Y-55096554D01*
X47867609Y-55096554D02*
X47791419Y-55172744D01*
X47791419Y-55172744D02*
X47715228Y-55210839D01*
X47715228Y-55210839D02*
X47562847Y-55248935D01*
X47562847Y-55248935D02*
X47448561Y-55248935D01*
X47448561Y-55248935D02*
X47296180Y-55210839D01*
X47296180Y-55210839D02*
X47219990Y-55172744D01*
X47219990Y-55172744D02*
X47143800Y-55096554D01*
X47143800Y-55096554D02*
X47105704Y-54982268D01*
X47105704Y-54982268D02*
X47105704Y-54906077D01*
X47105704Y-54906077D02*
X47143800Y-54791792D01*
X47143800Y-54791792D02*
X47181895Y-54753696D01*
X47181895Y-54753696D02*
X47448561Y-54753696D01*
X47448561Y-54753696D02*
X47448561Y-54906077D01*
X47105704Y-54410839D02*
X47905704Y-54410839D01*
X47905704Y-54410839D02*
X47905704Y-54106077D01*
X47905704Y-54106077D02*
X47867609Y-54029887D01*
X47867609Y-54029887D02*
X47829514Y-53991792D01*
X47829514Y-53991792D02*
X47753323Y-53953696D01*
X47753323Y-53953696D02*
X47639038Y-53953696D01*
X47639038Y-53953696D02*
X47562847Y-53991792D01*
X47562847Y-53991792D02*
X47524752Y-54029887D01*
X47524752Y-54029887D02*
X47486657Y-54106077D01*
X47486657Y-54106077D02*
X47486657Y-54410839D01*
X47105704Y-53610839D02*
X47905704Y-53610839D01*
X47905704Y-53077506D02*
X47905704Y-52925125D01*
X47905704Y-52925125D02*
X47867609Y-52848935D01*
X47867609Y-52848935D02*
X47791419Y-52772744D01*
X47791419Y-52772744D02*
X47639038Y-52734649D01*
X47639038Y-52734649D02*
X47372371Y-52734649D01*
X47372371Y-52734649D02*
X47219990Y-52772744D01*
X47219990Y-52772744D02*
X47143800Y-52848935D01*
X47143800Y-52848935D02*
X47105704Y-52925125D01*
X47105704Y-52925125D02*
X47105704Y-53077506D01*
X47105704Y-53077506D02*
X47143800Y-53153697D01*
X47143800Y-53153697D02*
X47219990Y-53229887D01*
X47219990Y-53229887D02*
X47372371Y-53267983D01*
X47372371Y-53267983D02*
X47639038Y-53267983D01*
X47639038Y-53267983D02*
X47791419Y-53229887D01*
X47791419Y-53229887D02*
X47867609Y-53153697D01*
X47867609Y-53153697D02*
X47905704Y-53077506D01*
X47639038Y-52048935D02*
X47105704Y-52048935D01*
X47943800Y-52239411D02*
X47372371Y-52429888D01*
X47372371Y-52429888D02*
X47372371Y-51934649D01*
X47905704Y-63287030D02*
X47905704Y-62791792D01*
X47905704Y-62791792D02*
X47600942Y-63058458D01*
X47600942Y-63058458D02*
X47600942Y-62944173D01*
X47600942Y-62944173D02*
X47562847Y-62867982D01*
X47562847Y-62867982D02*
X47524752Y-62829887D01*
X47524752Y-62829887D02*
X47448561Y-62791792D01*
X47448561Y-62791792D02*
X47258085Y-62791792D01*
X47258085Y-62791792D02*
X47181895Y-62829887D01*
X47181895Y-62829887D02*
X47143800Y-62867982D01*
X47143800Y-62867982D02*
X47105704Y-62944173D01*
X47105704Y-62944173D02*
X47105704Y-63172744D01*
X47105704Y-63172744D02*
X47143800Y-63248935D01*
X47143800Y-63248935D02*
X47181895Y-63287030D01*
X47905704Y-62563220D02*
X47105704Y-62296553D01*
X47105704Y-62296553D02*
X47905704Y-62029887D01*
X47905704Y-61839411D02*
X47905704Y-61344173D01*
X47905704Y-61344173D02*
X47600942Y-61610839D01*
X47600942Y-61610839D02*
X47600942Y-61496554D01*
X47600942Y-61496554D02*
X47562847Y-61420363D01*
X47562847Y-61420363D02*
X47524752Y-61382268D01*
X47524752Y-61382268D02*
X47448561Y-61344173D01*
X47448561Y-61344173D02*
X47258085Y-61344173D01*
X47258085Y-61344173D02*
X47181895Y-61382268D01*
X47181895Y-61382268D02*
X47143800Y-61420363D01*
X47143800Y-61420363D02*
X47105704Y-61496554D01*
X47105704Y-61496554D02*
X47105704Y-61725125D01*
X47105704Y-61725125D02*
X47143800Y-61801316D01*
X47143800Y-61801316D02*
X47181895Y-61839411D01*
X50367609Y-54791792D02*
X50405704Y-54867982D01*
X50405704Y-54867982D02*
X50405704Y-54982268D01*
X50405704Y-54982268D02*
X50367609Y-55096554D01*
X50367609Y-55096554D02*
X50291419Y-55172744D01*
X50291419Y-55172744D02*
X50215228Y-55210839D01*
X50215228Y-55210839D02*
X50062847Y-55248935D01*
X50062847Y-55248935D02*
X49948561Y-55248935D01*
X49948561Y-55248935D02*
X49796180Y-55210839D01*
X49796180Y-55210839D02*
X49719990Y-55172744D01*
X49719990Y-55172744D02*
X49643800Y-55096554D01*
X49643800Y-55096554D02*
X49605704Y-54982268D01*
X49605704Y-54982268D02*
X49605704Y-54906077D01*
X49605704Y-54906077D02*
X49643800Y-54791792D01*
X49643800Y-54791792D02*
X49681895Y-54753696D01*
X49681895Y-54753696D02*
X49948561Y-54753696D01*
X49948561Y-54753696D02*
X49948561Y-54906077D01*
X49605704Y-54410839D02*
X50405704Y-54410839D01*
X50405704Y-54410839D02*
X50405704Y-54106077D01*
X50405704Y-54106077D02*
X50367609Y-54029887D01*
X50367609Y-54029887D02*
X50329514Y-53991792D01*
X50329514Y-53991792D02*
X50253323Y-53953696D01*
X50253323Y-53953696D02*
X50139038Y-53953696D01*
X50139038Y-53953696D02*
X50062847Y-53991792D01*
X50062847Y-53991792D02*
X50024752Y-54029887D01*
X50024752Y-54029887D02*
X49986657Y-54106077D01*
X49986657Y-54106077D02*
X49986657Y-54410839D01*
X49605704Y-53610839D02*
X50405704Y-53610839D01*
X50405704Y-53077506D02*
X50405704Y-52925125D01*
X50405704Y-52925125D02*
X50367609Y-52848935D01*
X50367609Y-52848935D02*
X50291419Y-52772744D01*
X50291419Y-52772744D02*
X50139038Y-52734649D01*
X50139038Y-52734649D02*
X49872371Y-52734649D01*
X49872371Y-52734649D02*
X49719990Y-52772744D01*
X49719990Y-52772744D02*
X49643800Y-52848935D01*
X49643800Y-52848935D02*
X49605704Y-52925125D01*
X49605704Y-52925125D02*
X49605704Y-53077506D01*
X49605704Y-53077506D02*
X49643800Y-53153697D01*
X49643800Y-53153697D02*
X49719990Y-53229887D01*
X49719990Y-53229887D02*
X49872371Y-53267983D01*
X49872371Y-53267983D02*
X50139038Y-53267983D01*
X50139038Y-53267983D02*
X50291419Y-53229887D01*
X50291419Y-53229887D02*
X50367609Y-53153697D01*
X50367609Y-53153697D02*
X50405704Y-53077506D01*
X50405704Y-52010840D02*
X50405704Y-52391792D01*
X50405704Y-52391792D02*
X50024752Y-52429888D01*
X50024752Y-52429888D02*
X50062847Y-52391792D01*
X50062847Y-52391792D02*
X50100942Y-52315602D01*
X50100942Y-52315602D02*
X50100942Y-52125126D01*
X50100942Y-52125126D02*
X50062847Y-52048935D01*
X50062847Y-52048935D02*
X50024752Y-52010840D01*
X50024752Y-52010840D02*
X49948561Y-51972745D01*
X49948561Y-51972745D02*
X49758085Y-51972745D01*
X49758085Y-51972745D02*
X49681895Y-52010840D01*
X49681895Y-52010840D02*
X49643800Y-52048935D01*
X49643800Y-52048935D02*
X49605704Y-52125126D01*
X49605704Y-52125126D02*
X49605704Y-52315602D01*
X49605704Y-52315602D02*
X49643800Y-52391792D01*
X49643800Y-52391792D02*
X49681895Y-52429888D01*
X50367609Y-62791792D02*
X50405704Y-62867982D01*
X50405704Y-62867982D02*
X50405704Y-62982268D01*
X50405704Y-62982268D02*
X50367609Y-63096554D01*
X50367609Y-63096554D02*
X50291419Y-63172744D01*
X50291419Y-63172744D02*
X50215228Y-63210839D01*
X50215228Y-63210839D02*
X50062847Y-63248935D01*
X50062847Y-63248935D02*
X49948561Y-63248935D01*
X49948561Y-63248935D02*
X49796180Y-63210839D01*
X49796180Y-63210839D02*
X49719990Y-63172744D01*
X49719990Y-63172744D02*
X49643800Y-63096554D01*
X49643800Y-63096554D02*
X49605704Y-62982268D01*
X49605704Y-62982268D02*
X49605704Y-62906077D01*
X49605704Y-62906077D02*
X49643800Y-62791792D01*
X49643800Y-62791792D02*
X49681895Y-62753696D01*
X49681895Y-62753696D02*
X49948561Y-62753696D01*
X49948561Y-62753696D02*
X49948561Y-62906077D01*
X49605704Y-62410839D02*
X50405704Y-62410839D01*
X50405704Y-62410839D02*
X50405704Y-62106077D01*
X50405704Y-62106077D02*
X50367609Y-62029887D01*
X50367609Y-62029887D02*
X50329514Y-61991792D01*
X50329514Y-61991792D02*
X50253323Y-61953696D01*
X50253323Y-61953696D02*
X50139038Y-61953696D01*
X50139038Y-61953696D02*
X50062847Y-61991792D01*
X50062847Y-61991792D02*
X50024752Y-62029887D01*
X50024752Y-62029887D02*
X49986657Y-62106077D01*
X49986657Y-62106077D02*
X49986657Y-62410839D01*
X49605704Y-61610839D02*
X50405704Y-61610839D01*
X50405704Y-61077506D02*
X50405704Y-60925125D01*
X50405704Y-60925125D02*
X50367609Y-60848935D01*
X50367609Y-60848935D02*
X50291419Y-60772744D01*
X50291419Y-60772744D02*
X50139038Y-60734649D01*
X50139038Y-60734649D02*
X49872371Y-60734649D01*
X49872371Y-60734649D02*
X49719990Y-60772744D01*
X49719990Y-60772744D02*
X49643800Y-60848935D01*
X49643800Y-60848935D02*
X49605704Y-60925125D01*
X49605704Y-60925125D02*
X49605704Y-61077506D01*
X49605704Y-61077506D02*
X49643800Y-61153697D01*
X49643800Y-61153697D02*
X49719990Y-61229887D01*
X49719990Y-61229887D02*
X49872371Y-61267983D01*
X49872371Y-61267983D02*
X50139038Y-61267983D01*
X50139038Y-61267983D02*
X50291419Y-61229887D01*
X50291419Y-61229887D02*
X50367609Y-61153697D01*
X50367609Y-61153697D02*
X50405704Y-61077506D01*
X49605704Y-59972745D02*
X49605704Y-60429888D01*
X49605704Y-60201316D02*
X50405704Y-60201316D01*
X50405704Y-60201316D02*
X50291419Y-60277507D01*
X50291419Y-60277507D02*
X50215228Y-60353697D01*
X50215228Y-60353697D02*
X50177133Y-60429888D01*
X50405704Y-59477506D02*
X50405704Y-59401316D01*
X50405704Y-59401316D02*
X50367609Y-59325125D01*
X50367609Y-59325125D02*
X50329514Y-59287030D01*
X50329514Y-59287030D02*
X50253323Y-59248935D01*
X50253323Y-59248935D02*
X50100942Y-59210840D01*
X50100942Y-59210840D02*
X49910466Y-59210840D01*
X49910466Y-59210840D02*
X49758085Y-59248935D01*
X49758085Y-59248935D02*
X49681895Y-59287030D01*
X49681895Y-59287030D02*
X49643800Y-59325125D01*
X49643800Y-59325125D02*
X49605704Y-59401316D01*
X49605704Y-59401316D02*
X49605704Y-59477506D01*
X49605704Y-59477506D02*
X49643800Y-59553697D01*
X49643800Y-59553697D02*
X49681895Y-59591792D01*
X49681895Y-59591792D02*
X49758085Y-59629887D01*
X49758085Y-59629887D02*
X49910466Y-59667983D01*
X49910466Y-59667983D02*
X50100942Y-59667983D01*
X50100942Y-59667983D02*
X50253323Y-59629887D01*
X50253323Y-59629887D02*
X50329514Y-59591792D01*
X50329514Y-59591792D02*
X50367609Y-59553697D01*
X50367609Y-59553697D02*
X50405704Y-59477506D01*
X52867609Y-54791792D02*
X52905704Y-54867982D01*
X52905704Y-54867982D02*
X52905704Y-54982268D01*
X52905704Y-54982268D02*
X52867609Y-55096554D01*
X52867609Y-55096554D02*
X52791419Y-55172744D01*
X52791419Y-55172744D02*
X52715228Y-55210839D01*
X52715228Y-55210839D02*
X52562847Y-55248935D01*
X52562847Y-55248935D02*
X52448561Y-55248935D01*
X52448561Y-55248935D02*
X52296180Y-55210839D01*
X52296180Y-55210839D02*
X52219990Y-55172744D01*
X52219990Y-55172744D02*
X52143800Y-55096554D01*
X52143800Y-55096554D02*
X52105704Y-54982268D01*
X52105704Y-54982268D02*
X52105704Y-54906077D01*
X52105704Y-54906077D02*
X52143800Y-54791792D01*
X52143800Y-54791792D02*
X52181895Y-54753696D01*
X52181895Y-54753696D02*
X52448561Y-54753696D01*
X52448561Y-54753696D02*
X52448561Y-54906077D01*
X52105704Y-54410839D02*
X52905704Y-54410839D01*
X52905704Y-54410839D02*
X52905704Y-54106077D01*
X52905704Y-54106077D02*
X52867609Y-54029887D01*
X52867609Y-54029887D02*
X52829514Y-53991792D01*
X52829514Y-53991792D02*
X52753323Y-53953696D01*
X52753323Y-53953696D02*
X52639038Y-53953696D01*
X52639038Y-53953696D02*
X52562847Y-53991792D01*
X52562847Y-53991792D02*
X52524752Y-54029887D01*
X52524752Y-54029887D02*
X52486657Y-54106077D01*
X52486657Y-54106077D02*
X52486657Y-54410839D01*
X52105704Y-53610839D02*
X52905704Y-53610839D01*
X52905704Y-53077506D02*
X52905704Y-52925125D01*
X52905704Y-52925125D02*
X52867609Y-52848935D01*
X52867609Y-52848935D02*
X52791419Y-52772744D01*
X52791419Y-52772744D02*
X52639038Y-52734649D01*
X52639038Y-52734649D02*
X52372371Y-52734649D01*
X52372371Y-52734649D02*
X52219990Y-52772744D01*
X52219990Y-52772744D02*
X52143800Y-52848935D01*
X52143800Y-52848935D02*
X52105704Y-52925125D01*
X52105704Y-52925125D02*
X52105704Y-53077506D01*
X52105704Y-53077506D02*
X52143800Y-53153697D01*
X52143800Y-53153697D02*
X52219990Y-53229887D01*
X52219990Y-53229887D02*
X52372371Y-53267983D01*
X52372371Y-53267983D02*
X52639038Y-53267983D01*
X52639038Y-53267983D02*
X52791419Y-53229887D01*
X52791419Y-53229887D02*
X52867609Y-53153697D01*
X52867609Y-53153697D02*
X52905704Y-53077506D01*
X52905704Y-52048935D02*
X52905704Y-52201316D01*
X52905704Y-52201316D02*
X52867609Y-52277507D01*
X52867609Y-52277507D02*
X52829514Y-52315602D01*
X52829514Y-52315602D02*
X52715228Y-52391792D01*
X52715228Y-52391792D02*
X52562847Y-52429888D01*
X52562847Y-52429888D02*
X52258085Y-52429888D01*
X52258085Y-52429888D02*
X52181895Y-52391792D01*
X52181895Y-52391792D02*
X52143800Y-52353697D01*
X52143800Y-52353697D02*
X52105704Y-52277507D01*
X52105704Y-52277507D02*
X52105704Y-52125126D01*
X52105704Y-52125126D02*
X52143800Y-52048935D01*
X52143800Y-52048935D02*
X52181895Y-52010840D01*
X52181895Y-52010840D02*
X52258085Y-51972745D01*
X52258085Y-51972745D02*
X52448561Y-51972745D01*
X52448561Y-51972745D02*
X52524752Y-52010840D01*
X52524752Y-52010840D02*
X52562847Y-52048935D01*
X52562847Y-52048935D02*
X52600942Y-52125126D01*
X52600942Y-52125126D02*
X52600942Y-52277507D01*
X52600942Y-52277507D02*
X52562847Y-52353697D01*
X52562847Y-52353697D02*
X52524752Y-52391792D01*
X52524752Y-52391792D02*
X52448561Y-52429888D01*
X55367609Y-54791792D02*
X55405704Y-54867982D01*
X55405704Y-54867982D02*
X55405704Y-54982268D01*
X55405704Y-54982268D02*
X55367609Y-55096554D01*
X55367609Y-55096554D02*
X55291419Y-55172744D01*
X55291419Y-55172744D02*
X55215228Y-55210839D01*
X55215228Y-55210839D02*
X55062847Y-55248935D01*
X55062847Y-55248935D02*
X54948561Y-55248935D01*
X54948561Y-55248935D02*
X54796180Y-55210839D01*
X54796180Y-55210839D02*
X54719990Y-55172744D01*
X54719990Y-55172744D02*
X54643800Y-55096554D01*
X54643800Y-55096554D02*
X54605704Y-54982268D01*
X54605704Y-54982268D02*
X54605704Y-54906077D01*
X54605704Y-54906077D02*
X54643800Y-54791792D01*
X54643800Y-54791792D02*
X54681895Y-54753696D01*
X54681895Y-54753696D02*
X54948561Y-54753696D01*
X54948561Y-54753696D02*
X54948561Y-54906077D01*
X54605704Y-54410839D02*
X55405704Y-54410839D01*
X55405704Y-54410839D02*
X55405704Y-54106077D01*
X55405704Y-54106077D02*
X55367609Y-54029887D01*
X55367609Y-54029887D02*
X55329514Y-53991792D01*
X55329514Y-53991792D02*
X55253323Y-53953696D01*
X55253323Y-53953696D02*
X55139038Y-53953696D01*
X55139038Y-53953696D02*
X55062847Y-53991792D01*
X55062847Y-53991792D02*
X55024752Y-54029887D01*
X55024752Y-54029887D02*
X54986657Y-54106077D01*
X54986657Y-54106077D02*
X54986657Y-54410839D01*
X54605704Y-53610839D02*
X55405704Y-53610839D01*
X55405704Y-53077506D02*
X55405704Y-52925125D01*
X55405704Y-52925125D02*
X55367609Y-52848935D01*
X55367609Y-52848935D02*
X55291419Y-52772744D01*
X55291419Y-52772744D02*
X55139038Y-52734649D01*
X55139038Y-52734649D02*
X54872371Y-52734649D01*
X54872371Y-52734649D02*
X54719990Y-52772744D01*
X54719990Y-52772744D02*
X54643800Y-52848935D01*
X54643800Y-52848935D02*
X54605704Y-52925125D01*
X54605704Y-52925125D02*
X54605704Y-53077506D01*
X54605704Y-53077506D02*
X54643800Y-53153697D01*
X54643800Y-53153697D02*
X54719990Y-53229887D01*
X54719990Y-53229887D02*
X54872371Y-53267983D01*
X54872371Y-53267983D02*
X55139038Y-53267983D01*
X55139038Y-53267983D02*
X55291419Y-53229887D01*
X55291419Y-53229887D02*
X55367609Y-53153697D01*
X55367609Y-53153697D02*
X55405704Y-53077506D01*
X55405704Y-52467983D02*
X55405704Y-51934649D01*
X55405704Y-51934649D02*
X54605704Y-52277507D01*
D11*
X77097431Y-48364619D02*
X77097431Y-47697952D01*
X77097431Y-47793190D02*
X77049812Y-47745571D01*
X77049812Y-47745571D02*
X76954574Y-47697952D01*
X76954574Y-47697952D02*
X76811717Y-47697952D01*
X76811717Y-47697952D02*
X76716479Y-47745571D01*
X76716479Y-47745571D02*
X76668860Y-47840809D01*
X76668860Y-47840809D02*
X76668860Y-48364619D01*
X76668860Y-47840809D02*
X76621241Y-47745571D01*
X76621241Y-47745571D02*
X76526003Y-47697952D01*
X76526003Y-47697952D02*
X76383146Y-47697952D01*
X76383146Y-47697952D02*
X76287907Y-47745571D01*
X76287907Y-47745571D02*
X76240288Y-47840809D01*
X76240288Y-47840809D02*
X76240288Y-48364619D01*
X75764098Y-48364619D02*
X75764098Y-47697952D01*
X75764098Y-47793190D02*
X75716479Y-47745571D01*
X75716479Y-47745571D02*
X75621241Y-47697952D01*
X75621241Y-47697952D02*
X75478384Y-47697952D01*
X75478384Y-47697952D02*
X75383146Y-47745571D01*
X75383146Y-47745571D02*
X75335527Y-47840809D01*
X75335527Y-47840809D02*
X75335527Y-48364619D01*
X75335527Y-47840809D02*
X75287908Y-47745571D01*
X75287908Y-47745571D02*
X75192670Y-47697952D01*
X75192670Y-47697952D02*
X75049813Y-47697952D01*
X75049813Y-47697952D02*
X74954574Y-47745571D01*
X74954574Y-47745571D02*
X74906955Y-47840809D01*
X74906955Y-47840809D02*
X74906955Y-48364619D01*
X74526003Y-47364619D02*
X74287908Y-48364619D01*
X74287908Y-48364619D02*
X74097432Y-47650333D01*
X74097432Y-47650333D02*
X73906956Y-48364619D01*
X73906956Y-48364619D02*
X73668861Y-47364619D01*
X72859337Y-48364619D02*
X72859337Y-47840809D01*
X72859337Y-47840809D02*
X72906956Y-47745571D01*
X72906956Y-47745571D02*
X73002194Y-47697952D01*
X73002194Y-47697952D02*
X73192670Y-47697952D01*
X73192670Y-47697952D02*
X73287908Y-47745571D01*
X72859337Y-48317000D02*
X72954575Y-48364619D01*
X72954575Y-48364619D02*
X73192670Y-48364619D01*
X73192670Y-48364619D02*
X73287908Y-48317000D01*
X73287908Y-48317000D02*
X73335527Y-48221761D01*
X73335527Y-48221761D02*
X73335527Y-48126523D01*
X73335527Y-48126523D02*
X73287908Y-48031285D01*
X73287908Y-48031285D02*
X73192670Y-47983666D01*
X73192670Y-47983666D02*
X72954575Y-47983666D01*
X72954575Y-47983666D02*
X72859337Y-47936047D01*
X72478384Y-47697952D02*
X72240289Y-48364619D01*
X72240289Y-48364619D02*
X72002194Y-47697952D01*
X71240289Y-48317000D02*
X71335527Y-48364619D01*
X71335527Y-48364619D02*
X71526003Y-48364619D01*
X71526003Y-48364619D02*
X71621241Y-48317000D01*
X71621241Y-48317000D02*
X71668860Y-48221761D01*
X71668860Y-48221761D02*
X71668860Y-47840809D01*
X71668860Y-47840809D02*
X71621241Y-47745571D01*
X71621241Y-47745571D02*
X71526003Y-47697952D01*
X71526003Y-47697952D02*
X71335527Y-47697952D01*
X71335527Y-47697952D02*
X71240289Y-47745571D01*
X71240289Y-47745571D02*
X71192670Y-47840809D01*
X71192670Y-47840809D02*
X71192670Y-47936047D01*
X71192670Y-47936047D02*
X71668860Y-48031285D01*
X70002193Y-48364619D02*
X70002193Y-47364619D01*
X70002193Y-47364619D02*
X69621241Y-47364619D01*
X69621241Y-47364619D02*
X69526003Y-47412238D01*
X69526003Y-47412238D02*
X69478384Y-47459857D01*
X69478384Y-47459857D02*
X69430765Y-47555095D01*
X69430765Y-47555095D02*
X69430765Y-47697952D01*
X69430765Y-47697952D02*
X69478384Y-47793190D01*
X69478384Y-47793190D02*
X69526003Y-47840809D01*
X69526003Y-47840809D02*
X69621241Y-47888428D01*
X69621241Y-47888428D02*
X70002193Y-47888428D01*
X69002193Y-48364619D02*
X69002193Y-47697952D01*
X69002193Y-47888428D02*
X68954574Y-47793190D01*
X68954574Y-47793190D02*
X68906955Y-47745571D01*
X68906955Y-47745571D02*
X68811717Y-47697952D01*
X68811717Y-47697952D02*
X68716479Y-47697952D01*
X68002193Y-48317000D02*
X68097431Y-48364619D01*
X68097431Y-48364619D02*
X68287907Y-48364619D01*
X68287907Y-48364619D02*
X68383145Y-48317000D01*
X68383145Y-48317000D02*
X68430764Y-48221761D01*
X68430764Y-48221761D02*
X68430764Y-47840809D01*
X68430764Y-47840809D02*
X68383145Y-47745571D01*
X68383145Y-47745571D02*
X68287907Y-47697952D01*
X68287907Y-47697952D02*
X68097431Y-47697952D01*
X68097431Y-47697952D02*
X68002193Y-47745571D01*
X68002193Y-47745571D02*
X67954574Y-47840809D01*
X67954574Y-47840809D02*
X67954574Y-47936047D01*
X67954574Y-47936047D02*
X68430764Y-48031285D01*
X67573621Y-48317000D02*
X67478383Y-48364619D01*
X67478383Y-48364619D02*
X67287907Y-48364619D01*
X67287907Y-48364619D02*
X67192669Y-48317000D01*
X67192669Y-48317000D02*
X67145050Y-48221761D01*
X67145050Y-48221761D02*
X67145050Y-48174142D01*
X67145050Y-48174142D02*
X67192669Y-48078904D01*
X67192669Y-48078904D02*
X67287907Y-48031285D01*
X67287907Y-48031285D02*
X67430764Y-48031285D01*
X67430764Y-48031285D02*
X67526002Y-47983666D01*
X67526002Y-47983666D02*
X67573621Y-47888428D01*
X67573621Y-47888428D02*
X67573621Y-47840809D01*
X67573621Y-47840809D02*
X67526002Y-47745571D01*
X67526002Y-47745571D02*
X67430764Y-47697952D01*
X67430764Y-47697952D02*
X67287907Y-47697952D01*
X67287907Y-47697952D02*
X67192669Y-47745571D01*
X66335526Y-48317000D02*
X66430764Y-48364619D01*
X66430764Y-48364619D02*
X66621240Y-48364619D01*
X66621240Y-48364619D02*
X66716478Y-48317000D01*
X66716478Y-48317000D02*
X66764097Y-48221761D01*
X66764097Y-48221761D02*
X66764097Y-47840809D01*
X66764097Y-47840809D02*
X66716478Y-47745571D01*
X66716478Y-47745571D02*
X66621240Y-47697952D01*
X66621240Y-47697952D02*
X66430764Y-47697952D01*
X66430764Y-47697952D02*
X66335526Y-47745571D01*
X66335526Y-47745571D02*
X66287907Y-47840809D01*
X66287907Y-47840809D02*
X66287907Y-47936047D01*
X66287907Y-47936047D02*
X66764097Y-48031285D01*
X65859335Y-47697952D02*
X65859335Y-48364619D01*
X65859335Y-47793190D02*
X65811716Y-47745571D01*
X65811716Y-47745571D02*
X65716478Y-47697952D01*
X65716478Y-47697952D02*
X65573621Y-47697952D01*
X65573621Y-47697952D02*
X65478383Y-47745571D01*
X65478383Y-47745571D02*
X65430764Y-47840809D01*
X65430764Y-47840809D02*
X65430764Y-48364619D01*
X64526002Y-48317000D02*
X64621240Y-48364619D01*
X64621240Y-48364619D02*
X64811716Y-48364619D01*
X64811716Y-48364619D02*
X64906954Y-48317000D01*
X64906954Y-48317000D02*
X64954573Y-48269380D01*
X64954573Y-48269380D02*
X65002192Y-48174142D01*
X65002192Y-48174142D02*
X65002192Y-47888428D01*
X65002192Y-47888428D02*
X64954573Y-47793190D01*
X64954573Y-47793190D02*
X64906954Y-47745571D01*
X64906954Y-47745571D02*
X64811716Y-47697952D01*
X64811716Y-47697952D02*
X64621240Y-47697952D01*
X64621240Y-47697952D02*
X64526002Y-47745571D01*
X63716478Y-48317000D02*
X63811716Y-48364619D01*
X63811716Y-48364619D02*
X64002192Y-48364619D01*
X64002192Y-48364619D02*
X64097430Y-48317000D01*
X64097430Y-48317000D02*
X64145049Y-48221761D01*
X64145049Y-48221761D02*
X64145049Y-47840809D01*
X64145049Y-47840809D02*
X64097430Y-47745571D01*
X64097430Y-47745571D02*
X64002192Y-47697952D01*
X64002192Y-47697952D02*
X63811716Y-47697952D01*
X63811716Y-47697952D02*
X63716478Y-47745571D01*
X63716478Y-47745571D02*
X63668859Y-47840809D01*
X63668859Y-47840809D02*
X63668859Y-47936047D01*
X63668859Y-47936047D02*
X64145049Y-48031285D01*
X62526001Y-48317000D02*
X62383144Y-48364619D01*
X62383144Y-48364619D02*
X62145049Y-48364619D01*
X62145049Y-48364619D02*
X62049811Y-48317000D01*
X62049811Y-48317000D02*
X62002192Y-48269380D01*
X62002192Y-48269380D02*
X61954573Y-48174142D01*
X61954573Y-48174142D02*
X61954573Y-48078904D01*
X61954573Y-48078904D02*
X62002192Y-47983666D01*
X62002192Y-47983666D02*
X62049811Y-47936047D01*
X62049811Y-47936047D02*
X62145049Y-47888428D01*
X62145049Y-47888428D02*
X62335525Y-47840809D01*
X62335525Y-47840809D02*
X62430763Y-47793190D01*
X62430763Y-47793190D02*
X62478382Y-47745571D01*
X62478382Y-47745571D02*
X62526001Y-47650333D01*
X62526001Y-47650333D02*
X62526001Y-47555095D01*
X62526001Y-47555095D02*
X62478382Y-47459857D01*
X62478382Y-47459857D02*
X62430763Y-47412238D01*
X62430763Y-47412238D02*
X62335525Y-47364619D01*
X62335525Y-47364619D02*
X62097430Y-47364619D01*
X62097430Y-47364619D02*
X61954573Y-47412238D01*
X61145049Y-48317000D02*
X61240287Y-48364619D01*
X61240287Y-48364619D02*
X61430763Y-48364619D01*
X61430763Y-48364619D02*
X61526001Y-48317000D01*
X61526001Y-48317000D02*
X61573620Y-48221761D01*
X61573620Y-48221761D02*
X61573620Y-47840809D01*
X61573620Y-47840809D02*
X61526001Y-47745571D01*
X61526001Y-47745571D02*
X61430763Y-47697952D01*
X61430763Y-47697952D02*
X61240287Y-47697952D01*
X61240287Y-47697952D02*
X61145049Y-47745571D01*
X61145049Y-47745571D02*
X61097430Y-47840809D01*
X61097430Y-47840809D02*
X61097430Y-47936047D01*
X61097430Y-47936047D02*
X61573620Y-48031285D01*
X60668858Y-47697952D02*
X60668858Y-48364619D01*
X60668858Y-47793190D02*
X60621239Y-47745571D01*
X60621239Y-47745571D02*
X60526001Y-47697952D01*
X60526001Y-47697952D02*
X60383144Y-47697952D01*
X60383144Y-47697952D02*
X60287906Y-47745571D01*
X60287906Y-47745571D02*
X60240287Y-47840809D01*
X60240287Y-47840809D02*
X60240287Y-48364619D01*
X59811715Y-48317000D02*
X59716477Y-48364619D01*
X59716477Y-48364619D02*
X59526001Y-48364619D01*
X59526001Y-48364619D02*
X59430763Y-48317000D01*
X59430763Y-48317000D02*
X59383144Y-48221761D01*
X59383144Y-48221761D02*
X59383144Y-48174142D01*
X59383144Y-48174142D02*
X59430763Y-48078904D01*
X59430763Y-48078904D02*
X59526001Y-48031285D01*
X59526001Y-48031285D02*
X59668858Y-48031285D01*
X59668858Y-48031285D02*
X59764096Y-47983666D01*
X59764096Y-47983666D02*
X59811715Y-47888428D01*
X59811715Y-47888428D02*
X59811715Y-47840809D01*
X59811715Y-47840809D02*
X59764096Y-47745571D01*
X59764096Y-47745571D02*
X59668858Y-47697952D01*
X59668858Y-47697952D02*
X59526001Y-47697952D01*
X59526001Y-47697952D02*
X59430763Y-47745571D01*
X58811715Y-48364619D02*
X58906953Y-48317000D01*
X58906953Y-48317000D02*
X58954572Y-48269380D01*
X58954572Y-48269380D02*
X59002191Y-48174142D01*
X59002191Y-48174142D02*
X59002191Y-47888428D01*
X59002191Y-47888428D02*
X58954572Y-47793190D01*
X58954572Y-47793190D02*
X58906953Y-47745571D01*
X58906953Y-47745571D02*
X58811715Y-47697952D01*
X58811715Y-47697952D02*
X58668858Y-47697952D01*
X58668858Y-47697952D02*
X58573620Y-47745571D01*
X58573620Y-47745571D02*
X58526001Y-47793190D01*
X58526001Y-47793190D02*
X58478382Y-47888428D01*
X58478382Y-47888428D02*
X58478382Y-48174142D01*
X58478382Y-48174142D02*
X58526001Y-48269380D01*
X58526001Y-48269380D02*
X58573620Y-48317000D01*
X58573620Y-48317000D02*
X58668858Y-48364619D01*
X58668858Y-48364619D02*
X58811715Y-48364619D01*
X58049810Y-48364619D02*
X58049810Y-47697952D01*
X58049810Y-47888428D02*
X58002191Y-47793190D01*
X58002191Y-47793190D02*
X57954572Y-47745571D01*
X57954572Y-47745571D02*
X57859334Y-47697952D01*
X57859334Y-47697952D02*
X57764096Y-47697952D01*
X82192669Y-53144731D02*
X81954574Y-54144731D01*
X81954574Y-54144731D02*
X81764098Y-53430445D01*
X81764098Y-53430445D02*
X81573622Y-54144731D01*
X81573622Y-54144731D02*
X81335527Y-53144731D01*
X80954574Y-54049492D02*
X80906955Y-54097112D01*
X80906955Y-54097112D02*
X80954574Y-54144731D01*
X80954574Y-54144731D02*
X81002193Y-54097112D01*
X81002193Y-54097112D02*
X80954574Y-54049492D01*
X80954574Y-54049492D02*
X80954574Y-54144731D01*
X79145051Y-54049492D02*
X79192670Y-54097112D01*
X79192670Y-54097112D02*
X79335527Y-54144731D01*
X79335527Y-54144731D02*
X79430765Y-54144731D01*
X79430765Y-54144731D02*
X79573622Y-54097112D01*
X79573622Y-54097112D02*
X79668860Y-54001873D01*
X79668860Y-54001873D02*
X79716479Y-53906635D01*
X79716479Y-53906635D02*
X79764098Y-53716159D01*
X79764098Y-53716159D02*
X79764098Y-53573302D01*
X79764098Y-53573302D02*
X79716479Y-53382826D01*
X79716479Y-53382826D02*
X79668860Y-53287588D01*
X79668860Y-53287588D02*
X79573622Y-53192350D01*
X79573622Y-53192350D02*
X79430765Y-53144731D01*
X79430765Y-53144731D02*
X79335527Y-53144731D01*
X79335527Y-53144731D02*
X79192670Y-53192350D01*
X79192670Y-53192350D02*
X79145051Y-53239969D01*
X78573622Y-54144731D02*
X78668860Y-54097112D01*
X78668860Y-54097112D02*
X78716479Y-54049492D01*
X78716479Y-54049492D02*
X78764098Y-53954254D01*
X78764098Y-53954254D02*
X78764098Y-53668540D01*
X78764098Y-53668540D02*
X78716479Y-53573302D01*
X78716479Y-53573302D02*
X78668860Y-53525683D01*
X78668860Y-53525683D02*
X78573622Y-53478064D01*
X78573622Y-53478064D02*
X78430765Y-53478064D01*
X78430765Y-53478064D02*
X78335527Y-53525683D01*
X78335527Y-53525683D02*
X78287908Y-53573302D01*
X78287908Y-53573302D02*
X78240289Y-53668540D01*
X78240289Y-53668540D02*
X78240289Y-53954254D01*
X78240289Y-53954254D02*
X78287908Y-54049492D01*
X78287908Y-54049492D02*
X78335527Y-54097112D01*
X78335527Y-54097112D02*
X78430765Y-54144731D01*
X78430765Y-54144731D02*
X78573622Y-54144731D01*
X77668860Y-54144731D02*
X77764098Y-54097112D01*
X77764098Y-54097112D02*
X77811717Y-54001873D01*
X77811717Y-54001873D02*
X77811717Y-53144731D01*
X77145050Y-54144731D02*
X77240288Y-54097112D01*
X77240288Y-54097112D02*
X77287907Y-54001873D01*
X77287907Y-54001873D02*
X77287907Y-53144731D01*
X76764097Y-54144731D02*
X76764097Y-53478064D01*
X76764097Y-53144731D02*
X76811716Y-53192350D01*
X76811716Y-53192350D02*
X76764097Y-53239969D01*
X76764097Y-53239969D02*
X76716478Y-53192350D01*
X76716478Y-53192350D02*
X76764097Y-53144731D01*
X76764097Y-53144731D02*
X76764097Y-53239969D01*
X76335526Y-54097112D02*
X76240288Y-54144731D01*
X76240288Y-54144731D02*
X76049812Y-54144731D01*
X76049812Y-54144731D02*
X75954574Y-54097112D01*
X75954574Y-54097112D02*
X75906955Y-54001873D01*
X75906955Y-54001873D02*
X75906955Y-53954254D01*
X75906955Y-53954254D02*
X75954574Y-53859016D01*
X75954574Y-53859016D02*
X76049812Y-53811397D01*
X76049812Y-53811397D02*
X76192669Y-53811397D01*
X76192669Y-53811397D02*
X76287907Y-53763778D01*
X76287907Y-53763778D02*
X76335526Y-53668540D01*
X76335526Y-53668540D02*
X76335526Y-53620921D01*
X76335526Y-53620921D02*
X76287907Y-53525683D01*
X76287907Y-53525683D02*
X76192669Y-53478064D01*
X76192669Y-53478064D02*
X76049812Y-53478064D01*
X76049812Y-53478064D02*
X75954574Y-53525683D01*
X82145050Y-55707056D02*
X82002193Y-55754675D01*
X82002193Y-55754675D02*
X81764098Y-55754675D01*
X81764098Y-55754675D02*
X81668860Y-55707056D01*
X81668860Y-55707056D02*
X81621241Y-55659436D01*
X81621241Y-55659436D02*
X81573622Y-55564198D01*
X81573622Y-55564198D02*
X81573622Y-55468960D01*
X81573622Y-55468960D02*
X81621241Y-55373722D01*
X81621241Y-55373722D02*
X81668860Y-55326103D01*
X81668860Y-55326103D02*
X81764098Y-55278484D01*
X81764098Y-55278484D02*
X81954574Y-55230865D01*
X81954574Y-55230865D02*
X82049812Y-55183246D01*
X82049812Y-55183246D02*
X82097431Y-55135627D01*
X82097431Y-55135627D02*
X82145050Y-55040389D01*
X82145050Y-55040389D02*
X82145050Y-54945151D01*
X82145050Y-54945151D02*
X82097431Y-54849913D01*
X82097431Y-54849913D02*
X82049812Y-54802294D01*
X82049812Y-54802294D02*
X81954574Y-54754675D01*
X81954574Y-54754675D02*
X81716479Y-54754675D01*
X81716479Y-54754675D02*
X81573622Y-54802294D01*
X80764098Y-55707056D02*
X80859336Y-55754675D01*
X80859336Y-55754675D02*
X81049812Y-55754675D01*
X81049812Y-55754675D02*
X81145050Y-55707056D01*
X81145050Y-55707056D02*
X81192669Y-55611817D01*
X81192669Y-55611817D02*
X81192669Y-55230865D01*
X81192669Y-55230865D02*
X81145050Y-55135627D01*
X81145050Y-55135627D02*
X81049812Y-55088008D01*
X81049812Y-55088008D02*
X80859336Y-55088008D01*
X80859336Y-55088008D02*
X80764098Y-55135627D01*
X80764098Y-55135627D02*
X80716479Y-55230865D01*
X80716479Y-55230865D02*
X80716479Y-55326103D01*
X80716479Y-55326103D02*
X81192669Y-55421341D01*
X80287907Y-55088008D02*
X80287907Y-56088008D01*
X80287907Y-55135627D02*
X80192669Y-55088008D01*
X80192669Y-55088008D02*
X80002193Y-55088008D01*
X80002193Y-55088008D02*
X79906955Y-55135627D01*
X79906955Y-55135627D02*
X79859336Y-55183246D01*
X79859336Y-55183246D02*
X79811717Y-55278484D01*
X79811717Y-55278484D02*
X79811717Y-55564198D01*
X79811717Y-55564198D02*
X79859336Y-55659436D01*
X79859336Y-55659436D02*
X79906955Y-55707056D01*
X79906955Y-55707056D02*
X80002193Y-55754675D01*
X80002193Y-55754675D02*
X80192669Y-55754675D01*
X80192669Y-55754675D02*
X80287907Y-55707056D01*
X79526002Y-55088008D02*
X79145050Y-55088008D01*
X79383145Y-54754675D02*
X79383145Y-55611817D01*
X79383145Y-55611817D02*
X79335526Y-55707056D01*
X79335526Y-55707056D02*
X79240288Y-55754675D01*
X79240288Y-55754675D02*
X79145050Y-55754675D01*
X78097430Y-54849913D02*
X78049811Y-54802294D01*
X78049811Y-54802294D02*
X77954573Y-54754675D01*
X77954573Y-54754675D02*
X77716478Y-54754675D01*
X77716478Y-54754675D02*
X77621240Y-54802294D01*
X77621240Y-54802294D02*
X77573621Y-54849913D01*
X77573621Y-54849913D02*
X77526002Y-54945151D01*
X77526002Y-54945151D02*
X77526002Y-55040389D01*
X77526002Y-55040389D02*
X77573621Y-55183246D01*
X77573621Y-55183246D02*
X78145049Y-55754675D01*
X78145049Y-55754675D02*
X77526002Y-55754675D01*
X76906954Y-54754675D02*
X76811716Y-54754675D01*
X76811716Y-54754675D02*
X76716478Y-54802294D01*
X76716478Y-54802294D02*
X76668859Y-54849913D01*
X76668859Y-54849913D02*
X76621240Y-54945151D01*
X76621240Y-54945151D02*
X76573621Y-55135627D01*
X76573621Y-55135627D02*
X76573621Y-55373722D01*
X76573621Y-55373722D02*
X76621240Y-55564198D01*
X76621240Y-55564198D02*
X76668859Y-55659436D01*
X76668859Y-55659436D02*
X76716478Y-55707056D01*
X76716478Y-55707056D02*
X76811716Y-55754675D01*
X76811716Y-55754675D02*
X76906954Y-55754675D01*
X76906954Y-55754675D02*
X77002192Y-55707056D01*
X77002192Y-55707056D02*
X77049811Y-55659436D01*
X77049811Y-55659436D02*
X77097430Y-55564198D01*
X77097430Y-55564198D02*
X77145049Y-55373722D01*
X77145049Y-55373722D02*
X77145049Y-55135627D01*
X77145049Y-55135627D02*
X77097430Y-54945151D01*
X77097430Y-54945151D02*
X77049811Y-54849913D01*
X77049811Y-54849913D02*
X77002192Y-54802294D01*
X77002192Y-54802294D02*
X76906954Y-54754675D01*
X76192668Y-54849913D02*
X76145049Y-54802294D01*
X76145049Y-54802294D02*
X76049811Y-54754675D01*
X76049811Y-54754675D02*
X75811716Y-54754675D01*
X75811716Y-54754675D02*
X75716478Y-54802294D01*
X75716478Y-54802294D02*
X75668859Y-54849913D01*
X75668859Y-54849913D02*
X75621240Y-54945151D01*
X75621240Y-54945151D02*
X75621240Y-55040389D01*
X75621240Y-55040389D02*
X75668859Y-55183246D01*
X75668859Y-55183246D02*
X76240287Y-55754675D01*
X76240287Y-55754675D02*
X75621240Y-55754675D01*
X74764097Y-54754675D02*
X74954573Y-54754675D01*
X74954573Y-54754675D02*
X75049811Y-54802294D01*
X75049811Y-54802294D02*
X75097430Y-54849913D01*
X75097430Y-54849913D02*
X75192668Y-54992770D01*
X75192668Y-54992770D02*
X75240287Y-55183246D01*
X75240287Y-55183246D02*
X75240287Y-55564198D01*
X75240287Y-55564198D02*
X75192668Y-55659436D01*
X75192668Y-55659436D02*
X75145049Y-55707056D01*
X75145049Y-55707056D02*
X75049811Y-55754675D01*
X75049811Y-55754675D02*
X74859335Y-55754675D01*
X74859335Y-55754675D02*
X74764097Y-55707056D01*
X74764097Y-55707056D02*
X74716478Y-55659436D01*
X74716478Y-55659436D02*
X74668859Y-55564198D01*
X74668859Y-55564198D02*
X74668859Y-55326103D01*
X74668859Y-55326103D02*
X74716478Y-55230865D01*
X74716478Y-55230865D02*
X74764097Y-55183246D01*
X74764097Y-55183246D02*
X74859335Y-55135627D01*
X74859335Y-55135627D02*
X75049811Y-55135627D01*
X75049811Y-55135627D02*
X75145049Y-55183246D01*
X75145049Y-55183246D02*
X75192668Y-55230865D01*
X75192668Y-55230865D02*
X75240287Y-55326103D01*
X81764098Y-56840809D02*
X82097431Y-56840809D01*
X82097431Y-57364619D02*
X82097431Y-56364619D01*
X82097431Y-56364619D02*
X81621241Y-56364619D01*
X80811717Y-57364619D02*
X80811717Y-56840809D01*
X80811717Y-56840809D02*
X80859336Y-56745571D01*
X80859336Y-56745571D02*
X80954574Y-56697952D01*
X80954574Y-56697952D02*
X81145050Y-56697952D01*
X81145050Y-56697952D02*
X81240288Y-56745571D01*
X80811717Y-57317000D02*
X80906955Y-57364619D01*
X80906955Y-57364619D02*
X81145050Y-57364619D01*
X81145050Y-57364619D02*
X81240288Y-57317000D01*
X81240288Y-57317000D02*
X81287907Y-57221761D01*
X81287907Y-57221761D02*
X81287907Y-57126523D01*
X81287907Y-57126523D02*
X81240288Y-57031285D01*
X81240288Y-57031285D02*
X81145050Y-56983666D01*
X81145050Y-56983666D02*
X80906955Y-56983666D01*
X80906955Y-56983666D02*
X80811717Y-56936047D01*
X80335526Y-57364619D02*
X80335526Y-56364619D01*
X80335526Y-56745571D02*
X80240288Y-56697952D01*
X80240288Y-56697952D02*
X80049812Y-56697952D01*
X80049812Y-56697952D02*
X79954574Y-56745571D01*
X79954574Y-56745571D02*
X79906955Y-56793190D01*
X79906955Y-56793190D02*
X79859336Y-56888428D01*
X79859336Y-56888428D02*
X79859336Y-57174142D01*
X79859336Y-57174142D02*
X79906955Y-57269380D01*
X79906955Y-57269380D02*
X79954574Y-57317000D01*
X79954574Y-57317000D02*
X80049812Y-57364619D01*
X80049812Y-57364619D02*
X80240288Y-57364619D01*
X80240288Y-57364619D02*
X80335526Y-57317000D01*
X78668859Y-56983666D02*
X77906955Y-56983666D01*
X76478383Y-56364619D02*
X76287907Y-56364619D01*
X76287907Y-56364619D02*
X76192669Y-56412238D01*
X76192669Y-56412238D02*
X76097431Y-56507476D01*
X76097431Y-56507476D02*
X76049812Y-56697952D01*
X76049812Y-56697952D02*
X76049812Y-57031285D01*
X76049812Y-57031285D02*
X76097431Y-57221761D01*
X76097431Y-57221761D02*
X76192669Y-57317000D01*
X76192669Y-57317000D02*
X76287907Y-57364619D01*
X76287907Y-57364619D02*
X76478383Y-57364619D01*
X76478383Y-57364619D02*
X76573621Y-57317000D01*
X76573621Y-57317000D02*
X76668859Y-57221761D01*
X76668859Y-57221761D02*
X76716478Y-57031285D01*
X76716478Y-57031285D02*
X76716478Y-56697952D01*
X76716478Y-56697952D02*
X76668859Y-56507476D01*
X76668859Y-56507476D02*
X76573621Y-56412238D01*
X76573621Y-56412238D02*
X76478383Y-56364619D01*
X75668859Y-57317000D02*
X75526002Y-57364619D01*
X75526002Y-57364619D02*
X75287907Y-57364619D01*
X75287907Y-57364619D02*
X75192669Y-57317000D01*
X75192669Y-57317000D02*
X75145050Y-57269380D01*
X75145050Y-57269380D02*
X75097431Y-57174142D01*
X75097431Y-57174142D02*
X75097431Y-57078904D01*
X75097431Y-57078904D02*
X75145050Y-56983666D01*
X75145050Y-56983666D02*
X75192669Y-56936047D01*
X75192669Y-56936047D02*
X75287907Y-56888428D01*
X75287907Y-56888428D02*
X75478383Y-56840809D01*
X75478383Y-56840809D02*
X75573621Y-56793190D01*
X75573621Y-56793190D02*
X75621240Y-56745571D01*
X75621240Y-56745571D02*
X75668859Y-56650333D01*
X75668859Y-56650333D02*
X75668859Y-56555095D01*
X75668859Y-56555095D02*
X75621240Y-56459857D01*
X75621240Y-56459857D02*
X75573621Y-56412238D01*
X75573621Y-56412238D02*
X75478383Y-56364619D01*
X75478383Y-56364619D02*
X75240288Y-56364619D01*
X75240288Y-56364619D02*
X75097431Y-56412238D01*
X74668859Y-57364619D02*
X74668859Y-56364619D01*
X74668859Y-56840809D02*
X74097431Y-56840809D01*
X74097431Y-57364619D02*
X74097431Y-56364619D01*
X72859335Y-57364619D02*
X72859335Y-56364619D01*
X72859335Y-56364619D02*
X72478383Y-56364619D01*
X72478383Y-56364619D02*
X72383145Y-56412238D01*
X72383145Y-56412238D02*
X72335526Y-56459857D01*
X72335526Y-56459857D02*
X72287907Y-56555095D01*
X72287907Y-56555095D02*
X72287907Y-56697952D01*
X72287907Y-56697952D02*
X72335526Y-56793190D01*
X72335526Y-56793190D02*
X72383145Y-56840809D01*
X72383145Y-56840809D02*
X72478383Y-56888428D01*
X72478383Y-56888428D02*
X72859335Y-56888428D01*
X71430764Y-57364619D02*
X71430764Y-56840809D01*
X71430764Y-56840809D02*
X71478383Y-56745571D01*
X71478383Y-56745571D02*
X71573621Y-56697952D01*
X71573621Y-56697952D02*
X71764097Y-56697952D01*
X71764097Y-56697952D02*
X71859335Y-56745571D01*
X71430764Y-57317000D02*
X71526002Y-57364619D01*
X71526002Y-57364619D02*
X71764097Y-57364619D01*
X71764097Y-57364619D02*
X71859335Y-57317000D01*
X71859335Y-57317000D02*
X71906954Y-57221761D01*
X71906954Y-57221761D02*
X71906954Y-57126523D01*
X71906954Y-57126523D02*
X71859335Y-57031285D01*
X71859335Y-57031285D02*
X71764097Y-56983666D01*
X71764097Y-56983666D02*
X71526002Y-56983666D01*
X71526002Y-56983666D02*
X71430764Y-56936047D01*
X70954573Y-57364619D02*
X70954573Y-56697952D01*
X70954573Y-56888428D02*
X70906954Y-56793190D01*
X70906954Y-56793190D02*
X70859335Y-56745571D01*
X70859335Y-56745571D02*
X70764097Y-56697952D01*
X70764097Y-56697952D02*
X70668859Y-56697952D01*
X70335525Y-57364619D02*
X70335525Y-56364619D01*
X70240287Y-56983666D02*
X69954573Y-57364619D01*
X69954573Y-56697952D02*
X70335525Y-57078904D01*
X81526003Y-60939548D02*
X81573622Y-60987168D01*
X81573622Y-60987168D02*
X81716479Y-61034787D01*
X81716479Y-61034787D02*
X81811717Y-61034787D01*
X81811717Y-61034787D02*
X81954574Y-60987168D01*
X81954574Y-60987168D02*
X82049812Y-60891929D01*
X82049812Y-60891929D02*
X82097431Y-60796691D01*
X82097431Y-60796691D02*
X82145050Y-60606215D01*
X82145050Y-60606215D02*
X82145050Y-60463358D01*
X82145050Y-60463358D02*
X82097431Y-60272882D01*
X82097431Y-60272882D02*
X82049812Y-60177644D01*
X82049812Y-60177644D02*
X81954574Y-60082406D01*
X81954574Y-60082406D02*
X81811717Y-60034787D01*
X81811717Y-60034787D02*
X81716479Y-60034787D01*
X81716479Y-60034787D02*
X81573622Y-60082406D01*
X81573622Y-60082406D02*
X81526003Y-60130025D01*
X80573622Y-61034787D02*
X81145050Y-61034787D01*
X80859336Y-61034787D02*
X80859336Y-60034787D01*
X80859336Y-60034787D02*
X80954574Y-60177644D01*
X80954574Y-60177644D02*
X81049812Y-60272882D01*
X81049812Y-60272882D02*
X81145050Y-60320501D01*
X79383145Y-60653834D02*
X78621241Y-60653834D01*
X76859336Y-61034787D02*
X77430764Y-61034787D01*
X77145050Y-61034787D02*
X77145050Y-60034787D01*
X77145050Y-60034787D02*
X77240288Y-60177644D01*
X77240288Y-60177644D02*
X77335526Y-60272882D01*
X77335526Y-60272882D02*
X77430764Y-60320501D01*
X76240288Y-60034787D02*
X76145050Y-60034787D01*
X76145050Y-60034787D02*
X76049812Y-60082406D01*
X76049812Y-60082406D02*
X76002193Y-60130025D01*
X76002193Y-60130025D02*
X75954574Y-60225263D01*
X75954574Y-60225263D02*
X75906955Y-60415739D01*
X75906955Y-60415739D02*
X75906955Y-60653834D01*
X75906955Y-60653834D02*
X75954574Y-60844310D01*
X75954574Y-60844310D02*
X76002193Y-60939548D01*
X76002193Y-60939548D02*
X76049812Y-60987168D01*
X76049812Y-60987168D02*
X76145050Y-61034787D01*
X76145050Y-61034787D02*
X76240288Y-61034787D01*
X76240288Y-61034787D02*
X76335526Y-60987168D01*
X76335526Y-60987168D02*
X76383145Y-60939548D01*
X76383145Y-60939548D02*
X76430764Y-60844310D01*
X76430764Y-60844310D02*
X76478383Y-60653834D01*
X76478383Y-60653834D02*
X76478383Y-60415739D01*
X76478383Y-60415739D02*
X76430764Y-60225263D01*
X76430764Y-60225263D02*
X76383145Y-60130025D01*
X76383145Y-60130025D02*
X76335526Y-60082406D01*
X76335526Y-60082406D02*
X76240288Y-60034787D01*
X75049812Y-60368120D02*
X75049812Y-61034787D01*
X75478383Y-60368120D02*
X75478383Y-60891929D01*
X75478383Y-60891929D02*
X75430764Y-60987168D01*
X75430764Y-60987168D02*
X75335526Y-61034787D01*
X75335526Y-61034787D02*
X75192669Y-61034787D01*
X75192669Y-61034787D02*
X75097431Y-60987168D01*
X75097431Y-60987168D02*
X75049812Y-60939548D01*
X74240288Y-60510977D02*
X74573621Y-60510977D01*
X74573621Y-61034787D02*
X74573621Y-60034787D01*
X74573621Y-60034787D02*
X74097431Y-60034787D01*
X81526003Y-62549492D02*
X81573622Y-62597112D01*
X81573622Y-62597112D02*
X81716479Y-62644731D01*
X81716479Y-62644731D02*
X81811717Y-62644731D01*
X81811717Y-62644731D02*
X81954574Y-62597112D01*
X81954574Y-62597112D02*
X82049812Y-62501873D01*
X82049812Y-62501873D02*
X82097431Y-62406635D01*
X82097431Y-62406635D02*
X82145050Y-62216159D01*
X82145050Y-62216159D02*
X82145050Y-62073302D01*
X82145050Y-62073302D02*
X82097431Y-61882826D01*
X82097431Y-61882826D02*
X82049812Y-61787588D01*
X82049812Y-61787588D02*
X81954574Y-61692350D01*
X81954574Y-61692350D02*
X81811717Y-61644731D01*
X81811717Y-61644731D02*
X81716479Y-61644731D01*
X81716479Y-61644731D02*
X81573622Y-61692350D01*
X81573622Y-61692350D02*
X81526003Y-61739969D01*
X81145050Y-61739969D02*
X81097431Y-61692350D01*
X81097431Y-61692350D02*
X81002193Y-61644731D01*
X81002193Y-61644731D02*
X80764098Y-61644731D01*
X80764098Y-61644731D02*
X80668860Y-61692350D01*
X80668860Y-61692350D02*
X80621241Y-61739969D01*
X80621241Y-61739969D02*
X80573622Y-61835207D01*
X80573622Y-61835207D02*
X80573622Y-61930445D01*
X80573622Y-61930445D02*
X80621241Y-62073302D01*
X80621241Y-62073302D02*
X81192669Y-62644731D01*
X81192669Y-62644731D02*
X80573622Y-62644731D01*
X79383145Y-62263778D02*
X78621241Y-62263778D01*
X77383145Y-62549492D02*
X77335526Y-62597112D01*
X77335526Y-62597112D02*
X77383145Y-62644731D01*
X77383145Y-62644731D02*
X77430764Y-62597112D01*
X77430764Y-62597112D02*
X77383145Y-62549492D01*
X77383145Y-62549492D02*
X77383145Y-62644731D01*
X76383146Y-62644731D02*
X76954574Y-62644731D01*
X76668860Y-62644731D02*
X76668860Y-61644731D01*
X76668860Y-61644731D02*
X76764098Y-61787588D01*
X76764098Y-61787588D02*
X76859336Y-61882826D01*
X76859336Y-61882826D02*
X76954574Y-61930445D01*
X75526003Y-61978064D02*
X75526003Y-62644731D01*
X75954574Y-61978064D02*
X75954574Y-62501873D01*
X75954574Y-62501873D02*
X75906955Y-62597112D01*
X75906955Y-62597112D02*
X75811717Y-62644731D01*
X75811717Y-62644731D02*
X75668860Y-62644731D01*
X75668860Y-62644731D02*
X75573622Y-62597112D01*
X75573622Y-62597112D02*
X75526003Y-62549492D01*
X74716479Y-62120921D02*
X75049812Y-62120921D01*
X75049812Y-62644731D02*
X75049812Y-61644731D01*
X75049812Y-61644731D02*
X74573622Y-61644731D01*
X81526003Y-64159436D02*
X81573622Y-64207056D01*
X81573622Y-64207056D02*
X81716479Y-64254675D01*
X81716479Y-64254675D02*
X81811717Y-64254675D01*
X81811717Y-64254675D02*
X81954574Y-64207056D01*
X81954574Y-64207056D02*
X82049812Y-64111817D01*
X82049812Y-64111817D02*
X82097431Y-64016579D01*
X82097431Y-64016579D02*
X82145050Y-63826103D01*
X82145050Y-63826103D02*
X82145050Y-63683246D01*
X82145050Y-63683246D02*
X82097431Y-63492770D01*
X82097431Y-63492770D02*
X82049812Y-63397532D01*
X82049812Y-63397532D02*
X81954574Y-63302294D01*
X81954574Y-63302294D02*
X81811717Y-63254675D01*
X81811717Y-63254675D02*
X81716479Y-63254675D01*
X81716479Y-63254675D02*
X81573622Y-63302294D01*
X81573622Y-63302294D02*
X81526003Y-63349913D01*
X81192669Y-63254675D02*
X80573622Y-63254675D01*
X80573622Y-63254675D02*
X80906955Y-63635627D01*
X80906955Y-63635627D02*
X80764098Y-63635627D01*
X80764098Y-63635627D02*
X80668860Y-63683246D01*
X80668860Y-63683246D02*
X80621241Y-63730865D01*
X80621241Y-63730865D02*
X80573622Y-63826103D01*
X80573622Y-63826103D02*
X80573622Y-64064198D01*
X80573622Y-64064198D02*
X80621241Y-64159436D01*
X80621241Y-64159436D02*
X80668860Y-64207056D01*
X80668860Y-64207056D02*
X80764098Y-64254675D01*
X80764098Y-64254675D02*
X81049812Y-64254675D01*
X81049812Y-64254675D02*
X81145050Y-64207056D01*
X81145050Y-64207056D02*
X81192669Y-64159436D01*
X79383145Y-63873722D02*
X78621241Y-63873722D01*
X77383145Y-64159436D02*
X77335526Y-64207056D01*
X77335526Y-64207056D02*
X77383145Y-64254675D01*
X77383145Y-64254675D02*
X77430764Y-64207056D01*
X77430764Y-64207056D02*
X77383145Y-64159436D01*
X77383145Y-64159436D02*
X77383145Y-64254675D01*
X76383146Y-64254675D02*
X76954574Y-64254675D01*
X76668860Y-64254675D02*
X76668860Y-63254675D01*
X76668860Y-63254675D02*
X76764098Y-63397532D01*
X76764098Y-63397532D02*
X76859336Y-63492770D01*
X76859336Y-63492770D02*
X76954574Y-63540389D01*
X75526003Y-63588008D02*
X75526003Y-64254675D01*
X75954574Y-63588008D02*
X75954574Y-64111817D01*
X75954574Y-64111817D02*
X75906955Y-64207056D01*
X75906955Y-64207056D02*
X75811717Y-64254675D01*
X75811717Y-64254675D02*
X75668860Y-64254675D01*
X75668860Y-64254675D02*
X75573622Y-64207056D01*
X75573622Y-64207056D02*
X75526003Y-64159436D01*
X74716479Y-63730865D02*
X75049812Y-63730865D01*
X75049812Y-64254675D02*
X75049812Y-63254675D01*
X75049812Y-63254675D02*
X74573622Y-63254675D01*
X81526003Y-65864619D02*
X81859336Y-65388428D01*
X82097431Y-65864619D02*
X82097431Y-64864619D01*
X82097431Y-64864619D02*
X81716479Y-64864619D01*
X81716479Y-64864619D02*
X81621241Y-64912238D01*
X81621241Y-64912238D02*
X81573622Y-64959857D01*
X81573622Y-64959857D02*
X81526003Y-65055095D01*
X81526003Y-65055095D02*
X81526003Y-65197952D01*
X81526003Y-65197952D02*
X81573622Y-65293190D01*
X81573622Y-65293190D02*
X81621241Y-65340809D01*
X81621241Y-65340809D02*
X81716479Y-65388428D01*
X81716479Y-65388428D02*
X82097431Y-65388428D01*
X80573622Y-65864619D02*
X81145050Y-65864619D01*
X80859336Y-65864619D02*
X80859336Y-64864619D01*
X80859336Y-64864619D02*
X80954574Y-65007476D01*
X80954574Y-65007476D02*
X81049812Y-65102714D01*
X81049812Y-65102714D02*
X81145050Y-65150333D01*
X79383145Y-65483666D02*
X78621241Y-65483666D01*
X76859336Y-65864619D02*
X77430764Y-65864619D01*
X77145050Y-65864619D02*
X77145050Y-64864619D01*
X77145050Y-64864619D02*
X77240288Y-65007476D01*
X77240288Y-65007476D02*
X77335526Y-65102714D01*
X77335526Y-65102714D02*
X77430764Y-65150333D01*
X76430764Y-65864619D02*
X76430764Y-64864619D01*
X75859336Y-65864619D02*
X76287907Y-65293190D01*
X75859336Y-64864619D02*
X76430764Y-65436047D01*
X74478383Y-64864619D02*
X74287907Y-64864619D01*
X74287907Y-64864619D02*
X74192669Y-64912238D01*
X74192669Y-64912238D02*
X74097431Y-65007476D01*
X74097431Y-65007476D02*
X74049812Y-65197952D01*
X74049812Y-65197952D02*
X74049812Y-65531285D01*
X74049812Y-65531285D02*
X74097431Y-65721761D01*
X74097431Y-65721761D02*
X74192669Y-65817000D01*
X74192669Y-65817000D02*
X74287907Y-65864619D01*
X74287907Y-65864619D02*
X74478383Y-65864619D01*
X74478383Y-65864619D02*
X74573621Y-65817000D01*
X74573621Y-65817000D02*
X74668859Y-65721761D01*
X74668859Y-65721761D02*
X74716478Y-65531285D01*
X74716478Y-65531285D02*
X74716478Y-65197952D01*
X74716478Y-65197952D02*
X74668859Y-65007476D01*
X74668859Y-65007476D02*
X74573621Y-64912238D01*
X74573621Y-64912238D02*
X74478383Y-64864619D01*
X73621240Y-65864619D02*
X73621240Y-64864619D01*
X73192669Y-65864619D02*
X73192669Y-65340809D01*
X73192669Y-65340809D02*
X73240288Y-65245571D01*
X73240288Y-65245571D02*
X73335526Y-65197952D01*
X73335526Y-65197952D02*
X73478383Y-65197952D01*
X73478383Y-65197952D02*
X73573621Y-65245571D01*
X73573621Y-65245571D02*
X73621240Y-65293190D01*
X72716478Y-65864619D02*
X72716478Y-65197952D01*
X72716478Y-65293190D02*
X72668859Y-65245571D01*
X72668859Y-65245571D02*
X72573621Y-65197952D01*
X72573621Y-65197952D02*
X72430764Y-65197952D01*
X72430764Y-65197952D02*
X72335526Y-65245571D01*
X72335526Y-65245571D02*
X72287907Y-65340809D01*
X72287907Y-65340809D02*
X72287907Y-65864619D01*
X72287907Y-65340809D02*
X72240288Y-65245571D01*
X72240288Y-65245571D02*
X72145050Y-65197952D01*
X72145050Y-65197952D02*
X72002193Y-65197952D01*
X72002193Y-65197952D02*
X71906954Y-65245571D01*
X71906954Y-65245571D02*
X71859335Y-65340809D01*
X71859335Y-65340809D02*
X71859335Y-65864619D01*
D10*
X48976666Y-69954819D02*
X49309999Y-69478628D01*
X49548094Y-69954819D02*
X49548094Y-68954819D01*
X49548094Y-68954819D02*
X49167142Y-68954819D01*
X49167142Y-68954819D02*
X49071904Y-69002438D01*
X49071904Y-69002438D02*
X49024285Y-69050057D01*
X49024285Y-69050057D02*
X48976666Y-69145295D01*
X48976666Y-69145295D02*
X48976666Y-69288152D01*
X48976666Y-69288152D02*
X49024285Y-69383390D01*
X49024285Y-69383390D02*
X49071904Y-69431009D01*
X49071904Y-69431009D02*
X49167142Y-69478628D01*
X49167142Y-69478628D02*
X49548094Y-69478628D01*
X48024285Y-69954819D02*
X48595713Y-69954819D01*
X48309999Y-69954819D02*
X48309999Y-68954819D01*
X48309999Y-68954819D02*
X48405237Y-69097676D01*
X48405237Y-69097676D02*
X48500475Y-69192914D01*
X48500475Y-69192914D02*
X48595713Y-69240533D01*
X63761904Y-74454819D02*
X63761904Y-73454819D01*
X63761904Y-73454819D02*
X63380952Y-73454819D01*
X63380952Y-73454819D02*
X63285714Y-73502438D01*
X63285714Y-73502438D02*
X63238095Y-73550057D01*
X63238095Y-73550057D02*
X63190476Y-73645295D01*
X63190476Y-73645295D02*
X63190476Y-73788152D01*
X63190476Y-73788152D02*
X63238095Y-73883390D01*
X63238095Y-73883390D02*
X63285714Y-73931009D01*
X63285714Y-73931009D02*
X63380952Y-73978628D01*
X63380952Y-73978628D02*
X63761904Y-73978628D01*
X62761904Y-74454819D02*
X62761904Y-73454819D01*
X62761904Y-73931009D02*
X62190476Y-73931009D01*
X62190476Y-74454819D02*
X62190476Y-73454819D01*
X61190476Y-74454819D02*
X61761904Y-74454819D01*
X61476190Y-74454819D02*
X61476190Y-73454819D01*
X61476190Y-73454819D02*
X61571428Y-73597676D01*
X61571428Y-73597676D02*
X61666666Y-73692914D01*
X61666666Y-73692914D02*
X61761904Y-73740533D01*
X62609580Y-61633333D02*
X62657200Y-61585714D01*
X62657200Y-61585714D02*
X62704819Y-61442857D01*
X62704819Y-61442857D02*
X62704819Y-61347619D01*
X62704819Y-61347619D02*
X62657200Y-61204762D01*
X62657200Y-61204762D02*
X62561961Y-61109524D01*
X62561961Y-61109524D02*
X62466723Y-61061905D01*
X62466723Y-61061905D02*
X62276247Y-61014286D01*
X62276247Y-61014286D02*
X62133390Y-61014286D01*
X62133390Y-61014286D02*
X61942914Y-61061905D01*
X61942914Y-61061905D02*
X61847676Y-61109524D01*
X61847676Y-61109524D02*
X61752438Y-61204762D01*
X61752438Y-61204762D02*
X61704819Y-61347619D01*
X61704819Y-61347619D02*
X61704819Y-61442857D01*
X61704819Y-61442857D02*
X61752438Y-61585714D01*
X61752438Y-61585714D02*
X61800057Y-61633333D01*
X62704819Y-62585714D02*
X62704819Y-62014286D01*
X62704819Y-62300000D02*
X61704819Y-62300000D01*
X61704819Y-62300000D02*
X61847676Y-62204762D01*
X61847676Y-62204762D02*
X61942914Y-62109524D01*
X61942914Y-62109524D02*
X61990533Y-62014286D01*
X57261904Y-56454819D02*
X57261904Y-57264342D01*
X57261904Y-57264342D02*
X57214285Y-57359580D01*
X57214285Y-57359580D02*
X57166666Y-57407200D01*
X57166666Y-57407200D02*
X57071428Y-57454819D01*
X57071428Y-57454819D02*
X56880952Y-57454819D01*
X56880952Y-57454819D02*
X56785714Y-57407200D01*
X56785714Y-57407200D02*
X56738095Y-57359580D01*
X56738095Y-57359580D02*
X56690476Y-57264342D01*
X56690476Y-57264342D02*
X56690476Y-56454819D01*
X55690476Y-57454819D02*
X56261904Y-57454819D01*
X55976190Y-57454819D02*
X55976190Y-56454819D01*
X55976190Y-56454819D02*
X56071428Y-56597676D01*
X56071428Y-56597676D02*
X56166666Y-56692914D01*
X56166666Y-56692914D02*
X56261904Y-56740533D01*
X62659580Y-50833333D02*
X62707200Y-50785714D01*
X62707200Y-50785714D02*
X62754819Y-50642857D01*
X62754819Y-50642857D02*
X62754819Y-50547619D01*
X62754819Y-50547619D02*
X62707200Y-50404762D01*
X62707200Y-50404762D02*
X62611961Y-50309524D01*
X62611961Y-50309524D02*
X62516723Y-50261905D01*
X62516723Y-50261905D02*
X62326247Y-50214286D01*
X62326247Y-50214286D02*
X62183390Y-50214286D01*
X62183390Y-50214286D02*
X61992914Y-50261905D01*
X61992914Y-50261905D02*
X61897676Y-50309524D01*
X61897676Y-50309524D02*
X61802438Y-50404762D01*
X61802438Y-50404762D02*
X61754819Y-50547619D01*
X61754819Y-50547619D02*
X61754819Y-50642857D01*
X61754819Y-50642857D02*
X61802438Y-50785714D01*
X61802438Y-50785714D02*
X61850057Y-50833333D01*
X61850057Y-51214286D02*
X61802438Y-51261905D01*
X61802438Y-51261905D02*
X61754819Y-51357143D01*
X61754819Y-51357143D02*
X61754819Y-51595238D01*
X61754819Y-51595238D02*
X61802438Y-51690476D01*
X61802438Y-51690476D02*
X61850057Y-51738095D01*
X61850057Y-51738095D02*
X61945295Y-51785714D01*
X61945295Y-51785714D02*
X62040533Y-51785714D01*
X62040533Y-51785714D02*
X62183390Y-51738095D01*
X62183390Y-51738095D02*
X62754819Y-51166667D01*
X62754819Y-51166667D02*
X62754819Y-51785714D01*
X49859580Y-76583333D02*
X49907200Y-76535714D01*
X49907200Y-76535714D02*
X49954819Y-76392857D01*
X49954819Y-76392857D02*
X49954819Y-76297619D01*
X49954819Y-76297619D02*
X49907200Y-76154762D01*
X49907200Y-76154762D02*
X49811961Y-76059524D01*
X49811961Y-76059524D02*
X49716723Y-76011905D01*
X49716723Y-76011905D02*
X49526247Y-75964286D01*
X49526247Y-75964286D02*
X49383390Y-75964286D01*
X49383390Y-75964286D02*
X49192914Y-76011905D01*
X49192914Y-76011905D02*
X49097676Y-76059524D01*
X49097676Y-76059524D02*
X49002438Y-76154762D01*
X49002438Y-76154762D02*
X48954819Y-76297619D01*
X48954819Y-76297619D02*
X48954819Y-76392857D01*
X48954819Y-76392857D02*
X49002438Y-76535714D01*
X49002438Y-76535714D02*
X49050057Y-76583333D01*
X48954819Y-76916667D02*
X48954819Y-77535714D01*
X48954819Y-77535714D02*
X49335771Y-77202381D01*
X49335771Y-77202381D02*
X49335771Y-77345238D01*
X49335771Y-77345238D02*
X49383390Y-77440476D01*
X49383390Y-77440476D02*
X49431009Y-77488095D01*
X49431009Y-77488095D02*
X49526247Y-77535714D01*
X49526247Y-77535714D02*
X49764342Y-77535714D01*
X49764342Y-77535714D02*
X49859580Y-77488095D01*
X49859580Y-77488095D02*
X49907200Y-77440476D01*
X49907200Y-77440476D02*
X49954819Y-77345238D01*
X49954819Y-77345238D02*
X49954819Y-77059524D01*
X49954819Y-77059524D02*
X49907200Y-76964286D01*
X49907200Y-76964286D02*
X49859580Y-76916667D01*
%TO.C,R1*%
D12*
X45540000Y-68130000D02*
X52080000Y-68130000D01*
X45540000Y-68460000D02*
X45540000Y-68130000D01*
X45540000Y-70540000D02*
X45540000Y-70870000D01*
X45540000Y-70870000D02*
X52080000Y-70870000D01*
X52080000Y-68130000D02*
X52080000Y-68460000D01*
X52080000Y-70870000D02*
X52080000Y-70540000D01*
%TO.C,PH1*%
X54345000Y-77810000D02*
X54345000Y-79080000D01*
X54345000Y-79080000D02*
X55615000Y-79080000D01*
X56692358Y-69760000D02*
X57005000Y-69760000D01*
X56692358Y-70620000D02*
X57005000Y-70620000D01*
X56692358Y-72300000D02*
X57005000Y-72300000D01*
X56692358Y-73160000D02*
X57005000Y-73160000D01*
X56692358Y-74840000D02*
X57005000Y-74840000D01*
X56692358Y-75700000D02*
X57005000Y-75700000D01*
X56775000Y-77380000D02*
X57005000Y-77380000D01*
X56775000Y-78240000D02*
X57005000Y-78240000D01*
X57005000Y-71460000D02*
X59765000Y-71460000D01*
X57005000Y-74000000D02*
X59765000Y-74000000D01*
X57005000Y-76540000D02*
X59765000Y-76540000D01*
X59765000Y-70620000D02*
X65765000Y-70620000D01*
X59765000Y-73160000D02*
X65765000Y-73160000D01*
X59765000Y-75700000D02*
X65765000Y-75700000D01*
X65765000Y-69760000D02*
X59765000Y-69760000D01*
X65765000Y-70620000D02*
X65765000Y-69760000D01*
X65765000Y-72300000D02*
X59765000Y-72300000D01*
X65765000Y-73160000D02*
X65765000Y-72300000D01*
X65765000Y-74840000D02*
X59765000Y-74840000D01*
X65765000Y-75700000D02*
X65765000Y-74840000D01*
X57005000Y-68810000D02*
X59765000Y-68810000D01*
X59765000Y-79190000D01*
X57005000Y-79190000D01*
X57005000Y-68810000D01*
X59765000Y-77380000D02*
X65765000Y-77380000D01*
X65765000Y-78240000D01*
X59765000Y-78240000D01*
X59765000Y-77380000D01*
G36*
X59765000Y-77380000D02*
G01*
X65765000Y-77380000D01*
X65765000Y-78240000D01*
X59765000Y-78240000D01*
X59765000Y-77380000D01*
G37*
%TO.C,C1*%
X60880000Y-62930000D02*
X60880000Y-68170000D01*
X60880000Y-68170000D02*
X63620000Y-68170000D01*
X63620000Y-62930000D02*
X60880000Y-62930000D01*
X63620000Y-68170000D02*
X63620000Y-62930000D01*
%TO.C,U1*%
X39469000Y-49997500D02*
X39469000Y-65237500D01*
X40739000Y-48727500D02*
X59101000Y-48727500D01*
X40739000Y-66507500D02*
X59101000Y-66507500D01*
X41050000Y-50000000D02*
X41050000Y-51330000D01*
X41050000Y-51330000D02*
X42380000Y-51330000D01*
X41050000Y-65235000D02*
X41050000Y-66565000D01*
X41050000Y-66565000D02*
X42380000Y-66565000D01*
X43650000Y-48670000D02*
X43650000Y-51330000D01*
X43650000Y-48670000D02*
X58950000Y-48670000D01*
X43650000Y-51330000D02*
X58950000Y-51330000D01*
X43650000Y-63905000D02*
X43650000Y-66565000D01*
X43650000Y-63905000D02*
X58950000Y-63905000D01*
X43650000Y-66565000D02*
X58950000Y-66565000D01*
X58950000Y-48670000D02*
X58950000Y-51330000D01*
X58950000Y-63905000D02*
X58950000Y-66565000D01*
X60351000Y-65257500D02*
X60351000Y-49977500D01*
X37945000Y-53117500D02*
X39469000Y-53117500D01*
X39469000Y-62117500D01*
X37945000Y-62117500D01*
X37945000Y-53117500D01*
X39469000Y-49997500D02*
G75*
G02*
X40739000Y-48727500I1269999J1D01*
G01*
X40739000Y-66507500D02*
G75*
G02*
X39469000Y-65237500I0J1270000D01*
G01*
X59101000Y-48727500D02*
G75*
G02*
X60351000Y-49977500I-2J-1250002D01*
G01*
X60351000Y-65257500D02*
G75*
G02*
X59101000Y-66507500I-1250000J0D01*
G01*
%TO.C,C2*%
X60880000Y-52730000D02*
X60880000Y-56770000D01*
X60880000Y-56770000D02*
X61601000Y-56770000D01*
X61601000Y-52730000D02*
X60880000Y-52730000D01*
X62999000Y-56770000D02*
X63720000Y-56770000D01*
X63720000Y-52730000D02*
X62999000Y-52730000D01*
X63720000Y-56770000D02*
X63720000Y-52730000D01*
%TO.C,C3*%
X50580000Y-74480000D02*
X50580000Y-78520000D01*
X50580000Y-78520000D02*
X51301000Y-78520000D01*
X51301000Y-74480000D02*
X50580000Y-74480000D01*
X52699000Y-78520000D02*
X53420000Y-78520000D01*
X53420000Y-74480000D02*
X52699000Y-74480000D01*
X53420000Y-78520000D02*
X53420000Y-74480000D01*
%TD*%
M02*
