%TF.GenerationSoftware,KiCad,Pcbnew,10.0.6*%
%TF.CreationDate,2026-09-07T21:02:56-04:00*%
%TF.ProjectId,mmWave Presence Lighting Node,6d6d5761-7665-4205-9072-6573656e6365,rev?*%
%TF.SameCoordinates,Original*%
%TF.FileFunction,Legend,Top*%
%TF.FilePolarity,Positive*%
%FSLAX46Y46*%
G04 Gerber Fmt 4.6, Leading zero omitted, Abs format (unit mm)*
G04 Created by KiCad (PCBNEW 10.0.6) date 2026-09-07 21:02:56*
%MOMM*%
%LPD*%
G01*
G04 APERTURE LIST*
%ADD10C,0.150000*%
%ADD11C,0.120000*%
%ADD12C,0.130000*%
G04 APERTURE END LIST*
D10*
X67174874Y-56094295D02*
X67441541Y-56894295D01*
X67441541Y-56894295D02*
X67708207Y-56094295D01*
X68432017Y-56818104D02*
X68393921Y-56856200D01*
X68393921Y-56856200D02*
X68279636Y-56894295D01*
X68279636Y-56894295D02*
X68203445Y-56894295D01*
X68203445Y-56894295D02*
X68089159Y-56856200D01*
X68089159Y-56856200D02*
X68012969Y-56780009D01*
X68012969Y-56780009D02*
X67974874Y-56703819D01*
X67974874Y-56703819D02*
X67936778Y-56551438D01*
X67936778Y-56551438D02*
X67936778Y-56437152D01*
X67936778Y-56437152D02*
X67974874Y-56284771D01*
X67974874Y-56284771D02*
X68012969Y-56208580D01*
X68012969Y-56208580D02*
X68089159Y-56132390D01*
X68089159Y-56132390D02*
X68203445Y-56094295D01*
X68203445Y-56094295D02*
X68279636Y-56094295D01*
X68279636Y-56094295D02*
X68393921Y-56132390D01*
X68393921Y-56132390D02*
X68432017Y-56170485D01*
X69232017Y-56818104D02*
X69193921Y-56856200D01*
X69193921Y-56856200D02*
X69079636Y-56894295D01*
X69079636Y-56894295D02*
X69003445Y-56894295D01*
X69003445Y-56894295D02*
X68889159Y-56856200D01*
X68889159Y-56856200D02*
X68812969Y-56780009D01*
X68812969Y-56780009D02*
X68774874Y-56703819D01*
X68774874Y-56703819D02*
X68736778Y-56551438D01*
X68736778Y-56551438D02*
X68736778Y-56437152D01*
X68736778Y-56437152D02*
X68774874Y-56284771D01*
X68774874Y-56284771D02*
X68812969Y-56208580D01*
X68812969Y-56208580D02*
X68889159Y-56132390D01*
X68889159Y-56132390D02*
X69003445Y-56094295D01*
X69003445Y-56094295D02*
X69079636Y-56094295D01*
X69079636Y-56094295D02*
X69193921Y-56132390D01*
X69193921Y-56132390D02*
X69232017Y-56170485D01*
X67708207Y-58632390D02*
X67632017Y-58594295D01*
X67632017Y-58594295D02*
X67517731Y-58594295D01*
X67517731Y-58594295D02*
X67403445Y-58632390D01*
X67403445Y-58632390D02*
X67327255Y-58708580D01*
X67327255Y-58708580D02*
X67289160Y-58784771D01*
X67289160Y-58784771D02*
X67251064Y-58937152D01*
X67251064Y-58937152D02*
X67251064Y-59051438D01*
X67251064Y-59051438D02*
X67289160Y-59203819D01*
X67289160Y-59203819D02*
X67327255Y-59280009D01*
X67327255Y-59280009D02*
X67403445Y-59356200D01*
X67403445Y-59356200D02*
X67517731Y-59394295D01*
X67517731Y-59394295D02*
X67593922Y-59394295D01*
X67593922Y-59394295D02*
X67708207Y-59356200D01*
X67708207Y-59356200D02*
X67746303Y-59318104D01*
X67746303Y-59318104D02*
X67746303Y-59051438D01*
X67746303Y-59051438D02*
X67593922Y-59051438D01*
X68089160Y-59394295D02*
X68089160Y-58594295D01*
X68089160Y-58594295D02*
X68546303Y-59394295D01*
X68546303Y-59394295D02*
X68546303Y-58594295D01*
X68927255Y-59394295D02*
X68927255Y-58594295D01*
X68927255Y-58594295D02*
X69117731Y-58594295D01*
X69117731Y-58594295D02*
X69232017Y-58632390D01*
X69232017Y-58632390D02*
X69308207Y-58708580D01*
X69308207Y-58708580D02*
X69346302Y-58784771D01*
X69346302Y-58784771D02*
X69384398Y-58937152D01*
X69384398Y-58937152D02*
X69384398Y-59051438D01*
X69384398Y-59051438D02*
X69346302Y-59203819D01*
X69346302Y-59203819D02*
X69308207Y-59280009D01*
X69308207Y-59280009D02*
X69232017Y-59356200D01*
X69232017Y-59356200D02*
X69117731Y-59394295D01*
X69117731Y-59394295D02*
X68927255Y-59394295D01*
X67441541Y-61094295D02*
X67593922Y-61094295D01*
X67593922Y-61094295D02*
X67670112Y-61132390D01*
X67670112Y-61132390D02*
X67746303Y-61208580D01*
X67746303Y-61208580D02*
X67784398Y-61360961D01*
X67784398Y-61360961D02*
X67784398Y-61627628D01*
X67784398Y-61627628D02*
X67746303Y-61780009D01*
X67746303Y-61780009D02*
X67670112Y-61856200D01*
X67670112Y-61856200D02*
X67593922Y-61894295D01*
X67593922Y-61894295D02*
X67441541Y-61894295D01*
X67441541Y-61894295D02*
X67365350Y-61856200D01*
X67365350Y-61856200D02*
X67289160Y-61780009D01*
X67289160Y-61780009D02*
X67251064Y-61627628D01*
X67251064Y-61627628D02*
X67251064Y-61360961D01*
X67251064Y-61360961D02*
X67289160Y-61208580D01*
X67289160Y-61208580D02*
X67365350Y-61132390D01*
X67365350Y-61132390D02*
X67441541Y-61094295D01*
X68470112Y-61360961D02*
X68470112Y-61894295D01*
X68127255Y-61360961D02*
X68127255Y-61780009D01*
X68127255Y-61780009D02*
X68165350Y-61856200D01*
X68165350Y-61856200D02*
X68241540Y-61894295D01*
X68241540Y-61894295D02*
X68355826Y-61894295D01*
X68355826Y-61894295D02*
X68432017Y-61856200D01*
X68432017Y-61856200D02*
X68470112Y-61818104D01*
X68736779Y-61360961D02*
X69041541Y-61360961D01*
X68851065Y-61094295D02*
X68851065Y-61780009D01*
X68851065Y-61780009D02*
X68889160Y-61856200D01*
X68889160Y-61856200D02*
X68965350Y-61894295D01*
X68965350Y-61894295D02*
X69041541Y-61894295D01*
X67746303Y-64394295D02*
X67479636Y-64013342D01*
X67289160Y-64394295D02*
X67289160Y-63594295D01*
X67289160Y-63594295D02*
X67593922Y-63594295D01*
X67593922Y-63594295D02*
X67670112Y-63632390D01*
X67670112Y-63632390D02*
X67708207Y-63670485D01*
X67708207Y-63670485D02*
X67746303Y-63746676D01*
X67746303Y-63746676D02*
X67746303Y-63860961D01*
X67746303Y-63860961D02*
X67708207Y-63937152D01*
X67708207Y-63937152D02*
X67670112Y-63975247D01*
X67670112Y-63975247D02*
X67593922Y-64013342D01*
X67593922Y-64013342D02*
X67289160Y-64013342D01*
X68012969Y-63594295D02*
X68546303Y-64394295D01*
X68546303Y-63594295D02*
X68012969Y-64394295D01*
X67174874Y-66094295D02*
X67632017Y-66094295D01*
X67403445Y-66894295D02*
X67403445Y-66094295D01*
X67822493Y-66094295D02*
X68355827Y-66894295D01*
X68355827Y-66094295D02*
X67822493Y-66894295D01*
X73105704Y-59670112D02*
X73105704Y-59289160D01*
X73105704Y-59289160D02*
X73905704Y-59289160D01*
X73105704Y-59936779D02*
X73905704Y-59936779D01*
X73905704Y-59936779D02*
X73905704Y-60127255D01*
X73905704Y-60127255D02*
X73867609Y-60241541D01*
X73867609Y-60241541D02*
X73791419Y-60317731D01*
X73791419Y-60317731D02*
X73715228Y-60355826D01*
X73715228Y-60355826D02*
X73562847Y-60393922D01*
X73562847Y-60393922D02*
X73448561Y-60393922D01*
X73448561Y-60393922D02*
X73296180Y-60355826D01*
X73296180Y-60355826D02*
X73219990Y-60317731D01*
X73219990Y-60317731D02*
X73143800Y-60241541D01*
X73143800Y-60241541D02*
X73105704Y-60127255D01*
X73105704Y-60127255D02*
X73105704Y-59936779D01*
X73829514Y-60698683D02*
X73867609Y-60736779D01*
X73867609Y-60736779D02*
X73905704Y-60812969D01*
X73905704Y-60812969D02*
X73905704Y-61003445D01*
X73905704Y-61003445D02*
X73867609Y-61079636D01*
X73867609Y-61079636D02*
X73829514Y-61117731D01*
X73829514Y-61117731D02*
X73753323Y-61155826D01*
X73753323Y-61155826D02*
X73677133Y-61155826D01*
X73677133Y-61155826D02*
X73562847Y-61117731D01*
X73562847Y-61117731D02*
X73105704Y-60660588D01*
X73105704Y-60660588D02*
X73105704Y-61155826D01*
X73639038Y-61841541D02*
X73105704Y-61841541D01*
X73943800Y-61651065D02*
X73372371Y-61460588D01*
X73372371Y-61460588D02*
X73372371Y-61955827D01*
X73105704Y-62679636D02*
X73105704Y-62222493D01*
X73105704Y-62451065D02*
X73905704Y-62451065D01*
X73905704Y-62451065D02*
X73791419Y-62374874D01*
X73791419Y-62374874D02*
X73715228Y-62298684D01*
X73715228Y-62298684D02*
X73677133Y-62222493D01*
X73905704Y-63174875D02*
X73905704Y-63251065D01*
X73905704Y-63251065D02*
X73867609Y-63327256D01*
X73867609Y-63327256D02*
X73829514Y-63365351D01*
X73829514Y-63365351D02*
X73753323Y-63403446D01*
X73753323Y-63403446D02*
X73600942Y-63441541D01*
X73600942Y-63441541D02*
X73410466Y-63441541D01*
X73410466Y-63441541D02*
X73258085Y-63403446D01*
X73258085Y-63403446D02*
X73181895Y-63365351D01*
X73181895Y-63365351D02*
X73143800Y-63327256D01*
X73143800Y-63327256D02*
X73105704Y-63251065D01*
X73105704Y-63251065D02*
X73105704Y-63174875D01*
X73105704Y-63174875D02*
X73143800Y-63098684D01*
X73143800Y-63098684D02*
X73181895Y-63060589D01*
X73181895Y-63060589D02*
X73258085Y-63022494D01*
X73258085Y-63022494D02*
X73410466Y-62984398D01*
X73410466Y-62984398D02*
X73600942Y-62984398D01*
X73600942Y-62984398D02*
X73753323Y-63022494D01*
X73753323Y-63022494D02*
X73829514Y-63060589D01*
X73829514Y-63060589D02*
X73867609Y-63098684D01*
X73867609Y-63098684D02*
X73905704Y-63174875D01*
X73181895Y-64241542D02*
X73143800Y-64203446D01*
X73143800Y-64203446D02*
X73105704Y-64089161D01*
X73105704Y-64089161D02*
X73105704Y-64012970D01*
X73105704Y-64012970D02*
X73143800Y-63898684D01*
X73143800Y-63898684D02*
X73219990Y-63822494D01*
X73219990Y-63822494D02*
X73296180Y-63784399D01*
X73296180Y-63784399D02*
X73448561Y-63746303D01*
X73448561Y-63746303D02*
X73562847Y-63746303D01*
X73562847Y-63746303D02*
X73715228Y-63784399D01*
X73715228Y-63784399D02*
X73791419Y-63822494D01*
X73791419Y-63822494D02*
X73867609Y-63898684D01*
X73867609Y-63898684D02*
X73905704Y-64012970D01*
X73905704Y-64012970D02*
X73905704Y-64089161D01*
X73905704Y-64089161D02*
X73867609Y-64203446D01*
X73867609Y-64203446D02*
X73829514Y-64241542D01*
X72437704Y-61090476D02*
X71790085Y-61090476D01*
X71790085Y-61090476D02*
X71713895Y-61128571D01*
X71713895Y-61128571D02*
X71675800Y-61166666D01*
X71675800Y-61166666D02*
X71637704Y-61242857D01*
X71637704Y-61242857D02*
X71637704Y-61395238D01*
X71637704Y-61395238D02*
X71675800Y-61471428D01*
X71675800Y-61471428D02*
X71713895Y-61509523D01*
X71713895Y-61509523D02*
X71790085Y-61547619D01*
X71790085Y-61547619D02*
X72437704Y-61547619D01*
X72361514Y-61890475D02*
X72399609Y-61928571D01*
X72399609Y-61928571D02*
X72437704Y-62004761D01*
X72437704Y-62004761D02*
X72437704Y-62195237D01*
X72437704Y-62195237D02*
X72399609Y-62271428D01*
X72399609Y-62271428D02*
X72361514Y-62309523D01*
X72361514Y-62309523D02*
X72285323Y-62347618D01*
X72285323Y-62347618D02*
X72209133Y-62347618D01*
X72209133Y-62347618D02*
X72094847Y-62309523D01*
X72094847Y-62309523D02*
X71637704Y-61852380D01*
X71637704Y-61852380D02*
X71637704Y-62347618D01*
%TO.C,U2*%
D11*
X64012500Y-53570000D02*
X64012500Y-70621000D01*
D12*
X66512500Y-51070000D02*
X77292500Y-51070000D01*
X77292500Y-73121000D02*
X66512500Y-73121000D01*
D11*
X79792500Y-53570000D02*
X79792500Y-70621000D01*
D12*
X64012500Y-53570000D02*
G75*
G02*
X66512500Y-51070000I2500000J0D01*
G01*
X66512500Y-73121000D02*
G75*
G02*
X64012500Y-70621000I0J2500000D01*
G01*
X77292500Y-51070000D02*
G75*
G02*
X79792500Y-53570000I0J-2500000D01*
G01*
X79792500Y-70621000D02*
G75*
G02*
X77292500Y-73121000I-2500000J0D01*
G01*
%TD*%
M02*
