%TF.GenerationSoftware,KiCad,Pcbnew,10.0.6*%
%TF.CreationDate,2026-09-07T21:02:56-04:00*%
%TF.ProjectId,mmWave Presence Lighting Node,6d6d5761-7665-4205-9072-6573656e6365,rev?*%
%TF.SameCoordinates,Original*%
%TF.FileFunction,Copper,L1,Top*%
%TF.FilePolarity,Positive*%
%FSLAX46Y46*%
G04 Gerber Fmt 4.6, Leading zero omitted, Abs format (unit mm)*
G04 Created by KiCad (PCBNEW 10.0.6) date 2026-09-07 21:02:56*
%MOMM*%
%LPD*%
G01*
G04 APERTURE LIST*
%TA.AperFunction,ComponentPad*%
%ADD10C,1.800000*%
%TD*%
%TA.AperFunction,ComponentPad*%
%ADD11R,1.800000X1.700000*%
%TD*%
%TA.AperFunction,ComponentPad*%
%ADD12R,1.800000X1.800000*%
%TD*%
%TA.AperFunction,ViaPad*%
%ADD13C,0.600000*%
%TD*%
G04 APERTURE END LIST*
D10*
%TO.P,U2,1*%
%TO.N,VBUS*%
X65385000Y-57090000D03*
%TO.P,U2,2*%
%TO.N,GND*%
X65385000Y-59630000D03*
%TO.P,U2,3*%
%TO.N,Radar_Out*%
X65385000Y-62170000D03*
%TO.P,U2,4*%
%TO.N,Radar_RX*%
X65385000Y-64710000D03*
%TO.P,U2,5*%
%TO.N,Radar_TX*%
X65385000Y-67250000D03*
%TD*%
%TO.P,R1,1*%
%TO.N,Radar_MCU*%
X45000000Y-69500000D03*
%TO.P,R1,2*%
%TO.N,Radar_Out*%
X52620000Y-69500000D03*
%TD*%
D11*
%TO.P,PH1,1*%
%TO.N,3.3V*%
X55615000Y-77810000D03*
D10*
%TO.P,PH1,2*%
%TO.N,GND*%
X55615000Y-75270000D03*
%TO.P,PH1,3*%
%TO.N,SCL*%
X55615000Y-72730000D03*
%TO.P,PH1,4*%
%TO.N,SDA*%
X55615000Y-70190000D03*
%TD*%
D12*
%TO.P,C1,1*%
%TO.N,VBUS*%
X62250000Y-64300000D03*
D10*
%TO.P,C1,2*%
%TO.N,GND*%
X62250000Y-66800000D03*
%TD*%
%TO.P,U1,0*%
%TO.N,N/C*%
X42380000Y-50000000D03*
%TO.P,U1,1*%
X44920000Y-50000000D03*
%TO.P,U1,2*%
%TO.N,Radar_RX*%
X47460000Y-50000000D03*
%TO.P,U1,3*%
%TO.N,Radar_TX*%
X50000000Y-50000000D03*
%TO.P,U1,3V3*%
%TO.N,3.3V*%
X47460000Y-65235000D03*
%TO.P,U1,4*%
%TO.N,SDA*%
X52540000Y-50000000D03*
%TO.P,U1,5*%
%TO.N,SCL*%
X55080000Y-50000000D03*
%TO.P,U1,6*%
%TO.N,N/C*%
X57620000Y-50000000D03*
%TO.P,U1,7*%
X57620000Y-65235000D03*
%TO.P,U1,8*%
X55080000Y-65235000D03*
%TO.P,U1,9*%
X52540000Y-65235000D03*
%TO.P,U1,10*%
%TO.N,Radar_MCU*%
X50000000Y-65235000D03*
%TO.P,U1,GND*%
%TO.N,GND*%
X44920000Y-65235000D03*
D12*
%TO.P,U1,VBUS*%
%TO.N,VBUS*%
X42380000Y-65235000D03*
%TD*%
D10*
%TO.P,C2,1*%
%TO.N,GND*%
X62300000Y-53500000D03*
D12*
%TO.P,C2,2*%
%TO.N,VBUS*%
X62300000Y-56000000D03*
%TD*%
D10*
%TO.P,C3,1*%
%TO.N,GND*%
X52000000Y-75250000D03*
D12*
%TO.P,C3,2*%
%TO.N,3.3V*%
X52000000Y-77750000D03*
%TD*%
D13*
%TO.N,GND*%
X70500000Y-51000000D03*
X61000000Y-68500000D03*
X44000000Y-66500000D03*
X66500000Y-70000000D03*
X54000000Y-53500000D03*
X47000000Y-72000000D03*
X70000000Y-74000000D03*
X78000000Y-57500000D03*
X41500000Y-78000000D03*
X44500000Y-61000000D03*
X41000000Y-53000000D03*
X51000000Y-74000000D03*
X64000000Y-58500000D03*
X57000000Y-74000000D03*
X48000000Y-47500000D03*
X54500000Y-67500000D03*
X82500000Y-48000000D03*
X83000000Y-73500000D03*
X64000000Y-61000000D03*
X79000000Y-62000000D03*
X83000000Y-61500000D03*
X69000000Y-57500000D03*
X48000000Y-52000000D03*
X83000000Y-67000000D03*
X64000000Y-54500000D03*
X78500000Y-73000000D03*
X73500000Y-54000000D03*
X78000000Y-53000000D03*
X70500000Y-69500000D03*
X57500000Y-76500000D03*
X50500000Y-60000000D03*
X54000000Y-74000000D03*
X74500000Y-66500000D03*
X75000000Y-61500000D03*
X82500000Y-78000000D03*
X48000000Y-56500000D03*
X54000000Y-47500000D03*
X60500000Y-66000000D03*
X83000000Y-56500000D03*
X57000000Y-63500000D03*
X72000000Y-64000000D03*
X75000000Y-50000000D03*
X41000000Y-67500000D03*
X69000000Y-66500000D03*
X50000000Y-70000000D03*
X47500000Y-78500000D03*
X69000000Y-62000000D03*
X66500000Y-78500000D03*
X61000000Y-72000000D03*
X61500000Y-49500000D03*
X78500000Y-67500000D03*
X58500000Y-57500000D03*
X60500000Y-62000000D03*
X41000000Y-73000000D03*
X67000000Y-52500000D03*
X41000000Y-58000000D03*
X60500000Y-78500000D03*
X60500000Y-54500000D03*
X73000000Y-58500000D03*
X46000000Y-64000000D03*
X56500000Y-60000000D03*
X74000000Y-72000000D03*
X51500000Y-63500000D03*
X41500000Y-48000000D03*
X75000000Y-78500000D03*
X64500000Y-75000000D03*
X71000000Y-47500000D03*
X63000000Y-47500000D03*
%TD*%
%TA.AperFunction,Conductor*%
%TO.N,GND*%
G36*
X82004418Y-47000816D02*
G01*
X82204561Y-47015130D01*
X82222063Y-47017647D01*
X82413795Y-47059355D01*
X82430760Y-47064336D01*
X82614611Y-47132909D01*
X82630694Y-47140253D01*
X82747495Y-47204032D01*
X82802908Y-47234290D01*
X82817791Y-47243855D01*
X82974864Y-47361438D01*
X82988235Y-47373024D01*
X83126975Y-47511764D01*
X83138561Y-47525135D01*
X83256144Y-47682208D01*
X83265709Y-47697091D01*
X83359743Y-47869300D01*
X83367093Y-47885394D01*
X83435661Y-48069234D01*
X83440645Y-48086209D01*
X83482351Y-48277931D01*
X83484869Y-48295442D01*
X83499184Y-48495580D01*
X83499500Y-48504427D01*
X83499500Y-77495572D01*
X83499184Y-77504419D01*
X83484869Y-77704557D01*
X83482351Y-77722068D01*
X83440645Y-77913790D01*
X83435661Y-77930765D01*
X83367093Y-78114605D01*
X83359743Y-78130699D01*
X83265709Y-78302908D01*
X83256144Y-78317791D01*
X83138561Y-78474864D01*
X83126975Y-78488235D01*
X82988235Y-78626975D01*
X82974864Y-78638561D01*
X82817791Y-78756144D01*
X82802908Y-78765709D01*
X82630699Y-78859743D01*
X82614605Y-78867093D01*
X82430765Y-78935661D01*
X82413790Y-78940645D01*
X82222068Y-78982351D01*
X82204557Y-78984869D01*
X82023779Y-78997799D01*
X82004417Y-78999184D01*
X81995572Y-78999500D01*
X57101148Y-78999500D01*
X57034109Y-78979815D01*
X56988354Y-78927011D01*
X56978410Y-78857853D01*
X56984966Y-78832167D01*
X57009091Y-78767482D01*
X57009282Y-78765709D01*
X57015500Y-78707873D01*
X57015499Y-76912128D01*
X57009091Y-76852517D01*
X57006070Y-76844418D01*
X56958797Y-76717671D01*
X56958793Y-76717664D01*
X56872547Y-76602455D01*
X56872544Y-76602452D01*
X56757335Y-76516206D01*
X56757328Y-76516202D01*
X56622482Y-76465908D01*
X56622483Y-76465908D01*
X56562883Y-76459501D01*
X56562881Y-76459500D01*
X56562873Y-76459500D01*
X56562865Y-76459500D01*
X56502310Y-76459500D01*
X56435271Y-76439815D01*
X56414629Y-76423181D01*
X56060319Y-76068872D01*
X78699500Y-76068872D01*
X78699500Y-76331127D01*
X78720741Y-76492455D01*
X78733730Y-76591116D01*
X78790272Y-76802135D01*
X78801602Y-76844418D01*
X78801605Y-76844428D01*
X78901953Y-77086690D01*
X78901958Y-77086700D01*
X79033075Y-77313803D01*
X79192718Y-77521851D01*
X79192726Y-77521860D01*
X79378140Y-77707274D01*
X79378148Y-77707281D01*
X79378149Y-77707282D01*
X79426554Y-77744424D01*
X79586196Y-77866924D01*
X79813299Y-77998041D01*
X79813309Y-77998046D01*
X80055571Y-78098394D01*
X80055581Y-78098398D01*
X80308884Y-78166270D01*
X80568880Y-78200500D01*
X80568887Y-78200500D01*
X80831113Y-78200500D01*
X80831120Y-78200500D01*
X81091116Y-78166270D01*
X81344419Y-78098398D01*
X81521340Y-78025114D01*
X81586690Y-77998046D01*
X81586691Y-77998045D01*
X81586697Y-77998043D01*
X81813803Y-77866924D01*
X82021851Y-77707282D01*
X82021855Y-77707277D01*
X82021860Y-77707274D01*
X82207274Y-77521860D01*
X82207277Y-77521855D01*
X82207282Y-77521851D01*
X82366924Y-77313803D01*
X82498043Y-77086697D01*
X82598398Y-76844419D01*
X82666270Y-76591116D01*
X82700500Y-76331120D01*
X82700500Y-76068880D01*
X82666270Y-75808884D01*
X82598398Y-75555581D01*
X82560047Y-75462993D01*
X82498046Y-75313309D01*
X82498041Y-75313299D01*
X82366924Y-75086196D01*
X82241056Y-74922164D01*
X82207282Y-74878149D01*
X82207281Y-74878148D01*
X82207274Y-74878140D01*
X82021860Y-74692726D01*
X82021851Y-74692718D01*
X81813803Y-74533075D01*
X81586700Y-74401958D01*
X81586690Y-74401953D01*
X81344428Y-74301605D01*
X81344421Y-74301603D01*
X81344419Y-74301602D01*
X81091116Y-74233730D01*
X81033339Y-74226123D01*
X80831127Y-74199500D01*
X80831120Y-74199500D01*
X80568880Y-74199500D01*
X80568872Y-74199500D01*
X80337772Y-74229926D01*
X80308884Y-74233730D01*
X80055581Y-74301602D01*
X80055571Y-74301605D01*
X79813309Y-74401953D01*
X79813299Y-74401958D01*
X79586196Y-74533075D01*
X79378148Y-74692718D01*
X79192718Y-74878148D01*
X79033075Y-75086196D01*
X78901958Y-75313299D01*
X78901953Y-75313309D01*
X78801605Y-75555571D01*
X78801602Y-75555581D01*
X78733730Y-75808885D01*
X78699500Y-76068872D01*
X56060319Y-76068872D01*
X55744409Y-75752962D01*
X55807993Y-75735925D01*
X55922007Y-75670099D01*
X56015099Y-75577007D01*
X56080925Y-75462993D01*
X56097962Y-75399409D01*
X56766066Y-76067514D01*
X56766066Y-76067513D01*
X56812386Y-76003760D01*
X56912432Y-75807410D01*
X56980526Y-75597835D01*
X57015000Y-75380181D01*
X57015000Y-75159818D01*
X56980526Y-74942164D01*
X56912432Y-74732589D01*
X56812388Y-74536243D01*
X56766066Y-74472485D01*
X56766065Y-74472485D01*
X56097962Y-75140589D01*
X56080925Y-75077007D01*
X56015099Y-74962993D01*
X55922007Y-74869901D01*
X55807993Y-74804075D01*
X55744407Y-74787037D01*
X56412513Y-74118932D01*
X56387319Y-74100628D01*
X56344653Y-74045298D01*
X56338674Y-73975685D01*
X56371279Y-73913889D01*
X56387313Y-73899994D01*
X56527365Y-73798242D01*
X56683242Y-73642365D01*
X56812815Y-73464022D01*
X56912895Y-73267606D01*
X56981015Y-73057951D01*
X57015500Y-72840222D01*
X57015500Y-72619778D01*
X56981015Y-72402049D01*
X56912895Y-72192394D01*
X56912895Y-72192393D01*
X56878237Y-72124375D01*
X56812815Y-71995978D01*
X56796260Y-71973192D01*
X56683247Y-71817641D01*
X56683243Y-71817636D01*
X56527363Y-71661756D01*
X56527358Y-71661752D01*
X56387745Y-71560318D01*
X56345079Y-71504989D01*
X56339100Y-71435375D01*
X56371705Y-71373580D01*
X56387745Y-71359682D01*
X56527358Y-71258247D01*
X56527356Y-71258247D01*
X56527365Y-71258242D01*
X56683242Y-71102365D01*
X56812815Y-70924022D01*
X56912895Y-70727606D01*
X56981015Y-70517951D01*
X57015500Y-70300222D01*
X57015500Y-70079778D01*
X56981015Y-69862049D01*
X56912895Y-69652394D01*
X56912895Y-69652393D01*
X56878237Y-69584375D01*
X56812815Y-69455978D01*
X56764718Y-69389778D01*
X56683247Y-69277641D01*
X56683243Y-69277636D01*
X56527363Y-69121756D01*
X56527358Y-69121752D01*
X56349025Y-68992187D01*
X56349024Y-68992186D01*
X56349022Y-68992185D01*
X56286096Y-68960122D01*
X56152606Y-68892104D01*
X56152603Y-68892103D01*
X55942952Y-68823985D01*
X55834086Y-68806742D01*
X55725222Y-68789500D01*
X55504778Y-68789500D01*
X55432201Y-68800995D01*
X55287047Y-68823985D01*
X55077396Y-68892103D01*
X55077393Y-68892104D01*
X54880974Y-68992187D01*
X54702641Y-69121752D01*
X54702636Y-69121756D01*
X54546756Y-69277636D01*
X54546752Y-69277641D01*
X54417187Y-69455974D01*
X54317104Y-69652393D01*
X54317103Y-69652396D01*
X54248985Y-69862047D01*
X54214500Y-70079778D01*
X54214500Y-70300221D01*
X54248985Y-70517952D01*
X54317103Y-70727603D01*
X54317104Y-70727606D01*
X54417187Y-70924025D01*
X54546752Y-71102358D01*
X54546756Y-71102363D01*
X54702636Y-71258243D01*
X54702641Y-71258247D01*
X54842254Y-71359682D01*
X54884920Y-71415012D01*
X54890899Y-71484625D01*
X54858293Y-71546420D01*
X54842254Y-71560318D01*
X54702641Y-71661752D01*
X54702636Y-71661756D01*
X54546756Y-71817636D01*
X54546752Y-71817641D01*
X54417187Y-71995974D01*
X54317104Y-72192393D01*
X54317103Y-72192396D01*
X54248985Y-72402047D01*
X54214500Y-72619778D01*
X54214500Y-72840221D01*
X54248985Y-73057952D01*
X54317103Y-73267603D01*
X54317104Y-73267606D01*
X54417187Y-73464025D01*
X54546752Y-73642358D01*
X54546756Y-73642363D01*
X54702640Y-73798247D01*
X54842679Y-73899990D01*
X54885345Y-73955319D01*
X54891324Y-74024933D01*
X54858719Y-74086728D01*
X54842679Y-74100626D01*
X54817485Y-74118930D01*
X54817485Y-74118932D01*
X55485590Y-74787037D01*
X55422007Y-74804075D01*
X55307993Y-74869901D01*
X55214901Y-74962993D01*
X55149075Y-75077007D01*
X55132037Y-75140590D01*
X54463932Y-74472485D01*
X54463931Y-74472485D01*
X54417616Y-74536233D01*
X54317567Y-74732589D01*
X54249473Y-74942164D01*
X54215000Y-75159818D01*
X54215000Y-75380181D01*
X54249473Y-75597835D01*
X54317567Y-75807410D01*
X54417611Y-76003756D01*
X54463932Y-76067513D01*
X55132037Y-75399408D01*
X55149075Y-75462993D01*
X55214901Y-75577007D01*
X55307993Y-75670099D01*
X55422007Y-75735925D01*
X55485590Y-75752962D01*
X54815370Y-76423181D01*
X54754047Y-76456666D01*
X54727691Y-76459500D01*
X54667130Y-76459500D01*
X54667123Y-76459501D01*
X54607516Y-76465908D01*
X54472671Y-76516202D01*
X54472664Y-76516206D01*
X54357455Y-76602452D01*
X54357452Y-76602455D01*
X54271206Y-76717664D01*
X54271202Y-76717671D01*
X54220908Y-76852517D01*
X54214501Y-76912116D01*
X54214501Y-76912123D01*
X54214500Y-76912135D01*
X54214500Y-78707870D01*
X54214501Y-78707876D01*
X54220908Y-78767483D01*
X54245034Y-78832167D01*
X54250018Y-78901859D01*
X54216532Y-78963182D01*
X54155209Y-78996666D01*
X54128852Y-78999500D01*
X53482418Y-78999500D01*
X53415379Y-78979815D01*
X53369624Y-78927011D01*
X53359680Y-78857853D01*
X53366236Y-78832167D01*
X53390361Y-78767483D01*
X53394091Y-78757483D01*
X53400500Y-78697873D01*
X53400499Y-76802128D01*
X53394091Y-76742517D01*
X53384823Y-76717669D01*
X53343797Y-76607671D01*
X53343793Y-76607664D01*
X53257547Y-76492455D01*
X53257544Y-76492452D01*
X53142335Y-76406206D01*
X53142328Y-76406202D01*
X53007482Y-76355908D01*
X53007483Y-76355908D01*
X52947883Y-76349501D01*
X52947881Y-76349500D01*
X52947873Y-76349500D01*
X52947865Y-76349500D01*
X52797308Y-76349500D01*
X52730269Y-76329815D01*
X52709627Y-76313181D01*
X52046448Y-75650000D01*
X52052661Y-75650000D01*
X52154394Y-75622741D01*
X52245606Y-75570080D01*
X52320080Y-75495606D01*
X52372741Y-75404394D01*
X52400000Y-75302661D01*
X52400000Y-75296448D01*
X53151066Y-76047514D01*
X53151066Y-76047513D01*
X53197386Y-75983760D01*
X53297432Y-75787410D01*
X53365526Y-75577835D01*
X53400000Y-75360181D01*
X53400000Y-75139818D01*
X53365526Y-74922164D01*
X53297432Y-74712589D01*
X53197388Y-74516243D01*
X53151066Y-74452485D01*
X53151065Y-74452485D01*
X52400000Y-75203551D01*
X52400000Y-75197339D01*
X52372741Y-75095606D01*
X52320080Y-75004394D01*
X52245606Y-74929920D01*
X52154394Y-74877259D01*
X52052661Y-74850000D01*
X52046445Y-74850000D01*
X52797513Y-74098932D01*
X52733756Y-74052611D01*
X52537410Y-73952567D01*
X52327835Y-73884473D01*
X52110181Y-73850000D01*
X51889819Y-73850000D01*
X51672164Y-73884473D01*
X51462589Y-73952567D01*
X51266233Y-74052616D01*
X51202485Y-74098931D01*
X51202485Y-74098932D01*
X51953553Y-74850000D01*
X51947339Y-74850000D01*
X51845606Y-74877259D01*
X51754394Y-74929920D01*
X51679920Y-75004394D01*
X51627259Y-75095606D01*
X51600000Y-75197339D01*
X51600000Y-75203553D01*
X50848932Y-74452485D01*
X50848931Y-74452485D01*
X50802616Y-74516233D01*
X50702567Y-74712589D01*
X50634473Y-74922164D01*
X50600000Y-75139818D01*
X50600000Y-75360181D01*
X50634473Y-75577835D01*
X50702567Y-75787410D01*
X50802611Y-75983756D01*
X50848932Y-76047513D01*
X51600000Y-75296445D01*
X51600000Y-75302661D01*
X51627259Y-75404394D01*
X51679920Y-75495606D01*
X51754394Y-75570080D01*
X51845606Y-75622741D01*
X51947339Y-75650000D01*
X51953553Y-75650000D01*
X51290370Y-76313181D01*
X51229047Y-76346666D01*
X51202690Y-76349500D01*
X51052130Y-76349500D01*
X51052123Y-76349501D01*
X50992516Y-76355908D01*
X50857671Y-76406202D01*
X50857664Y-76406206D01*
X50742455Y-76492452D01*
X50742452Y-76492455D01*
X50656206Y-76607664D01*
X50656202Y-76607671D01*
X50605908Y-76742517D01*
X50599501Y-76802116D01*
X50599501Y-76802123D01*
X50599500Y-76802135D01*
X50599500Y-78697870D01*
X50599501Y-78697876D01*
X50605908Y-78757483D01*
X50633764Y-78832167D01*
X50638748Y-78901859D01*
X50605263Y-78963182D01*
X50543939Y-78996666D01*
X50517582Y-78999500D01*
X42004428Y-78999500D01*
X41995582Y-78999184D01*
X41973622Y-78997613D01*
X41795442Y-78984869D01*
X41777931Y-78982351D01*
X41586209Y-78940645D01*
X41569234Y-78935661D01*
X41385394Y-78867093D01*
X41369300Y-78859743D01*
X41197091Y-78765709D01*
X41182208Y-78756144D01*
X41025135Y-78638561D01*
X41011764Y-78626975D01*
X40873024Y-78488235D01*
X40861438Y-78474864D01*
X40743855Y-78317791D01*
X40734290Y-78302908D01*
X40678370Y-78200499D01*
X40640253Y-78130694D01*
X40632909Y-78114611D01*
X40564336Y-77930760D01*
X40559354Y-77913790D01*
X40534175Y-77798043D01*
X40517647Y-77722063D01*
X40515130Y-77704556D01*
X40500816Y-77504418D01*
X40500500Y-77495572D01*
X40500500Y-75868872D01*
X41499500Y-75868872D01*
X41499500Y-76131127D01*
X41523469Y-76313181D01*
X41533730Y-76391116D01*
X41601602Y-76644418D01*
X41601605Y-76644428D01*
X41701953Y-76886690D01*
X41701958Y-76886700D01*
X41833075Y-77113803D01*
X41992718Y-77321851D01*
X41992726Y-77321860D01*
X42178140Y-77507274D01*
X42178148Y-77507281D01*
X42386196Y-77666924D01*
X42613299Y-77798041D01*
X42613309Y-77798046D01*
X42779596Y-77866924D01*
X42855581Y-77898398D01*
X43108884Y-77966270D01*
X43368880Y-78000500D01*
X43368887Y-78000500D01*
X43631113Y-78000500D01*
X43631120Y-78000500D01*
X43891116Y-77966270D01*
X44144419Y-77898398D01*
X44386697Y-77798043D01*
X44613803Y-77666924D01*
X44821851Y-77507282D01*
X44821855Y-77507277D01*
X44821860Y-77507274D01*
X45007274Y-77321860D01*
X45007277Y-77321855D01*
X45007282Y-77321851D01*
X45166924Y-77113803D01*
X45298043Y-76886697D01*
X45398398Y-76644419D01*
X45466270Y-76391116D01*
X45500500Y-76131120D01*
X45500500Y-75868880D01*
X45466270Y-75608884D01*
X45398398Y-75355581D01*
X45390215Y-75335826D01*
X45326664Y-75182399D01*
X45298046Y-75113309D01*
X45298041Y-75113299D01*
X45166924Y-74886196D01*
X45007281Y-74678148D01*
X45007274Y-74678140D01*
X44821860Y-74492726D01*
X44821851Y-74492718D01*
X44613803Y-74333075D01*
X44476108Y-74253578D01*
X44386700Y-74201958D01*
X44386690Y-74201953D01*
X44144428Y-74101605D01*
X44144421Y-74101603D01*
X44144419Y-74101602D01*
X43891116Y-74033730D01*
X43824298Y-74024933D01*
X43631127Y-73999500D01*
X43631120Y-73999500D01*
X43368880Y-73999500D01*
X43368872Y-73999500D01*
X43153204Y-74027895D01*
X43108884Y-74033730D01*
X42859216Y-74100628D01*
X42855581Y-74101602D01*
X42855571Y-74101605D01*
X42613309Y-74201953D01*
X42613299Y-74201958D01*
X42386196Y-74333075D01*
X42178148Y-74492718D01*
X41992718Y-74678148D01*
X41833075Y-74886196D01*
X41701958Y-75113299D01*
X41701953Y-75113309D01*
X41601605Y-75355571D01*
X41601602Y-75355581D01*
X41535159Y-75603553D01*
X41533730Y-75608885D01*
X41499500Y-75868872D01*
X40500500Y-75868872D01*
X40500500Y-69389778D01*
X43599500Y-69389778D01*
X43599500Y-69610222D01*
X43606180Y-69652396D01*
X43633985Y-69827952D01*
X43702103Y-70037603D01*
X43702104Y-70037606D01*
X43802187Y-70234025D01*
X43931752Y-70412358D01*
X43931756Y-70412363D01*
X44087636Y-70568243D01*
X44087641Y-70568247D01*
X44243192Y-70681260D01*
X44265978Y-70697815D01*
X44394375Y-70763237D01*
X44462393Y-70797895D01*
X44462396Y-70797896D01*
X44567221Y-70831955D01*
X44672049Y-70866015D01*
X44889778Y-70900500D01*
X44889779Y-70900500D01*
X45110221Y-70900500D01*
X45110222Y-70900500D01*
X45327951Y-70866015D01*
X45537606Y-70797895D01*
X45734022Y-70697815D01*
X45912365Y-70568242D01*
X46068242Y-70412365D01*
X46197815Y-70234022D01*
X46297895Y-70037606D01*
X46366015Y-69827951D01*
X46400500Y-69610222D01*
X46400500Y-69389778D01*
X51219500Y-69389778D01*
X51219500Y-69610222D01*
X51226180Y-69652396D01*
X51253985Y-69827952D01*
X51322103Y-70037603D01*
X51322104Y-70037606D01*
X51422187Y-70234025D01*
X51551752Y-70412358D01*
X51551756Y-70412363D01*
X51707636Y-70568243D01*
X51707641Y-70568247D01*
X51863192Y-70681260D01*
X51885978Y-70697815D01*
X52014375Y-70763237D01*
X52082393Y-70797895D01*
X52082396Y-70797896D01*
X52187221Y-70831955D01*
X52292049Y-70866015D01*
X52509778Y-70900500D01*
X52509779Y-70900500D01*
X52730221Y-70900500D01*
X52730222Y-70900500D01*
X52947951Y-70866015D01*
X53157606Y-70797895D01*
X53354022Y-70697815D01*
X53532365Y-70568242D01*
X53688242Y-70412365D01*
X53817815Y-70234022D01*
X53917895Y-70037606D01*
X53986015Y-69827951D01*
X54020500Y-69610222D01*
X54020500Y-69389778D01*
X53986015Y-69172049D01*
X53917895Y-68962394D01*
X53917895Y-68962393D01*
X53847371Y-68823985D01*
X53817815Y-68765978D01*
X53733916Y-68650500D01*
X53688247Y-68587641D01*
X53688243Y-68587636D01*
X53532363Y-68431756D01*
X53532358Y-68431752D01*
X53354025Y-68302187D01*
X53354024Y-68302186D01*
X53354022Y-68302185D01*
X53291096Y-68270122D01*
X53157606Y-68202104D01*
X53157603Y-68202103D01*
X52947952Y-68133985D01*
X52839086Y-68116742D01*
X52730222Y-68099500D01*
X52509778Y-68099500D01*
X52437201Y-68110995D01*
X52292047Y-68133985D01*
X52082396Y-68202103D01*
X52082393Y-68202104D01*
X51885974Y-68302187D01*
X51707641Y-68431752D01*
X51707636Y-68431756D01*
X51551756Y-68587636D01*
X51551752Y-68587641D01*
X51422187Y-68765974D01*
X51322104Y-68962393D01*
X51322103Y-68962396D01*
X51253985Y-69172047D01*
X51237261Y-69277641D01*
X51219500Y-69389778D01*
X46400500Y-69389778D01*
X46366015Y-69172049D01*
X46297895Y-68962394D01*
X46297895Y-68962393D01*
X46227371Y-68823985D01*
X46197815Y-68765978D01*
X46113916Y-68650500D01*
X46068247Y-68587641D01*
X46068243Y-68587636D01*
X45912363Y-68431756D01*
X45912358Y-68431752D01*
X45734025Y-68302187D01*
X45734024Y-68302186D01*
X45734022Y-68302185D01*
X45671096Y-68270122D01*
X45537606Y-68202104D01*
X45537603Y-68202103D01*
X45327952Y-68133985D01*
X45219086Y-68116742D01*
X45110222Y-68099500D01*
X44889778Y-68099500D01*
X44817201Y-68110995D01*
X44672047Y-68133985D01*
X44462396Y-68202103D01*
X44462393Y-68202104D01*
X44265974Y-68302187D01*
X44087641Y-68431752D01*
X44087636Y-68431756D01*
X43931756Y-68587636D01*
X43931752Y-68587641D01*
X43802187Y-68765974D01*
X43702104Y-68962393D01*
X43702103Y-68962396D01*
X43633985Y-69172047D01*
X43617261Y-69277641D01*
X43599500Y-69389778D01*
X40500500Y-69389778D01*
X40500500Y-64287135D01*
X40979500Y-64287135D01*
X40979500Y-66182870D01*
X40979501Y-66182876D01*
X40985908Y-66242483D01*
X41036202Y-66377328D01*
X41036206Y-66377335D01*
X41122452Y-66492544D01*
X41122455Y-66492547D01*
X41237664Y-66578793D01*
X41237671Y-66578797D01*
X41372517Y-66629091D01*
X41372516Y-66629091D01*
X41379444Y-66629835D01*
X41432127Y-66635500D01*
X43327872Y-66635499D01*
X43387483Y-66629091D01*
X43522331Y-66578796D01*
X43637546Y-66492546D01*
X43723796Y-66377331D01*
X43731629Y-66356328D01*
X43754327Y-66295474D01*
X43766592Y-66262589D01*
X43774091Y-66242483D01*
X43780500Y-66182873D01*
X43780499Y-66072304D01*
X43800183Y-66005268D01*
X43816818Y-65984626D01*
X44437037Y-65364408D01*
X44454075Y-65427993D01*
X44519901Y-65542007D01*
X44612993Y-65635099D01*
X44727007Y-65700925D01*
X44790590Y-65717962D01*
X44122485Y-66386065D01*
X44122485Y-66386066D01*
X44186243Y-66432388D01*
X44382589Y-66532432D01*
X44592164Y-66600526D01*
X44809819Y-66635000D01*
X45030181Y-66635000D01*
X45247835Y-66600526D01*
X45457410Y-66532432D01*
X45653760Y-66432386D01*
X45717513Y-66386066D01*
X45717514Y-66386066D01*
X45049409Y-65717962D01*
X45112993Y-65700925D01*
X45227007Y-65635099D01*
X45320099Y-65542007D01*
X45385925Y-65427993D01*
X45402962Y-65364409D01*
X46071066Y-66032514D01*
X46071066Y-66032513D01*
X46089372Y-66007319D01*
X46144701Y-65964653D01*
X46214315Y-65958674D01*
X46276110Y-65991279D01*
X46290008Y-66007319D01*
X46391752Y-66147358D01*
X46391756Y-66147363D01*
X46547636Y-66303243D01*
X46547641Y-66303247D01*
X46594981Y-66337641D01*
X46725978Y-66432815D01*
X46854375Y-66498237D01*
X46922393Y-66532895D01*
X46922396Y-66532896D01*
X46988562Y-66554394D01*
X47132049Y-66601015D01*
X47349778Y-66635500D01*
X47349779Y-66635500D01*
X47570221Y-66635500D01*
X47570222Y-66635500D01*
X47787951Y-66601015D01*
X47997606Y-66532895D01*
X48194022Y-66432815D01*
X48372365Y-66303242D01*
X48528242Y-66147365D01*
X48538804Y-66132826D01*
X48629682Y-66007745D01*
X48685011Y-65965079D01*
X48754625Y-65959100D01*
X48816420Y-65991705D01*
X48830318Y-66007745D01*
X48931752Y-66147358D01*
X48931756Y-66147363D01*
X49087636Y-66303243D01*
X49087641Y-66303247D01*
X49134981Y-66337641D01*
X49265978Y-66432815D01*
X49394375Y-66498237D01*
X49462393Y-66532895D01*
X49462396Y-66532896D01*
X49528562Y-66554394D01*
X49672049Y-66601015D01*
X49889778Y-66635500D01*
X49889779Y-66635500D01*
X50110221Y-66635500D01*
X50110222Y-66635500D01*
X50327951Y-66601015D01*
X50537606Y-66532895D01*
X50734022Y-66432815D01*
X50912365Y-66303242D01*
X51068242Y-66147365D01*
X51078804Y-66132826D01*
X51169682Y-66007745D01*
X51225011Y-65965079D01*
X51294625Y-65959100D01*
X51356420Y-65991705D01*
X51370318Y-66007745D01*
X51471752Y-66147358D01*
X51471756Y-66147363D01*
X51627636Y-66303243D01*
X51627641Y-66303247D01*
X51674981Y-66337641D01*
X51805978Y-66432815D01*
X51934375Y-66498237D01*
X52002393Y-66532895D01*
X52002396Y-66532896D01*
X52068562Y-66554394D01*
X52212049Y-66601015D01*
X52429778Y-66635500D01*
X52429779Y-66635500D01*
X52650221Y-66635500D01*
X52650222Y-66635500D01*
X52867951Y-66601015D01*
X53077606Y-66532895D01*
X53274022Y-66432815D01*
X53452365Y-66303242D01*
X53608242Y-66147365D01*
X53618804Y-66132826D01*
X53709682Y-66007745D01*
X53765011Y-65965079D01*
X53834625Y-65959100D01*
X53896420Y-65991705D01*
X53910318Y-66007745D01*
X54011752Y-66147358D01*
X54011756Y-66147363D01*
X54167636Y-66303243D01*
X54167641Y-66303247D01*
X54214981Y-66337641D01*
X54345978Y-66432815D01*
X54474375Y-66498237D01*
X54542393Y-66532895D01*
X54542396Y-66532896D01*
X54608562Y-66554394D01*
X54752049Y-66601015D01*
X54969778Y-66635500D01*
X54969779Y-66635500D01*
X55190221Y-66635500D01*
X55190222Y-66635500D01*
X55407951Y-66601015D01*
X55617606Y-66532895D01*
X55814022Y-66432815D01*
X55992365Y-66303242D01*
X56148242Y-66147365D01*
X56158804Y-66132826D01*
X56249682Y-66007745D01*
X56305011Y-65965079D01*
X56374625Y-65959100D01*
X56436420Y-65991705D01*
X56450318Y-66007745D01*
X56551752Y-66147358D01*
X56551756Y-66147363D01*
X56707636Y-66303243D01*
X56707641Y-66303247D01*
X56754981Y-66337641D01*
X56885978Y-66432815D01*
X57014375Y-66498237D01*
X57082393Y-66532895D01*
X57082396Y-66532896D01*
X57148562Y-66554394D01*
X57292049Y-66601015D01*
X57509778Y-66635500D01*
X57509779Y-66635500D01*
X57730221Y-66635500D01*
X57730222Y-66635500D01*
X57947951Y-66601015D01*
X58016344Y-66578793D01*
X58052595Y-66567015D01*
X58157603Y-66532896D01*
X58157606Y-66532895D01*
X58190807Y-66515978D01*
X58354022Y-66432815D01*
X58532365Y-66303242D01*
X58688242Y-66147365D01*
X58817815Y-65969022D01*
X58917895Y-65772606D01*
X58986015Y-65562951D01*
X59020500Y-65345222D01*
X59020500Y-65124778D01*
X58986015Y-64907049D01*
X58917895Y-64697394D01*
X58917895Y-64697393D01*
X58883237Y-64629375D01*
X58817815Y-64500978D01*
X58771685Y-64437485D01*
X58688247Y-64322641D01*
X58688243Y-64322636D01*
X58532363Y-64166756D01*
X58532358Y-64166752D01*
X58354025Y-64037187D01*
X58354024Y-64037186D01*
X58354022Y-64037185D01*
X58236791Y-63977452D01*
X58157606Y-63937104D01*
X58157603Y-63937103D01*
X57947952Y-63868985D01*
X57839086Y-63851742D01*
X57730222Y-63834500D01*
X57509778Y-63834500D01*
X57437201Y-63845995D01*
X57292047Y-63868985D01*
X57082396Y-63937103D01*
X57082393Y-63937104D01*
X56885974Y-64037187D01*
X56707641Y-64166752D01*
X56707636Y-64166756D01*
X56551756Y-64322636D01*
X56551752Y-64322641D01*
X56450318Y-64462254D01*
X56394988Y-64504920D01*
X56325375Y-64510899D01*
X56263580Y-64478293D01*
X56249682Y-64462254D01*
X56148247Y-64322641D01*
X56148243Y-64322636D01*
X55992363Y-64166756D01*
X55992358Y-64166752D01*
X55814025Y-64037187D01*
X55814024Y-64037186D01*
X55814022Y-64037185D01*
X55696791Y-63977452D01*
X55617606Y-63937104D01*
X55617603Y-63937103D01*
X55407952Y-63868985D01*
X55299086Y-63851742D01*
X55190222Y-63834500D01*
X54969778Y-63834500D01*
X54897201Y-63845995D01*
X54752047Y-63868985D01*
X54542396Y-63937103D01*
X54542393Y-63937104D01*
X54345974Y-64037187D01*
X54167641Y-64166752D01*
X54167636Y-64166756D01*
X54011756Y-64322636D01*
X54011752Y-64322641D01*
X53910318Y-64462254D01*
X53854988Y-64504920D01*
X53785375Y-64510899D01*
X53723580Y-64478293D01*
X53709682Y-64462254D01*
X53608247Y-64322641D01*
X53608243Y-64322636D01*
X53452363Y-64166756D01*
X53452358Y-64166752D01*
X53274025Y-64037187D01*
X53274024Y-64037186D01*
X53274022Y-64037185D01*
X53156791Y-63977452D01*
X53077606Y-63937104D01*
X53077603Y-63937103D01*
X52867952Y-63868985D01*
X52759086Y-63851742D01*
X52650222Y-63834500D01*
X52429778Y-63834500D01*
X52357201Y-63845995D01*
X52212047Y-63868985D01*
X52002396Y-63937103D01*
X52002393Y-63937104D01*
X51805974Y-64037187D01*
X51627641Y-64166752D01*
X51627636Y-64166756D01*
X51471756Y-64322636D01*
X51471752Y-64322641D01*
X51370318Y-64462254D01*
X51314988Y-64504920D01*
X51245375Y-64510899D01*
X51183580Y-64478293D01*
X51169682Y-64462254D01*
X51068247Y-64322641D01*
X51068243Y-64322636D01*
X50912363Y-64166756D01*
X50912358Y-64166752D01*
X50734025Y-64037187D01*
X50734024Y-64037186D01*
X50734022Y-64037185D01*
X50616791Y-63977452D01*
X50537606Y-63937104D01*
X50537603Y-63937103D01*
X50327952Y-63868985D01*
X50219086Y-63851742D01*
X50110222Y-63834500D01*
X49889778Y-63834500D01*
X49817201Y-63845995D01*
X49672047Y-63868985D01*
X49462396Y-63937103D01*
X49462393Y-63937104D01*
X49265974Y-64037187D01*
X49087641Y-64166752D01*
X49087636Y-64166756D01*
X48931756Y-64322636D01*
X48931752Y-64322641D01*
X48830318Y-64462254D01*
X48774988Y-64504920D01*
X48705375Y-64510899D01*
X48643580Y-64478293D01*
X48629682Y-64462254D01*
X48528247Y-64322641D01*
X48528243Y-64322636D01*
X48372363Y-64166756D01*
X48372358Y-64166752D01*
X48194025Y-64037187D01*
X48194024Y-64037186D01*
X48194022Y-64037185D01*
X48076791Y-63977452D01*
X47997606Y-63937104D01*
X47997603Y-63937103D01*
X47787952Y-63868985D01*
X47679086Y-63851742D01*
X47570222Y-63834500D01*
X47349778Y-63834500D01*
X47277201Y-63845995D01*
X47132047Y-63868985D01*
X46922396Y-63937103D01*
X46922393Y-63937104D01*
X46725974Y-64037187D01*
X46547641Y-64166752D01*
X46547636Y-64166756D01*
X46391756Y-64322636D01*
X46290008Y-64462681D01*
X46234678Y-64505346D01*
X46165065Y-64511325D01*
X46103270Y-64478719D01*
X46089371Y-64462680D01*
X46071066Y-64437485D01*
X46071065Y-64437485D01*
X45402962Y-65105589D01*
X45385925Y-65042007D01*
X45320099Y-64927993D01*
X45227007Y-64834901D01*
X45112993Y-64769075D01*
X45049407Y-64752037D01*
X45717513Y-64083932D01*
X45653756Y-64037611D01*
X45457410Y-63937567D01*
X45247835Y-63869473D01*
X45030181Y-63835000D01*
X44809819Y-63835000D01*
X44592164Y-63869473D01*
X44382589Y-63937567D01*
X44186233Y-64037616D01*
X44122485Y-64083931D01*
X44122485Y-64083932D01*
X44790590Y-64752037D01*
X44727007Y-64769075D01*
X44612993Y-64834901D01*
X44519901Y-64927993D01*
X44454075Y-65042007D01*
X44437037Y-65105590D01*
X43816818Y-64485371D01*
X43783333Y-64424048D01*
X43780499Y-64397690D01*
X43780499Y-64287129D01*
X43780498Y-64287123D01*
X43780497Y-64287116D01*
X43774091Y-64227517D01*
X43753532Y-64172396D01*
X43723797Y-64092671D01*
X43723793Y-64092664D01*
X43637547Y-63977455D01*
X43637544Y-63977452D01*
X43522335Y-63891206D01*
X43522328Y-63891202D01*
X43387482Y-63840908D01*
X43387483Y-63840908D01*
X43327883Y-63834501D01*
X43327881Y-63834500D01*
X43327873Y-63834500D01*
X43327864Y-63834500D01*
X41432129Y-63834500D01*
X41432123Y-63834501D01*
X41372516Y-63840908D01*
X41237671Y-63891202D01*
X41237664Y-63891206D01*
X41122455Y-63977452D01*
X41122452Y-63977455D01*
X41036206Y-64092664D01*
X41036202Y-64092671D01*
X40985908Y-64227517D01*
X40979501Y-64287116D01*
X40979501Y-64287123D01*
X40979500Y-64287135D01*
X40500500Y-64287135D01*
X40500500Y-63352135D01*
X60849500Y-63352135D01*
X60849500Y-65247870D01*
X60849501Y-65247876D01*
X60855908Y-65307483D01*
X60906202Y-65442328D01*
X60906206Y-65442335D01*
X60992452Y-65557544D01*
X60992455Y-65557547D01*
X61107664Y-65643793D01*
X61107671Y-65643797D01*
X61152618Y-65660561D01*
X61242517Y-65694091D01*
X61302127Y-65700500D01*
X61452693Y-65700499D01*
X61519730Y-65720183D01*
X61540372Y-65736818D01*
X62203554Y-66400000D01*
X62197339Y-66400000D01*
X62095606Y-66427259D01*
X62004394Y-66479920D01*
X61929920Y-66554394D01*
X61877259Y-66645606D01*
X61850000Y-66747339D01*
X61850000Y-66753553D01*
X61098932Y-66002485D01*
X61098931Y-66002485D01*
X61052616Y-66066233D01*
X60952567Y-66262589D01*
X60884473Y-66472164D01*
X60850000Y-66689818D01*
X60850000Y-66910181D01*
X60884473Y-67127835D01*
X60952567Y-67337410D01*
X61052611Y-67533756D01*
X61098932Y-67597513D01*
X61850000Y-66846445D01*
X61850000Y-66852661D01*
X61877259Y-66954394D01*
X61929920Y-67045606D01*
X62004394Y-67120080D01*
X62095606Y-67172741D01*
X62197339Y-67200000D01*
X62203553Y-67200000D01*
X61452485Y-67951065D01*
X61452485Y-67951066D01*
X61516243Y-67997388D01*
X61712589Y-68097432D01*
X61922164Y-68165526D01*
X62139819Y-68200000D01*
X62360181Y-68200000D01*
X62577835Y-68165526D01*
X62787410Y-68097432D01*
X62983760Y-67997386D01*
X63047513Y-67951066D01*
X63047514Y-67951066D01*
X62296447Y-67200000D01*
X62302661Y-67200000D01*
X62404394Y-67172741D01*
X62495606Y-67120080D01*
X62570080Y-67045606D01*
X62622741Y-66954394D01*
X62650000Y-66852661D01*
X62650000Y-66846448D01*
X63401066Y-67597514D01*
X63401066Y-67597513D01*
X63447386Y-67533760D01*
X63547432Y-67337410D01*
X63615526Y-67127835D01*
X63650000Y-66910181D01*
X63650000Y-66689818D01*
X63615526Y-66472164D01*
X63547432Y-66262589D01*
X63447388Y-66066243D01*
X63401066Y-66002485D01*
X63401065Y-66002485D01*
X62650000Y-66753551D01*
X62650000Y-66747339D01*
X62622741Y-66645606D01*
X62570080Y-66554394D01*
X62495606Y-66479920D01*
X62404394Y-66427259D01*
X62302661Y-66400000D01*
X62296446Y-66400000D01*
X62959628Y-65736818D01*
X63020951Y-65703333D01*
X63047308Y-65700499D01*
X63197872Y-65700499D01*
X63257483Y-65694091D01*
X63392331Y-65643796D01*
X63507546Y-65557546D01*
X63593796Y-65442331D01*
X63644091Y-65307483D01*
X63650500Y-65247873D01*
X63650499Y-63352128D01*
X63644091Y-63292517D01*
X63593796Y-63157669D01*
X63593795Y-63157668D01*
X63593793Y-63157664D01*
X63507547Y-63042455D01*
X63507544Y-63042452D01*
X63392335Y-62956206D01*
X63392328Y-62956202D01*
X63257482Y-62905908D01*
X63257483Y-62905908D01*
X63197883Y-62899501D01*
X63197881Y-62899500D01*
X63197873Y-62899500D01*
X63197864Y-62899500D01*
X61302129Y-62899500D01*
X61302123Y-62899501D01*
X61242516Y-62905908D01*
X61107671Y-62956202D01*
X61107664Y-62956206D01*
X60992455Y-63042452D01*
X60992452Y-63042455D01*
X60906206Y-63157664D01*
X60906202Y-63157671D01*
X60855908Y-63292517D01*
X60850838Y-63339682D01*
X60849501Y-63352123D01*
X60849500Y-63352135D01*
X40500500Y-63352135D01*
X40500500Y-55052135D01*
X60899500Y-55052135D01*
X60899500Y-56947870D01*
X60899501Y-56947876D01*
X60905908Y-57007483D01*
X60956202Y-57142328D01*
X60956206Y-57142335D01*
X61042452Y-57257544D01*
X61042455Y-57257547D01*
X61157664Y-57343793D01*
X61157671Y-57343797D01*
X61292517Y-57394091D01*
X61292516Y-57394091D01*
X61299444Y-57394835D01*
X61352127Y-57400500D01*
X63247872Y-57400499D01*
X63307483Y-57394091D01*
X63442331Y-57343796D01*
X63557546Y-57257546D01*
X63643796Y-57142331D01*
X63694091Y-57007483D01*
X63697070Y-56979778D01*
X63984500Y-56979778D01*
X63984500Y-57200221D01*
X64018985Y-57417952D01*
X64087103Y-57627603D01*
X64087104Y-57627606D01*
X64187187Y-57824025D01*
X64316752Y-58002358D01*
X64316756Y-58002363D01*
X64472640Y-58158247D01*
X64612679Y-58259990D01*
X64655345Y-58315319D01*
X64661324Y-58384933D01*
X64628719Y-58446728D01*
X64612679Y-58460626D01*
X64587485Y-58478930D01*
X64587485Y-58478932D01*
X65255590Y-59147037D01*
X65192007Y-59164075D01*
X65077993Y-59229901D01*
X64984901Y-59322993D01*
X64919075Y-59437007D01*
X64902037Y-59500590D01*
X64233932Y-58832485D01*
X64233931Y-58832485D01*
X64187616Y-58896233D01*
X64087567Y-59092589D01*
X64019473Y-59302164D01*
X63985000Y-59519818D01*
X63985000Y-59740181D01*
X64019473Y-59957835D01*
X64087567Y-60167410D01*
X64187611Y-60363756D01*
X64233932Y-60427513D01*
X64902037Y-59759408D01*
X64919075Y-59822993D01*
X64984901Y-59937007D01*
X65077993Y-60030099D01*
X65192007Y-60095925D01*
X65255590Y-60112962D01*
X64587485Y-60781065D01*
X64587485Y-60781066D01*
X64612680Y-60799371D01*
X64655346Y-60854701D01*
X64661325Y-60924314D01*
X64628720Y-60986110D01*
X64612681Y-61000008D01*
X64472636Y-61101756D01*
X64316756Y-61257636D01*
X64316752Y-61257641D01*
X64187187Y-61435974D01*
X64087104Y-61632393D01*
X64087103Y-61632396D01*
X64018985Y-61842047D01*
X63984500Y-62059778D01*
X63984500Y-62280221D01*
X64018985Y-62497952D01*
X64087103Y-62707603D01*
X64087104Y-62707606D01*
X64155122Y-62841096D01*
X64184881Y-62899501D01*
X64187187Y-62904025D01*
X64316752Y-63082358D01*
X64316756Y-63082363D01*
X64472636Y-63238243D01*
X64472641Y-63238247D01*
X64612254Y-63339682D01*
X64654920Y-63395012D01*
X64660899Y-63464625D01*
X64628293Y-63526420D01*
X64612254Y-63540318D01*
X64472641Y-63641752D01*
X64472636Y-63641756D01*
X64316756Y-63797636D01*
X64316752Y-63797641D01*
X64187187Y-63975974D01*
X64087104Y-64172393D01*
X64087103Y-64172396D01*
X64018985Y-64382047D01*
X63984500Y-64599778D01*
X63984500Y-64820221D01*
X64018985Y-65037952D01*
X64087103Y-65247603D01*
X64087104Y-65247606D01*
X64117614Y-65307483D01*
X64186325Y-65442335D01*
X64187187Y-65444025D01*
X64316752Y-65622358D01*
X64316756Y-65622363D01*
X64472636Y-65778243D01*
X64472641Y-65778247D01*
X64612254Y-65879682D01*
X64654920Y-65935012D01*
X64660899Y-66004625D01*
X64628293Y-66066420D01*
X64612254Y-66080318D01*
X64472641Y-66181752D01*
X64472636Y-66181756D01*
X64316756Y-66337636D01*
X64316752Y-66337641D01*
X64187187Y-66515974D01*
X64087104Y-66712393D01*
X64087103Y-66712396D01*
X64018985Y-66922047D01*
X63984500Y-67139778D01*
X63984500Y-67360221D01*
X64018985Y-67577952D01*
X64087103Y-67787603D01*
X64087104Y-67787606D01*
X64155122Y-67921096D01*
X64170392Y-67951065D01*
X64187187Y-67984025D01*
X64316752Y-68162358D01*
X64316756Y-68162363D01*
X64472636Y-68318243D01*
X64472641Y-68318247D01*
X64628192Y-68431260D01*
X64650978Y-68447815D01*
X64779375Y-68513237D01*
X64847393Y-68547895D01*
X64847396Y-68547896D01*
X64952221Y-68581955D01*
X65057049Y-68616015D01*
X65274778Y-68650500D01*
X65274779Y-68650500D01*
X65495221Y-68650500D01*
X65495222Y-68650500D01*
X65712951Y-68616015D01*
X65922606Y-68547895D01*
X66119022Y-68447815D01*
X66297365Y-68318242D01*
X66453242Y-68162365D01*
X66582815Y-67984022D01*
X66682895Y-67787606D01*
X66751015Y-67577951D01*
X66785500Y-67360222D01*
X66785500Y-67139778D01*
X66751015Y-66922049D01*
X66711360Y-66800001D01*
X66682896Y-66712396D01*
X66682895Y-66712393D01*
X66643460Y-66635000D01*
X66582815Y-66515978D01*
X66565789Y-66492544D01*
X66453247Y-66337641D01*
X66453243Y-66337636D01*
X66297363Y-66181756D01*
X66297358Y-66181752D01*
X66157745Y-66080318D01*
X66115079Y-66024989D01*
X66109100Y-65955375D01*
X66141705Y-65893580D01*
X66157745Y-65879682D01*
X66297358Y-65778247D01*
X66297356Y-65778247D01*
X66297365Y-65778242D01*
X66453242Y-65622365D01*
X66582815Y-65444022D01*
X66682895Y-65247606D01*
X66751015Y-65037951D01*
X66785500Y-64820222D01*
X66785500Y-64599778D01*
X66751015Y-64382049D01*
X66682895Y-64172394D01*
X66682895Y-64172393D01*
X66614221Y-64037616D01*
X66582815Y-63975978D01*
X66521225Y-63891206D01*
X66453247Y-63797641D01*
X66453243Y-63797636D01*
X66297363Y-63641756D01*
X66297358Y-63641752D01*
X66157745Y-63540318D01*
X66115079Y-63484989D01*
X66109100Y-63415375D01*
X66141705Y-63353580D01*
X66157745Y-63339682D01*
X66297358Y-63238247D01*
X66297356Y-63238247D01*
X66297365Y-63238242D01*
X66453242Y-63082365D01*
X66582815Y-62904022D01*
X66682895Y-62707606D01*
X66751015Y-62497951D01*
X66785500Y-62280222D01*
X66785500Y-62059778D01*
X66751015Y-61842049D01*
X66682895Y-61632394D01*
X66682895Y-61632393D01*
X66648237Y-61564375D01*
X66582815Y-61435978D01*
X66566260Y-61413192D01*
X66453247Y-61257641D01*
X66453243Y-61257636D01*
X66297363Y-61101756D01*
X66297358Y-61101752D01*
X66157319Y-61000008D01*
X66114653Y-60944678D01*
X66108674Y-60875065D01*
X66141279Y-60813270D01*
X66157319Y-60799372D01*
X66182513Y-60781066D01*
X66182514Y-60781066D01*
X65514409Y-60112962D01*
X65577993Y-60095925D01*
X65692007Y-60030099D01*
X65785099Y-59937007D01*
X65850925Y-59822993D01*
X65867962Y-59759409D01*
X66536066Y-60427514D01*
X66536066Y-60427513D01*
X66582386Y-60363760D01*
X66682432Y-60167410D01*
X66750526Y-59957835D01*
X66785000Y-59740181D01*
X66785000Y-59519818D01*
X66750526Y-59302164D01*
X66682432Y-59092589D01*
X66582388Y-58896243D01*
X66536066Y-58832485D01*
X66536065Y-58832485D01*
X65867962Y-59500589D01*
X65850925Y-59437007D01*
X65785099Y-59322993D01*
X65692007Y-59229901D01*
X65577993Y-59164075D01*
X65514407Y-59147037D01*
X66182513Y-58478932D01*
X66157319Y-58460628D01*
X66114653Y-58405298D01*
X66108674Y-58335685D01*
X66141279Y-58273889D01*
X66157313Y-58259994D01*
X66297365Y-58158242D01*
X66453242Y-58002365D01*
X66582815Y-57824022D01*
X66682895Y-57627606D01*
X66751015Y-57417951D01*
X66785500Y-57200222D01*
X66785500Y-56979778D01*
X66751015Y-56762049D01*
X66682895Y-56552394D01*
X66682895Y-56552393D01*
X66648237Y-56484375D01*
X66582815Y-56355978D01*
X66566260Y-56333192D01*
X66453247Y-56177641D01*
X66453243Y-56177636D01*
X66297363Y-56021756D01*
X66297358Y-56021752D01*
X66119025Y-55892187D01*
X66119024Y-55892186D01*
X66119022Y-55892185D01*
X66056096Y-55860122D01*
X65922606Y-55792104D01*
X65922603Y-55792103D01*
X65712952Y-55723985D01*
X65604086Y-55706742D01*
X65495222Y-55689500D01*
X65274778Y-55689500D01*
X65202201Y-55700995D01*
X65057047Y-55723985D01*
X64847396Y-55792103D01*
X64847393Y-55792104D01*
X64650974Y-55892187D01*
X64472641Y-56021752D01*
X64472636Y-56021756D01*
X64316756Y-56177636D01*
X64316752Y-56177641D01*
X64187187Y-56355974D01*
X64087104Y-56552393D01*
X64087103Y-56552396D01*
X64018985Y-56762047D01*
X63984500Y-56979778D01*
X63697070Y-56979778D01*
X63700500Y-56947873D01*
X63700499Y-55052128D01*
X63694091Y-54992517D01*
X63643796Y-54857669D01*
X63643795Y-54857668D01*
X63643793Y-54857664D01*
X63557547Y-54742455D01*
X63557544Y-54742452D01*
X63442335Y-54656206D01*
X63442328Y-54656202D01*
X63307482Y-54605908D01*
X63307483Y-54605908D01*
X63247883Y-54599501D01*
X63247881Y-54599500D01*
X63247873Y-54599500D01*
X63247865Y-54599500D01*
X63097308Y-54599500D01*
X63030269Y-54579815D01*
X63009627Y-54563181D01*
X62346448Y-53900000D01*
X62352661Y-53900000D01*
X62454394Y-53872741D01*
X62545606Y-53820080D01*
X62620080Y-53745606D01*
X62672741Y-53654394D01*
X62700000Y-53552661D01*
X62700000Y-53546448D01*
X63451066Y-54297514D01*
X63451066Y-54297513D01*
X63497386Y-54233760D01*
X63597432Y-54037410D01*
X63665526Y-53827835D01*
X63700000Y-53610181D01*
X63700000Y-53389818D01*
X63665526Y-53172164D01*
X63597432Y-52962589D01*
X63497388Y-52766243D01*
X63451066Y-52702485D01*
X63451065Y-52702485D01*
X62700000Y-53453551D01*
X62700000Y-53447339D01*
X62672741Y-53345606D01*
X62620080Y-53254394D01*
X62545606Y-53179920D01*
X62454394Y-53127259D01*
X62352661Y-53100000D01*
X62346445Y-53100000D01*
X63097513Y-52348932D01*
X63033756Y-52302611D01*
X62837410Y-52202567D01*
X62627835Y-52134473D01*
X62410181Y-52100000D01*
X62189819Y-52100000D01*
X61972164Y-52134473D01*
X61762589Y-52202567D01*
X61566233Y-52302616D01*
X61502485Y-52348931D01*
X61502485Y-52348932D01*
X62253553Y-53100000D01*
X62247339Y-53100000D01*
X62145606Y-53127259D01*
X62054394Y-53179920D01*
X61979920Y-53254394D01*
X61927259Y-53345606D01*
X61900000Y-53447339D01*
X61900000Y-53453553D01*
X61148932Y-52702485D01*
X61148931Y-52702485D01*
X61102616Y-52766233D01*
X61002567Y-52962589D01*
X60934473Y-53172164D01*
X60900000Y-53389818D01*
X60900000Y-53610181D01*
X60934473Y-53827835D01*
X61002567Y-54037410D01*
X61102611Y-54233756D01*
X61148932Y-54297513D01*
X61900000Y-53546445D01*
X61900000Y-53552661D01*
X61927259Y-53654394D01*
X61979920Y-53745606D01*
X62054394Y-53820080D01*
X62145606Y-53872741D01*
X62247339Y-53900000D01*
X62253553Y-53900000D01*
X61590370Y-54563181D01*
X61529047Y-54596666D01*
X61502690Y-54599500D01*
X61352130Y-54599500D01*
X61352123Y-54599501D01*
X61292516Y-54605908D01*
X61157671Y-54656202D01*
X61157664Y-54656206D01*
X61042455Y-54742452D01*
X61042452Y-54742455D01*
X60956206Y-54857664D01*
X60956202Y-54857671D01*
X60905908Y-54992517D01*
X60899501Y-55052116D01*
X60899501Y-55052123D01*
X60899500Y-55052135D01*
X40500500Y-55052135D01*
X40500500Y-49889778D01*
X40979500Y-49889778D01*
X40979500Y-50110221D01*
X41013985Y-50327952D01*
X41082103Y-50537603D01*
X41082104Y-50537606D01*
X41150122Y-50671096D01*
X41177129Y-50724100D01*
X41182187Y-50734025D01*
X41311752Y-50912358D01*
X41311756Y-50912363D01*
X41467636Y-51068243D01*
X41467641Y-51068247D01*
X41623192Y-51181260D01*
X41645978Y-51197815D01*
X41774375Y-51263237D01*
X41842393Y-51297895D01*
X41842396Y-51297896D01*
X41947221Y-51331955D01*
X42052049Y-51366015D01*
X42269778Y-51400500D01*
X42269779Y-51400500D01*
X42490221Y-51400500D01*
X42490222Y-51400500D01*
X42707951Y-51366015D01*
X42917606Y-51297895D01*
X43114022Y-51197815D01*
X43292365Y-51068242D01*
X43448242Y-50912365D01*
X43458804Y-50897826D01*
X43549682Y-50772745D01*
X43605011Y-50730079D01*
X43674625Y-50724100D01*
X43736420Y-50756705D01*
X43750318Y-50772745D01*
X43851752Y-50912358D01*
X43851756Y-50912363D01*
X44007636Y-51068243D01*
X44007641Y-51068247D01*
X44163192Y-51181260D01*
X44185978Y-51197815D01*
X44314375Y-51263237D01*
X44382393Y-51297895D01*
X44382396Y-51297896D01*
X44487221Y-51331955D01*
X44592049Y-51366015D01*
X44809778Y-51400500D01*
X44809779Y-51400500D01*
X45030221Y-51400500D01*
X45030222Y-51400500D01*
X45247951Y-51366015D01*
X45457606Y-51297895D01*
X45654022Y-51197815D01*
X45832365Y-51068242D01*
X45988242Y-50912365D01*
X45998804Y-50897826D01*
X46089682Y-50772745D01*
X46145011Y-50730079D01*
X46214625Y-50724100D01*
X46276420Y-50756705D01*
X46290318Y-50772745D01*
X46391752Y-50912358D01*
X46391756Y-50912363D01*
X46547636Y-51068243D01*
X46547641Y-51068247D01*
X46703192Y-51181260D01*
X46725978Y-51197815D01*
X46854375Y-51263237D01*
X46922393Y-51297895D01*
X46922396Y-51297896D01*
X47027221Y-51331955D01*
X47132049Y-51366015D01*
X47349778Y-51400500D01*
X47349779Y-51400500D01*
X47570221Y-51400500D01*
X47570222Y-51400500D01*
X47787951Y-51366015D01*
X47997606Y-51297895D01*
X48194022Y-51197815D01*
X48372365Y-51068242D01*
X48528242Y-50912365D01*
X48538804Y-50897826D01*
X48629682Y-50772745D01*
X48685011Y-50730079D01*
X48754625Y-50724100D01*
X48816420Y-50756705D01*
X48830318Y-50772745D01*
X48931752Y-50912358D01*
X48931756Y-50912363D01*
X49087636Y-51068243D01*
X49087641Y-51068247D01*
X49243192Y-51181260D01*
X49265978Y-51197815D01*
X49394375Y-51263237D01*
X49462393Y-51297895D01*
X49462396Y-51297896D01*
X49567221Y-51331955D01*
X49672049Y-51366015D01*
X49889778Y-51400500D01*
X49889779Y-51400500D01*
X50110221Y-51400500D01*
X50110222Y-51400500D01*
X50327951Y-51366015D01*
X50537606Y-51297895D01*
X50734022Y-51197815D01*
X50912365Y-51068242D01*
X51068242Y-50912365D01*
X51078804Y-50897826D01*
X51169682Y-50772745D01*
X51225011Y-50730079D01*
X51294625Y-50724100D01*
X51356420Y-50756705D01*
X51370318Y-50772745D01*
X51471752Y-50912358D01*
X51471756Y-50912363D01*
X51627636Y-51068243D01*
X51627641Y-51068247D01*
X51783192Y-51181260D01*
X51805978Y-51197815D01*
X51934375Y-51263237D01*
X52002393Y-51297895D01*
X52002396Y-51297896D01*
X52107221Y-51331955D01*
X52212049Y-51366015D01*
X52429778Y-51400500D01*
X52429779Y-51400500D01*
X52650221Y-51400500D01*
X52650222Y-51400500D01*
X52867951Y-51366015D01*
X53077606Y-51297895D01*
X53274022Y-51197815D01*
X53452365Y-51068242D01*
X53608242Y-50912365D01*
X53618804Y-50897826D01*
X53709682Y-50772745D01*
X53765011Y-50730079D01*
X53834625Y-50724100D01*
X53896420Y-50756705D01*
X53910318Y-50772745D01*
X54011752Y-50912358D01*
X54011756Y-50912363D01*
X54167636Y-51068243D01*
X54167641Y-51068247D01*
X54323192Y-51181260D01*
X54345978Y-51197815D01*
X54474375Y-51263237D01*
X54542393Y-51297895D01*
X54542396Y-51297896D01*
X54647221Y-51331955D01*
X54752049Y-51366015D01*
X54969778Y-51400500D01*
X54969779Y-51400500D01*
X55190221Y-51400500D01*
X55190222Y-51400500D01*
X55407951Y-51366015D01*
X55617606Y-51297895D01*
X55814022Y-51197815D01*
X55992365Y-51068242D01*
X56148242Y-50912365D01*
X56158804Y-50897826D01*
X56249682Y-50772745D01*
X56305011Y-50730079D01*
X56374625Y-50724100D01*
X56436420Y-50756705D01*
X56450318Y-50772745D01*
X56551752Y-50912358D01*
X56551756Y-50912363D01*
X56707636Y-51068243D01*
X56707641Y-51068247D01*
X56863192Y-51181260D01*
X56885978Y-51197815D01*
X57014375Y-51263237D01*
X57082393Y-51297895D01*
X57082396Y-51297896D01*
X57187221Y-51331955D01*
X57292049Y-51366015D01*
X57509778Y-51400500D01*
X57509779Y-51400500D01*
X57730221Y-51400500D01*
X57730222Y-51400500D01*
X57947951Y-51366015D01*
X58157606Y-51297895D01*
X58354022Y-51197815D01*
X58532365Y-51068242D01*
X58688242Y-50912365D01*
X58817815Y-50734022D01*
X58917895Y-50537606D01*
X58986015Y-50327951D01*
X59020500Y-50110222D01*
X59020500Y-49889778D01*
X58986015Y-49672049D01*
X58952491Y-49568872D01*
X78799500Y-49568872D01*
X78799500Y-49831127D01*
X78826123Y-50033339D01*
X78833730Y-50091116D01*
X78897190Y-50327952D01*
X78901602Y-50344418D01*
X78901605Y-50344428D01*
X79001953Y-50586690D01*
X79001958Y-50586700D01*
X79133075Y-50813803D01*
X79292718Y-51021851D01*
X79292726Y-51021860D01*
X79478140Y-51207274D01*
X79478148Y-51207281D01*
X79686196Y-51366924D01*
X79913299Y-51498041D01*
X79913309Y-51498046D01*
X80155571Y-51598394D01*
X80155581Y-51598398D01*
X80408884Y-51666270D01*
X80668880Y-51700500D01*
X80668887Y-51700500D01*
X80931113Y-51700500D01*
X80931120Y-51700500D01*
X81191116Y-51666270D01*
X81444419Y-51598398D01*
X81686697Y-51498043D01*
X81913803Y-51366924D01*
X82121851Y-51207282D01*
X82121855Y-51207277D01*
X82121860Y-51207274D01*
X82307274Y-51021860D01*
X82307277Y-51021855D01*
X82307282Y-51021851D01*
X82466924Y-50813803D01*
X82598043Y-50586697D01*
X82698398Y-50344419D01*
X82766270Y-50091116D01*
X82800500Y-49831120D01*
X82800500Y-49568880D01*
X82766270Y-49308884D01*
X82698398Y-49055581D01*
X82647108Y-48931756D01*
X82598046Y-48813309D01*
X82598041Y-48813299D01*
X82466924Y-48586196D01*
X82307281Y-48378148D01*
X82307274Y-48378140D01*
X82121860Y-48192726D01*
X82121851Y-48192718D01*
X81913803Y-48033075D01*
X81686700Y-47901958D01*
X81686690Y-47901953D01*
X81444428Y-47801605D01*
X81444421Y-47801603D01*
X81444419Y-47801602D01*
X81191116Y-47733730D01*
X81133339Y-47726123D01*
X80931127Y-47699500D01*
X80931120Y-47699500D01*
X80668880Y-47699500D01*
X80668872Y-47699500D01*
X80437772Y-47729926D01*
X80408884Y-47733730D01*
X80330496Y-47754734D01*
X80155581Y-47801602D01*
X80155571Y-47801605D01*
X79913309Y-47901953D01*
X79913299Y-47901958D01*
X79686196Y-48033075D01*
X79478148Y-48192718D01*
X79292718Y-48378148D01*
X79133075Y-48586196D01*
X79001958Y-48813299D01*
X79001953Y-48813309D01*
X78901605Y-49055571D01*
X78901602Y-49055581D01*
X78844171Y-49269920D01*
X78833730Y-49308885D01*
X78799500Y-49568872D01*
X58952491Y-49568872D01*
X58917895Y-49462394D01*
X58917895Y-49462393D01*
X58839677Y-49308885D01*
X58817815Y-49265978D01*
X58789681Y-49227254D01*
X58688247Y-49087641D01*
X58688243Y-49087636D01*
X58532363Y-48931756D01*
X58532358Y-48931752D01*
X58354025Y-48802187D01*
X58354024Y-48802186D01*
X58354022Y-48802185D01*
X58291096Y-48770122D01*
X58157606Y-48702104D01*
X58157603Y-48702103D01*
X57947952Y-48633985D01*
X57839086Y-48616742D01*
X57730222Y-48599500D01*
X57509778Y-48599500D01*
X57437201Y-48610995D01*
X57292047Y-48633985D01*
X57082396Y-48702103D01*
X57082393Y-48702104D01*
X56885974Y-48802187D01*
X56707641Y-48931752D01*
X56707636Y-48931756D01*
X56551756Y-49087636D01*
X56551752Y-49087641D01*
X56450318Y-49227254D01*
X56394988Y-49269920D01*
X56325375Y-49275899D01*
X56263580Y-49243293D01*
X56249682Y-49227254D01*
X56148247Y-49087641D01*
X56148243Y-49087636D01*
X55992363Y-48931756D01*
X55992358Y-48931752D01*
X55814025Y-48802187D01*
X55814024Y-48802186D01*
X55814022Y-48802185D01*
X55751096Y-48770122D01*
X55617606Y-48702104D01*
X55617603Y-48702103D01*
X55407952Y-48633985D01*
X55299086Y-48616742D01*
X55190222Y-48599500D01*
X54969778Y-48599500D01*
X54897201Y-48610995D01*
X54752047Y-48633985D01*
X54542396Y-48702103D01*
X54542393Y-48702104D01*
X54345974Y-48802187D01*
X54167641Y-48931752D01*
X54167636Y-48931756D01*
X54011756Y-49087636D01*
X54011752Y-49087641D01*
X53910318Y-49227254D01*
X53854988Y-49269920D01*
X53785375Y-49275899D01*
X53723580Y-49243293D01*
X53709682Y-49227254D01*
X53608247Y-49087641D01*
X53608243Y-49087636D01*
X53452363Y-48931756D01*
X53452358Y-48931752D01*
X53274025Y-48802187D01*
X53274024Y-48802186D01*
X53274022Y-48802185D01*
X53211096Y-48770122D01*
X53077606Y-48702104D01*
X53077603Y-48702103D01*
X52867952Y-48633985D01*
X52759086Y-48616742D01*
X52650222Y-48599500D01*
X52429778Y-48599500D01*
X52357201Y-48610995D01*
X52212047Y-48633985D01*
X52002396Y-48702103D01*
X52002393Y-48702104D01*
X51805974Y-48802187D01*
X51627641Y-48931752D01*
X51627636Y-48931756D01*
X51471756Y-49087636D01*
X51471752Y-49087641D01*
X51370318Y-49227254D01*
X51314988Y-49269920D01*
X51245375Y-49275899D01*
X51183580Y-49243293D01*
X51169682Y-49227254D01*
X51068247Y-49087641D01*
X51068243Y-49087636D01*
X50912363Y-48931756D01*
X50912358Y-48931752D01*
X50734025Y-48802187D01*
X50734024Y-48802186D01*
X50734022Y-48802185D01*
X50671096Y-48770122D01*
X50537606Y-48702104D01*
X50537603Y-48702103D01*
X50327952Y-48633985D01*
X50219086Y-48616742D01*
X50110222Y-48599500D01*
X49889778Y-48599500D01*
X49817201Y-48610995D01*
X49672047Y-48633985D01*
X49462396Y-48702103D01*
X49462393Y-48702104D01*
X49265974Y-48802187D01*
X49087641Y-48931752D01*
X49087636Y-48931756D01*
X48931756Y-49087636D01*
X48931752Y-49087641D01*
X48830318Y-49227254D01*
X48774988Y-49269920D01*
X48705375Y-49275899D01*
X48643580Y-49243293D01*
X48629682Y-49227254D01*
X48528247Y-49087641D01*
X48528243Y-49087636D01*
X48372363Y-48931756D01*
X48372358Y-48931752D01*
X48194025Y-48802187D01*
X48194024Y-48802186D01*
X48194022Y-48802185D01*
X48131096Y-48770122D01*
X47997606Y-48702104D01*
X47997603Y-48702103D01*
X47787952Y-48633985D01*
X47679086Y-48616742D01*
X47570222Y-48599500D01*
X47349778Y-48599500D01*
X47277201Y-48610995D01*
X47132047Y-48633985D01*
X46922396Y-48702103D01*
X46922393Y-48702104D01*
X46725974Y-48802187D01*
X46547641Y-48931752D01*
X46547636Y-48931756D01*
X46391756Y-49087636D01*
X46391752Y-49087641D01*
X46290318Y-49227254D01*
X46234988Y-49269920D01*
X46165375Y-49275899D01*
X46103580Y-49243293D01*
X46089682Y-49227254D01*
X45988247Y-49087641D01*
X45988243Y-49087636D01*
X45832363Y-48931756D01*
X45832358Y-48931752D01*
X45654025Y-48802187D01*
X45654024Y-48802186D01*
X45654022Y-48802185D01*
X45591096Y-48770122D01*
X45457606Y-48702104D01*
X45457603Y-48702103D01*
X45247952Y-48633985D01*
X45139086Y-48616742D01*
X45030222Y-48599500D01*
X44809778Y-48599500D01*
X44737201Y-48610995D01*
X44592047Y-48633985D01*
X44382396Y-48702103D01*
X44382393Y-48702104D01*
X44185974Y-48802187D01*
X44007641Y-48931752D01*
X44007636Y-48931756D01*
X43851756Y-49087636D01*
X43851752Y-49087641D01*
X43750318Y-49227254D01*
X43694988Y-49269920D01*
X43625375Y-49275899D01*
X43563580Y-49243293D01*
X43549682Y-49227254D01*
X43448247Y-49087641D01*
X43448243Y-49087636D01*
X43292363Y-48931756D01*
X43292358Y-48931752D01*
X43114025Y-48802187D01*
X43114024Y-48802186D01*
X43114022Y-48802185D01*
X43051096Y-48770122D01*
X42917606Y-48702104D01*
X42917603Y-48702103D01*
X42707952Y-48633985D01*
X42599086Y-48616742D01*
X42490222Y-48599500D01*
X42269778Y-48599500D01*
X42197201Y-48610995D01*
X42052047Y-48633985D01*
X41842396Y-48702103D01*
X41842393Y-48702104D01*
X41645974Y-48802187D01*
X41467641Y-48931752D01*
X41467636Y-48931756D01*
X41311756Y-49087636D01*
X41311752Y-49087641D01*
X41182187Y-49265974D01*
X41082104Y-49462393D01*
X41082103Y-49462396D01*
X41013985Y-49672047D01*
X40979500Y-49889778D01*
X40500500Y-49889778D01*
X40500500Y-48504427D01*
X40500816Y-48495581D01*
X40509215Y-48378148D01*
X40515130Y-48295436D01*
X40517646Y-48277938D01*
X40559356Y-48086200D01*
X40564335Y-48069242D01*
X40632911Y-47885382D01*
X40640251Y-47869310D01*
X40734294Y-47697083D01*
X40743850Y-47682214D01*
X40861443Y-47525128D01*
X40873017Y-47511771D01*
X41011771Y-47373017D01*
X41025128Y-47361443D01*
X41182214Y-47243850D01*
X41197083Y-47234294D01*
X41369310Y-47140251D01*
X41385382Y-47132911D01*
X41569242Y-47064335D01*
X41586200Y-47059356D01*
X41777938Y-47017646D01*
X41795436Y-47015130D01*
X41995582Y-47000816D01*
X42004428Y-47000500D01*
X42065892Y-47000500D01*
X81934108Y-47000500D01*
X81995572Y-47000500D01*
X82004418Y-47000816D01*
G37*
%TD.AperFunction*%
%TD*%
M02*
